<svg xmlns="http://www.w3.org/2000/svg" xmlns:xlink="http://www.w3.org/1999/xlink" viewBox="0 0 568.41 56.16"><defs><style>.cls-1{fill:#353535;}.cls-2{fill:#fff;}.cls-3{fill:#7a7a7d;}.cls-4{fill:#197cbd;}.cls-5{fill:#1e1e1e;}.cls-6{fill:url(#linear-gradient);}.cls-7{fill:url(#linear-gradient-2);}.cls-8{fill:url(#linear-gradient-3);}.cls-9{fill:url(#linear-gradient-4);}.cls-10{fill:url(#linear-gradient-5);}.cls-11{fill:url(#linear-gradient-6);}.cls-12{fill:url(#linear-gradient-7);}.cls-13{fill:url(#linear-gradient-8);}.cls-14{fill:url(#linear-gradient-9);}.cls-15{fill:url(#linear-gradient-10);}.cls-16{fill:url(#linear-gradient-11);}.cls-17{fill:url(#linear-gradient-12);}.cls-18,.cls-20,.cls-33,.cls-35{opacity:0.2;}.cls-18{fill:url(#linear-gradient-13);}.cls-19{fill:url(#linear-gradient-14);}.cls-20{fill:url(#linear-gradient-15);}.cls-21{fill:url(#linear-gradient-16);}.cls-22{fill:url(#linear-gradient-17);}.cls-23{fill:url(#linear-gradient-18);}.cls-24{fill:url(#linear-gradient-19);}.cls-25{fill:url(#linear-gradient-20);}.cls-26{fill:url(#linear-gradient-21);}.cls-27{fill:url(#linear-gradient-22);}.cls-28{fill:url(#linear-gradient-23);}.cls-29{fill:url(#linear-gradient-24);}.cls-30{fill:url(#linear-gradient-25);}.cls-31{fill:url(#linear-gradient-26);}.cls-32{fill:url(#linear-gradient-27);}.cls-33{fill:url(#linear-gradient-28);}.cls-34{fill:url(#linear-gradient-29);}.cls-35{fill:url(#linear-gradient-30);}.cls-36{fill:#3d3d3d;}.cls-37{fill:#202020;stroke:#8d8d8e;}.cls-37,.cls-38{stroke-miterlimit:10;}.cls-38{fill:none;stroke:#fff;}.cls-39{fill:#8d8d8e;}.cls-40{fill:url(#linear-gradient-31);}.cls-41{fill:url(#linear-gradient-32);}</style><linearGradient id="linear-gradient" x1="194.23" y1="39.73" x2="194.23" y2="24.52" gradientTransform="translate(95.04 0)" gradientUnits="userSpaceOnUse"><stop offset="0" stop-color="#aaa"/><stop offset="0.72" stop-color="#aaa"/><stop offset="1" stop-color="#7a7a7a"/></linearGradient><linearGradient id="linear-gradient-2" x1="189.84" y1="24.38" x2="198.62" y2="24.38" xlink:href="#linear-gradient"/><linearGradient id="linear-gradient-3" x1="189.26" y1="38.38" x2="189.26" y2="33.3" gradientTransform="translate(95.04 0)" gradientUnits="userSpaceOnUse"><stop offset="0" stop-color="#946014"/><stop offset="1" stop-color="#1d1d1b"/></linearGradient><linearGradient id="linear-gradient-4" x1="190.68" y1="38.38" x2="190.68" y2="33.3" xlink:href="#linear-gradient-3"/><linearGradient id="linear-gradient-5" x1="192.1" y1="38.38" x2="192.1" y2="33.3" xlink:href="#linear-gradient-3"/><linearGradient id="linear-gradient-6" x1="193.52" y1="38.38" x2="193.52" y2="33.3" xlink:href="#linear-gradient-3"/><linearGradient id="linear-gradient-7" x1="194.94" y1="38.38" x2="194.94" y2="33.3" xlink:href="#linear-gradient-3"/><linearGradient id="linear-gradient-8" x1="196.36" y1="38.38" x2="196.36" y2="33.3" xlink:href="#linear-gradient-3"/><linearGradient id="linear-gradient-9" x1="197.78" y1="38.38" x2="197.78" y2="33.3" xlink:href="#linear-gradient-3"/><linearGradient id="linear-gradient-10" x1="199.2" y1="38.38" x2="199.2" y2="33.3" xlink:href="#linear-gradient-3"/><linearGradient id="linear-gradient-11" x1="194.23" y1="31.52" x2="194.23" y2="29.6" gradientTransform="translate(95.04 0)" gradientUnits="userSpaceOnUse"><stop offset="0"/><stop offset="1" stop-color="#090909" stop-opacity="0"/></linearGradient><linearGradient id="linear-gradient-12" x1="187.15" y1="27.34" x2="187.15" y2="25.55" gradientTransform="translate(95.04 0)" gradientUnits="userSpaceOnUse"><stop offset="0" stop-color="#006937"/><stop offset="1" stop-color="#004c2e"/></linearGradient><linearGradient id="linear-gradient-13" x1="187.15" y1="26.42" x2="187.15" y2="25.55" gradientTransform="translate(95.04 0)" gradientUnits="userSpaceOnUse"><stop offset="0" stop-color="#fff"/><stop offset="0.01" stop-color="#fff"/><stop offset="1" stop-color="#fff" stop-opacity="0"/></linearGradient><linearGradient id="linear-gradient-14" x1="201.79" y1="27.34" x2="201.79" y2="25.55" gradientTransform="translate(95.04 0)" gradientUnits="userSpaceOnUse"><stop offset="0" stop-color="#bf910a"/><stop offset="1" stop-color="#a86212"/></linearGradient><linearGradient id="linear-gradient-15" x1="201.79" y1="26.42" x2="201.79" y2="25.55" xlink:href="#linear-gradient-13"/><linearGradient id="linear-gradient-16" x1="227.84" y1="39.73" x2="227.84" y2="24.52" xlink:href="#linear-gradient"/><linearGradient id="linear-gradient-17" x1="223.45" y1="24.38" x2="232.23" y2="24.38" xlink:href="#linear-gradient"/><linearGradient id="linear-gradient-18" x1="222.87" y1="38.38" x2="222.87" y2="33.3" xlink:href="#linear-gradient-3"/><linearGradient id="linear-gradient-19" x1="224.29" y1="38.38" x2="224.29" y2="33.3" xlink:href="#linear-gradient-3"/><linearGradient id="linear-gradient-20" x1="225.71" y1="38.38" x2="225.71" y2="33.3" xlink:href="#linear-gradient-3"/><linearGradient id="linear-gradient-21" x1="227.13" y1="38.38" x2="227.13" y2="33.3" xlink:href="#linear-gradient-3"/><linearGradient id="linear-gradient-22" x1="228.55" y1="38.38" x2="228.55" y2="33.3" xlink:href="#linear-gradient-3"/><linearGradient id="linear-gradient-23" x1="229.96" y1="38.38" x2="229.96" y2="33.3" xlink:href="#linear-gradient-3"/><linearGradient id="linear-gradient-24" x1="231.38" y1="38.38" x2="231.38" y2="33.3" xlink:href="#linear-gradient-3"/><linearGradient id="linear-gradient-25" x1="232.8" y1="38.38" x2="232.8" y2="33.3" xlink:href="#linear-gradient-3"/><linearGradient id="linear-gradient-26" x1="227.84" y1="31.52" x2="227.84" y2="29.6" xlink:href="#linear-gradient-11"/><linearGradient id="linear-gradient-27" x1="220.75" y1="27.34" x2="220.75" y2="25.55" xlink:href="#linear-gradient-12"/><linearGradient id="linear-gradient-28" x1="220.75" y1="26.42" x2="220.75" y2="25.55" xlink:href="#linear-gradient-13"/><linearGradient id="linear-gradient-29" x1="235.4" y1="27.34" x2="235.4" y2="25.55" xlink:href="#linear-gradient-14"/><linearGradient id="linear-gradient-30" x1="235.4" y1="26.42" x2="235.4" y2="25.55" xlink:href="#linear-gradient-13"/><linearGradient id="linear-gradient-31" x1="187.55" y1="38.84" x2="187.55" y2="35.41" gradientUnits="userSpaceOnUse"><stop offset="0.01" stop-color="#1a3e1e"/><stop offset="1" stop-color="#089439"/></linearGradient><linearGradient id="linear-gradient-32" x1="203.2" y1="38.84" x2="203.2" y2="35.41" xlink:href="#linear-gradient-31"/></defs><g id="Layer_2" data-name="Layer 2"><g id="Layer_1-2" data-name="Layer 1"><rect width="568.41" height="56.16"/><rect class="cls-1" x="10.72" y="5.71" width="546.96" height="44.74" rx="2.52"/><path class="cls-2" d="M120.9,37.87l-.64-.81c-2.21-2.72-4.41-5.44-6.64-8.14-.31-.38-.34-.59,0-1,1.51-1.79,3-3.6,4.44-5.41,1-1.16,1.9-2.34,2.94-3.64-1.35,0-2.49,0-3.63,0a1.05,1.05,0,0,0-.9.47c-1.58,2-3.21,3.94-4.8,5.93-.41.52-.64.5-1,0-1.54-2-3.12-3.87-4.7-5.78-.18-.22-.31-.57-.65-.57-1.27,0-2.54,0-4,0,2.53,3.08,4.9,6,7.3,8.89a.82.82,0,0,1,0,1.27c-2.24,2.69-4.44,5.42-6.64,8.14-.13.15-.4.28-.31.5s.43.15.64.15c.85,0,1.69,0,2.53,0a1.32,1.32,0,0,0,1.2-.6c1.49-1.87,3-3.7,4.52-5.58.52-.66.77-.61,1.28.05,1.49,1.91,3.06,3.76,4.61,5.62.18.21.28.52.68.51C118.29,37.85,119.51,37.87,120.9,37.87Zm-51-13c.88,0,1.76-.06,2.62,0s1.06-.2,1.2-1a2.82,2.82,0,0,1,4.57-1.76,2.55,2.55,0,0,1,.79,2.34c-.37,1.31-1.21,1.9-3.06,1.92-.72,0-.89.22-.88.91,0,1.82,0,1.82,1.82,2a2.6,2.6,0,0,1,2.5,2,3,3,0,0,1-1.21,3.16,3.22,3.22,0,0,1-5-2.42c-.08-.73-.33-.9-1-.85s-1.5,0-2.26,0c-.35,0-.55.06-.54.49a5.92,5.92,0,0,0,2.92,5.45,8,8,0,0,0,7.84.2,5.56,5.56,0,0,0,3.33-5,4.3,4.3,0,0,0-3.16-4.66,2.81,2.81,0,0,1,.33-.2c2.23-.75,2.8-4.5,1.31-6.43a7.22,7.22,0,0,0-8.22-2.09C71.18,20,70.06,22.09,69.92,24.88Zm31-1.31a15.15,15.15,0,0,1,0-2.06,1.61,1.61,0,0,0-1.13-1.86,10.53,10.53,0,0,0-11.53,1,9,9,0,0,0-3.6,10,9.36,9.36,0,0,0,5.74,6.5,10.58,10.58,0,0,0,9.82-.55c.26-.15.66-.25.67-.67,0-.94,0-1.87,0-2.92-4.62,4-9.23,2.86-11.87.1A7,7,0,0,1,88.49,24a7.58,7.58,0,0,1,4.59-3C96,20.45,98.53,21.47,100.88,23.57Zm.08,8.57,2.29-2.71c1-1.17,1-1.17,0-2.33-.08-.09-.12-.22-.21-.3A16.44,16.44,0,0,0,101,24.72Z"/><path class="cls-3" d="M120.9,37.87c-1.39,0-2.61,0-3.83,0-.4,0-.5-.3-.68-.51-1.55-1.86-3.12-3.71-4.61-5.62-.51-.66-.76-.71-1.28-.05-1.48,1.88-3,3.71-4.52,5.58a1.32,1.32,0,0,1-1.2.6c-.84,0-1.68,0-2.53,0-.21,0-.52.14-.64-.15s.18-.35.31-.5c2.2-2.72,4.4-5.45,6.64-8.14a.82.82,0,0,0,0-1.27c-2.4-2.89-4.77-5.81-7.3-8.89,1.46,0,2.73,0,4,0,.34,0,.47.35.65.57,1.58,1.91,3.16,3.82,4.7,5.78.41.52.64.54,1,0,1.59-2,3.22-3.94,4.8-5.93a1.05,1.05,0,0,1,.9-.47c1.14,0,2.28,0,3.63,0-1,1.3-2,2.48-2.94,3.64-1.47,1.81-2.93,3.62-4.44,5.41-.33.38-.3.59,0,1,2.23,2.7,4.43,5.42,6.64,8.14Z"/><path class="cls-4" d="M69.92,24.88c.14-2.79,1.26-4.89,3.87-6A7.22,7.22,0,0,1,82,21c1.49,1.93.92,5.68-1.31,6.43a2.81,2.81,0,0,0-.33.2,4.3,4.3,0,0,1,3.16,4.66,5.56,5.56,0,0,1-3.33,5,8,8,0,0,1-7.84-.2,5.92,5.92,0,0,1-2.92-5.45c0-.43.19-.5.54-.49.76,0,1.51,0,2.26,0s.91.12,1,.85a3.22,3.22,0,0,0,5,2.42,3,3,0,0,0,1.21-3.16,2.6,2.6,0,0,0-2.5-2c-1.81-.14-1.78-.14-1.82-2,0-.69.16-.9.88-.91,1.85,0,2.69-.61,3.06-1.92a2.55,2.55,0,0,0-.79-2.34,2.82,2.82,0,0,0-4.57,1.76c-.14.77-.42,1-1.2,1S70.8,24.88,69.92,24.88Z"/><path class="cls-3" d="M100.88,23.57c-2.35-2.1-4.84-3.12-7.8-2.51a7.58,7.58,0,0,0-4.59,3A7,7,0,0,0,89,33.14c2.64,2.76,7.25,3.91,11.87-.1,0,1.05,0,2,0,2.92,0,.42-.41.52-.67.67a10.58,10.58,0,0,1-9.82.55,9.36,9.36,0,0,1-5.74-6.5,9,9,0,0,1,3.6-10,10.53,10.53,0,0,1,11.53-1,1.61,1.61,0,0,1,1.13,1.86A15.15,15.15,0,0,0,100.88,23.57Z"/><path class="cls-4" d="M101,32.14V24.72a16.44,16.44,0,0,1,2.09,2.08c.09.08.13.21.21.3.95,1.16,1,1.16,0,2.33Z"/><rect class="cls-5" x="280.08" y="24.52" width="19.43" height="14.12"/><polygon class="cls-6" points="292.49 24.52 292.49 25.87 294.23 25.87 294.23 28.15 298.4 28.15 298.4 38.38 294.23 38.38 284.31 38.38 280.14 38.38 280.14 28.15 284.31 28.15 284.31 25.87 286.04 25.87 286.04 24.52 278.65 24.52 278.65 39.73 299.89 39.73 299.89 24.52 292.49 24.52"/><rect class="cls-7" x="284.88" y="24.24" width="8.78" height="0.28"/><rect class="cls-8" x="284.02" y="33.3" width="0.57" height="5.08"/><rect class="cls-9" x="285.44" y="33.3" width="0.57" height="5.08"/><rect class="cls-10" x="286.86" y="33.3" width="0.57" height="5.08"/><rect class="cls-11" x="288.27" y="33.3" width="0.57" height="5.08"/><rect class="cls-12" x="289.69" y="33.3" width="0.57" height="5.08"/><rect class="cls-13" x="291.11" y="33.3" width="0.57" height="5.08"/><rect class="cls-14" x="292.53" y="33.3" width="0.57" height="5.08"/><rect class="cls-15" x="293.95" y="33.3" width="0.57" height="5.08"/><rect class="cls-16" x="284.57" y="29.6" width="9.4" height="1.92"/><rect class="cls-17" x="280.58" y="25.55" width="3.21" height="1.79" rx="0.33"/><path class="cls-18" d="M283.65,25.55h-2.93a.15.15,0,0,0-.14.15v.72a.14.14,0,0,1,.14-.14h2.93a.14.14,0,0,1,.14.14V25.7A.15.15,0,0,0,283.65,25.55Z"/><rect class="cls-19" x="295.23" y="25.55" width="3.21" height="1.79" rx="0.33"/><path class="cls-20" d="M298.3,25.55h-2.93a.15.15,0,0,0-.14.15v.72a.14.14,0,0,1,.14-.14h2.93a.14.14,0,0,1,.14.14V25.7A.15.15,0,0,0,298.3,25.55Z"/><rect class="cls-5" x="313.68" y="24.52" width="19.43" height="14.12"/><polygon class="cls-21" points="326.1 24.52 326.1 25.87 327.84 25.87 327.84 28.15 332.01 28.15 332.01 38.38 327.84 38.38 317.92 38.38 313.75 38.38 313.75 28.15 317.92 28.15 317.92 25.87 319.65 25.87 319.65 24.52 312.26 24.52 312.26 39.73 333.5 39.73 333.5 24.52 326.1 24.52"/><rect class="cls-22" x="318.49" y="24.24" width="8.78" height="0.28"/><rect class="cls-23" x="317.62" y="33.3" width="0.57" height="5.08"/><rect class="cls-24" x="319.04" y="33.3" width="0.57" height="5.08"/><rect class="cls-25" x="320.46" y="33.3" width="0.57" height="5.08"/><rect class="cls-26" x="321.88" y="33.3" width="0.57" height="5.08"/><rect class="cls-27" x="323.3" y="33.3" width="0.57" height="5.08"/><rect class="cls-28" x="324.72" y="33.3" width="0.57" height="5.08"/><rect class="cls-29" x="326.14" y="33.3" width="0.57" height="5.08"/><rect class="cls-30" x="327.56" y="33.3" width="0.57" height="5.08"/><rect class="cls-31" x="318.17" y="29.6" width="9.4" height="1.92"/><rect class="cls-32" x="314.19" y="25.55" width="3.21" height="1.79" rx="0.33"/><path class="cls-33" d="M317.26,25.55h-2.93a.15.15,0,0,0-.14.15v.72a.14.14,0,0,1,.14-.14h2.93a.14.14,0,0,1,.14.14V25.7A.15.15,0,0,0,317.26,25.55Z"/><rect class="cls-34" x="328.84" y="25.55" width="3.21" height="1.79" rx="0.33"/><path class="cls-35" d="M331.91,25.55H329a.15.15,0,0,0-.14.15v.72a.14.14,0,0,1,.14-.14h2.93a.15.15,0,0,1,.14.14V25.7A.15.15,0,0,0,331.91,25.55Z"/><rect class="cls-5" x="370.4" y="22.32" width="17.24" height="7.21"/><rect class="cls-36" x="372.52" y="24.57" width="13.41" height="1.35"/><rect class="cls-5" x="370.4" y="31.34" width="17.24" height="7.21"/><rect class="cls-36" x="372.52" y="33.59" width="13.41" height="1.35"/><path class="cls-2" d="M374.54,43.79v2c0,.74.33,1,.77,1s.8-.32.8-1v-2h.43v1.92c0,1-.53,1.42-1.25,1.42s-1.18-.38-1.18-1.4V43.79Z"/><path class="cls-2" d="M377.22,46.56a1.48,1.48,0,0,0,.76.22c.43,0,.69-.23.69-.56s-.18-.49-.62-.66-.87-.47-.87-.93a.94.94,0,0,1,1.06-.89,1.43,1.43,0,0,1,.73.16l-.12.34a1.37,1.37,0,0,0-.62-.15c-.45,0-.62.27-.62.49s.2.46.65.64.84.48.84,1-.37,1-1.15,1a1.68,1.68,0,0,1-.84-.21Z"/><path class="cls-2" d="M379.68,43.83a4.19,4.19,0,0,1,.78-.06,1.39,1.39,0,0,1,.9.23.72.72,0,0,1,.28.59.79.79,0,0,1-.56.72h0a.86.86,0,0,1,.4,1.48,1.65,1.65,0,0,1-1.14.31,4.88,4.88,0,0,1-.66,0Zm.43,1.35h.38c.45,0,.72-.23.72-.55s-.3-.54-.73-.54a2.21,2.21,0,0,0-.37,0Zm0,1.58.35,0c.44,0,.85-.16.85-.64s-.39-.64-.85-.64h-.35Z"/><path class="cls-2" d="M285.4,46.85l-.79-3.13H285l.37,1.59c.09.38.17.77.23,1.08h0c.05-.31.15-.69.25-1.09l.42-1.58h.42l.38,1.59a9.72,9.72,0,0,1,.22,1.07h0c.07-.34.15-.69.25-1.08l.42-1.58h.41l-.89,3.13h-.42l-.39-1.63a8.45,8.45,0,0,1-.21-1h0a7.67,7.67,0,0,1-.24,1l-.44,1.63Z"/><path class="cls-2" d="M289.05,45.87l-.32,1h-.42l1.06-3.13h.49l1.07,3.13h-.43l-.34-1Zm1-.32-.31-.9c-.07-.2-.11-.39-.16-.57h0c0,.19-.1.38-.16.57l-.3.9Z"/><path class="cls-2" d="M291.38,46.85V43.72h.44l1,1.59a8.78,8.78,0,0,1,.56,1h0c0-.42,0-.8,0-1.29V43.72h.38v3.13h-.41l-1-1.59a7.74,7.74,0,0,1-.58-1h0c0,.4,0,.77,0,1.29v1.34Z"/><path class="cls-2" d="M318.77,43.62h.4v2.79h1.34v.33h-1.74Z"/><path class="cls-2" d="M321.46,45.76l-.33,1h-.41l1.06-3.12h.49l1.06,3.12h-.43l-.33-1Zm1-.31-.31-.9A5.62,5.62,0,0,1,322,44h0c-.05.18-.1.37-.16.56l-.31.91Z"/><path class="cls-2" d="M323.79,46.74V43.62h.44l1,1.58a9.78,9.78,0,0,1,.56,1h0c0-.42,0-.8,0-1.28V43.62h.38v3.12h-.41l-1-1.58a10.2,10.2,0,0,1-.59-1h0c0,.39,0,.77,0,1.29v1.33Z"/><path class="cls-2" d="M231.79,37v1.3h1.51V37h.41v3.12h-.41V38.65h-1.51v1.46h-.4V37Z"/><path class="cls-2" d="M234.41,37a5.44,5.44,0,0,1,.86-.07,1.79,1.79,0,0,1,1.26.39,1.44,1.44,0,0,1,.44,1.12,1.64,1.64,0,0,1-.45,1.22,1.92,1.92,0,0,1-1.38.45,5.07,5.07,0,0,1-.73,0Zm.4,2.76a2.49,2.49,0,0,0,.41,0,1.2,1.2,0,0,0,1.33-1.32,1.11,1.11,0,0,0-1.26-1.21,2.68,2.68,0,0,0-.48,0Z"/><path class="cls-2" d="M240.13,38.74c0-.44,0-1,0-1.35h0c-.11.37-.24.75-.4,1.19l-.55,1.51h-.3l-.51-1.49c-.15-.44-.27-.84-.36-1.21h0c0,.39,0,.91-.06,1.38l-.08,1.34h-.39l.22-3.12h.51l.54,1.51c.13.38.23.73.31,1h0c.08-.32.19-.66.33-1l.55-1.51h.52l.19,3.12h-.39Z"/><path class="cls-2" d="M241.62,37v3.12h-.4V37Z"/><path class="cls-2" d="M183.46,43.05a5,5,0,0,1,.78-.06,1.24,1.24,0,0,1,.87.26.83.83,0,0,1,.28.66.93.93,0,0,1-.24.66,1.32,1.32,0,0,1-1,.35,1.51,1.51,0,0,1-.32,0v1.25h-.41Zm.41,1.51a1.48,1.48,0,0,0,.33,0c.49,0,.78-.24.78-.67s-.29-.61-.73-.61a2.48,2.48,0,0,0-.38,0Z"/><path class="cls-2" d="M186.44,46.14l-.8-3.13h.43l.37,1.59c.09.39.18.78.23,1.08h0c.06-.31.15-.68.26-1.09l.42-1.58h.42l.38,1.59c.09.37.17.74.22,1.07h0c.06-.34.15-.69.25-1.08l.41-1.58h.41l-.88,3.13h-.43l-.39-1.63a8.25,8.25,0,0,1-.2-1h0c-.06.31-.13.62-.24,1l-.45,1.63Z"/><path class="cls-2" d="M189.85,43.06a3.49,3.49,0,0,1,.77-.07,1.29,1.29,0,0,1,.91.26.8.8,0,0,1,.24.59.82.82,0,0,1-.59.8h0a.79.79,0,0,1,.46.63,5.2,5.2,0,0,0,.24.86h-.41a3,3,0,0,1-.21-.75c-.1-.43-.26-.59-.63-.6h-.38v1.35h-.4Zm.4,1.42h.41c.43,0,.71-.24.71-.59s-.29-.58-.72-.59a1.55,1.55,0,0,0-.4,0Z"/><path class="cls-2" d="M199.33,45.65a1.42,1.42,0,0,0,.72.2c.41,0,.65-.21.65-.53s-.16-.46-.58-.62-.83-.45-.83-.89a.9.9,0,0,1,1-.85,1.39,1.39,0,0,1,.69.16l-.11.33a1.18,1.18,0,0,0-.59-.15c-.43,0-.59.25-.59.47s.19.43.62.6.8.46.8.92-.36.9-1.1.9a1.65,1.65,0,0,1-.8-.2Z"/><path class="cls-2" d="M202.17,45.16l-.32,1h-.42L202.49,43H203l1.07,3.13h-.44l-.33-1Zm1-.32-.31-.9a5,5,0,0,1-.16-.57h0c-.05.19-.1.38-.16.57l-.31.9Z"/><path class="cls-2" d="M204.74,43.36h-1V43h2.31v.35h-.95v2.78h-.41Z"/><path class="cls-2" d="M206.6,45.16l-.32,1h-.42L206.92,43h.49l1.07,3.13h-.43l-.34-1Zm1-.32-.31-.9c-.07-.2-.11-.39-.16-.57h0c0,.19-.1.38-.16.57l-.3.9Z"/><path class="cls-37" d="M233.38,18V30.53a7.61,7.61,0,0,1,2,3.37h4.27V14.57h-4.26A7.72,7.72,0,0,1,233.38,18Z"/><line class="cls-38" x1="236.51" y1="17.95" x2="236.51" y2="18.05"/><path class="cls-39" d="M237,29.87h-1v-.2h1Zm0-.39h-1v-.2h1Zm0-.4h-1v-.2h1Zm0-.39h-1v-.2h1Zm0-.4h-1V28.1h1Zm0-.39h-1v-.2h1Zm0-.39h-1v-.2h1Zm0-.4h-1v-.2h1Zm0-.39h-1v-.2h1Zm0-.4h-1v-.19h1Zm0-.39h-1v-.2h1Zm0-.4h-1v-.19h1Zm0-.39h-1v-.2h1Zm0-.39h-1v-.2h1Zm0-.4h-1v-.2h1Zm0-.39h-1v-.2h1Zm0-.4h-1v-.19h1Zm0-.39h-1V23h1Zm0-.39h-1v-.2h1Zm0-.4h-1v-.2h1Zm0-.39h-1v-.2h1Zm0-.4h-1V21.4h1Zm0-.39h-1V21h1Zm0-.4h-1v-.19h1Zm0-.39h-1v-.2h1Zm0-.39h-1v-.2h1Zm0-.4h-1v-.19h1Zm0-.39h-1V19h1Zm0-.4h-1v-.19h1Zm0-.39h-1v-.2h1Z"/><line class="cls-38" x1="236.51" y1="30.07" x2="236.51" y2="30.17"/><circle class="cls-40" cx="187.55" cy="37.12" r="1.72"/><circle class="cls-41" cx="203.2" cy="37.12" r="1.72"/></g></g></svg>