<svg xmlns="http://www.w3.org/2000/svg" xmlns:xlink="http://www.w3.org/1999/xlink" viewBox="0 0 270.19 137.52"><defs><style>.cls-1{fill:url(#linear-gradient);}.cls-2{fill:#fff;}.cls-3{fill:#7a7a7d;}.cls-4{fill:#197cbd;}</style><linearGradient id="linear-gradient" x1="14.02" y1="153.54" x2="256.17" y2="-16.02" gradientUnits="userSpaceOnUse"><stop offset="0" stop-color="#101010"/><stop offset="0.5" stop-color="#1d1d1d"/><stop offset="1" stop-color="#101010"/></linearGradient></defs><g id="Layer_2" data-name="Layer 2"><g id="Layer_1-2" data-name="Layer 1"><g id="_3CX_Controller" data-name="3CX Controller"><rect class="cls-1" width="270.19" height="137.52" rx="5.85"/><path class="cls-2" d="M170.51,81.88l-.95-1.21c-3.3-4-6.59-8.12-9.92-12.15-.46-.56-.5-.88,0-1.45,2.25-2.66,4.44-5.37,6.63-8.07,1.43-1.74,2.83-3.5,4.39-5.44-2,0-3.72,0-5.42,0a1.54,1.54,0,0,0-1.34.7c-2.37,3-4.8,5.88-7.17,8.85-.62.77-1,.74-1.57,0-2.29-2.91-4.65-5.77-7-8.62-.26-.33-.46-.85-1-.86-1.89,0-3.79,0-6,0,3.77,4.61,7.3,9,10.89,13.28a1.2,1.2,0,0,1,0,1.89c-3.33,4-6.61,8.09-9.91,12.15-.18.23-.58.42-.45.75s.63.22,1,.22c1.25,0,2.51,0,3.77,0a2,2,0,0,0,1.79-.89c2.23-2.79,4.54-5.52,6.75-8.33.77-1,1.15-.91,1.91.07,2.22,2.86,4.57,5.62,6.89,8.4.26.31.41.77,1,.75C166.62,81.85,168.44,81.88,170.51,81.88ZM94.41,62.49c1.32,0,2.62-.09,3.91,0s1.58-.3,1.79-1.44a4.21,4.21,0,0,1,6.82-2.63,3.74,3.74,0,0,1,1.18,3.49c-.54,2-1.81,2.84-4.56,2.87-1.08,0-1.33.33-1.31,1.36.05,2.72,0,2.72,2.71,2.92A3.89,3.89,0,0,1,108.68,72a4.49,4.49,0,0,1-1.81,4.72,4.79,4.79,0,0,1-7.51-3.61c-.13-1.09-.5-1.34-1.48-1.27s-2.25,0-3.37,0c-.54,0-.83.1-.82.73,0,3.48,1.31,6.38,4.36,8.13a11.93,11.93,0,0,0,11.7.32,8.35,8.35,0,0,0,5-7.55,6.41,6.41,0,0,0-4.72-7,3.77,3.77,0,0,1,.49-.29c3.33-1.13,4.18-6.72,2-9.61a10.79,10.79,0,0,0-12.26-3.11C96.28,55.18,94.62,58.32,94.41,62.49Zm46.22-2a23.49,23.49,0,0,1,0-3.07A2.4,2.4,0,0,0,139,54.68c-6-2.85-11.9-2.48-17.22,1.53-4.94,3.73-6.88,8.83-5.37,14.94a14,14,0,0,0,8.56,9.7A15.77,15.77,0,0,0,139.61,80c.39-.22,1-.37,1-1,0-1.4,0-2.8,0-4.36-6.89,6-13.78,4.27-17.72.14a10.41,10.41,0,0,1-.76-13.63A11.3,11.3,0,0,1,129,56.79C133.4,55.87,137.13,57.39,140.63,60.53Zm.12,12.79c1.29-1.52,2.36-2.77,3.41-4,1.45-1.74,1.44-1.74,0-3.48a4.91,4.91,0,0,0-.31-.44c-1.06-1-1.8-2.27-3.12-3.11Z"/><path class="cls-3" d="M170.51,81.88c-2.07,0-3.89,0-5.72,0-.59,0-.74-.44-1-.75-2.32-2.78-4.67-5.54-6.89-8.4-.76-1-1.14-1-1.91-.07-2.21,2.81-4.52,5.54-6.75,8.33a2,2,0,0,1-1.79.89c-1.26-.06-2.52,0-3.77,0-.33,0-.78.22-1-.22s.27-.52.45-.75c3.3-4.06,6.58-8.13,9.91-12.15a1.2,1.2,0,0,0,0-1.89c-3.59-4.31-7.12-8.67-10.89-13.28,2.17,0,4.07,0,6,0,.51,0,.71.53,1,.86,2.37,2.85,4.73,5.71,7,8.62.61.78.95.81,1.57,0,2.37-3,4.8-5.89,7.17-8.85a1.54,1.54,0,0,1,1.34-.7c1.7,0,3.4,0,5.42,0-1.56,1.94-3,3.7-4.39,5.44-2.19,2.7-4.38,5.41-6.63,8.07-.49.57-.45.89,0,1.45,3.33,4,6.62,8.1,9.92,12.15Z"/><path class="cls-4" d="M94.41,62.49c.21-4.17,1.87-7.31,5.78-9a10.79,10.79,0,0,1,12.26,3.11c2.23,2.89,1.38,8.48-2,9.61a3.77,3.77,0,0,0-.49.29,6.41,6.41,0,0,1,4.72,7,8.35,8.35,0,0,1-5,7.55,11.93,11.93,0,0,1-11.7-.32c-3-1.75-4.32-4.65-4.36-8.13,0-.63.28-.74.82-.73,1.12,0,2.25.06,3.37,0s1.35.18,1.48,1.27a4.79,4.79,0,0,0,7.51,3.61A4.49,4.49,0,0,0,108.68,72,3.89,3.89,0,0,0,105,69.08c-2.71-.2-2.66-.2-2.71-2.92,0-1,.23-1.34,1.31-1.36,2.75,0,4-.91,4.56-2.87a3.74,3.74,0,0,0-1.18-3.49,4.21,4.21,0,0,0-6.82,2.63c-.21,1.14-.63,1.54-1.79,1.44S95.73,62.49,94.41,62.49Z"/><path class="cls-3" d="M140.63,60.53c-3.5-3.14-7.23-4.66-11.65-3.74a11.3,11.3,0,0,0-6.85,4.39,10.41,10.41,0,0,0,.76,13.63c3.94,4.13,10.83,5.84,17.72-.14,0,1.56,0,3,0,4.36,0,.62-.61.77-1,1a15.77,15.77,0,0,1-14.66.83,14,14,0,0,1-8.56-9.7c-1.51-6.11.43-11.21,5.37-14.94,5.32-4,11.17-4.38,17.22-1.53a2.4,2.4,0,0,1,1.67,2.78A23.49,23.49,0,0,0,140.63,60.53Z"/><path class="cls-4" d="M140.75,73.32V62.25c1.32.84,2.06,2.15,3.12,3.11a4.91,4.91,0,0,1,.31.44c1.42,1.74,1.43,1.74,0,3.48C143.11,70.55,142,71.8,140.75,73.32Z"/></g></g></g></svg>