<svg xmlns="http://www.w3.org/2000/svg" xmlns:xlink="http://www.w3.org/1999/xlink" viewBox="0 0 91.84 51.12"><defs><style>.cls-1{fill:url(#linear-gradient);}.cls-2,.cls-3{fill:none;stroke-width:0.5px;}.cls-2,.cls-3,.cls-4{stroke-miterlimit:10;}.cls-2{stroke:url(#linear-gradient-2);}.cls-3{stroke:url(#linear-gradient-3);}.cls-4{stroke:#000;fill:url(#linear-gradient-4);}.cls-5{fill:url(#linear-gradient-5);}.cls-6{fill:url(#linear-gradient-6);}.cls-7{fill:url(#linear-gradient-7);}.cls-8{fill:#333;}</style><linearGradient id="linear-gradient" x1="25.92" y1="38.61" x2="69.97" y2="-5.44" gradientUnits="userSpaceOnUse"><stop offset="0" stop-color="#aaa"/><stop offset="0.37" stop-color="#7a7a7a"/><stop offset="1" stop-color="#aaa"/></linearGradient><linearGradient id="linear-gradient-2" x1="72.3" y1="50.17" x2="66.46" y2="34.12" gradientUnits="userSpaceOnUse"><stop offset="0" stop-color="#0f0f0f"/><stop offset="1" stop-color="#282828"/></linearGradient><linearGradient id="linear-gradient-3" x1="48.97" y1="43.46" x2="47.28" y2="38.83" xlink:href="#linear-gradient-2"/><linearGradient id="linear-gradient-4" x1="46.94" y1="50.62" x2="46.94" y2="43" xlink:href="#linear-gradient-2"/><linearGradient id="linear-gradient-5" x1="57.39" y1="50.57" x2="57.39" y2="43.92" gradientTransform="matrix(0.66, 0.75, -0.51, 0.94, 74.14, -39.9)" xlink:href="#linear-gradient-2"/><linearGradient id="linear-gradient-6" x1="57.2" y1="46.25" x2="57.2" y2="43.92" gradientTransform="matrix(1, 0, 0.36, 1, 13.73, 0)" xlink:href="#linear-gradient-2"/><linearGradient id="linear-gradient-7" x1="15.07" y1="38.64" x2="0.98" y2="-0.08" xlink:href="#linear-gradient-2"/></defs><g id="Layer_2" data-name="Layer 2"><g id="Layer_1-2" data-name="Layer 1"><rect x="18.31" width="59.27" height="35.62"/><rect class="cls-1" x="19.67" y="0.82" width="56.56" height="31.54"/><path class="cls-2" d="M86.73,44.92s-2.25-6.12-8.49-5.4-6.6,3-13.44,1.55A70.29,70.29,0,0,0,52,39.64"/><path class="cls-3" d="M46.38,43.48a3.87,3.87,0,0,0,3.72-1.21c1.56-1.79-1.62-3.71-1.62-3.71"/><path d="M49.81,38.07c-1.09-1.78-1-5.45-1-5.45H47s.13,3.67-1,5.45c-7.91.09-14,.78-14,1.62s7.12,1.63,15.9,1.63,15.91-.73,15.91-1.63S57.72,38.16,49.81,38.07Z"/><polygon class="cls-4" points="81.63 50.63 12.25 50.63 22.25 43.01 71.63 43.01 81.63 50.63"/><polygon points="58.1 48.6 17.98 48.6 22.98 44.91 58.1 44.91 58.1 48.6"/><polygon points="76.86 48.6 60.12 48.6 60.12 44.91 71.86 44.91 76.86 48.6"/><ellipse class="cls-5" cx="88.32" cy="47.24" rx="2.45" ry="4.18" transform="translate(-5.64 81.94) rotate(-48.41)"/><polygon class="cls-6" points="90.72 46.25 84.84 46.25 84.75 46.07 87.59 46.07 86.48 43.92 86.73 43.92 87.84 46.07 90.63 46.07 90.72 46.25"/><rect class="cls-7" width="16.04" height="38.56" rx="0.92"/><rect y="1.72" width="16.04" height="3.96"/><rect class="cls-8" x="0.84" y="2.56" width="14.41" height="1.14"/><path d="M16,13.36s-1.28,14-16,17.28v7.92H16Z"/><circle cx="1.53" cy="18.46" r="0.69"/></g></g></svg>