<svg xmlns="http://www.w3.org/2000/svg" xmlns:xlink="http://www.w3.org/1999/xlink" viewBox="0 0 298.63 43.54"><defs><style>.cls-1{fill:url(#linear-gradient);}.cls-2{fill:url(#linear-gradient-2);}.cls-3{fill:#0e0e0e;}</style><linearGradient id="linear-gradient" x1="149.32" y1="43.54" x2="149.32" y2="4.79" gradientUnits="userSpaceOnUse"><stop offset="0.33" stop-color="#ededed"/><stop offset="1" stop-color="#c6c6c6"/></linearGradient><linearGradient id="linear-gradient-2" x1="149.32" y1="7.59" x2="149.32" y2="0" xlink:href="#linear-gradient"/></defs><g id="Layer_2" data-name="Layer 2"><g id="Layer_1-2" data-name="Layer 1"><g id="Daytek_2135ac" data-name="Daytek 2135ac"><path class="cls-1" d="M298.46,4.79c-2,2.91-10.86,2.8-10.86,2.8H11S2.17,7.7.17,4.79C.17,4.79-1,16,2.6,39.15c0,0-1.07,4.39,10.23,4.39h273c11.3,0,10.24-4.39,10.24-4.39C299.59,16,298.46,4.79,298.46,4.79Z"/><path class="cls-2" d="M236.14,2.8C216.33.89,155,.07,149.52,0h-.4C143.61.07,82.31.89,62.49,2.8c-20.76,2-62.32,2-62.32,2C2.77,7.7,11,7.59,11,7.59H287.6s8.26.11,10.86-2.8C298.46,4.79,256.9,4.79,236.14,2.8Z"/><rect class="cls-3" x="12.83" y="35.38" width="136.69" height="0.8"/><rect class="cls-3" x="12.83" y="28.38" width="136.69" height="0.8"/><rect class="cls-3" x="12.83" y="21.38" width="136.69" height="0.8"/><rect class="cls-3" x="12.83" y="14.38" width="136.69" height="0.8"/><rect class="cls-3" x="149.12" y="35.38" width="136.69" height="0.8"/><rect class="cls-3" x="149.12" y="28.38" width="136.69" height="0.8"/><rect class="cls-3" x="149.12" y="21.38" width="136.69" height="0.8"/><rect class="cls-3" x="149.12" y="14.38" width="136.69" height="0.8"/></g></g></g></svg>