<svg xmlns="http://www.w3.org/2000/svg" xmlns:xlink="http://www.w3.org/1999/xlink" viewBox="0 0 84.36 31.32"><defs><style>.cls-1{fill:url(#linear-gradient);}.cls-2{fill:#1e1e1e;}.cls-3{fill:url(#linear-gradient-2);}.cls-4{fill:url(#linear-gradient-3);}.cls-5{fill:url(#linear-gradient-4);}.cls-6{fill:url(#linear-gradient-5);}.cls-7{fill:url(#linear-gradient-6);}.cls-8{fill:url(#linear-gradient-7);}.cls-9{fill:url(#linear-gradient-8);}.cls-10{fill:url(#linear-gradient-9);}.cls-11{fill:url(#linear-gradient-10);}.cls-12{fill:url(#linear-gradient-11);}.cls-13{fill:url(#linear-gradient-12);}.cls-14{fill:url(#linear-gradient-13);}.cls-15,.cls-17{opacity:0.2;}.cls-15{fill:url(#linear-gradient-14);}.cls-16{fill:url(#linear-gradient-15);}.cls-17{fill:url(#linear-gradient-16);}.cls-18{fill:url(#radial-gradient);}.cls-19{fill:url(#radial-gradient-2);}.cls-20{fill:url(#radial-gradient-3);}.cls-21{fill:url(#radial-gradient-4);}.cls-22{fill:url(#radial-gradient-5);}.cls-23{fill:url(#radial-gradient-6);}.cls-24{fill:#090a0a;}.cls-25,.cls-26,.cls-27,.cls-28,.cls-29,.cls-30,.cls-31,.cls-32,.cls-33,.cls-34,.cls-35,.cls-36{fill:none;stroke-miterlimit:10;}.cls-25,.cls-26,.cls-27,.cls-28,.cls-29,.cls-30,.cls-31,.cls-32,.cls-33,.cls-34,.cls-35{stroke-width:0.25px;}.cls-25{stroke:url(#linear-gradient-17);}.cls-26{stroke:url(#linear-gradient-18);}.cls-27{stroke:url(#linear-gradient-19);}.cls-28{stroke:url(#linear-gradient-20);}.cls-29{stroke:url(#linear-gradient-21);}.cls-30{stroke:url(#linear-gradient-22);}.cls-31{stroke:url(#linear-gradient-23);}.cls-32{stroke:url(#linear-gradient-24);}.cls-33{stroke:url(#linear-gradient-25);}.cls-34{stroke:url(#linear-gradient-26);}.cls-35{stroke:url(#linear-gradient-27);}.cls-36{stroke:#757575;}.cls-37{fill:#fff;}</style><linearGradient id="linear-gradient" x1="42.18" y1="31.32" x2="42.18" gradientUnits="userSpaceOnUse"><stop offset="0" stop-color="#0f0f0f"/><stop offset="1" stop-color="#282828"/></linearGradient><linearGradient id="linear-gradient-2" x1="-6.61" y1="40.21" x2="-6.61" y2="25.01" gradientTransform="translate(63.48 46.81) rotate(180)" gradientUnits="userSpaceOnUse"><stop offset="0" stop-color="#aaa"/><stop offset="0.72" stop-color="#aaa"/><stop offset="1" stop-color="#7a7a7a"/></linearGradient><linearGradient id="linear-gradient-3" x1="-11" y1="24.87" x2="-2.22" y2="24.87" gradientTransform="translate(76.7 -2.93)" xlink:href="#linear-gradient-2"/><linearGradient id="linear-gradient-4" x1="-11.58" y1="38.87" x2="-11.58" y2="33.79" gradientTransform="translate(86.63 -25.85)" gradientUnits="userSpaceOnUse"><stop offset="0" stop-color="#946014"/><stop offset="1" stop-color="#1d1d1b"/></linearGradient><linearGradient id="linear-gradient-5" x1="-10.16" y1="38.87" x2="-10.16" y2="33.79" gradientTransform="translate(83.79 -25.85)" xlink:href="#linear-gradient-4"/><linearGradient id="linear-gradient-6" x1="-8.74" y1="38.87" x2="-8.74" y2="33.79" gradientTransform="translate(80.95 -25.85)" xlink:href="#linear-gradient-4"/><linearGradient id="linear-gradient-7" x1="-7.32" y1="38.87" x2="-7.32" y2="33.79" gradientTransform="translate(78.12 -25.85)" xlink:href="#linear-gradient-4"/><linearGradient id="linear-gradient-8" x1="-5.9" y1="38.87" x2="-5.9" y2="33.79" gradientTransform="translate(75.28 -25.85)" xlink:href="#linear-gradient-4"/><linearGradient id="linear-gradient-9" x1="-4.48" y1="38.87" x2="-4.48" y2="33.79" gradientTransform="translate(72.44 -25.85)" xlink:href="#linear-gradient-4"/><linearGradient id="linear-gradient-10" x1="-3.06" y1="38.87" x2="-3.06" y2="33.79" gradientTransform="translate(69.6 -25.85)" xlink:href="#linear-gradient-4"/><linearGradient id="linear-gradient-11" x1="-1.64" y1="38.87" x2="-1.64" y2="33.79" gradientTransform="translate(66.76 -25.85)" xlink:href="#linear-gradient-4"/><linearGradient id="linear-gradient-12" x1="-6.61" y1="32" x2="-6.61" y2="30.09" gradientTransform="translate(76.7 -15.28)" gradientUnits="userSpaceOnUse"><stop offset="0"/><stop offset="1" stop-color="#090909" stop-opacity="0"/></linearGradient><linearGradient id="linear-gradient-13" x1="-13.69" y1="27.83" x2="-13.69" y2="26.04" gradientTransform="translate(90.86 -7.06)" gradientUnits="userSpaceOnUse"><stop offset="0" stop-color="#006937"/><stop offset="1" stop-color="#004c2e"/></linearGradient><linearGradient id="linear-gradient-14" x1="-13.69" y1="26.91" x2="-13.69" y2="26.04" gradientTransform="translate(63.48 46.81) rotate(180)" gradientUnits="userSpaceOnUse"><stop offset="0" stop-color="#fff"/><stop offset="0.01" stop-color="#fff"/><stop offset="1" stop-color="#fff" stop-opacity="0"/></linearGradient><linearGradient id="linear-gradient-15" x1="0.96" y1="27.83" x2="0.96" y2="26.04" gradientTransform="translate(61.57 -7.06)" gradientUnits="userSpaceOnUse"><stop offset="0" stop-color="#bf910a"/><stop offset="1" stop-color="#a86212"/></linearGradient><linearGradient id="linear-gradient-16" x1="0.96" y1="26.91" x2="0.96" y2="26.04" xlink:href="#linear-gradient-14"/><radialGradient id="radial-gradient" cx="43.94" cy="6.32" r="1.77" gradientUnits="userSpaceOnUse"><stop offset="0" stop-color="#6cb52d"/><stop offset="1" stop-color="#009640"/></radialGradient><radialGradient id="radial-gradient-2" cx="49.44" cy="6.32" r="1.77" xlink:href="#radial-gradient"/><radialGradient id="radial-gradient-3" cx="43.94" cy="12.51" r="1.77" xlink:href="#radial-gradient"/><radialGradient id="radial-gradient-4" cx="49.44" cy="12.51" r="1.77" xlink:href="#radial-gradient"/><radialGradient id="radial-gradient-5" cx="43.94" cy="18.84" r="1.77" xlink:href="#radial-gradient"/><radialGradient id="radial-gradient-6" cx="49.44" cy="18.84" r="1.77" xlink:href="#radial-gradient"/><linearGradient id="linear-gradient-17" x1="26.24" y1="14.74" x2="26.24" y2="10.76" gradientUnits="userSpaceOnUse"><stop offset="0" stop-color="#1d1d1b"/><stop offset="1" stop-color="#d0d0d0"/></linearGradient><linearGradient id="linear-gradient-18" x1="25.44" y1="14.74" x2="25.44" y2="10.76" xlink:href="#linear-gradient-17"/><linearGradient id="linear-gradient-19" x1="24.64" y1="14.74" x2="24.64" y2="10.76" xlink:href="#linear-gradient-17"/><linearGradient id="linear-gradient-20" x1="23.84" y1="14.74" x2="23.84" y2="10.76" xlink:href="#linear-gradient-17"/><linearGradient id="linear-gradient-21" x1="23.04" y1="14.74" x2="23.04" y2="10.76" xlink:href="#linear-gradient-17"/><linearGradient id="linear-gradient-22" x1="22.24" y1="14.74" x2="22.24" y2="10.76" xlink:href="#linear-gradient-17"/><linearGradient id="linear-gradient-23" x1="21.44" y1="14.74" x2="21.44" y2="10.76" xlink:href="#linear-gradient-17"/><linearGradient id="linear-gradient-24" x1="20.64" y1="14.74" x2="20.64" y2="10.76" xlink:href="#linear-gradient-17"/><linearGradient id="linear-gradient-25" x1="19.84" y1="14.74" x2="19.84" y2="10.76" xlink:href="#linear-gradient-17"/><linearGradient id="linear-gradient-26" x1="19.04" y1="14.74" x2="19.04" y2="10.76" xlink:href="#linear-gradient-17"/><linearGradient id="linear-gradient-27" x1="18.24" y1="14.74" x2="18.24" y2="10.76" xlink:href="#linear-gradient-17"/></defs><g id="Layer_2" data-name="Layer 2"><g id="Layer_1-2" data-name="Layer 1"><rect class="cls-1" width="84.36" height="31.32" rx="0.6"/><rect class="cls-2" x="59.85" y="7.68" width="19.43" height="14.12" transform="translate(139.13 29.48) rotate(180)"/><polygon class="cls-3" points="66.86 21.8 66.86 20.45 65.13 20.45 65.13 18.17 60.96 18.17 60.96 7.94 65.13 7.94 75.05 7.94 79.22 7.94 79.22 18.17 75.05 18.17 75.05 20.45 73.31 20.45 73.31 21.8 80.71 21.8 80.71 6.59 59.47 6.59 59.47 21.8 66.86 21.8"/><rect class="cls-4" x="65.7" y="21.8" width="8.78" height="0.28" transform="translate(140.17 43.88) rotate(180)"/><rect class="cls-5" x="74.77" y="7.94" width="0.57" height="5.08" transform="translate(150.11 20.95) rotate(180)"/><rect class="cls-6" x="73.35" y="7.94" width="0.57" height="5.08" transform="translate(147.27 20.95) rotate(180)"/><rect class="cls-7" x="71.93" y="7.94" width="0.57" height="5.08" transform="translate(144.43 20.95) rotate(180)"/><rect class="cls-8" x="70.51" y="7.94" width="0.57" height="5.08" transform="translate(141.59 20.95) rotate(180)"/><rect class="cls-9" x="69.09" y="7.94" width="0.57" height="5.08" transform="translate(138.75 20.95) rotate(180)"/><rect class="cls-10" x="67.67" y="7.94" width="0.57" height="5.08" transform="translate(135.92 20.95) rotate(180)"/><rect class="cls-11" x="66.25" y="7.94" width="0.57" height="5.08" transform="translate(133.08 20.95) rotate(180)"/><rect class="cls-12" x="64.83" y="7.94" width="0.57" height="5.08" transform="translate(130.24 20.95) rotate(180)"/><rect class="cls-13" x="65.39" y="14.8" width="9.4" height="1.92" transform="translate(140.17 31.52) rotate(180)"/><rect class="cls-14" x="75.56" y="18.98" width="3.21" height="1.79" rx="0.33" transform="translate(154.34 39.74) rotate(180)"/><path class="cls-15" d="M75.71,20.76h2.92a.14.14,0,0,0,.14-.14v-.73a.15.15,0,0,1-.14.15H75.71a.15.15,0,0,1-.15-.15v.73A.15.15,0,0,0,75.71,20.76Z"/><rect class="cls-16" x="60.91" y="18.98" width="3.21" height="1.79" rx="0.33" transform="translate(125.04 39.74) rotate(180)"/><path class="cls-17" d="M61.06,20.76H64a.15.15,0,0,0,.15-.14v-.73A.15.15,0,0,1,64,20H61.06a.15.15,0,0,1-.15-.15v.73A.15.15,0,0,0,61.06,20.76Z"/><circle class="cls-18" cx="43.94" cy="6.32" r="1.77"/><circle class="cls-19" cx="49.44" cy="6.32" r="1.77"/><circle class="cls-20" cx="43.94" cy="12.51" r="1.77"/><circle class="cls-21" cx="49.44" cy="12.51" r="1.77"/><circle class="cls-22" cx="43.94" cy="18.84" r="1.77"/><circle class="cls-23" cx="49.44" cy="18.84" r="1.77"/><polygon class="cls-24" points="13.32 10.74 30.84 10.74 30.84 22.08 25.8 22.08 25.8 20.77 18.36 20.77 18.36 22.08 13.32 22.08 13.32 10.74"/><line class="cls-25" x1="26.24" y1="10.76" x2="26.24" y2="14.74"/><line class="cls-26" x1="25.44" y1="10.76" x2="25.44" y2="14.74"/><line class="cls-27" x1="24.64" y1="10.76" x2="24.64" y2="14.74"/><line class="cls-28" x1="23.84" y1="10.76" x2="23.84" y2="14.74"/><line class="cls-29" x1="23.04" y1="10.76" x2="23.04" y2="14.74"/><line class="cls-30" x1="22.24" y1="10.76" x2="22.24" y2="14.74"/><line class="cls-31" x1="21.44" y1="10.76" x2="21.44" y2="14.74"/><line class="cls-32" x1="20.64" y1="10.76" x2="20.64" y2="14.74"/><line class="cls-33" x1="19.84" y1="10.76" x2="19.84" y2="14.74"/><line class="cls-34" x1="19.04" y1="10.76" x2="19.04" y2="14.74"/><line class="cls-35" x1="18.24" y1="10.76" x2="18.24" y2="14.74"/><polygon class="cls-36" points="13.32 10.74 30.84 10.74 30.84 22.08 25.8 22.08 25.8 20.77 18.36 20.77 18.36 22.08 13.32 22.08 13.32 10.74"/><path class="cls-37" d="M38.4,24.39V22.23H40v.36H38.88v.52h1v.36h-1v.92Z"/><path class="cls-37" d="M40.4,22.23h.86a2,2,0,0,1,.5.05.93.93,0,0,1,.31.19,1.05,1.05,0,0,1,.22.34,1.54,1.54,0,0,1,.08.52,1.22,1.22,0,0,1-.09.49.78.78,0,0,1-.21.33.87.87,0,0,1-.31.18,1.53,1.53,0,0,1-.47.06H40.4Zm.47.36V24h.36a.92.92,0,0,0,.33,0,.46.46,0,0,0,.17-.09.68.68,0,0,0,.11-.21,1.84,1.84,0,0,0,0-.38,1.66,1.66,0,0,0,0-.37.44.44,0,0,0-.14-.22.45.45,0,0,0-.23-.11,2.69,2.69,0,0,0-.38,0Z"/><path class="cls-37" d="M42.53,24.39l.81-1.12-.73-1h.55l.47.64.46-.64h.55l-.73,1,.81,1.13h-.57l-.53-.73-.52.73Z"/><path class="cls-37" d="M47.91,24.39V22.23h.76a3.26,3.26,0,0,1,.56,0,.58.58,0,0,1,.34.21.64.64,0,0,1,.14.42.65.65,0,0,1-.12.4.68.68,0,0,1-.29.22,2.05,2.05,0,0,1-.61.07h-.31v.81Zm.47-1.8v.62h.26a1.37,1.37,0,0,0,.36,0,.34.34,0,0,0,.16-.1.3.3,0,0,0,0-.36.31.31,0,0,0-.16-.1,1.55,1.55,0,0,0-.39,0Z"/><path class="cls-37" d="M50.43,24.39l-.56-2.16h.48l.36,1.48.42-1.48h.57l.41,1.51.36-1.51H53l-.57,2.16h-.5l-.47-1.62-.47,1.62Z"/><path class="cls-37" d="M53.19,24.39V22.23h1a2.26,2.26,0,0,1,.55.05.56.56,0,0,1,.27.21.55.55,0,0,1,.1.34.53.53,0,0,1-.16.41.85.85,0,0,1-.46.2,1,1,0,0,1,.26.18A3.17,3.17,0,0,1,55,24l.28.42h-.56l-.35-.47a2.06,2.06,0,0,0-.25-.32.42.42,0,0,0-.14-.09l-.24,0h-.09v.9Zm.48-1.25H54a1.91,1.91,0,0,0,.41,0,.22.22,0,0,0,.14-.09.23.23,0,0,0,0-.17.21.21,0,0,0,0-.16.29.29,0,0,0-.15-.09,2.27,2.27,0,0,0-.38,0h-.37Z"/><path class="cls-37" d="M38.49,3.14H38V1.58a1.55,1.55,0,0,1-.58.31V1.52a1.51,1.51,0,0,0,.39-.21A.81.81,0,0,0,38.13,1h.36Z"/><path class="cls-37" d="M39.92,1a.69.69,0,0,1,.56.25,1.33,1.33,0,0,1,.21.86,1.35,1.35,0,0,1-.21.86.76.76,0,0,1-1.11,0,1.35,1.35,0,0,1-.21-.87,1.32,1.32,0,0,1,.21-.85A.68.68,0,0,1,39.92,1Zm0,.35a.24.24,0,0,0-.21.13,1.58,1.58,0,0,0-.08.63,1.58,1.58,0,0,0,.08.63.26.26,0,0,0,.21.13.25.25,0,0,0,.22-.14,1.48,1.48,0,0,0,.08-.62,1.58,1.58,0,0,0-.08-.63A.24.24,0,0,0,39.92,1.32Z"/><path class="cls-37" d="M41.75,1a.67.67,0,0,1,.55.25,1.33,1.33,0,0,1,.21.86,1.35,1.35,0,0,1-.21.86.75.75,0,0,1-1.1,0A1.35,1.35,0,0,1,41,2.07a1.32,1.32,0,0,1,.21-.85A.67.67,0,0,1,41.75,1Zm0,.35a.23.23,0,0,0-.21.13,1.41,1.41,0,0,0-.08.63,1.41,1.41,0,0,0,.08.63.24.24,0,0,0,.21.13A.24.24,0,0,0,42,2.7,1.48,1.48,0,0,0,42,2.08,1.58,1.58,0,0,0,42,1.45.23.23,0,0,0,41.75,1.32Z"/><path class="cls-37" d="M43.57,1a.7.7,0,0,1,.56.25,1.33,1.33,0,0,1,.21.86,1.35,1.35,0,0,1-.21.86.73.73,0,0,1-.56.24A.71.71,0,0,1,43,2.94a1.35,1.35,0,0,1-.21-.87A1.32,1.32,0,0,1,43,1.22.68.68,0,0,1,43.57,1Zm0,.35a.23.23,0,0,0-.21.13,1.58,1.58,0,0,0-.08.63,1.58,1.58,0,0,0,.08.63.24.24,0,0,0,.21.13.26.26,0,0,0,.22-.14,1.48,1.48,0,0,0,.08-.62,1.58,1.58,0,0,0-.08-.63A.25.25,0,0,0,43.57,1.32Z"/><path class="cls-37" d="M49.83,3.18h-.45V1.62a1.62,1.62,0,0,1-.58.31V1.55a1,1,0,0,0,.39-.2A.81.81,0,0,0,49.47,1h.36Z"/><path class="cls-37" d="M51.27,1a.71.71,0,0,1,.55.24,1.35,1.35,0,0,1,.21.86,1.33,1.33,0,0,1-.21.86.73.73,0,0,1-1.1,0,1.33,1.33,0,0,1-.21-.86,1.35,1.35,0,0,1,.21-.86A.69.69,0,0,1,51.27,1Zm0,.34a.27.27,0,0,0-.22.13,1.64,1.64,0,0,0-.07.63,1.64,1.64,0,0,0,.07.63.25.25,0,0,0,.22.13.23.23,0,0,0,.21-.13,1.58,1.58,0,0,0,.08-.63,1.58,1.58,0,0,0-.08-.63A.24.24,0,0,0,51.27,1.35Z"/><path class="cls-37" d="M53.09,1a.69.69,0,0,1,.55.24,1.35,1.35,0,0,1,.21.86,1.33,1.33,0,0,1-.21.86.67.67,0,0,1-.55.25A.68.68,0,0,1,52.54,3a1.33,1.33,0,0,1-.21-.86,1.35,1.35,0,0,1,.21-.86A.69.69,0,0,1,53.09,1Zm0,.34a.24.24,0,0,0-.21.13,1.58,1.58,0,0,0-.08.63,1.58,1.58,0,0,0,.08.63.23.23,0,0,0,.21.13.25.25,0,0,0,.22-.13,1.64,1.64,0,0,0,.07-.63,1.64,1.64,0,0,0-.07-.63A.27.27,0,0,0,53.09,1.35Z"/><path class="cls-37" d="M37,13.19V11h1.6v.36H37.46v.52h1v.36h-1v.92Z"/><path class="cls-37" d="M38.75,13.19l.81-1.12-.74-1h.56l.46.64.47-.64h.55l-.74,1,.81,1.13h-.57l-.52-.73-.52.73Z"/><path class="cls-37" d="M53.79,11.71V10.25h-.62V10h1.65v.3h-.61v1.46Z"/><path class="cls-37" d="M54.89,11.71l.72-.92L55,10h.49l.42.53.41-.53h.49l-.66.84.72.92h-.5l-.47-.6-.46.6Z"/><path class="cls-37" d="M52.52,14.66V12.91h.42v1.45H54v.3Z"/><path class="cls-37" d="M54.29,13.21V12.9h.4v.31Zm0,1.45V13.38h.4v1.28Z"/><path class="cls-37" d="M56.47,14.66h-.4V14a.72.72,0,0,0,0-.26.14.14,0,0,0-.08-.1.23.23,0,0,0-.14,0,.35.35,0,0,0-.18.05.28.28,0,0,0-.12.12,1,1,0,0,0,0,.3v.58h-.4V13.38h.37v.19a.65.65,0,0,1,.22-.16.67.67,0,0,1,.28-.06.52.52,0,0,1,.29.07.33.33,0,0,1,.17.16.67.67,0,0,1,0,.28Z"/><path class="cls-37" d="M56.86,14.66V12.9h.4v.93l.46-.45h.49l-.51.47.55.81h-.43l-.38-.58-.18.17v.41Z"/><path class="cls-37" d="M58.28,14.69l.51-1.82h.3l-.52,1.82Z"/><path class="cls-37" d="M55.09,17.61h-.45l-.18-.4h-.84l-.17.4H53l.81-1.76h.45Zm-.77-.7L54,16.26l-.28.65Z"/><path class="cls-37" d="M56.63,16.71l-.4.06c0-.14-.12-.2-.27-.2a.36.36,0,0,0-.24.08.41.41,0,0,0-.09.3.45.45,0,0,0,.09.32.32.32,0,0,0,.24.09.36.36,0,0,0,.19-.05.31.31,0,0,0,.1-.19l.4.06a.64.64,0,0,1-.7.46.71.71,0,0,1-.55-.2.66.66,0,0,1-.18-.47.64.64,0,0,1,.2-.5A.84.84,0,0,1,56,16.3a.82.82,0,0,1,.44.1A.55.55,0,0,1,56.63,16.71Z"/><path class="cls-37" d="M57.62,16.33v.27h-.27v.52a.72.72,0,0,0,0,.19.1.1,0,0,0,.1.05.45.45,0,0,0,.16,0l0,.27a1,1,0,0,1-.31.05.58.58,0,0,1-.25-.05.29.29,0,0,1-.12-.15,1,1,0,0,1,0-.28V16.6h-.19v-.27H57v-.25l.4-.2v.45Z"/><path class="cls-37" d="M11.07,27.55V25.36h-.7v-.44h1.87v.44h-.7v2.19Z"/><path class="cls-37" d="M12.31,27.55l.81-1.37-.74-1.26h.55l.47.78.47-.78h.55l-.74,1.26.81,1.37h-.57l-.52-.89-.52.89Z"/><path class="cls-37" d="M26.82,27.55V24.92h1a1.45,1.45,0,0,1,.55.07.57.57,0,0,1,.27.24.82.82,0,0,1,.1.42.73.73,0,0,1-.16.5.71.71,0,0,1-.46.24,1,1,0,0,1,.26.22,4.49,4.49,0,0,1,.27.43l.28.51h-.56L28,27a2.41,2.41,0,0,0-.25-.39.36.36,0,0,0-.14-.11.7.7,0,0,0-.24,0H27.3v1.1ZM27.3,26h.35a1.7,1.7,0,0,0,.41,0,.23.23,0,0,0,.14-.1.33.33,0,0,0,.06-.21.3.3,0,0,0-.06-.2.33.33,0,0,0-.15-.11,2.27,2.27,0,0,0-.38,0H27.3Z"/><path class="cls-37" d="M29,27.55l.81-1.37L29,24.92h.55l.47.78.46-.78h.55l-.74,1.26.82,1.37h-.58L30,26.66l-.52.89Z"/></g></g></svg>