<svg xmlns="http://www.w3.org/2000/svg" xmlns:xlink="http://www.w3.org/1999/xlink" viewBox="0 0 303.45 44.4"><defs><style>.cls-1{fill:url(#linear-gradient);}.cls-2{fill:url(#linear-gradient-2);}.cls-3{stroke:#4a494a;}.cls-3,.cls-8{stroke-miterlimit:10;stroke-width:0.25px;}.cls-4{fill:#2d2d2d;}.cls-5{fill:#704510;}.cls-6{fill:#feffff;}.cls-7{fill:#fff;}.cls-8{fill:none;stroke:#fff;}.cls-9{fill:#717070;}</style><linearGradient id="linear-gradient" y1="2.16" x2="303.01" y2="2.16" gradientUnits="userSpaceOnUse"><stop offset="0" stop-color="#282828"/><stop offset="0.5" stop-color="#0f0f0f"/><stop offset="1" stop-color="#282828"/></linearGradient><linearGradient id="linear-gradient-2" x1="2.22" y1="21.88" x2="301.39" y2="21.88" xlink:href="#linear-gradient"/></defs><g id="Layer_2" data-name="Layer 2"><g id="Layer_1-2" data-name="Layer 1"><rect width="303.45" height="44.4"/><path class="cls-1" d="M155.18,0H0S88.76,4.32,147.83,4.32h7.35C214.25,4.32,303,0,303,0Z"/><path class="cls-2" d="M2.22,2.16S56.28,6,156.28,6,301.39,2.16,301.39,2.16V41.61s-136.85-1.77-299.17,0Z"/><rect class="cls-3" x="12.81" y="30.16" width="14.18" height="6.03" rx="0.34"/><rect class="cls-4" x="14.85" y="31.49" width="10.1" height="1.64"/><rect class="cls-5" x="15.16" y="34.43" width="1.6" height="0.62"/><rect class="cls-5" x="17.79" y="34.43" width="1.6" height="0.62"/><rect class="cls-5" x="20.42" y="34.43" width="1.6" height="0.62"/><rect class="cls-5" x="23.05" y="34.43" width="1.6" height="0.62"/><path class="cls-6" d="M23.31,10.78c.3-1,.59-1.95.87-2.9,0-.13.1-.17.22-.16a5.8,5.8,0,0,0,.59,0c.17,0,.18,0,.13.18L24.07,11c-.06.18-.13.37-.18.55s-.08.17-.21.16h-.74a.24.24,0,0,1-.29-.2c-.26-.87-.53-1.73-.79-2.6,0,0,0-.07-.06-.15-.26,1-.51,1.86-.75,2.77,0,.15-.1.19-.23.18H20a.19.19,0,0,1-.2-.14C19.4,10.35,19,9.12,18.51,7.9c-.06-.16,0-.2.14-.18a1.61,1.61,0,0,0,.22,0c.57,0,.56,0,.74.56l.75,2.31.07.17c.12-.45.23-.84.34-1.23.15-.55.31-1.1.45-1.65,0-.12.08-.17.21-.16s.49,0,.74,0,.18,0,.22.17C22.68,8.83,23,9.77,23.31,10.78Z"/><path class="cls-6" d="M5.87,9.72V7.89c0-.13,0-.18.17-.17a5.61,5.61,0,0,0,.58,0c.14,0,.17,0,.17.17,0,.42,0,.84,0,1.26,0,.13,0,.19.17.19H8.63c.14,0,.17,0,.17-.17,0-.42,0-.84,0-1.26,0-.16.05-.21.2-.19s.55-.1.69,0,0,.44,0,.67c0,1,0,2.06,0,3.09,0,.15,0,.2-.19.19H9c-.14,0-.17,0-.17-.17,0-.45,0-.89,0-1.33,0-.13,0-.18-.16-.17H6.94c-.13,0-.16,0-.15.15,0,.45,0,.89,0,1.33,0,.16,0,.2-.19.19H6.05c-.16,0-.19-.05-.18-.2Z"/><path class="cls-6" d="M27.64,10.05c-.37,0-.74,0-1.11,0-.13,0-.14.05-.14.15a.75.75,0,0,0,.7.8,10.82,10.82,0,0,0,1.61,0c.18,0,.21.07.21.22,0,.49,0,.49-.48.49H27.21a1.69,1.69,0,0,1-1.85-1.78,2.78,2.78,0,0,1,.19-1.24,1.71,1.71,0,0,1,1.74-1c.48,0,1,0,1.46,0,.14,0,.16,0,.16.18,0,.52,0,.52-.51.52s-.81,0-1.22,0a.82.82,0,0,0-.77.73c0,.16,0,.18.16.18h2.14c.15,0,.21,0,.2.2,0,.51,0,.51-.51.51Z"/><path class="cls-6" d="M14.21,9.2c0,.38,0,.76,0,1.14a1.19,1.19,0,0,1-1.09,1.34,3.1,3.1,0,0,1-1.88-.1,1.14,1.14,0,0,1-.77-1.15c0-.85,0-1.69,0-2.54,0-.14,0-.18.17-.17a5.8,5.8,0,0,0,.59,0c.12,0,.16,0,.16.16,0,.74,0,1.48,0,2.22a1.93,1.93,0,0,0,0,.24.74.74,0,0,0,.8.76h.35c.5,0,.75-.26.76-.76,0-.77,0-1.55,0-2.33,0-.33,0-.29.31-.29.2,0,.46-.09.58,0s0,.37,0,.56V9.2Z"/><path class="cls-6" d="M14.39,11.72,14.7,11c.47-1,.94-2,1.4-3.06a.31.31,0,0,1,.37-.23c.23,0,.51-.06.69,0s.21.39.31.6c.49,1.06,1,2.13,1.48,3.19.07.15,0,.18-.12.17h-.67a.19.19,0,0,1-.22-.15c-.08-.21-.18-.41-.26-.62a.23.23,0,0,0-.26-.19H15.9a.19.19,0,0,0-.22.15c-.08.23-.19.46-.28.68,0,.07,0,.13-.14.13Zm2.27-3.19-.58,1.4c0,.07,0,.12.07.12h1c.08,0,.11,0,.08-.1C17.07,9.49,16.87,9,16.66,8.53Z"/><path class="cls-6" d="M29.7,9.7V7.92c0-.15,0-.21.18-.2s.41,0,.61,0,.17,0,.17.17v3.66c0,.13,0,.18-.17.17h-.63c-.14,0-.17,0-.16-.17Z"/><path class="cls-7" d="M4.93,17.79,6,14.93h.41l1.17,2.86H7.18l-.33-.87H5.65l-.31.87Zm.83-1.17h1l-.3-.8c-.09-.24-.16-.44-.2-.59a4.21,4.21,0,0,1-.16.55Z"/><path class="cls-7" d="M7.92,17.79V14.93H9.19a1.46,1.46,0,0,1,.58.08.6.6,0,0,1,.32.27.8.8,0,0,1,.12.43.69.69,0,0,1-.2.51,1,1,0,0,1-.6.27.84.84,0,0,1,.22.14A2.07,2.07,0,0,1,10,17l.5.78H10l-.38-.59a4.41,4.41,0,0,0-.27-.4.86.86,0,0,0-.2-.19A.53.53,0,0,0,9,16.53H8.3v1.27Zm.38-1.6h.82a1.4,1.4,0,0,0,.4-.05A.5.5,0,0,0,9.75,16a.48.48,0,0,0,.07-.26.4.4,0,0,0-.15-.33.65.65,0,0,0-.46-.14H8.3Z"/><path class="cls-7" d="M12,17.79h-.35V15.55a2,2,0,0,1-.34.24,2.07,2.07,0,0,1-.37.18v-.33a2.46,2.46,0,0,0,.52-.34,1.26,1.26,0,0,0,.31-.38H12Z"/><path class="cls-7" d="M14.74,17.45v.34h-1.9a.67.67,0,0,1,0-.24,1.21,1.21,0,0,1,.24-.38,3.32,3.32,0,0,1,.46-.44,3.73,3.73,0,0,0,.63-.6.72.72,0,0,0,.16-.43.47.47,0,0,0-.15-.35.56.56,0,0,0-.39-.14.53.53,0,0,0-.56.57l-.36,0a.86.86,0,0,1,.28-.61,1,1,0,0,1,.65-.21.92.92,0,0,1,.65.22.78.78,0,0,1,.24.57.8.8,0,0,1-.07.34,1.11,1.11,0,0,1-.23.35,6,6,0,0,1-.54.5l-.41.36-.15.19Z"/><path class="cls-7" d="M15.11,16.38a2.62,2.62,0,0,1,.11-.82,1.08,1.08,0,0,1,.31-.48.81.81,0,0,1,.52-.16.84.84,0,0,1,.4.09.75.75,0,0,1,.29.27,1.65,1.65,0,0,1,.18.42,3.1,3.1,0,0,1,.06.68,2.54,2.54,0,0,1-.1.81,1,1,0,0,1-.31.48.81.81,0,0,1-.52.17.77.77,0,0,1-.65-.3A1.84,1.84,0,0,1,15.11,16.38Zm.36,0a1.8,1.8,0,0,0,.17.94.5.5,0,0,0,.41.23.49.49,0,0,0,.4-.23,1.8,1.8,0,0,0,.17-.94,1.78,1.78,0,0,0-.17-.94.47.47,0,0,0-.41-.23.44.44,0,0,0-.38.2A1.84,1.84,0,0,0,15.47,16.38Z"/><path class="cls-7" d="M18.46,16.87l.36,0a.85.85,0,0,0,.12.35.69.69,0,0,0,.29.23,1.19,1.19,0,0,0,.44.08,1.12,1.12,0,0,0,.38-.06.7.7,0,0,0,.25-.18.46.46,0,0,0,.08-.25.38.38,0,0,0-.08-.23.59.59,0,0,0-.26-.17,3.57,3.57,0,0,0-.51-.14,2.17,2.17,0,0,1-.55-.18.75.75,0,0,1-.31-.27.69.69,0,0,1,0-.76.74.74,0,0,1,.36-.28,1.24,1.24,0,0,1,.52-.1,1.4,1.4,0,0,1,.56.1.83.83,0,0,1,.38.3,1,1,0,0,1,.14.45l-.37,0a.59.59,0,0,0-.19-.41,1,1,0,0,0-1,0,.35.35,0,0,0-.16.3.35.35,0,0,0,.11.26,1.61,1.61,0,0,0,.57.2,4.38,4.38,0,0,1,.64.18.91.91,0,0,1,.36.3.68.68,0,0,1,.12.4.73.73,0,0,1-.13.43.83.83,0,0,1-.37.32,1.43,1.43,0,0,1-.56.11,1.8,1.8,0,0,1-.65-.11,1,1,0,0,1-.41-.34A1.06,1.06,0,0,1,18.46,16.87Z"/><path class="cls-7" d="M22.64,17.12l.36.05a.85.85,0,0,1-.32.49.92.92,0,0,1-.59.18.91.91,0,0,1-.72-.28,1.1,1.1,0,0,1-.27-.79,1.13,1.13,0,0,1,.27-.81.92.92,0,0,1,.7-.29.88.88,0,0,1,.68.28,1.17,1.17,0,0,1,.26.8v.09H21.46a.83.83,0,0,0,.2.53.57.57,0,0,0,.43.18.52.52,0,0,0,.33-.1A.76.76,0,0,0,22.64,17.12Zm-1.16-.57h1.16a.78.78,0,0,0-.13-.39.59.59,0,0,0-.85,0A.63.63,0,0,0,21.48,16.55Z"/><path class="cls-7" d="M23.44,17.79V15.72h.31V16a.83.83,0,0,1,.23-.29.36.36,0,0,1,.22-.07.72.72,0,0,1,.36.11l-.12.33a.49.49,0,0,0-.25-.08.38.38,0,0,0-.21.07.35.35,0,0,0-.13.2,1.31,1.31,0,0,0-.06.41v1.08Z"/><path class="cls-7" d="M24.78,15.33v-.4h.35v.4Zm0,2.46V15.72h.35v2.07Z"/><path class="cls-7" d="M27.08,17.12l.37.05a.9.9,0,0,1-.32.49,1,1,0,0,1-.6.18.94.94,0,0,1-.72-.28,1.09,1.09,0,0,1-.26-.79,1.18,1.18,0,0,1,.26-.81.93.93,0,0,1,.7-.29.87.87,0,0,1,.68.28,1.12,1.12,0,0,1,.27.8v.09H25.91a.82.82,0,0,0,.19.53.59.59,0,0,0,.44.18.56.56,0,0,0,.33-.1A.67.67,0,0,0,27.08,17.12Zm-1.15-.57h1.16a.69.69,0,0,0-.14-.39.54.54,0,0,0-.43-.2.56.56,0,0,0-.41.16A.63.63,0,0,0,25.93,16.55Z"/><path class="cls-7" d="M27.75,17.17l.34-.05a.5.5,0,0,0,.17.32.58.58,0,0,0,.37.11.53.53,0,0,0,.36-.1.28.28,0,0,0,.12-.23A.24.24,0,0,0,29,17a1.76,1.76,0,0,0-.36-.12,2.66,2.66,0,0,1-.54-.17.48.48,0,0,1-.23-.19.55.55,0,0,1-.07-.28.58.58,0,0,1,.06-.26.65.65,0,0,1,.17-.2.83.83,0,0,1,.23-.1,1,1,0,0,1,.3,0,1.14,1.14,0,0,1,.43.07.62.62,0,0,1,.27.19.71.71,0,0,1,.12.32l-.34.05a.37.37,0,0,0-.14-.25.49.49,0,0,0-.32-.09.58.58,0,0,0-.34.08.23.23,0,0,0-.1.19.19.19,0,0,0,0,.12.25.25,0,0,0,.13.09l.31.09a3.1,3.1,0,0,1,.52.17.55.55,0,0,1,.24.18.6.6,0,0,1,0,.63.6.6,0,0,1-.3.24,1,1,0,0,1-.44.09,1,1,0,0,1-.61-.17A.79.79,0,0,1,27.75,17.17Z"/><rect class="cls-8" x="38.67" y="12.75" width="46.39" height="15.97" rx="0.88"/><circle class="cls-9" cx="42.64" cy="19.15" r="1.36"/><circle class="cls-9" cx="52.11" cy="19.15" r="1.36"/><circle class="cls-9" cx="61.58" cy="19.15" r="1.36"/><circle class="cls-9" cx="71.05" cy="19.15" r="1.36"/><circle class="cls-9" cx="80.52" cy="19.15" r="1.36"/><path class="cls-7" d="M40,26.9V24.72h.59a1.37,1.37,0,0,1,.44,0,.46.46,0,0,1,.27.21.93.93,0,0,1,0,.82A.56.56,0,0,1,41,26a1.29,1.29,0,0,1-.47.06h-.24v.82Zm.37-1.81v.62h.2a.85.85,0,0,0,.28,0,.19.19,0,0,0,.12-.1.35.35,0,0,0,0-.36.23.23,0,0,0-.12-.1.92.92,0,0,0-.3,0Z"/><path class="cls-7" d="M41.93,26.9l-.44-2.18h.38l.27,1.5.34-1.5h.44l.32,1.53.28-1.53h.38l-.45,2.18h-.39l-.37-1.63-.36,1.63Z"/><path class="cls-7" d="M44.08,26.9V24.72h.78a1.09,1.09,0,0,1,.43.06.43.43,0,0,1,.21.21.61.61,0,0,1,.08.34.7.7,0,0,1-.12.42.58.58,0,0,1-.36.19,1.2,1.2,0,0,1,.2.18,3.53,3.53,0,0,1,.21.36l.22.42h-.44L45,26.43a2.87,2.87,0,0,0-.19-.32.27.27,0,0,0-.11-.09.44.44,0,0,0-.19,0h-.08v.91Zm.37-1.25h.28a1,1,0,0,0,.32,0,.21.21,0,0,0,.11-.08.32.32,0,0,0,0-.18.25.25,0,0,0,0-.16.18.18,0,0,0-.12-.09,1.38,1.38,0,0,0-.3,0h-.29Z"/><path class="cls-7" d="M49.4,26.19l.36,0c0,.28.17.42.4.42a.36.36,0,0,0,.26-.09.24.24,0,0,0,.1-.21.21.21,0,0,0,0-.12.24.24,0,0,0-.11-.09L50.05,26a1.51,1.51,0,0,1-.35-.15.62.62,0,0,1-.17-.22.67.67,0,0,1-.06-.28.62.62,0,0,1,.08-.33.52.52,0,0,1,.23-.21.8.8,0,0,1,.36-.07.68.68,0,0,1,.5.17.69.69,0,0,1,.2.49l-.37,0a.45.45,0,0,0-.11-.25.32.32,0,0,0-.23-.07.37.37,0,0,0-.23.06.19.19,0,0,0-.08.15.18.18,0,0,0,.07.15,1.06,1.06,0,0,0,.34.14,1.21,1.21,0,0,1,.4.16.53.53,0,0,1,.19.23.67.67,0,0,1,.07.33.68.68,0,0,1-.18.48.73.73,0,0,1-.56.19Q49.48,26.94,49.4,26.19Z"/><path class="cls-7" d="M51.68,26.9V26L51,24.72h.43l.43.87.43-.87h.42L52.05,26v.91Z"/><path class="cls-7" d="M52.81,26.19l.36,0c0,.28.18.42.4.42a.38.38,0,0,0,.27-.09.26.26,0,0,0,.09-.21.21.21,0,0,0,0-.12.22.22,0,0,0-.1-.09L53.47,26a1.33,1.33,0,0,1-.35-.15.62.62,0,0,1-.17-.22.55.55,0,0,1-.07-.28A.73.73,0,0,1,53,25a.66.66,0,0,1,.23-.21.8.8,0,0,1,.36-.07.62.62,0,0,1,.7.66l-.37,0a.45.45,0,0,0-.1-.25.36.36,0,0,0-.24-.07.41.41,0,0,0-.23.06.18.18,0,0,0,0,.3,1.08,1.08,0,0,0,.33.14,1.39,1.39,0,0,1,.41.16.71.71,0,0,1,.19.23.81.81,0,0,1,.06.33.68.68,0,0,1-.18.48.72.72,0,0,1-.56.19Q52.89,26.94,52.81,26.19Z"/><path class="cls-7" d="M59.59,24.72H60v1.19a2.18,2.18,0,0,0,0,.35.36.36,0,0,0,.11.23.41.41,0,0,0,.25.08.37.37,0,0,0,.21-.06.31.31,0,0,0,.11-.16,1.74,1.74,0,0,0,0-.42V24.72h.37v1.15a3,3,0,0,1-.05.63.55.55,0,0,1-.22.32.74.74,0,0,1-.44.12.83.83,0,0,1-.45-.1.58.58,0,0,1-.23-.28,2,2,0,0,1-.08-.67Z"/><path class="cls-7" d="M61.35,26.19l.36,0c0,.28.18.42.4.42a.4.4,0,0,0,.27-.09.26.26,0,0,0,.09-.21.21.21,0,0,0,0-.12.22.22,0,0,0-.1-.09L62,26a1.4,1.4,0,0,1-.34-.15.79.79,0,0,1-.18-.22.67.67,0,0,1-.06-.28A.73.73,0,0,1,61.5,25a.58.58,0,0,1,.23-.21.8.8,0,0,1,.36-.07.62.62,0,0,1,.7.66l-.37,0a.39.39,0,0,0-.11-.25.32.32,0,0,0-.23-.07.39.39,0,0,0-.23.06.18.18,0,0,0,0,.3,1.08,1.08,0,0,0,.33.14,1.39,1.39,0,0,1,.41.16.71.71,0,0,1,.19.23.81.81,0,0,1,.06.33.68.68,0,0,1-.18.48.72.72,0,0,1-.56.19Q61.43,26.94,61.35,26.19Z"/><path class="cls-7" d="M63.15,24.72h.74a1,1,0,0,1,.42.06.47.47,0,0,1,.21.19.61.61,0,0,1,.08.3.57.57,0,0,1-.07.29.5.5,0,0,1-.19.19.49.49,0,0,1,.26.19.58.58,0,0,1,.09.33.63.63,0,0,1-.12.4.51.51,0,0,1-.28.21,2.86,2.86,0,0,1-.51,0h-.63Zm.37.37v.5H64a.21.21,0,0,0,.14-.07.26.26,0,0,0,.06-.18.25.25,0,0,0,0-.15.16.16,0,0,0-.1-.08h-.57Zm0,.86v.59h.35a.89.89,0,0,0,.29,0,.17.17,0,0,0,.1-.09.31.31,0,0,0,0-.34.23.23,0,0,0-.12-.1,1.12,1.12,0,0,0-.32,0Z"/><path class="cls-7" d="M69.27,26.9V24.72h.6a1.34,1.34,0,0,1,.43,0,.46.46,0,0,1,.27.21.89.89,0,0,1,0,.82.63.63,0,0,1-.23.23,1.32,1.32,0,0,1-.48.06h-.24v.82Zm.37-1.81v.62h.21a.9.9,0,0,0,.28,0,.19.19,0,0,0,.12-.1.35.35,0,0,0,0-.36.35.35,0,0,0-.12-.1,1,1,0,0,0-.31,0Z"/><path class="cls-7" d="M71,26.9V24.72h.59a1.37,1.37,0,0,1,.44,0,.46.46,0,0,1,.27.21.93.93,0,0,1,0,.82.56.56,0,0,1-.23.23,1.29,1.29,0,0,1-.47.06h-.24v.82Zm.37-1.81v.62h.2a.85.85,0,0,0,.28,0,.19.19,0,0,0,.12-.1.35.35,0,0,0,0-.36.23.23,0,0,0-.12-.1,1,1,0,0,0-.3,0Z"/><path class="cls-7" d="M72.69,26.9V24.72h.59a1.41,1.41,0,0,1,.44,0A.49.49,0,0,1,74,25a.93.93,0,0,1,0,.82.56.56,0,0,1-.23.23,1.29,1.29,0,0,1-.47.06h-.24v.82Zm.37-1.81v.62h.2a.85.85,0,0,0,.28,0,.19.19,0,0,0,.12-.1.35.35,0,0,0,0-.36.23.23,0,0,0-.12-.1,1,1,0,0,0-.3,0Z"/><path class="cls-7" d="M79.09,26.9l-.65-2.18h.4l.46,1.62.45-1.62h.39l-.65,2.18Z"/><path class="cls-7" d="M80.33,26.9V24.72h.59a1.37,1.37,0,0,1,.44,0,.46.46,0,0,1,.27.21.93.93,0,0,1,0,.82.51.51,0,0,1-.23.23,1.29,1.29,0,0,1-.47.06H80.7v.82Zm.37-1.81v.62h.2a.85.85,0,0,0,.28,0,.24.24,0,0,0,.13-.1.34.34,0,0,0,0-.18.27.27,0,0,0,0-.18.23.23,0,0,0-.12-.1.92.92,0,0,0-.3,0Z"/><path class="cls-7" d="M82,26.9V24.72h.36l.75,1.46V24.72h.35V26.9h-.37l-.74-1.42V26.9Z"/><rect class="cls-8" x="123.74" y="12.75" width="10.74" height="16.66" rx="0.55"/><rect class="cls-8" x="144.52" y="12.75" width="37.03" height="16.66" rx="0.63"/><circle class="cls-9" cx="129.11" cy="19.84" r="1.36"/><circle class="cls-9" cx="148.1" cy="19.84" r="1.36"/><circle class="cls-9" cx="158.15" cy="19.84" r="1.36"/><circle class="cls-9" cx="167.65" cy="19.84" r="1.36"/><circle class="cls-9" cx="177.14" cy="19.84" r="1.36"/><path class="cls-7" d="M160.58,27.85V25.68H161v1.8h.92v.37Z"/><path class="cls-7" d="M163.79,27.85h-.4l-.16-.5h-.73l-.15.5H162l.72-2.18h.39Zm-.68-.87-.25-.81-.25.81Z"/><path class="cls-7" d="M164,27.85V25.67h.36l.75,1.45V25.67h.34v2.18h-.37l-.73-1.43v1.43Z"/><path class="cls-7" d="M126.42,27.85,126,25.67h.38l.28,1.49.33-1.49h.44l.32,1.52.29-1.52h.37l-.45,2.18h-.39l-.37-1.63-.36,1.63Z"/><path class="cls-7" d="M130.09,27.85h-.4l-.16-.5h-.73l-.16.5h-.39l.71-2.18h.4Zm-.68-.87-.25-.81-.25.81Z"/><path class="cls-7" d="M130.29,27.85V25.67h.36l.75,1.45V25.67h.34v2.18h-.37l-.74-1.43v1.43Z"/></g></g></svg>