<svg xmlns="http://www.w3.org/2000/svg" xmlns:xlink="http://www.w3.org/1999/xlink" viewBox="0 0 393.56 229.53"><defs><style>.cls-1{fill:url(#linear-gradient);}.cls-2{fill:url(#linear-gradient-2);}.cls-3{fill:url(#linear-gradient-3);}.cls-4{fill:url(#linear-gradient-4);}.cls-5{fill:url(#linear-gradient-5);}.cls-6{fill:#0b0c0c;}.cls-7{fill:url(#linear-gradient-6);}.cls-8{fill:url(#linear-gradient-7);}.cls-9{fill:url(#linear-gradient-8);}.cls-10{fill:none;stroke-miterlimit:10;stroke:url(#linear-gradient-9);}.cls-11{fill:url(#linear-gradient-10);}.cls-12{fill:url(#linear-gradient-11);}.cls-13{fill:url(#linear-gradient-12);}</style><linearGradient id="linear-gradient" x1="205.62" y1="152.52" x2="185.24" y2="23.87" gradientUnits="userSpaceOnUse"><stop offset="0" stop-color="#9d9d9c"/><stop offset="0.54" stop-color="#f6f6f6"/><stop offset="1" stop-color="#9d9d9c"/></linearGradient><linearGradient id="linear-gradient-2" x1="200.87" y1="91.8" x2="192.89" y2="41.43" xlink:href="#linear-gradient"/><linearGradient id="linear-gradient-3" x1="-12.96" y1="164.08" x2="17.75" y2="138.31" xlink:href="#linear-gradient"/><linearGradient id="linear-gradient-4" x1="-0.88" y1="178.66" x2="66.13" y2="111.65" xlink:href="#linear-gradient"/><linearGradient id="linear-gradient-5" x1="330.61" y1="81.45" x2="395.85" y2="16.21" xlink:href="#linear-gradient"/><linearGradient id="linear-gradient-6" x1="82.04" y1="77.19" x2="313.88" y2="77.19" xlink:href="#linear-gradient"/><linearGradient id="linear-gradient-7" x1="82.04" y1="98.88" x2="313.88" y2="98.88" xlink:href="#linear-gradient"/><linearGradient id="linear-gradient-8" x1="82.04" y1="118.56" x2="313.88" y2="118.56" xlink:href="#linear-gradient"/><linearGradient id="linear-gradient-9" x1="131.38" y1="247.46" x2="346.61" y2="66.86" xlink:href="#linear-gradient"/><linearGradient id="linear-gradient-10" x1="107.48" y1="132.24" x2="373.29" y2="132.24" xlink:href="#linear-gradient"/><linearGradient id="linear-gradient-11" x1="148.01" y1="258.93" x2="340.38" y2="66.56" xlink:href="#linear-gradient"/><linearGradient id="linear-gradient-12" x1="99.2" y1="210.12" x2="126.32" y2="183" xlink:href="#linear-gradient"/></defs><g id="Layer_2" data-name="Layer 2"><g id="Layer_5" data-name="Layer 5"><polygon class="cls-1" points="18.68 111.84 18.68 82.56 335.96 0 358.52 18.72 387.8 10.56 393.56 13.92 393.56 66.24 4.84 184.32 0 179.52 0 118.08 18.68 111.84"/><polygon class="cls-2" points="0 118.08 4.78 122.86 393.56 13.92 387.8 10.56 358.52 18.72 0 118.08"/><polygon class="cls-3" points="4.78 122.86 4.78 184.32 0 179.52 0 118.08 4.78 122.86"/><polygon class="cls-4" points="61.46 106.98 61.46 166.47 4.78 184.32 4.78 122.86 61.46 106.98"/><polygon class="cls-5" points="333.61 30.72 333.61 84.45 393.56 66.24 393.56 13.92 333.61 30.72"/><polygon class="cls-6" points="333.61 30.72 333.61 84.45 61.46 166.47 61.46 106.98 333.61 30.72"/><polygon class="cls-7" points="82.04 104.98 82.04 114.06 313.88 49.19 313.88 40.32 82.04 104.98"/><polygon class="cls-8" points="82.04 122.86 313.88 56.16 313.88 72.96 82.04 141.6 82.04 122.86"/><polygon class="cls-9" points="82.04 147.84 82.04 157.92 313.88 87.84 313.88 79.2 82.04 147.84"/><polygon class="cls-10" points="107.48 164.16 363.58 89.76 373.29 99.47 373.29 147.84 118.04 228.96 108.68 219.6 107.48 164.16"/><polygon class="cls-11" points="107.48 164.16 118.04 174.72 373.29 99.47 363.58 89.76 107.48 164.16"/><polygon class="cls-12" points="118.04 174.72 373.29 99.47 373.29 147.84 118.04 228.96 118.04 174.72"/><polygon class="cls-13" points="107.48 164.16 118.04 174.72 118.04 228.96 108.68 219.6 107.48 164.16"/></g></g></svg>