<svg xmlns="http://www.w3.org/2000/svg" xmlns:xlink="http://www.w3.org/1999/xlink" viewBox="0 0 208.21 32.67"><defs><style>.cls-1{fill:#313d59;}.cls-2{fill:#1e1e1e;}.cls-3{fill:url(#linear-gradient);}.cls-4{fill:url(#linear-gradient-2);}.cls-5{fill:url(#linear-gradient-3);}.cls-6{fill:url(#linear-gradient-4);}.cls-7{fill:url(#linear-gradient-5);}.cls-8{fill:url(#linear-gradient-6);}.cls-9{fill:url(#linear-gradient-7);}.cls-10{fill:url(#linear-gradient-8);}.cls-11{fill:url(#linear-gradient-9);}.cls-12{fill:url(#linear-gradient-10);}.cls-13{fill:url(#linear-gradient-11);}.cls-14{fill:url(#linear-gradient-12);}.cls-105,.cls-107,.cls-120,.cls-122,.cls-15,.cls-17,.cls-30,.cls-32,.cls-45,.cls-47,.cls-60,.cls-62,.cls-75,.cls-77,.cls-90,.cls-92{opacity:0.2;}.cls-15{fill:url(#linear-gradient-13);}.cls-16{fill:url(#linear-gradient-14);}.cls-17{fill:url(#linear-gradient-15);}.cls-18{fill:url(#linear-gradient-16);}.cls-19{fill:url(#linear-gradient-17);}.cls-20{fill:url(#linear-gradient-18);}.cls-21{fill:url(#linear-gradient-19);}.cls-22{fill:url(#linear-gradient-20);}.cls-23{fill:url(#linear-gradient-21);}.cls-24{fill:url(#linear-gradient-22);}.cls-25{fill:url(#linear-gradient-23);}.cls-26{fill:url(#linear-gradient-24);}.cls-27{fill:url(#linear-gradient-25);}.cls-28{fill:url(#linear-gradient-26);}.cls-29{fill:url(#linear-gradient-27);}.cls-30{fill:url(#linear-gradient-28);}.cls-31{fill:url(#linear-gradient-29);}.cls-32{fill:url(#linear-gradient-30);}.cls-33{fill:url(#linear-gradient-31);}.cls-34{fill:url(#linear-gradient-32);}.cls-35{fill:url(#linear-gradient-33);}.cls-36{fill:url(#linear-gradient-34);}.cls-37{fill:url(#linear-gradient-35);}.cls-38{fill:url(#linear-gradient-36);}.cls-39{fill:url(#linear-gradient-37);}.cls-40{fill:url(#linear-gradient-38);}.cls-41{fill:url(#linear-gradient-39);}.cls-42{fill:url(#linear-gradient-40);}.cls-43{fill:url(#linear-gradient-41);}.cls-44{fill:url(#linear-gradient-42);}.cls-45{fill:url(#linear-gradient-43);}.cls-46{fill:url(#linear-gradient-44);}.cls-47{fill:url(#linear-gradient-45);}.cls-48{fill:url(#linear-gradient-46);}.cls-49{fill:url(#linear-gradient-47);}.cls-50{fill:url(#linear-gradient-48);}.cls-51{fill:url(#linear-gradient-49);}.cls-52{fill:url(#linear-gradient-50);}.cls-53{fill:url(#linear-gradient-51);}.cls-54{fill:url(#linear-gradient-52);}.cls-55{fill:url(#linear-gradient-53);}.cls-56{fill:url(#linear-gradient-54);}.cls-57{fill:url(#linear-gradient-55);}.cls-58{fill:url(#linear-gradient-56);}.cls-59{fill:url(#linear-gradient-57);}.cls-60{fill:url(#linear-gradient-58);}.cls-61{fill:url(#linear-gradient-59);}.cls-62{fill:url(#linear-gradient-60);}.cls-63{fill:url(#linear-gradient-61);}.cls-64{fill:url(#linear-gradient-62);}.cls-65{fill:url(#linear-gradient-63);}.cls-66{fill:url(#linear-gradient-64);}.cls-67{fill:url(#linear-gradient-65);}.cls-68{fill:url(#linear-gradient-66);}.cls-69{fill:url(#linear-gradient-67);}.cls-70{fill:url(#linear-gradient-68);}.cls-71{fill:url(#linear-gradient-69);}.cls-72{fill:url(#linear-gradient-70);}.cls-73{fill:url(#linear-gradient-71);}.cls-74{fill:url(#linear-gradient-72);}.cls-75{fill:url(#linear-gradient-73);}.cls-76{fill:url(#linear-gradient-74);}.cls-77{fill:url(#linear-gradient-75);}.cls-78{fill:url(#linear-gradient-76);}.cls-79{fill:url(#linear-gradient-77);}.cls-80{fill:url(#linear-gradient-78);}.cls-81{fill:url(#linear-gradient-79);}.cls-82{fill:url(#linear-gradient-80);}.cls-83{fill:url(#linear-gradient-81);}.cls-84{fill:url(#linear-gradient-82);}.cls-85{fill:url(#linear-gradient-83);}.cls-86{fill:url(#linear-gradient-84);}.cls-87{fill:url(#linear-gradient-85);}.cls-88{fill:url(#linear-gradient-86);}.cls-89{fill:url(#linear-gradient-87);}.cls-90{fill:url(#linear-gradient-88);}.cls-91{fill:url(#linear-gradient-89);}.cls-92{fill:url(#linear-gradient-90);}.cls-93{fill:url(#linear-gradient-91);}.cls-94{fill:url(#linear-gradient-92);}.cls-95{fill:url(#linear-gradient-93);}.cls-96{fill:url(#linear-gradient-94);}.cls-97{fill:url(#linear-gradient-95);}.cls-98{fill:url(#linear-gradient-96);}.cls-99{fill:url(#linear-gradient-97);}.cls-100{fill:url(#linear-gradient-98);}.cls-101{fill:url(#linear-gradient-99);}.cls-102{fill:url(#linear-gradient-100);}.cls-103{fill:url(#linear-gradient-101);}.cls-104{fill:url(#linear-gradient-102);}.cls-105{fill:url(#linear-gradient-103);}.cls-106{fill:url(#linear-gradient-104);}.cls-107{fill:url(#linear-gradient-105);}.cls-108{fill:url(#linear-gradient-106);}.cls-109{fill:url(#linear-gradient-107);}.cls-110{fill:url(#linear-gradient-108);}.cls-111{fill:url(#linear-gradient-109);}.cls-112{fill:url(#linear-gradient-110);}.cls-113{fill:url(#linear-gradient-111);}.cls-114{fill:url(#linear-gradient-112);}.cls-115{fill:url(#linear-gradient-113);}.cls-116{fill:url(#linear-gradient-114);}.cls-117{fill:url(#linear-gradient-115);}.cls-118{fill:url(#linear-gradient-116);}.cls-119{fill:url(#linear-gradient-117);}.cls-120{fill:url(#linear-gradient-118);}.cls-121{fill:url(#linear-gradient-119);}.cls-122{fill:url(#linear-gradient-120);}.cls-123{fill:#fff;}.cls-124{fill:#155427;}</style><linearGradient id="linear-gradient" x1="-64.96" y1="24.42" x2="-64.96" y2="9.21" gradientTransform="translate(95.04 0)" gradientUnits="userSpaceOnUse"><stop offset="0" stop-color="#aaa"/><stop offset="0.72" stop-color="#aaa"/><stop offset="1" stop-color="#7a7a7a"/></linearGradient><linearGradient id="linear-gradient-2" x1="-69.35" y1="9.07" x2="-60.57" y2="9.07" xlink:href="#linear-gradient"/><linearGradient id="linear-gradient-3" x1="-69.93" y1="23.07" x2="-69.93" y2="17.99" gradientTransform="translate(95.04 0)" gradientUnits="userSpaceOnUse"><stop offset="0" stop-color="#946014"/><stop offset="1" stop-color="#1d1d1b"/></linearGradient><linearGradient id="linear-gradient-4" x1="-68.51" y1="23.07" x2="-68.51" y2="17.99" xlink:href="#linear-gradient-3"/><linearGradient id="linear-gradient-5" x1="-67.09" y1="23.07" x2="-67.09" y2="17.99" xlink:href="#linear-gradient-3"/><linearGradient id="linear-gradient-6" x1="-65.67" y1="23.07" x2="-65.67" y2="17.99" xlink:href="#linear-gradient-3"/><linearGradient id="linear-gradient-7" x1="-64.25" y1="23.07" x2="-64.25" y2="17.99" xlink:href="#linear-gradient-3"/><linearGradient id="linear-gradient-8" x1="-62.83" y1="23.07" x2="-62.83" y2="17.99" xlink:href="#linear-gradient-3"/><linearGradient id="linear-gradient-9" x1="-61.41" y1="23.07" x2="-61.41" y2="17.99" xlink:href="#linear-gradient-3"/><linearGradient id="linear-gradient-10" x1="-59.99" y1="23.07" x2="-59.99" y2="17.99" xlink:href="#linear-gradient-3"/><linearGradient id="linear-gradient-11" x1="-64.96" y1="16.2" x2="-64.96" y2="14.29" gradientTransform="translate(95.04 0)" gradientUnits="userSpaceOnUse"><stop offset="0"/><stop offset="1" stop-color="#090909" stop-opacity="0"/></linearGradient><linearGradient id="linear-gradient-12" x1="-72.04" y1="12.03" x2="-72.04" y2="10.24" gradientTransform="translate(95.04 0)" gradientUnits="userSpaceOnUse"><stop offset="0" stop-color="#006937"/><stop offset="1" stop-color="#004c2e"/></linearGradient><linearGradient id="linear-gradient-13" x1="-72.04" y1="11.11" x2="-72.04" y2="10.24" gradientTransform="translate(95.04 0)" gradientUnits="userSpaceOnUse"><stop offset="0" stop-color="#fff"/><stop offset="0.01" stop-color="#fff"/><stop offset="1" stop-color="#fff" stop-opacity="0"/></linearGradient><linearGradient id="linear-gradient-14" x1="-57.39" y1="12.03" x2="-57.39" y2="10.24" gradientTransform="translate(95.04 0)" gradientUnits="userSpaceOnUse"><stop offset="0" stop-color="#bf910a"/><stop offset="1" stop-color="#a86212"/></linearGradient><linearGradient id="linear-gradient-15" x1="-57.39" y1="11.11" x2="-57.39" y2="10.24" xlink:href="#linear-gradient-13"/><linearGradient id="linear-gradient-16" x1="-43.78" y1="24.42" x2="-43.78" y2="9.21" xlink:href="#linear-gradient"/><linearGradient id="linear-gradient-17" x1="-48.17" y1="9.07" x2="-39.39" y2="9.07" xlink:href="#linear-gradient"/><linearGradient id="linear-gradient-18" x1="-48.75" y1="23.07" x2="-48.75" y2="17.99" xlink:href="#linear-gradient-3"/><linearGradient id="linear-gradient-19" x1="-47.33" y1="23.07" x2="-47.33" y2="17.99" xlink:href="#linear-gradient-3"/><linearGradient id="linear-gradient-20" x1="-45.91" y1="23.07" x2="-45.91" y2="17.99" xlink:href="#linear-gradient-3"/><linearGradient id="linear-gradient-21" x1="-44.49" y1="23.07" x2="-44.49" y2="17.99" xlink:href="#linear-gradient-3"/><linearGradient id="linear-gradient-22" x1="-43.07" y1="23.07" x2="-43.07" y2="17.99" xlink:href="#linear-gradient-3"/><linearGradient id="linear-gradient-23" x1="-41.65" y1="23.07" x2="-41.65" y2="17.99" xlink:href="#linear-gradient-3"/><linearGradient id="linear-gradient-24" x1="-40.23" y1="23.07" x2="-40.23" y2="17.99" xlink:href="#linear-gradient-3"/><linearGradient id="linear-gradient-25" x1="-38.82" y1="23.07" x2="-38.82" y2="17.99" xlink:href="#linear-gradient-3"/><linearGradient id="linear-gradient-26" x1="-43.78" y1="16.2" x2="-43.78" y2="14.29" xlink:href="#linear-gradient-11"/><linearGradient id="linear-gradient-27" x1="-50.86" y1="12.03" x2="-50.86" y2="10.24" xlink:href="#linear-gradient-12"/><linearGradient id="linear-gradient-28" x1="-50.86" y1="11.11" x2="-50.86" y2="10.24" xlink:href="#linear-gradient-13"/><linearGradient id="linear-gradient-29" x1="-36.22" y1="12.03" x2="-36.22" y2="10.24" xlink:href="#linear-gradient-14"/><linearGradient id="linear-gradient-30" x1="-36.22" y1="11.11" x2="-36.22" y2="10.24" xlink:href="#linear-gradient-13"/><linearGradient id="linear-gradient-31" x1="-22.54" y1="24.42" x2="-22.54" y2="9.21" xlink:href="#linear-gradient"/><linearGradient id="linear-gradient-32" x1="-26.93" y1="9.07" x2="-18.15" y2="9.07" xlink:href="#linear-gradient"/><linearGradient id="linear-gradient-33" x1="-27.51" y1="23.07" x2="-27.51" y2="17.99" xlink:href="#linear-gradient-3"/><linearGradient id="linear-gradient-34" x1="-26.09" y1="23.07" x2="-26.09" y2="17.99" xlink:href="#linear-gradient-3"/><linearGradient id="linear-gradient-35" x1="-24.67" y1="23.07" x2="-24.67" y2="17.99" xlink:href="#linear-gradient-3"/><linearGradient id="linear-gradient-36" x1="-23.25" y1="23.07" x2="-23.25" y2="17.99" xlink:href="#linear-gradient-3"/><linearGradient id="linear-gradient-37" x1="-21.83" y1="23.07" x2="-21.83" y2="17.99" xlink:href="#linear-gradient-3"/><linearGradient id="linear-gradient-38" x1="-20.41" y1="23.07" x2="-20.41" y2="17.99" xlink:href="#linear-gradient-3"/><linearGradient id="linear-gradient-39" x1="-18.99" y1="23.07" x2="-18.99" y2="17.99" xlink:href="#linear-gradient-3"/><linearGradient id="linear-gradient-40" x1="-17.58" y1="23.07" x2="-17.58" y2="17.99" xlink:href="#linear-gradient-3"/><linearGradient id="linear-gradient-41" x1="-22.54" y1="16.2" x2="-22.54" y2="14.29" xlink:href="#linear-gradient-11"/><linearGradient id="linear-gradient-42" x1="-29.62" y1="12.03" x2="-29.62" y2="10.24" xlink:href="#linear-gradient-12"/><linearGradient id="linear-gradient-43" x1="-29.62" y1="11.11" x2="-29.62" y2="10.24" xlink:href="#linear-gradient-13"/><linearGradient id="linear-gradient-44" x1="-14.98" y1="12.03" x2="-14.98" y2="10.24" xlink:href="#linear-gradient-14"/><linearGradient id="linear-gradient-45" x1="-14.98" y1="11.11" x2="-14.98" y2="10.24" xlink:href="#linear-gradient-13"/><linearGradient id="linear-gradient-46" x1="-1.36" y1="24.42" x2="-1.36" y2="9.21" xlink:href="#linear-gradient"/><linearGradient id="linear-gradient-47" x1="-5.75" y1="9.07" x2="3.03" y2="9.07" xlink:href="#linear-gradient"/><linearGradient id="linear-gradient-48" x1="-6.33" y1="23.07" x2="-6.33" y2="17.99" xlink:href="#linear-gradient-3"/><linearGradient id="linear-gradient-49" x1="-4.91" y1="23.07" x2="-4.91" y2="17.99" xlink:href="#linear-gradient-3"/><linearGradient id="linear-gradient-50" x1="-3.49" y1="23.07" x2="-3.49" y2="17.99" xlink:href="#linear-gradient-3"/><linearGradient id="linear-gradient-51" x1="-2.07" y1="23.07" x2="-2.07" y2="17.99" xlink:href="#linear-gradient-3"/><linearGradient id="linear-gradient-52" x1="-0.65" y1="23.07" x2="-0.65" y2="17.99" xlink:href="#linear-gradient-3"/><linearGradient id="linear-gradient-53" x1="0.76" y1="23.07" x2="0.76" y2="17.99" xlink:href="#linear-gradient-3"/><linearGradient id="linear-gradient-54" x1="2.18" y1="23.07" x2="2.18" y2="17.99" xlink:href="#linear-gradient-3"/><linearGradient id="linear-gradient-55" x1="3.6" y1="23.07" x2="3.6" y2="17.99" xlink:href="#linear-gradient-3"/><linearGradient id="linear-gradient-56" x1="-1.36" y1="16.2" x2="-1.36" y2="14.29" xlink:href="#linear-gradient-11"/><linearGradient id="linear-gradient-57" x1="-8.45" y1="12.03" x2="-8.45" y2="10.24" xlink:href="#linear-gradient-12"/><linearGradient id="linear-gradient-58" x1="-8.45" y1="11.11" x2="-8.45" y2="10.24" xlink:href="#linear-gradient-13"/><linearGradient id="linear-gradient-59" x1="6.2" y1="12.03" x2="6.2" y2="10.24" xlink:href="#linear-gradient-14"/><linearGradient id="linear-gradient-60" x1="6.2" y1="11.11" x2="6.2" y2="10.24" xlink:href="#linear-gradient-13"/><linearGradient id="linear-gradient-61" x1="20.1" y1="24.42" x2="20.1" y2="9.21" xlink:href="#linear-gradient"/><linearGradient id="linear-gradient-62" x1="15.71" y1="9.07" x2="24.49" y2="9.07" xlink:href="#linear-gradient"/><linearGradient id="linear-gradient-63" x1="15.13" y1="23.07" x2="15.13" y2="17.99" xlink:href="#linear-gradient-3"/><linearGradient id="linear-gradient-64" x1="16.55" y1="23.07" x2="16.55" y2="17.99" xlink:href="#linear-gradient-3"/><linearGradient id="linear-gradient-65" x1="17.97" y1="23.07" x2="17.97" y2="17.99" xlink:href="#linear-gradient-3"/><linearGradient id="linear-gradient-66" x1="19.39" y1="23.07" x2="19.39" y2="17.99" xlink:href="#linear-gradient-3"/><linearGradient id="linear-gradient-67" x1="20.81" y1="23.07" x2="20.81" y2="17.99" xlink:href="#linear-gradient-3"/><linearGradient id="linear-gradient-68" x1="22.23" y1="23.07" x2="22.23" y2="17.99" xlink:href="#linear-gradient-3"/><linearGradient id="linear-gradient-69" x1="23.65" y1="23.07" x2="23.65" y2="17.99" xlink:href="#linear-gradient-3"/><linearGradient id="linear-gradient-70" x1="25.07" y1="23.07" x2="25.07" y2="17.99" xlink:href="#linear-gradient-3"/><linearGradient id="linear-gradient-71" x1="20.1" y1="16.2" x2="20.1" y2="14.29" xlink:href="#linear-gradient-11"/><linearGradient id="linear-gradient-72" x1="13.02" y1="12.03" x2="13.02" y2="10.24" xlink:href="#linear-gradient-12"/><linearGradient id="linear-gradient-73" x1="13.02" y1="11.11" x2="13.02" y2="10.24" xlink:href="#linear-gradient-13"/><linearGradient id="linear-gradient-74" x1="27.67" y1="12.03" x2="27.67" y2="10.24" xlink:href="#linear-gradient-14"/><linearGradient id="linear-gradient-75" x1="27.67" y1="11.11" x2="27.67" y2="10.24" xlink:href="#linear-gradient-13"/><linearGradient id="linear-gradient-76" x1="41.28" y1="24.42" x2="41.28" y2="9.21" xlink:href="#linear-gradient"/><linearGradient id="linear-gradient-77" x1="36.89" y1="9.07" x2="45.67" y2="9.07" xlink:href="#linear-gradient"/><linearGradient id="linear-gradient-78" x1="36.31" y1="23.07" x2="36.31" y2="17.99" xlink:href="#linear-gradient-3"/><linearGradient id="linear-gradient-79" x1="37.73" y1="23.07" x2="37.73" y2="17.99" xlink:href="#linear-gradient-3"/><linearGradient id="linear-gradient-80" x1="39.15" y1="23.07" x2="39.15" y2="17.99" xlink:href="#linear-gradient-3"/><linearGradient id="linear-gradient-81" x1="40.57" y1="23.07" x2="40.57" y2="17.99" xlink:href="#linear-gradient-3"/><linearGradient id="linear-gradient-82" x1="41.99" y1="23.07" x2="41.99" y2="17.99" xlink:href="#linear-gradient-3"/><linearGradient id="linear-gradient-83" x1="43.41" y1="23.07" x2="43.41" y2="17.99" xlink:href="#linear-gradient-3"/><linearGradient id="linear-gradient-84" x1="44.83" y1="23.07" x2="44.83" y2="17.99" xlink:href="#linear-gradient-3"/><linearGradient id="linear-gradient-85" x1="46.25" y1="23.07" x2="46.25" y2="17.99" xlink:href="#linear-gradient-3"/><linearGradient id="linear-gradient-86" x1="41.28" y1="16.2" x2="41.28" y2="14.29" xlink:href="#linear-gradient-11"/><linearGradient id="linear-gradient-87" x1="34.2" y1="12.03" x2="34.2" y2="10.24" xlink:href="#linear-gradient-12"/><linearGradient id="linear-gradient-88" x1="34.2" y1="11.11" x2="34.2" y2="10.24" xlink:href="#linear-gradient-13"/><linearGradient id="linear-gradient-89" x1="48.85" y1="12.03" x2="48.85" y2="10.24" xlink:href="#linear-gradient-14"/><linearGradient id="linear-gradient-90" x1="48.85" y1="11.11" x2="48.85" y2="10.24" xlink:href="#linear-gradient-13"/><linearGradient id="linear-gradient-91" x1="62.52" y1="24.42" x2="62.52" y2="9.21" xlink:href="#linear-gradient"/><linearGradient id="linear-gradient-92" x1="58.13" y1="9.07" x2="66.91" y2="9.07" xlink:href="#linear-gradient"/><linearGradient id="linear-gradient-93" x1="57.55" y1="23.07" x2="57.55" y2="17.99" xlink:href="#linear-gradient-3"/><linearGradient id="linear-gradient-94" x1="58.97" y1="23.07" x2="58.97" y2="17.99" xlink:href="#linear-gradient-3"/><linearGradient id="linear-gradient-95" x1="60.39" y1="23.07" x2="60.39" y2="17.99" xlink:href="#linear-gradient-3"/><linearGradient id="linear-gradient-96" x1="61.81" y1="23.07" x2="61.81" y2="17.99" xlink:href="#linear-gradient-3"/><linearGradient id="linear-gradient-97" x1="63.23" y1="23.07" x2="63.23" y2="17.99" xlink:href="#linear-gradient-3"/><linearGradient id="linear-gradient-98" x1="64.65" y1="23.07" x2="64.65" y2="17.99" xlink:href="#linear-gradient-3"/><linearGradient id="linear-gradient-99" x1="66.07" y1="23.07" x2="66.07" y2="17.99" xlink:href="#linear-gradient-3"/><linearGradient id="linear-gradient-100" x1="67.49" y1="23.07" x2="67.49" y2="17.99" xlink:href="#linear-gradient-3"/><linearGradient id="linear-gradient-101" x1="62.52" y1="16.2" x2="62.52" y2="14.29" xlink:href="#linear-gradient-11"/><linearGradient id="linear-gradient-102" x1="55.44" y1="12.03" x2="55.44" y2="10.24" xlink:href="#linear-gradient-12"/><linearGradient id="linear-gradient-103" x1="55.44" y1="11.11" x2="55.44" y2="10.24" xlink:href="#linear-gradient-13"/><linearGradient id="linear-gradient-104" x1="70.09" y1="12.03" x2="70.09" y2="10.24" xlink:href="#linear-gradient-14"/><linearGradient id="linear-gradient-105" x1="70.09" y1="11.11" x2="70.09" y2="10.24" xlink:href="#linear-gradient-13"/><linearGradient id="linear-gradient-106" x1="83.7" y1="24.42" x2="83.7" y2="9.21" xlink:href="#linear-gradient"/><linearGradient id="linear-gradient-107" x1="79.31" y1="9.07" x2="88.09" y2="9.07" xlink:href="#linear-gradient"/><linearGradient id="linear-gradient-108" x1="78.73" y1="23.07" x2="78.73" y2="17.99" xlink:href="#linear-gradient-3"/><linearGradient id="linear-gradient-109" x1="80.15" y1="23.07" x2="80.15" y2="17.99" xlink:href="#linear-gradient-3"/><linearGradient id="linear-gradient-110" x1="81.57" y1="23.07" x2="81.57" y2="17.99" xlink:href="#linear-gradient-3"/><linearGradient id="linear-gradient-111" x1="82.99" y1="23.07" x2="82.99" y2="17.99" xlink:href="#linear-gradient-3"/><linearGradient id="linear-gradient-112" x1="84.41" y1="23.07" x2="84.41" y2="17.99" xlink:href="#linear-gradient-3"/><linearGradient id="linear-gradient-113" x1="85.83" y1="23.07" x2="85.83" y2="17.99" xlink:href="#linear-gradient-3"/><linearGradient id="linear-gradient-114" x1="87.25" y1="23.07" x2="87.25" y2="17.99" xlink:href="#linear-gradient-3"/><linearGradient id="linear-gradient-115" x1="88.66" y1="23.07" x2="88.66" y2="17.99" xlink:href="#linear-gradient-3"/><linearGradient id="linear-gradient-116" x1="83.7" y1="16.2" x2="83.7" y2="14.29" xlink:href="#linear-gradient-11"/><linearGradient id="linear-gradient-117" x1="76.62" y1="12.03" x2="76.62" y2="10.24" xlink:href="#linear-gradient-12"/><linearGradient id="linear-gradient-118" x1="76.62" y1="11.11" x2="76.62" y2="10.24" xlink:href="#linear-gradient-13"/><linearGradient id="linear-gradient-119" x1="91.26" y1="12.03" x2="91.26" y2="10.24" xlink:href="#linear-gradient-14"/><linearGradient id="linear-gradient-120" x1="91.26" y1="11.11" x2="91.26" y2="10.24" xlink:href="#linear-gradient-13"/></defs><g id="Layer_2" data-name="Layer 2"><g id="Layer_1-2" data-name="Layer 1"><rect class="cls-1" width="208.21" height="32.67" rx="0.58"/><rect class="cls-2" x="20.89" y="9.21" width="19.43" height="14.12"/><polygon class="cls-3" points="33.3 9.21 33.3 10.56 35.04 10.56 35.04 12.84 39.21 12.84 39.21 23.07 35.04 23.07 25.12 23.07 20.95 23.07 20.95 12.84 25.12 12.84 25.12 10.56 26.86 10.56 26.86 9.21 19.46 9.21 19.46 24.41 40.7 24.41 40.7 9.21 33.3 9.21"/><rect class="cls-4" x="25.69" y="8.93" width="8.78" height="0.28"/><rect class="cls-5" x="24.83" y="17.99" width="0.57" height="5.08"/><rect class="cls-6" x="26.25" y="17.99" width="0.57" height="5.08"/><rect class="cls-7" x="27.67" y="17.99" width="0.57" height="5.08"/><rect class="cls-8" x="29.08" y="17.99" width="0.57" height="5.08"/><rect class="cls-9" x="30.5" y="17.99" width="0.57" height="5.08"/><rect class="cls-10" x="31.92" y="17.99" width="0.57" height="5.08"/><rect class="cls-11" x="33.34" y="17.99" width="0.57" height="5.08"/><rect class="cls-12" x="34.76" y="17.99" width="0.57" height="5.08"/><rect class="cls-13" x="25.38" y="14.29" width="9.4" height="1.92"/><rect class="cls-14" x="21.39" y="10.24" width="3.21" height="1.79" rx="0.33"/><path class="cls-15" d="M24.46,10.24H21.53a.15.15,0,0,0-.14.15v.72a.14.14,0,0,1,.14-.14h2.93a.14.14,0,0,1,.14.14v-.72A.15.15,0,0,0,24.46,10.24Z"/><rect class="cls-16" x="36.04" y="10.24" width="3.21" height="1.79" rx="0.33"/><path class="cls-17" d="M39.11,10.24H36.18a.15.15,0,0,0-.14.15v.72a.14.14,0,0,1,.14-.14h2.93a.14.14,0,0,1,.14.14v-.72A.15.15,0,0,0,39.11,10.24Z"/><rect class="cls-2" x="42.06" y="9.21" width="19.43" height="14.12"/><polygon class="cls-18" points="54.48 9.21 54.48 10.56 56.22 10.56 56.22 12.84 60.39 12.84 60.39 23.07 56.22 23.07 46.3 23.07 42.13 23.07 42.13 12.84 46.3 12.84 46.3 10.56 48.03 10.56 48.03 9.21 40.64 9.21 40.64 24.41 61.88 24.41 61.88 9.21 54.48 9.21"/><rect class="cls-19" x="46.87" y="8.93" width="8.78" height="0.28"/><rect class="cls-20" x="46.01" y="17.99" width="0.57" height="5.08"/><rect class="cls-21" x="47.43" y="17.99" width="0.57" height="5.08"/><rect class="cls-22" x="48.84" y="17.99" width="0.57" height="5.08"/><rect class="cls-23" x="50.26" y="17.99" width="0.57" height="5.08"/><rect class="cls-24" x="51.68" y="17.99" width="0.57" height="5.08"/><rect class="cls-25" x="53.1" y="17.99" width="0.57" height="5.08"/><rect class="cls-26" x="54.52" y="17.99" width="0.57" height="5.08"/><rect class="cls-27" x="55.94" y="17.99" width="0.57" height="5.08"/><rect class="cls-28" x="46.56" y="14.29" width="9.4" height="1.92"/><rect class="cls-29" x="42.57" y="10.24" width="3.21" height="1.79" rx="0.33"/><path class="cls-30" d="M45.64,10.24H42.71a.15.15,0,0,0-.14.15v.72a.14.14,0,0,1,.14-.14h2.93a.14.14,0,0,1,.14.14v-.72A.15.15,0,0,0,45.64,10.24Z"/><rect class="cls-31" x="57.22" y="10.24" width="3.21" height="1.79" rx="0.33"/><path class="cls-32" d="M60.29,10.24H57.36a.15.15,0,0,0-.14.15v.72a.14.14,0,0,1,.14-.14h2.93a.14.14,0,0,1,.14.14v-.72A.15.15,0,0,0,60.29,10.24Z"/><rect class="cls-2" x="63.3" y="9.21" width="19.43" height="14.12"/><polygon class="cls-33" points="75.72 9.21 75.72 10.56 77.46 10.56 77.46 12.84 81.63 12.84 81.63 23.07 77.46 23.07 67.54 23.07 63.37 23.07 63.37 12.84 67.54 12.84 67.54 10.56 69.27 10.56 69.27 9.21 61.88 9.21 61.88 24.41 83.12 24.41 83.12 9.21 75.72 9.21"/><rect class="cls-34" x="68.11" y="8.93" width="8.78" height="0.28"/><rect class="cls-35" x="67.25" y="17.99" width="0.57" height="5.08"/><rect class="cls-36" x="68.67" y="17.99" width="0.57" height="5.08"/><rect class="cls-37" x="70.08" y="17.99" width="0.57" height="5.08"/><rect class="cls-38" x="71.5" y="17.99" width="0.57" height="5.08"/><rect class="cls-39" x="72.92" y="17.99" width="0.57" height="5.08"/><rect class="cls-40" x="74.34" y="17.99" width="0.57" height="5.08"/><rect class="cls-41" x="75.76" y="17.99" width="0.57" height="5.08"/><rect class="cls-42" x="77.18" y="17.99" width="0.57" height="5.08"/><rect class="cls-43" x="67.8" y="14.29" width="9.4" height="1.92"/><rect class="cls-44" x="63.81" y="10.24" width="3.21" height="1.79" rx="0.33"/><path class="cls-45" d="M66.88,10.24H64a.15.15,0,0,0-.14.15v.72A.14.14,0,0,1,64,11h2.93a.14.14,0,0,1,.14.14v-.72A.15.15,0,0,0,66.88,10.24Z"/><rect class="cls-46" x="78.46" y="10.24" width="3.21" height="1.79" rx="0.33"/><path class="cls-47" d="M81.53,10.24H78.6a.15.15,0,0,0-.14.15v.72A.14.14,0,0,1,78.6,11h2.93a.14.14,0,0,1,.14.14v-.72A.15.15,0,0,0,81.53,10.24Z"/><rect class="cls-2" x="84.48" y="9.21" width="19.43" height="14.12"/><polygon class="cls-48" points="96.9 9.21 96.9 10.56 98.64 10.56 98.64 12.84 102.81 12.84 102.81 23.07 98.64 23.07 88.72 23.07 84.55 23.07 84.55 12.84 88.72 12.84 88.72 10.56 90.45 10.56 90.45 9.21 83.06 9.21 83.06 24.41 104.3 24.41 104.3 9.21 96.9 9.21"/><rect class="cls-49" x="89.29" y="8.93" width="8.78" height="0.28"/><rect class="cls-50" x="88.42" y="17.99" width="0.57" height="5.08"/><rect class="cls-51" x="89.84" y="17.99" width="0.57" height="5.08"/><rect class="cls-52" x="91.26" y="17.99" width="0.57" height="5.08"/><rect class="cls-53" x="92.68" y="17.99" width="0.57" height="5.08"/><rect class="cls-54" x="94.1" y="17.99" width="0.57" height="5.08"/><rect class="cls-55" x="95.52" y="17.99" width="0.57" height="5.08"/><rect class="cls-56" x="96.94" y="17.99" width="0.57" height="5.08"/><rect class="cls-57" x="98.36" y="17.99" width="0.57" height="5.08"/><rect class="cls-58" x="88.97" y="14.29" width="9.4" height="1.92"/><rect class="cls-59" x="84.99" y="10.24" width="3.21" height="1.79" rx="0.33"/><path class="cls-60" d="M88.06,10.24H85.13a.15.15,0,0,0-.14.15v.72a.14.14,0,0,1,.14-.14h2.93a.14.14,0,0,1,.14.14v-.72A.15.15,0,0,0,88.06,10.24Z"/><rect class="cls-61" x="99.64" y="10.24" width="3.21" height="1.79" rx="0.33"/><path class="cls-62" d="M102.71,10.24H99.78a.15.15,0,0,0-.14.15v.72a.14.14,0,0,1,.14-.14h2.93a.14.14,0,0,1,.14.14v-.72A.15.15,0,0,0,102.71,10.24Z"/><rect class="cls-2" x="105.95" y="9.21" width="19.43" height="14.12"/><polygon class="cls-63" points="118.37 9.21 118.37 10.56 120.1 10.56 120.1 12.84 124.27 12.84 124.27 23.07 120.1 23.07 110.18 23.07 106.01 23.07 106.01 12.84 110.18 12.84 110.18 10.56 111.92 10.56 111.92 9.21 104.52 9.21 104.52 24.41 125.76 24.41 125.76 9.21 118.37 9.21"/><rect class="cls-64" x="110.75" y="8.93" width="8.78" height="0.28"/><rect class="cls-65" x="109.89" y="17.99" width="0.57" height="5.08"/><rect class="cls-66" x="111.31" y="17.99" width="0.57" height="5.08"/><rect class="cls-67" x="112.73" y="17.99" width="0.57" height="5.08"/><rect class="cls-68" x="114.15" y="17.99" width="0.57" height="5.08"/><rect class="cls-69" x="115.57" y="17.99" width="0.57" height="5.08"/><rect class="cls-70" x="116.99" y="17.99" width="0.57" height="5.08"/><rect class="cls-71" x="118.4" y="17.99" width="0.57" height="5.08"/><rect class="cls-72" x="119.82" y="17.99" width="0.57" height="5.08"/><rect class="cls-73" x="110.44" y="14.29" width="9.4" height="1.92"/><rect class="cls-74" x="106.45" y="10.24" width="3.21" height="1.79" rx="0.33"/><path class="cls-75" d="M109.52,10.24H106.6a.15.15,0,0,0-.15.15v.72a.15.15,0,0,1,.15-.14h2.92a.15.15,0,0,1,.15.14v-.72A.15.15,0,0,0,109.52,10.24Z"/><rect class="cls-76" x="121.1" y="10.24" width="3.21" height="1.79" rx="0.33"/><path class="cls-77" d="M124.17,10.24h-2.93a.15.15,0,0,0-.14.15v.72a.14.14,0,0,1,.14-.14h2.93a.14.14,0,0,1,.14.14v-.72A.15.15,0,0,0,124.17,10.24Z"/><rect class="cls-2" x="127.13" y="9.21" width="19.43" height="14.12"/><polygon class="cls-78" points="139.54 9.21 139.54 10.56 141.28 10.56 141.28 12.84 145.45 12.84 145.45 23.07 141.28 23.07 131.36 23.07 127.19 23.07 127.19 12.84 131.36 12.84 131.36 10.56 133.09 10.56 133.09 9.21 125.7 9.21 125.7 24.41 146.94 24.41 146.94 9.21 139.54 9.21"/><rect class="cls-79" x="131.93" y="8.93" width="8.78" height="0.28"/><rect class="cls-80" x="131.07" y="17.99" width="0.57" height="5.08"/><rect class="cls-81" x="132.49" y="17.99" width="0.57" height="5.08"/><rect class="cls-82" x="133.91" y="17.99" width="0.57" height="5.08"/><rect class="cls-83" x="135.33" y="17.99" width="0.57" height="5.08"/><rect class="cls-84" x="136.74" y="17.99" width="0.57" height="5.08"/><rect class="cls-85" x="138.16" y="17.99" width="0.57" height="5.08"/><rect class="cls-86" x="139.58" y="17.99" width="0.57" height="5.08"/><rect class="cls-87" x="141" y="17.99" width="0.57" height="5.08"/><rect class="cls-88" x="131.62" y="14.29" width="9.4" height="1.92"/><rect class="cls-89" x="127.63" y="10.24" width="3.21" height="1.79" rx="0.33"/><path class="cls-90" d="M130.7,10.24h-2.93a.15.15,0,0,0-.14.15v.72a.14.14,0,0,1,.14-.14h2.93a.14.14,0,0,1,.14.14v-.72A.15.15,0,0,0,130.7,10.24Z"/><rect class="cls-91" x="142.28" y="10.24" width="3.21" height="1.79" rx="0.33"/><path class="cls-92" d="M145.35,10.24h-2.93a.15.15,0,0,0-.14.15v.72a.14.14,0,0,1,.14-.14h2.93a.14.14,0,0,1,.14.14v-.72A.15.15,0,0,0,145.35,10.24Z"/><rect class="cls-2" x="148.37" y="9.21" width="19.43" height="14.12"/><polygon class="cls-93" points="160.78 9.21 160.78 10.56 162.52 10.56 162.52 12.84 166.69 12.84 166.69 23.07 162.52 23.07 152.6 23.07 148.43 23.07 148.43 12.84 152.6 12.84 152.6 10.56 154.34 10.56 154.34 9.21 146.94 9.21 146.94 24.41 168.18 24.41 168.18 9.21 160.78 9.21"/><rect class="cls-94" x="153.17" y="8.93" width="8.78" height="0.28"/><rect class="cls-95" x="152.31" y="17.99" width="0.57" height="5.08"/><rect class="cls-96" x="153.73" y="17.99" width="0.57" height="5.08"/><rect class="cls-97" x="155.15" y="17.99" width="0.57" height="5.08"/><rect class="cls-98" x="156.57" y="17.99" width="0.57" height="5.08"/><rect class="cls-99" x="157.98" y="17.99" width="0.57" height="5.08"/><rect class="cls-100" x="159.4" y="17.99" width="0.57" height="5.08"/><rect class="cls-101" x="160.82" y="17.99" width="0.57" height="5.08"/><rect class="cls-102" x="162.24" y="17.99" width="0.57" height="5.08"/><rect class="cls-103" x="152.86" y="14.29" width="9.4" height="1.92"/><rect class="cls-104" x="148.87" y="10.24" width="3.21" height="1.79" rx="0.33"/><path class="cls-105" d="M151.94,10.24H149a.15.15,0,0,0-.14.15v.72A.14.14,0,0,1,149,11h2.93a.14.14,0,0,1,.14.14v-.72A.15.15,0,0,0,151.94,10.24Z"/><rect class="cls-106" x="163.52" y="10.24" width="3.21" height="1.79" rx="0.33"/><path class="cls-107" d="M166.59,10.24h-2.93a.15.15,0,0,0-.14.15v.72a.14.14,0,0,1,.14-.14h2.93a.14.14,0,0,1,.14.14v-.72A.15.15,0,0,0,166.59,10.24Z"/><rect class="cls-2" x="169.54" y="9.21" width="19.43" height="14.12"/><polygon class="cls-108" points="181.96 9.21 181.96 10.56 183.7 10.56 183.7 12.84 187.87 12.84 187.87 23.07 183.7 23.07 173.78 23.07 169.61 23.07 169.61 12.84 173.78 12.84 173.78 10.56 175.51 10.56 175.51 9.21 168.12 9.21 168.12 24.41 189.36 24.41 189.36 9.21 181.96 9.21"/><rect class="cls-109" x="174.35" y="8.93" width="8.78" height="0.28"/><rect class="cls-110" x="173.49" y="17.99" width="0.57" height="5.08"/><rect class="cls-111" x="174.91" y="17.99" width="0.57" height="5.08"/><rect class="cls-112" x="176.32" y="17.99" width="0.57" height="5.08"/><rect class="cls-113" x="177.74" y="17.99" width="0.57" height="5.08"/><rect class="cls-114" x="179.16" y="17.99" width="0.57" height="5.08"/><rect class="cls-115" x="180.58" y="17.99" width="0.57" height="5.08"/><rect class="cls-116" x="182" y="17.99" width="0.57" height="5.08"/><rect class="cls-117" x="183.42" y="17.99" width="0.57" height="5.08"/><rect class="cls-118" x="174.04" y="14.29" width="9.4" height="1.92"/><rect class="cls-119" x="170.05" y="10.24" width="3.21" height="1.79" rx="0.33"/><path class="cls-120" d="M173.12,10.24h-2.93a.15.15,0,0,0-.14.15v.72a.14.14,0,0,1,.14-.14h2.93a.14.14,0,0,1,.14.14v-.72A.15.15,0,0,0,173.12,10.24Z"/><rect class="cls-121" x="184.7" y="10.24" width="3.21" height="1.79" rx="0.33"/><path class="cls-122" d="M187.77,10.24h-2.93a.15.15,0,0,0-.14.15v.72a.14.14,0,0,1,.14-.14h2.93a.14.14,0,0,1,.14.14v-.72A.15.15,0,0,0,187.77,10.24Z"/><path class="cls-123" d="M30.88,29.77h-.45V27.7a1.57,1.57,0,0,1-.58.42v-.5a1.38,1.38,0,0,0,.39-.27,1.07,1.07,0,0,0,.28-.45h.36Z"/><path class="cls-123" d="M52.23,29.26v.51H50.65a1.58,1.58,0,0,1,.16-.55,3.23,3.23,0,0,1,.5-.68,4.72,4.72,0,0,0,.37-.46.74.74,0,0,0,.1-.35.39.39,0,0,0-.09-.28.28.28,0,0,0-.22-.09c-.2,0-.3.14-.32.44l-.45-.05a1,1,0,0,1,.25-.64.69.69,0,0,1,.53-.21.66.66,0,0,1,.56.24.84.84,0,0,1,.19.55,1.27,1.27,0,0,1,0,.34,1.21,1.21,0,0,1-.15.33,2.24,2.24,0,0,1-.33.43l-.27.32-.1.15Z"/><path class="cls-123" d="M71.67,29l.44-.07a.46.46,0,0,0,.11.31.28.28,0,0,0,.22.11.29.29,0,0,0,.23-.13.52.52,0,0,0,.1-.35.54.54,0,0,0-.09-.33.28.28,0,0,0-.23-.12.58.58,0,0,0-.2,0l0-.45a.31.31,0,0,0,.27-.09.35.35,0,0,0,.1-.27.32.32,0,0,0-.07-.23.23.23,0,0,0-.18-.09.23.23,0,0,0-.2.1.45.45,0,0,0-.1.28l-.42-.08a1,1,0,0,1,.26-.57.69.69,0,0,1,1,.05.8.8,0,0,1,.19.5A.64.64,0,0,1,73,28a.69.69,0,0,1-.25.26.58.58,0,0,1,.32.24.79.79,0,0,1,.12.45,1,1,0,0,1-.23.65.73.73,0,0,1-.56.25.72.72,0,0,1-.52-.21A1,1,0,0,1,71.67,29Z"/><path class="cls-123" d="M92.63,29.77V29.2h-1v-.48l1-1.82h.38v1.81h.29v.49h-.29v.57Zm0-1.06v-1l-.53,1Z"/><path class="cls-123" d="M113.65,29l.45-.06a.45.45,0,0,0,.12.29.28.28,0,0,0,.21.11.31.31,0,0,0,.24-.14.76.76,0,0,0,.1-.42.71.71,0,0,0-.1-.4.33.33,0,0,0-.25-.13.43.43,0,0,0-.35.21l-.37-.06.23-1.49h1.19v.51h-.84l-.08.49a.64.64,0,0,1,.31-.09.57.57,0,0,1,.47.22,1,1,0,0,1,.25.73,1.27,1.27,0,0,1-.21.7.67.67,0,0,1-.59.31.76.76,0,0,1-.53-.2A.94.94,0,0,1,113.65,29Z"/><path class="cls-123" d="M136.15,27.61l-.44.06c0-.21-.11-.32-.26-.32a.29.29,0,0,0-.24.16,1.56,1.56,0,0,0-.12.65.54.54,0,0,1,.19-.18.41.41,0,0,1,.23-.06.61.61,0,0,1,.48.25,1.1,1.1,0,0,1,.2.68,1,1,0,0,1-.22.71.64.64,0,0,1-.53.26.7.7,0,0,1-.59-.33,2.09,2.09,0,0,1-.23-1.11,2,2,0,0,1,.24-1.13.74.74,0,0,1,.62-.35.6.6,0,0,1,.44.18A.9.9,0,0,1,136.15,27.61Zm-1,1.2a.67.67,0,0,0,.1.41.28.28,0,0,0,.23.15.26.26,0,0,0,.21-.12.76.76,0,0,0,.08-.39.71.71,0,0,0-.09-.41.25.25,0,0,0-.22-.13.26.26,0,0,0-.22.12A.63.63,0,0,0,135.13,28.81Z"/><path class="cls-123" d="M155.6,27.46V27h1.54v.4a2.53,2.53,0,0,0-.38.65,5,5,0,0,0-.31.9,4.08,4.08,0,0,0-.1.87h-.44a4.66,4.66,0,0,1,.21-1.21,4.25,4.25,0,0,1,.5-1.1Z"/><path class="cls-123" d="M176.05,28.23a.64.64,0,0,1-.25-.24.75.75,0,0,1-.08-.35.73.73,0,0,1,.19-.54.7.7,0,0,1,.52-.2.64.64,0,0,1,.52.21.8.8,0,0,1,.18.52A.69.69,0,0,1,177,28a.53.53,0,0,1-.23.24.66.66,0,0,1,.3.27,1,1,0,0,1,.1.44,1.11,1.11,0,0,1-.1.46.75.75,0,0,1-.27.31.68.68,0,0,1-.39.11.78.78,0,0,1-.57-.23.94.94,0,0,1-.22-.64,1,1,0,0,1,.1-.44A.71.71,0,0,1,176.05,28.23Zm0,.67a.64.64,0,0,0,.1.36.3.3,0,0,0,.24.12.29.29,0,0,0,.23-.12.6.6,0,0,0,.09-.36.53.53,0,0,0-.09-.32.31.31,0,0,0-.24-.12.28.28,0,0,0-.23.12A.47.47,0,0,0,176.1,28.9Zm.05-1.22a.33.33,0,0,0,.08.25.24.24,0,0,0,.2.09.25.25,0,0,0,.2-.09.37.37,0,0,0,.08-.25.4.4,0,0,0-.08-.26.28.28,0,0,0-.2-.08.25.25,0,0,0-.2.09A.33.33,0,0,0,176.15,27.68Z"/><path class="cls-123" d="M190.34,3.61V2.89h1.87V4.6a2.32,2.32,0,0,1-.79.47,2.91,2.91,0,0,1-1,.2A2.37,2.37,0,0,1,189.2,5a1.74,1.74,0,0,1-.75-.81A2.57,2.57,0,0,1,188.2,3a2.43,2.43,0,0,1,.28-1.19,1.86,1.86,0,0,1,.82-.8,2.27,2.27,0,0,1,1-.22,2.09,2.09,0,0,1,1.25.34,1.51,1.51,0,0,1,.58.93l-.86.16a.9.9,0,0,0-.35-.5,1,1,0,0,0-.62-.18,1.16,1.16,0,0,0-.9.36A1.48,1.48,0,0,0,189.09,3a1.64,1.64,0,0,0,.34,1.14,1.12,1.12,0,0,0,.89.39,1.58,1.58,0,0,0,.55-.11,1.91,1.91,0,0,0,.47-.26V3.61Z"/><path class="cls-123" d="M192.79,3.8l.85-.09a1,1,0,0,0,.31.63.92.92,0,0,0,.62.2,1,1,0,0,0,.64-.18.54.54,0,0,0,.21-.42.37.37,0,0,0-.09-.25A.61.61,0,0,0,195,3.5c-.1,0-.34-.1-.7-.19a2.32,2.32,0,0,1-1-.42A1.14,1.14,0,0,1,193,2a1.11,1.11,0,0,1,.18-.61,1.24,1.24,0,0,1,.54-.44,2.15,2.15,0,0,1,.85-.15,1.78,1.78,0,0,1,1.21.36,1.22,1.22,0,0,1,.43,1l-.86,0a.73.73,0,0,0-.24-.47.88.88,0,0,0-.55-.15.94.94,0,0,0-.59.16.28.28,0,0,0-.14.26.34.34,0,0,0,.13.27,2.33,2.33,0,0,0,.79.28,3.91,3.91,0,0,1,.94.31,1.17,1.17,0,0,1,.47.44,1.21,1.21,0,0,1,.18.68,1.22,1.22,0,0,1-.21.69,1.19,1.19,0,0,1-.58.48,2.32,2.32,0,0,1-.93.16,1.9,1.9,0,0,1-1.26-.38A1.64,1.64,0,0,1,192.79,3.8Z"/><path class="cls-123" d="M198.94,5.19h-.82V2.09a2.79,2.79,0,0,1-1.07.62V2a2.43,2.43,0,0,0,.7-.4,1.48,1.48,0,0,0,.52-.69h.67Z"/><path class="cls-123" d="M201.56.88a1.18,1.18,0,0,1,1,.45A2.81,2.81,0,0,1,203,3.07a2.81,2.81,0,0,1-.43,1.76,1.17,1.17,0,0,1-1,.44,1.21,1.21,0,0,1-1-.49,2.87,2.87,0,0,1-.38-1.71,2.87,2.87,0,0,1,.42-1.75A1.18,1.18,0,0,1,201.56.88Zm0,.68a.35.35,0,0,0-.26.1.68.68,0,0,0-.19.34A5.17,5.17,0,0,0,201,3.07a4.83,4.83,0,0,0,.07,1,.77.77,0,0,0,.2.38.39.39,0,0,0,.26.09.44.44,0,0,0,.27-.09.64.64,0,0,0,.18-.34,4.59,4.59,0,0,0,.08-1.08A4.72,4.72,0,0,0,202,2a.78.78,0,0,0-.19-.38A.39.39,0,0,0,201.56,1.56Z"/><path class="cls-123" d="M204.21,2.88a1,1,0,0,1-.46-.37A1,1,0,0,1,203.6,2a1.07,1.07,0,0,1,.34-.8,1.61,1.61,0,0,1,1.9,0,1,1,0,0,1,.34.8,1,1,0,0,1-.15.53,1.13,1.13,0,0,1-.44.36,1.08,1.08,0,0,1,.73,1.05,1.31,1.31,0,0,1-.38,1,1.37,1.37,0,0,1-1,.37A1.48,1.48,0,0,1,204,5a1.18,1.18,0,0,1-.46-1,1.16,1.16,0,0,1,.17-.64A1.06,1.06,0,0,1,204.21,2.88Zm.1,1a.75.75,0,0,0,.17.53.6.6,0,0,0,.44.19.52.52,0,0,0,.42-.19.74.74,0,0,0,.17-.52.69.69,0,0,0-.17-.49.59.59,0,0,0-.44-.18.49.49,0,0,0-.44.21A.72.72,0,0,0,204.31,3.89Zm.07-1.84a.52.52,0,0,0,.14.38.51.51,0,0,0,.37.14.54.54,0,0,0,.38-.14.53.53,0,0,0,.14-.39.53.53,0,0,0-.14-.37.51.51,0,0,0-.37-.14.54.54,0,0,0-.38.14A.54.54,0,0,0,204.38,2.05Z"/><path class="cls-123" d="M2.3,2H3.38L4.8,4.09V2H5.9V5.78H4.8L3.39,3.71V5.78H2.3Z"/><path class="cls-123" d="M6.67,2H9.79v.8H7.84v.6H9.65v.77H7.84v.74h2v.86H6.67Z"/><path class="cls-123" d="M10.21,2h3.53v.93H12.56V5.78H11.39V2.94H10.21Z"/><path class="cls-123" d="M16,4.41V3.63h1.8v1.6a3.37,3.37,0,0,1-.91.48,3,3,0,0,1-.94.13,2.33,2.33,0,0,1-1.1-.23,1.53,1.53,0,0,1-.65-.68,2.18,2.18,0,0,1-.23-1,2.17,2.17,0,0,1,.25-1.07,1.71,1.71,0,0,1,.74-.69A2.47,2.47,0,0,1,16,2a2.82,2.82,0,0,1,.94.11,1.14,1.14,0,0,1,.51.35,1.55,1.55,0,0,1,.31.6l-1.12.2a.61.61,0,0,0-.24-.32A.7.7,0,0,0,16,2.77a.75.75,0,0,0-.61.27,1.3,1.3,0,0,0-.23.84,1.31,1.31,0,0,0,.23.87A.81.81,0,0,0,16,5,1.1,1.1,0,0,0,16.35,5a2.07,2.07,0,0,0,.41-.19V4.41Z"/><path class="cls-123" d="M18.47,2h3.12v.8h-2v.6h1.82v.77H19.63v.74h2v.86H18.47Z"/><path class="cls-123" d="M24.59,5.15H23.26l-.18.63H21.89L23.31,2h1.27L26,5.78H24.77Zm-.25-.81L23.93,3l-.41,1.35Z"/><path class="cls-123" d="M26.38,5.78V2h1.94a2.85,2.85,0,0,1,.82.09.88.88,0,0,1,.46.35,1,1,0,0,1,.17.61,1,1,0,0,1-.13.54,1.09,1.09,0,0,1-.37.37,1.39,1.39,0,0,1-.41.14,1.92,1.92,0,0,1,.31.14,1.35,1.35,0,0,1,.18.2,1.59,1.59,0,0,1,.17.24l.56,1.09H28.77l-.63-1.15a.85.85,0,0,0-.21-.29.47.47,0,0,0-.28-.09h-.1V5.78Zm1.17-2.24H28a1.49,1.49,0,0,0,.3-.06.29.29,0,0,0,.19-.11.37.37,0,0,0,.08-.22.34.34,0,0,0-.12-.28.66.66,0,0,0-.43-.1h-.51Z"/><rect class="cls-124" x="8.45" y="20.53" width="4.86" height="2.54"/><path class="cls-123" d="M7.52,25.47h.74a.53.53,0,0,1,.36.11.45.45,0,0,1,.12.33.48.48,0,0,1-.13.34.58.58,0,0,1-.4.12H8v.53H7.52Zm.45.61h.11a.3.3,0,0,0,.18,0,.17.17,0,0,0,.05-.12.16.16,0,0,0-.05-.11.23.23,0,0,0-.17,0H8Z"/><path class="cls-123" d="M8.84,26.39A.58.58,0,0,1,9,26a.61.61,0,0,1,.43-.15.62.62,0,0,1,.48.18.56.56,0,0,1,.12.36.5.5,0,0,1-.16.39.59.59,0,0,1-.43.15A.65.65,0,0,1,9,26.8.53.53,0,0,1,8.84,26.39Zm.4,0a.29.29,0,0,0,.06.21.17.17,0,0,0,.14.07.19.19,0,0,0,.14-.07.3.3,0,0,0,.05-.21.28.28,0,0,0-.05-.2.18.18,0,0,0-.28,0A.3.3,0,0,0,9.24,26.38Z"/><path class="cls-123" d="M10.07,25.86h.39l.16.66.21-.66h.36l.22.66.17-.66H12l-.38,1h-.35L11,26.28l-.21.62h-.35Z"/><path class="cls-123" d="M13.21,26.48h-.8a.23.23,0,0,0,.05.14.18.18,0,0,0,.15.07.2.2,0,0,0,.11,0,.19.19,0,0,0,.07-.06l.39,0a.59.59,0,0,1-.21.23.92.92,0,0,1-.37.06.89.89,0,0,1-.32-.05.46.46,0,0,1-.2-.19.56.56,0,0,1-.08-.3.53.53,0,0,1,.16-.39.59.59,0,0,1,.43-.15.68.68,0,0,1,.35.07.46.46,0,0,1,.2.19.82.82,0,0,1,.07.34Zm-.41-.19a.27.27,0,0,0-.06-.16.15.15,0,0,0-.13-.05.16.16,0,0,0-.15.07.26.26,0,0,0-.05.14Z"/><path class="cls-123" d="M13.39,25.86h.37V26a.49.49,0,0,1,.12-.15.2.2,0,0,1,.14,0,.41.41,0,0,1,.19.06l-.12.28-.12,0a.14.14,0,0,0-.12.06.68.68,0,0,0-.06.34v.35h-.4Z"/></g></g></svg>