<svg xmlns="http://www.w3.org/2000/svg" xmlns:xlink="http://www.w3.org/1999/xlink" viewBox="0 0 276.42 205.48"><defs><style>.cls-1,.cls-70{fill:none;}.cls-2{clip-path:url(#clip-path);}.cls-3{fill:#c8c8c8;}.cls-4{fill:#c9c9c9;}.cls-5{fill:#cacaca;}.cls-6{fill:#cbcbca;}.cls-7{fill:#cbcbcb;}.cls-8{fill:#ccc;}.cls-9{fill:#cdcdcd;}.cls-10{fill:#cececd;}.cls-11{fill:#cfcece;}.cls-12{fill:#cfcfcf;}.cls-13{fill:#d0d0d0;}.cls-14{fill:#d1d1d1;}.cls-15{fill:#d2d2d1;}.cls-16{fill:#d3d2d2;}.cls-17{fill:#d3d3d3;}.cls-18{fill:#d4d4d4;}.cls-19{fill:#d5d5d5;}.cls-20{fill:#d6d6d5;}.cls-21{fill:#d7d6d6;}.cls-22{fill:#d7d7d7;}.cls-23{fill:#d8d8d8;}.cls-24{fill:#d9d9d9;}.cls-25{fill:#dadad9;}.cls-26{fill:#dadada;}.cls-27{fill:#dbdbdb;}.cls-28{fill:#dcdcdc;}.cls-29{fill:#dddddc;}.cls-30{fill:#ddd;}.cls-31{fill:#dedede;}.cls-32{fill:#dfdfdf;}.cls-33{fill:#e0dfdf;}.cls-34{fill:#e0e0e0;}.cls-35{fill:#e1e1e1;}.cls-36{fill:#e2e2e2;}.cls-37{fill:#e3e3e3;}.cls-38{fill:#e4e4e4;}.cls-39{fill:#e5e5e5;}.cls-40{fill:#e6e6e6;}.cls-41{fill:#e7e7e7;}.cls-42{fill:#e8e8e7;}.cls-43{fill:#e8e8e8;}.cls-44{fill:#e9e9e9;}.cls-45{fill:#eaeaea;}.cls-46{fill:#ebebea;}.cls-47{fill:#ebebeb;}.cls-48{fill:#ececec;}.cls-49{fill:#ededed;}.cls-50{fill:#eeeded;}.cls-51{fill:#eee;}.cls-52{fill:#efefef;}.cls-53{fill:#f0f0f0;}.cls-54{fill:#f1f1f1;}.cls-55{fill:#f2f2f2;}.cls-56{fill:#f3f3f3;}.cls-57{fill:#f4f4f4;}.cls-58{fill:#f5f5f5;}.cls-59{fill:#f6f6f6;}.cls-60{fill:#f7f7f7;}.cls-61{fill:#f8f8f8;}.cls-62{fill:#f9f9f9;}.cls-63{fill:#fafafa;}.cls-64{fill:#fbfbfb;}.cls-65{fill:#fcfbfb;}.cls-66{fill:#fcfcfc;}.cls-67{fill:#fdfdfd;}.cls-68{fill:#fefefe;}.cls-69{fill:#fff;}.cls-70{stroke:#5a5a5a;stroke-miterlimit:10;opacity:0.53;}.cls-71{fill:#555454;}.cls-72{fill:url(#radial-gradient);}.cls-73{fill:url(#radial-gradient-2);}.cls-74{fill:url(#radial-gradient-3);}.cls-75{fill:url(#radial-gradient-4);}.cls-76{fill:#1d1d1b;}</style><clipPath id="clip-path" transform="translate(0 0)"><rect class="cls-1" width="276.42" height="205.48" rx="18.52"/></clipPath><radialGradient id="radial-gradient" cx="51.92" cy="31.94" r="1.82" gradientUnits="userSpaceOnUse"><stop offset="0" stop-color="#6cb52d"/><stop offset="1" stop-color="#009640"/></radialGradient><radialGradient id="radial-gradient-2" cx="76.54" cy="31.94" r="1.82" xlink:href="#radial-gradient"/><radialGradient id="radial-gradient-3" cx="101.15" cy="31.94" r="1.82" xlink:href="#radial-gradient"/><radialGradient id="radial-gradient-4" cx="125.77" cy="31.94" r="1.82" xlink:href="#radial-gradient"/></defs><g id="Layer_2" data-name="Layer 2"><g id="Layer_1-2" data-name="Layer 1"><g class="cls-2"><polygon class="cls-3" points="0 194.34 11.15 205.49 0 205.49 0 194.34"/><polygon class="cls-3" points="0 188.13 17.36 205.49 11.15 205.49 0 194.34 0 188.13"/><polygon class="cls-4" points="0 181.92 23.57 205.49 17.36 205.49 0 188.13 0 181.92"/><polygon class="cls-5" points="0 175.71 29.78 205.49 23.57 205.49 0 181.92 0 175.71"/><polygon class="cls-6" points="0 169.5 35.99 205.49 29.78 205.49 0 175.71 0 169.5"/><polygon class="cls-7" points="0 163.28 42.2 205.49 35.99 205.49 0 169.5 0 163.28"/><polygon class="cls-8" points="0 157.07 48.41 205.49 42.2 205.49 0 163.28 0 157.07"/><polygon class="cls-9" points="0 150.86 54.62 205.49 48.41 205.49 0 157.07 0 150.86"/><polygon class="cls-10" points="0 144.65 60.83 205.49 54.62 205.49 0 150.86 0 144.65"/><polygon class="cls-11" points="0 138.44 67.05 205.49 60.83 205.49 0 144.65 0 138.44"/><polygon class="cls-12" points="0 132.23 73.26 205.49 67.05 205.49 0 138.44 0 132.23"/><polygon class="cls-13" points="0 126.02 79.47 205.49 73.26 205.49 0 132.23 0 126.02"/><polygon class="cls-14" points="0 119.81 85.68 205.49 79.47 205.49 0 126.02 0 119.81"/><polygon class="cls-15" points="0 113.59 91.89 205.49 85.68 205.49 0 119.81 0 113.59"/><polygon class="cls-16" points="0 107.38 98.1 205.49 91.89 205.49 0 113.59 0 107.38"/><polygon class="cls-17" points="0 101.17 104.31 205.49 98.1 205.49 0 107.38 0 101.17"/><polygon class="cls-18" points="0 94.96 110.52 205.49 104.31 205.49 0 101.17 0 94.96"/><polygon class="cls-19" points="0 88.75 116.73 205.49 110.52 205.49 0 94.96 0 88.75"/><polygon class="cls-20" points="0 82.54 122.94 205.49 116.73 205.49 0 88.75 0 82.54"/><polygon class="cls-21" points="0 76.33 129.16 205.49 122.94 205.49 0 82.54 0 76.33"/><polygon class="cls-22" points="0 70.12 135.37 205.49 129.16 205.49 0 76.33 0 70.12"/><polygon class="cls-23" points="0 63.91 141.58 205.49 135.37 205.49 0 70.12 0 63.91"/><polygon class="cls-24" points="0 57.7 147.79 205.49 141.58 205.49 0 63.91 0 57.7"/><polygon class="cls-25" points="0 51.48 154 205.49 147.79 205.49 0 57.7 0 51.48"/><polygon class="cls-26" points="0 45.27 160.21 205.49 154 205.49 0 51.48 0 45.27"/><polygon class="cls-27" points="0 39.06 166.42 205.49 160.21 205.49 0 45.27 0 39.06"/><polygon class="cls-28" points="0 32.85 172.63 205.49 166.42 205.49 0 39.06 0 32.85"/><polygon class="cls-29" points="0 26.64 178.84 205.49 172.63 205.49 0 32.85 0 26.64"/><polygon class="cls-30" points="0 20.43 185.06 205.49 178.84 205.49 0 26.64 0 20.43"/><polygon class="cls-31" points="0 14.22 191.27 205.49 185.06 205.49 0 20.43 0 14.22"/><polygon class="cls-32" points="0 8.01 197.48 205.49 191.27 205.49 0 14.22 0 8.01"/><polygon class="cls-33" points="0 5.61 1.91 3.71 203.69 205.49 197.48 205.49 0 8.01 0 5.61"/><polygon class="cls-34" points="1.91 3.71 5.01 0.6 209.9 205.49 203.69 205.49 1.91 3.71"/><polygon class="cls-35" points="5.01 0.6 5.61 0 10.63 0 216.11 205.49 209.9 205.49 5.01 0.6"/><polygon class="cls-36" points="16.84 0 222.32 205.49 216.11 205.49 10.63 0 16.84 0"/><polygon class="cls-36" points="23.05 0 228.53 205.49 222.32 205.49 16.84 0 23.05 0"/><polygon class="cls-37" points="29.26 0 234.74 205.49 228.53 205.49 23.05 0 29.26 0"/><polygon class="cls-38" points="35.47 0 240.95 205.49 234.74 205.49 29.26 0 35.47 0"/><polygon class="cls-39" points="41.68 0 247.16 205.49 240.95 205.49 35.47 0 41.68 0"/><polygon class="cls-39" points="47.89 0 253.38 205.49 247.16 205.49 41.68 0 47.89 0"/><polygon class="cls-40" points="54.1 0 259.59 205.49 253.38 205.49 47.89 0 54.1 0"/><polygon class="cls-41" points="60.31 0 265.8 205.49 259.59 205.49 54.1 0 60.31 0"/><polygon class="cls-42" points="66.52 0 271.41 204.88 270.81 205.49 265.8 205.49 60.31 0 66.52 0"/><polygon class="cls-43" points="72.73 0 274.51 201.78 271.41 204.88 66.52 0 72.73 0"/><polygon class="cls-44" points="78.95 0 276.42 197.48 276.42 199.87 274.51 201.78 72.73 0 78.95 0"/><polygon class="cls-45" points="85.16 0 276.42 191.27 276.42 197.48 78.95 0 85.16 0"/><polygon class="cls-46" points="91.37 0 276.42 185.06 276.42 191.27 85.16 0 91.37 0"/><polygon class="cls-47" points="97.58 0 276.42 178.84 276.42 185.06 91.37 0 97.58 0"/><polygon class="cls-48" points="103.79 0 276.42 172.63 276.42 178.84 97.58 0 103.79 0"/><polygon class="cls-49" points="110 0 276.42 166.42 276.42 172.63 103.79 0 110 0"/><polygon class="cls-50" points="116.21 0 276.42 160.21 276.42 166.42 110 0 116.21 0"/><polygon class="cls-51" points="122.42 0 276.42 154 276.42 160.21 116.21 0 122.42 0"/><polygon class="cls-52" points="128.63 0 276.42 147.79 276.42 154 122.42 0 128.63 0"/><polygon class="cls-53" points="134.84 0 276.42 141.58 276.42 147.79 128.63 0 134.84 0"/><polygon class="cls-53" points="141.06 0 276.42 135.37 276.42 141.58 134.84 0 141.06 0"/><polygon class="cls-54" points="147.27 0 276.42 129.16 276.42 135.37 141.06 0 147.27 0"/><polygon class="cls-55" points="153.48 0 276.42 122.94 276.42 129.16 147.27 0 153.48 0"/><polygon class="cls-56" points="159.69 0 276.42 116.73 276.42 122.94 153.48 0 159.69 0"/><polygon class="cls-56" points="165.9 0 276.42 110.52 276.42 116.73 159.69 0 165.9 0"/><polygon class="cls-57" points="172.11 0 276.42 104.31 276.42 110.52 165.9 0 172.11 0"/><polygon class="cls-58" points="178.32 0 276.42 98.1 276.42 104.31 172.11 0 178.32 0"/><polygon class="cls-59" points="184.53 0 276.42 91.89 276.42 98.1 178.32 0 184.53 0"/><polygon class="cls-59" points="190.74 0 276.42 85.68 276.42 91.89 184.53 0 190.74 0"/><polygon class="cls-60" points="196.96 0 276.42 79.47 276.42 85.68 190.74 0 196.96 0"/><polygon class="cls-61" points="203.17 0 276.42 73.26 276.42 79.47 196.96 0 203.17 0"/><polygon class="cls-62" points="209.38 0 276.42 67.05 276.42 73.26 203.17 0 209.38 0"/><polygon class="cls-62" points="215.59 0 276.42 60.83 276.42 67.05 209.38 0 215.59 0"/><polygon class="cls-63" points="221.8 0 276.42 54.62 276.42 60.83 215.59 0 221.8 0"/><polygon class="cls-64" points="228.01 0 276.42 48.41 276.42 54.62 221.8 0 228.01 0"/><polygon class="cls-65" points="234.22 0 276.42 42.2 276.42 48.41 228.01 0 234.22 0"/><polygon class="cls-66" points="240.43 0 276.42 35.99 276.42 42.2 234.22 0 240.43 0"/><polygon class="cls-67" points="246.64 0 276.42 29.78 276.42 35.99 240.43 0 246.64 0"/><polygon class="cls-68" points="252.85 0 276.42 23.57 276.42 29.78 246.64 0 252.85 0"/><polygon class="cls-68" points="259.06 0 276.42 17.36 276.42 23.57 252.85 0 259.06 0"/><polygon class="cls-69" points="265.28 0 276.42 11.15 276.42 17.36 259.06 0 265.28 0"/><polygon class="cls-69" points="276.42 11.15 265.28 0 276.42 0 276.42 11.15"/></g><rect class="cls-70" x="14.77" y="14.82" width="246.09" height="40.58" rx="9.45"/><path class="cls-71" d="M184.07,29.06a.55.55,0,0,0,.17-.11,2.77,2.77,0,0,1,2.76-.7A2.4,2.4,0,0,1,188.76,30a5.42,5.42,0,0,1,0,3.6c-.75,2-2.69,2.28-4.23,1.61-.45-.2-.44-.22-.44.29s0,1,0,1.55c0,.21-.07.27-.28.28-1,0-1,.05-1-.91,0-2.5,0-5,0-7.51,0-.37.06-.57.48-.51h.08C184,28.34,184,28.34,184.07,29.06Zm0,3.35v1a.46.46,0,0,0,.09.34,2,2,0,0,0,3.15-.1,4.35,4.35,0,0,0,.14-3.63,1.27,1.27,0,0,0-.88-.74,1.9,1.9,0,0,0-2.42,1.6A8.5,8.5,0,0,0,184.05,32.41Z" transform="translate(0 0)"/><path class="cls-71" d="M219.58,32.3A9.28,9.28,0,0,0,219.8,35c.06.16,0,.19-.14.21a4.76,4.76,0,0,0-.52.1c-.41.14-.66,0-.73-.42s-.23-.12-.34,0a3.32,3.32,0,0,1-2.73.52,1.87,1.87,0,0,1-1.59-1.93,2.07,2.07,0,0,1,1.69-2.19A21.93,21.93,0,0,1,218,31c.3,0,.36-.14.35-.4a1.38,1.38,0,0,0-1.47-1.34,4.5,4.5,0,0,0-2.11.37c-.29.13-.34,0-.37-.23-.1-.69-.11-.69.56-.9a6.12,6.12,0,0,1,2.82-.21,2,2,0,0,1,1.76,1.87c0,.19.05.38.05.57Zm-1.22.12c0-.52,0-.52-.5-.46a2.66,2.66,0,0,1-.28,0,5.93,5.93,0,0,0-2,.4,1.09,1.09,0,0,0-.57,1.23,1,1,0,0,0,.81.81A2,2,0,0,0,218.36,32.42Z" transform="translate(0 0)"/><path class="cls-71" d="M228,29.11a3,3,0,0,1,2.77-.9,1.81,1.81,0,0,1,1.7,1.78c.12,1.06,0,2.12.05,3.18a7.53,7.53,0,0,0,.11,1.71c.05.24,0,.35-.27.37a2.05,2.05,0,0,0-.56.09c-.35.13-.46,0-.5-.33-.07-.64,0-1.28-.06-1.92,0-.87,0-1.73,0-2.6a1.34,1.34,0,0,0-2.16-1,2.3,2.3,0,0,0-1,1.87,34.25,34.25,0,0,0,0,3.51c0,.35-.11.43-.44.42-.82,0-.82,0-.82-.81,0-2.54,0-5.09,0-7.63,0-.36.07-.5.47-.49.79,0,.79,0,.79.78Z" transform="translate(0 0)"/><path class="cls-71" d="M181.9,31.8a3.66,3.66,0,0,1-1.13,3,3.24,3.24,0,0,1-3.39.45,2.92,2.92,0,0,1-1.82-2.52,5.31,5.31,0,0,1,.19-2.53,3.15,3.15,0,0,1,6.09.84C181.88,31.33,181.89,31.61,181.9,31.8Zm-1.29,0a3.69,3.69,0,0,0-.25-1.51,1.68,1.68,0,0,0-1.57-1.17,1.63,1.63,0,0,0-1.68,1,4.25,4.25,0,0,0,0,3.3,1.61,1.61,0,0,0,1.6,1.05,1.65,1.65,0,0,0,1.62-1A3.81,3.81,0,0,0,180.61,31.82Z" transform="translate(0 0)"/><path class="cls-71" d="M211,32.16c-.68,0-1.36,0-2,0-.29,0-.34.11-.29.37A2.09,2.09,0,0,0,211,34.46a3,3,0,0,0,1.16-.21c.32-.14.45,0,.51.27s.33.53-.17.69a5.64,5.64,0,0,1-2.7.23,2.67,2.67,0,0,1-2.23-1.92,5.32,5.32,0,0,1,0-3.48,2.77,2.77,0,0,1,3.09-1.86c2,.15,2.44,1.44,2.57,2.82.11,1.15.09,1.16-1.05,1.16Zm-.62-.91h1c.9,0,.76.1.64-.76a1.52,1.52,0,0,0-1.91-1.38A1.94,1.94,0,0,0,208.64,31c0,.21.12.21.26.21Z" transform="translate(0 0)"/><path class="cls-71" d="M193.44,32.16h-2c-.28,0-.38.05-.33.37a2.09,2.09,0,0,0,2.34,1.94,3.46,3.46,0,0,0,1.28-.24c.24-.1.32,0,.4.2.24.68.24.68-.44.88a5.4,5.4,0,0,1-2.26.16,2.71,2.71,0,0,1-2.38-2,5.36,5.36,0,0,1,0-3.45,2.75,2.75,0,0,1,3.12-1.87,2.52,2.52,0,0,1,2.52,2.54c.05.35,0,.7.07,1.06s-.07.38-.36.37C194.77,32.14,194.11,32.16,193.44,32.16Zm-.68-.91h1.46c.12,0,.24,0,.28-.15a1.7,1.7,0,0,0-1.85-2,2,2,0,0,0-1.57,2c0,.19.13.17.25.17Z" transform="translate(0 0)"/><path class="cls-71" d="M198,29.2a2.52,2.52,0,0,1,1.78-1,2.12,2.12,0,0,1,2.69,2.28c0,1,0,2.07,0,3.1a5.43,5.43,0,0,0,.1,1.34c.07.27,0,.31-.24.33s-.24,0-.36.07c-.69.14-.75.11-.76-.62,0-1.17,0-2.34,0-3.51,0-.22,0-.44,0-.65,0-.56-.2-1.06-.82-1.23a1.64,1.64,0,0,0-1.79.58,3.11,3.11,0,0,0-.58,1.95c0,1,0,2,0,3,0,.34-.08.44-.42.43-.84,0-.84,0-.84-.88,0-1.87,0-3.75,0-5.63,0-.3.08-.44.39-.39h0C197.91,28.35,197.91,28.35,198,29.2Z" transform="translate(0 0)"/><path class="cls-71" d="M220.46,31.81a3.63,3.63,0,0,1,1-2.78,3.58,3.58,0,0,1,4.28-.29c.18.13.21.24.1.43-.31.56-.3.57-.87.29a2.17,2.17,0,0,0-3.27,1.87,4.36,4.36,0,0,0,0,1.25,2.13,2.13,0,0,0,2.87,1.73l.32-.09c.62-.21.74-.13.92.54a.18.18,0,0,1-.09.23,3.39,3.39,0,0,1-5.08-1.57A4.87,4.87,0,0,1,220.46,31.81Z" transform="translate(0 0)"/><path class="cls-71" d="M204.89,29.45c.2-.1.25-.27.35-.39a1.92,1.92,0,0,1,1.8-.74c.23,0,.36.11.3.36v0c0,.24,0,.54-.11.71s-.43,0-.66,0a1.49,1.49,0,0,0-1.2.74,3.47,3.47,0,0,0-.49,1.83c0,1,0,1.93,0,2.9,0,.28-.08.37-.36.37-.91,0-.91,0-.91-.88,0-1.88,0-3.76,0-5.64,0-.3.07-.39.38-.4.88,0,.88-.05.9.84C204.87,29.27,204.88,29.34,204.89,29.45Z" transform="translate(0 0)"/><path class="cls-71" d="M227.45,39.75c.1-.31.19-.62.28-.93,0-.14.11-.24.26-.19s0,.19,0,.27c-.11.4-.25.78-.37,1.17,0,.13-.08.22-.24.21s-.21-.11-.24-.23-.13-.51-.23-.89l-.25.81c-.05.14-.07.3-.27.31s-.23-.15-.26-.3-.15-.52-.23-.78,0-.39-.21-.37-.58.05-.46.48a1.71,1.71,0,0,1,0,.32c0,.23,0,.42.33.38a.13.13,0,0,1,.15.14c0,.08-.07.1-.13.13a.45.45,0,0,1-.66-.41c0-.19,0-.38,0-.57s0-.18,0-.2c-.41-.27,0-.53,0-.79s.07-.17.18-.18.15.07.13.15c-.05.47.39.41.54.36.37-.09.38.11.44.34a1.85,1.85,0,0,0,.23.76c.1-.33.2-.63.29-.92,0-.12.09-.2.23-.2s.17.11.19.22c.07.32.15.63.22.95Z" transform="translate(0 0)"/><path class="cls-71" d="M203,39.59V40c0,.74-.45,1.06-1.16.84-.09,0-.2,0-.18-.17s.14-.13.25-.11a.64.64,0,0,0,.65-.1.19.19,0,0,0,.07-.22c0-.11-.13-.07-.2,0a.62.62,0,0,1-.79-.25,1,1,0,0,1,0-1.12.65.65,0,0,1,.79-.26c.55.11.55.1.55.7Zm-.31-.25a.38.38,0,0,0-.4-.49c-.39,0-.45.29-.46.58s0,.54.38.56S202.66,39.78,202.67,39.34Z" transform="translate(0 0)"/><path class="cls-71" d="M186.93,39a1.17,1.17,0,0,1,1.58-1.24c.12,0,.3.08.25.26s-.21.09-.33,0a.75.75,0,0,0-1.07.65,1.79,1.79,0,0,0,0,.4c0,.68.42,1,1.08.83.14,0,.28-.14.33.07s-.14.21-.26.24C187.59,40.53,186.94,40,186.93,39Z" transform="translate(0 0)"/><path class="cls-71" d="M232.55,38.65c-.17.29-.59.39-.58.67s.34.47.53.7c.05.06.17.13.05.23a.2.2,0,0,1-.27,0c-.14-.14-.27-.3-.41-.45s-.09-.15-.18-.13-.1.15-.11.24v.2c0,.11,0,.18-.16.19a.16.16,0,0,1-.18-.18c0-.72,0-1.44,0-2.16,0-.12.06-.17.18-.17s.15.09.15.19c0,.3,0,.6,0,.9,0,.07,0,.18.07.2s.12-.05.17-.09C232,38.82,232.19,38.55,232.55,38.65Z" transform="translate(0 0)"/><path class="cls-71" d="M199.76,39.44v0c0-.79.09-.88.88-.83a.49.49,0,0,1,.52.47c0,.35,0,.71,0,1.06,0,.11-.05.18-.16.18a.15.15,0,0,1-.18-.17c0-.27,0-.54,0-.82s0-.39-.29-.4a.37.37,0,0,0-.41.36c0,.26,0,.51,0,.77s0,.26-.18.25-.16-.15-.16-.26Z" transform="translate(0 0)"/><path class="cls-71" d="M218.92,39.48V40c0,.23,0,.38-.33.26-.13-.06-.23.05-.34.08-.41.1-.69-.07-.73-.47s0-.68,0-1c0-.1,0-.19.15-.2s.18.09.18.21c0,.28,0,.55,0,.82s0,.36.27.38a.37.37,0,0,0,.41-.32,7.32,7.32,0,0,0,0-.81c0-.11,0-.26.15-.27s.2.14.2.28v.57Z" transform="translate(0 0)"/><path class="cls-71" d="M214.68,39.63a3.55,3.55,0,0,0,.39-.82c.06-.11.12-.24.27-.18s.07.21,0,.31c-.21.53-.43,1.05-.65,1.58a.55.55,0,0,1-.6.39c-.1,0-.2,0-.2-.14s.08-.11.17-.13a.46.46,0,0,0,.36-.66c-.13-.37-.29-.73-.44-1.1,0-.08-.13-.19,0-.25a.21.21,0,0,1,.31.11C214.42,39,214.54,39.29,214.68,39.63Z" transform="translate(0 0)"/><path class="cls-71" d="M204.82,39.69l.35-.86c.06-.15.14-.26.3-.21s0,.21,0,.3l-.64,1.59a.57.57,0,0,1-.63.4c-.09,0-.18,0-.19-.13s.07-.12.16-.14a.47.47,0,0,0,.38-.69c-.13-.36-.29-.7-.44-1.06,0-.09-.12-.21,0-.26a.19.19,0,0,1,.25.13C204.54,39,204.65,39.31,204.82,39.69Z" transform="translate(0 0)"/><path class="cls-71" d="M190.92,39.44v0c0-.83.05-.87.87-.83.29,0,.5.15.5.47s0,.71,0,1.06c0,.12,0,.18-.14.19a.15.15,0,0,1-.18-.17c0-.29,0-.57,0-.85s0-.36-.27-.38a.33.33,0,0,0-.39.32,6.51,6.51,0,0,0,0,.77c0,.14,0,.3-.19.29s-.16-.18-.16-.3S190.92,39.62,190.92,39.44Z" transform="translate(0 0)"/><path class="cls-71" d="M194.45,39.47c0-.62.4-1,.93-.87a.74.74,0,0,1,.51.78c0,.15-.11.16-.22.16h-.57c-.1,0-.24,0-.27.11a.31.31,0,0,0,.17.3.66.66,0,0,0,.48.06c.1,0,.24-.05.26.09s-.13.17-.24.2A.8.8,0,0,1,194.45,39.47Zm.77-.13c.09-.09.33.1.32-.17a.32.32,0,0,0-.33-.34c-.22,0-.39.11-.38.33S195.08,39.27,195.22,39.34Z" transform="translate(0 0)"/><path class="cls-71" d="M211.38,39.45a.82.82,0,0,1,.77-.89.81.81,0,0,1,.8.9.79.79,0,1,1-1.57,0Zm1.22,0c0-.31-.06-.61-.45-.61s-.41.3-.41.59,0,.61.42.62S212.59,39.76,212.6,39.46Z" transform="translate(0 0)"/><path class="cls-71" d="M224,40c.12,0,.28-.11.32.07s-.16.18-.28.21a.8.8,0,0,1-.87-.3,1.17,1.17,0,0,1,0-1.16.69.69,0,0,1,.79-.26.77.77,0,0,1,.5.75c0,.14-.08.19-.21.19h-.52c-.13,0-.31-.07-.33.13a.3.3,0,0,0,.26.32A1.75,1.75,0,0,0,224,40Zm-.24-.7c.11-.09.37.12.36-.18a.33.33,0,0,0-.36-.35.37.37,0,0,0-.38.36C223.4,39.44,223.64,39.26,223.77,39.34Z" transform="translate(0 0)"/><path class="cls-71" d="M192.72,39.45v0c0-.81.08-.89.88-.84a.46.46,0,0,1,.49.45c0,.35,0,.7,0,1.06,0,.1,0,.19-.14.2s-.18-.09-.18-.21c0-.27,0-.54,0-.81s0-.34-.24-.37a.37.37,0,0,0-.43.29,3.35,3.35,0,0,0,0,.77c0,.13,0,.31-.16.32s-.17-.2-.18-.33S192.72,39.62,192.72,39.45Z" transform="translate(0 0)"/><path class="cls-71" d="M209,39.49c0,.82,0,.87-.87.85a.48.48,0,0,1-.5-.4,6.08,6.08,0,0,1,0-1.13.16.16,0,0,1,.17-.18c.14,0,.14.11.14.21,0,.27,0,.54,0,.81s0,.38.26.39.37-.14.44-.35a3.94,3.94,0,0,0,0-.77c0-.13,0-.3.18-.29s.15.17.15.29Z" transform="translate(0 0)"/><path class="cls-71" d="M206.5,40.34a.81.81,0,0,1-.78-.87.82.82,0,0,1,.75-.9.89.89,0,0,1,0,1.77Zm.44-.87c0-.31-.05-.58-.42-.62s-.48.23-.46.63.07.58.43.58S206.93,39.78,206.94,39.47Z" transform="translate(0 0)"/><path class="cls-71" d="M217.13,39.45c0,.55-.27.88-.73.89s-.79-.34-.79-.88.31-.9.79-.89S217.13,38.91,217.13,39.45Zm-1.21,0c0,.29.07.6.45.61s.44-.31.44-.6,0-.6-.43-.61S216,39.16,215.92,39.45Z" transform="translate(0 0)"/><path class="cls-71" d="M189,39.44c0-.55.31-.89.79-.87a.82.82,0,0,1,.75.9.81.81,0,0,1-.77.87C189.32,40.34,189,40,189,39.44Zm1.21,0c0-.29-.05-.62-.44-.62s-.44.29-.44.6,0,.6.42.61S190.2,39.75,190.24,39.47Z" transform="translate(0 0)"/><path class="cls-71" d="M228.22,39.44a.79.79,0,0,1,.76-.87c.48,0,.77.34.77.9a.77.77,0,0,1-.75.87A.8.8,0,0,1,228.22,39.44Zm1.21,0c0-.38-.19-.61-.47-.58s-.4.36-.4.63.05.57.42.59S229.44,39.83,229.43,39.43Z" transform="translate(0 0)"/><path class="cls-71" d="M222.71,39.61v.45c0,.12,0,.22-.16.22s-.15-.12-.16-.23,0-.52,0-.77,0-.37-.27-.39a.35.35,0,0,0-.42.34c0,.27,0,.54,0,.81,0,.11,0,.23-.15.23s-.17-.1-.17-.22V38.83c0-.08,0-.22.1-.19.31.15.58-.14.88-.06a.47.47,0,0,1,.39.46c0,.19,0,.38,0,.57Z" transform="translate(0 0)"/><path class="cls-71" d="M210.89,40.3c-.31,0-.46-.11-.48-.39s0-.46,0-.69,0-.27-.14-.34-.16-.19,0-.25a.25.25,0,0,0,.17-.28.19.19,0,0,1,.19-.22c.17,0,.15.12.14.22s.06.28.26.27a.14.14,0,0,1,.17.13.11.11,0,0,1-.12.13c-.34,0-.33.21-.3.43s-.2.74.4.72c0,0,.07.1.06.13S211,40.28,210.89,40.3Z" transform="translate(0 0)"/><path class="cls-71" d="M198.36,40.3a.4.4,0,0,1-.49-.42,5.19,5.19,0,0,1,0-.56c0-.08,0-.21,0-.24-.34-.26,0-.49,0-.74a.2.2,0,0,1,.23-.22c.15,0,.1.14.1.22s.07.3.28.28.17,0,.18.11-.09.17-.18.16c-.26,0-.29.12-.28.32s0,.38,0,.57a.22.22,0,0,0,.18.23c.12,0,.33-.09.31.14S198.44,40.26,198.36,40.3Z" transform="translate(0 0)"/><path class="cls-71" d="M197.1,38.89c-.43,0-.63.16-.63.56a.51.51,0,0,0,.62.57c.12,0,.3-.11.32.1s-.19.16-.31.19a.68.68,0,0,1-.79-.28,1,1,0,0,1,0-1.12.7.7,0,0,1,.82-.31c.13,0,.32,0,.3.21S197.2,38.88,197.1,38.89Z" transform="translate(0 0)"/><path class="cls-71" d="M230.11,39.43v-.36c0-.25-.07-.6.39-.36a.12.12,0,0,0,.08,0c.14-.06.33-.19.41,0s-.18.16-.29.23a.51.51,0,0,0-.24.48c0,.22,0,.43,0,.65a.16.16,0,0,1-.17.18c-.13,0-.16-.08-.16-.19v-.65Z" transform="translate(0 0)"/><path class="cls-71" d="M219.36,39.44V39c0-.23-.05-.53.35-.27.06,0,.21-.07.33-.1s.17,0,.2.09,0,.18-.1.19c-.5.07-.44.46-.48.8,0,.19.15.55-.13.54s-.11-.36-.17-.56A1,1,0,0,1,219.36,39.44Z" transform="translate(0 0)"/><path class="cls-71" d="M199.31,39.44c0,.2,0,.4,0,.61s0,.22-.15.23a.16.16,0,0,1-.18-.17c0-.45,0-.89,0-1.34,0-.1.07-.14.16-.15s.18.05.18.17,0,.43,0,.65Z" transform="translate(0 0)"/><path class="cls-71" d="M199.35,38c0,.13-.06.22-.19.23a.19.19,0,0,1-.22-.18.18.18,0,0,1,.18-.22A.2.2,0,0,1,199.35,38Z" transform="translate(0 0)"/><path class="cls-71" d="M195.22,39.34c-.14-.07-.38.1-.39-.18s.16-.34.38-.33a.32.32,0,0,1,.33.34C195.55,39.44,195.31,39.25,195.22,39.34Z" transform="translate(0 0)"/><circle class="cls-72" cx="51.92" cy="31.94" r="1.82"/><circle class="cls-73" cx="76.54" cy="31.94" r="1.82"/><circle class="cls-74" cx="101.15" cy="31.94" r="1.82"/><circle class="cls-75" cx="125.77" cy="31.94" r="1.82"/><path class="cls-76" d="M44.46,44.26V41.32h.78a2.32,2.32,0,0,1,.57,0,.6.6,0,0,1,.36.29,1.09,1.09,0,0,1,.14.57,1.08,1.08,0,0,1-.12.54.72.72,0,0,1-.3.3,1.54,1.54,0,0,1-.63.09h-.32v1.11Zm.48-2.45v.84h.27a1,1,0,0,0,.37,0,.29.29,0,0,0,.16-.13.48.48,0,0,0,0-.5.29.29,0,0,0-.16-.13,1.44,1.44,0,0,0-.4,0Z" transform="translate(0 0)"/><path class="cls-76" d="M46.6,43.16a1.32,1.32,0,0,1,.12-.57.83.83,0,0,1,.33-.38.83.83,0,0,1,1.11.2,1.28,1.28,0,0,1,.24.77,1.46,1.46,0,0,1-.12.6,1.11,1.11,0,0,1-.33.4.85.85,0,0,1-1.1-.17A1.27,1.27,0,0,1,46.6,43.16Zm.47,0a.75.75,0,0,0,.13.49.35.35,0,0,0,.6,0,.75.75,0,0,0,.13-.49.79.79,0,0,0-.13-.49.36.36,0,0,0-.6,0A.79.79,0,0,0,47.07,43.19Z" transform="translate(0 0)"/><path class="cls-76" d="M49.09,44.26l-.55-2.13H49l.33,1.39.3-1.39h.44l.29,1.39.34-1.39h.46l-.57,2.13h-.44l-.3-1.37-.3,1.37Z" transform="translate(0 0)"/><path class="cls-76" d="M52.4,43.58l.46.1a.87.87,0,0,1-.28.47.71.71,0,0,1-.48.16.74.74,0,0,1-.6-.26,1.31,1.31,0,0,1-.25-.84,1.4,1.4,0,0,1,.25-.86.73.73,0,0,1,1.14,0,1.45,1.45,0,0,1,.25.93v.07H51.73a.62.62,0,0,0,.11.39.33.33,0,0,0,.27.14C52.25,43.89,52.35,43.79,52.4,43.58Zm0-.57a.6.6,0,0,0-.11-.37.3.3,0,0,0-.24-.13.27.27,0,0,0-.24.13.53.53,0,0,0-.1.37Z" transform="translate(0 0)"/><path class="cls-76" d="M53.71,44.26h-.47V42.13h.43v.3a1.06,1.06,0,0,1,.2-.28.29.29,0,0,1,.2-.07.47.47,0,0,1,.3.1l-.14.5a.33.33,0,0,0-.22-.1.25.25,0,0,0-.17.08.42.42,0,0,0-.1.25,5.29,5.29,0,0,0,0,.69Z" transform="translate(0 0)"/><path class="cls-76" d="M71.44,41.32h.89a1.32,1.32,0,0,1,.51.07.86.86,0,0,1,.32.26,1.31,1.31,0,0,1,.22.46,2.41,2.41,0,0,1,.09.71,2.19,2.19,0,0,1-.09.66,1.35,1.35,0,0,1-.22.45.87.87,0,0,1-.32.25,1.26,1.26,0,0,1-.48.08h-.92Zm.49.49v1.95h.37a1,1,0,0,0,.34,0,.46.46,0,0,0,.17-.14.85.85,0,0,0,.11-.28,2.29,2.29,0,0,0,0-.5,2.43,2.43,0,0,0,0-.52.76.76,0,0,0-.14-.3.43.43,0,0,0-.23-.14,1.71,1.71,0,0,0-.4,0Z" transform="translate(0 0)"/><path class="cls-76" d="M73.76,43.3l.47-.06c.06.38.23.57.53.57a.5.5,0,0,0,.35-.12.36.36,0,0,0,.12-.28.29.29,0,0,0,0-.17.33.33,0,0,0-.14-.12,3.49,3.49,0,0,0-.43-.15,1.56,1.56,0,0,1-.46-.2.82.82,0,0,1-.23-.29.85.85,0,0,1-.08-.39.77.77,0,0,1,.11-.43.65.65,0,0,1,.3-.29,1,1,0,0,1,.47-.1.83.83,0,0,1,.92.89l-.49,0a.51.51,0,0,0-.14-.33.45.45,0,0,0-.3-.09.51.51,0,0,0-.3.08.26.26,0,0,0-.11.2.26.26,0,0,0,.1.21,1.54,1.54,0,0,0,.44.18,1.71,1.71,0,0,1,.53.22.81.81,0,0,1,.25.3,1.06,1.06,0,0,1,.09.45.93.93,0,0,1-.24.65,1,1,0,0,1-.74.26C74.15,44.31,73.82,44,73.76,43.3Z" transform="translate(0 0)"/><path class="cls-76" d="M76.14,44.26V41.34h.49v2.42h1.21v.5Z" transform="translate(0 0)"/><path class="cls-76" d="M96.89,44.26V41.34h.49v2.42h1.21v.5Z" transform="translate(0 0)"/><path class="cls-76" d="M101.11,44.26h-.53l-.21-.67h-1l-.2.67h-.52l.94-2.94h.52Zm-.89-1.16L99.88,42l-.32,1.1Z" transform="translate(0 0)"/><path class="cls-76" d="M101.37,44.26V41.32h.48l1,2v-2h.46v2.94h-.49l-1-1.92v1.92Z" transform="translate(0 0)"/><path class="cls-76" d="M104.88,44.26h-.46V42.13a1.48,1.48,0,0,1-.6.43v-.51a1.33,1.33,0,0,0,.4-.28,1.12,1.12,0,0,0,.29-.46h.37Z" transform="translate(0 0)"/><path class="cls-76" d="M121.62,44.26V41.34h.49v2.42h1.21v.5Z" transform="translate(0 0)"/><path class="cls-76" d="M125.85,44.26h-.53l-.21-.67h-1l-.2.67h-.52l.94-2.94h.52ZM125,43.1l-.33-1.1-.33,1.1Z" transform="translate(0 0)"/><path class="cls-76" d="M126.11,44.26V41.32h.47l1,2v-2H128v2.94h-.49l-1-1.92v1.92Z" transform="translate(0 0)"/><path class="cls-76" d="M130,43.74v.52h-1.62a1.51,1.51,0,0,1,.16-.56,3.5,3.5,0,0,1,.52-.71,5.08,5.08,0,0,0,.38-.47.7.7,0,0,0,.1-.36.5.5,0,0,0-.08-.29.33.33,0,0,0-.23-.1c-.21,0-.32.16-.33.46l-.46,0a1.06,1.06,0,0,1,.25-.66.74.74,0,0,1,.55-.21.69.69,0,0,1,.57.24.91.91,0,0,1,.19.57,1.34,1.34,0,0,1,0,.35,1.74,1.74,0,0,1-.16.34,2.77,2.77,0,0,1-.34.44l-.28.33a.65.65,0,0,0-.09.16Z" transform="translate(0 0)"/><path class="cls-76" d="M33.93,192.5h.89a1.39,1.39,0,0,1,.51.07.83.83,0,0,1,.31.26,1.17,1.17,0,0,1,.23.46A2.44,2.44,0,0,1,36,194a2.54,2.54,0,0,1-.08.66,1.35,1.35,0,0,1-.22.45,1,1,0,0,1-.32.25,1.34,1.34,0,0,1-.48.08h-.92Zm.49.5v1.94h.36a.94.94,0,0,0,.34,0,.46.46,0,0,0,.18-.13.92.92,0,0,0,.11-.29,2.23,2.23,0,0,0,0-.5,2.43,2.43,0,0,0,0-.52.71.71,0,0,0-.14-.29A.51.51,0,0,0,35,193l-.39,0Z" transform="translate(0 0)"/><path class="cls-76" d="M36.24,194.48l.48,0c.05.37.23.56.53.56a.47.47,0,0,0,.34-.12.34.34,0,0,0,.13-.28.39.39,0,0,0,0-.17.33.33,0,0,0-.14-.12l-.44-.15a1.48,1.48,0,0,1-.45-.2.73.73,0,0,1-.23-.29.86.86,0,0,1-.09-.39.89.89,0,0,1,.11-.43.7.7,0,0,1,.3-.29,1,1,0,0,1,.48-.1.93.93,0,0,1,.66.23.91.91,0,0,1,.26.66l-.49,0a.57.57,0,0,0-.14-.34.45.45,0,0,0-.3-.09.54.54,0,0,0-.31.08.27.27,0,0,0,0,.41,1.81,1.81,0,0,0,.45.18,1.83,1.83,0,0,1,.53.22.76.76,0,0,1,.25.31,1,1,0,0,1,.08.45.9.9,0,0,1-.23.64,1,1,0,0,1-.74.26C36.64,195.49,36.31,195.16,36.24,194.48Z" transform="translate(0 0)"/><path class="cls-76" d="M38.63,195.44v-2.92h.48v2.42h1.22v.5Z" transform="translate(0 0)"/><path class="cls-76" d="M68.75,195.44v-2.92h.49v2.42h1.21v.5Z" transform="translate(0 0)"/><path class="cls-76" d="M73,195.44h-.53l-.21-.67h-1l-.2.67h-.52l.94-2.94H72Zm-.89-1.16-.34-1.09-.32,1.09Z" transform="translate(0 0)"/><path class="cls-76" d="M73.23,195.44V192.5h.48l1,2v-2h.46v2.94h-.49l-1-1.92v1.92Z" transform="translate(0 0)"/><path class="cls-76" d="M76.74,195.44h-.46v-2.12a1.56,1.56,0,0,1-.6.42v-.51a1.17,1.17,0,0,0,.4-.28,1,1,0,0,0,.29-.46h.37Z" transform="translate(0 0)"/><path class="cls-76" d="M92.55,195.44v-2.92H93v2.42h1.21v.5Z" transform="translate(0 0)"/><path class="cls-76" d="M96.77,195.44h-.53l-.21-.67h-1l-.2.67h-.51l.94-2.94h.51Zm-.9-1.16-.33-1.09-.33,1.09Z" transform="translate(0 0)"/><path class="cls-76" d="M97,195.44V192.5h.47l1,2v-2H99v2.94h-.5l-1-1.92v1.92Z" transform="translate(0 0)"/><path class="cls-76" d="M100.92,194.92v.52H99.3a1.39,1.39,0,0,1,.16-.56,3.37,3.37,0,0,1,.51-.71,3.13,3.13,0,0,0,.38-.47.64.64,0,0,0,.1-.35.45.45,0,0,0-.08-.3.3.3,0,0,0-.23-.09c-.2,0-.31.15-.33.46l-.46-.06a1.06,1.06,0,0,1,.25-.66.74.74,0,0,1,.55-.21.68.68,0,0,1,.58.25.92.92,0,0,1,.19.56,1.34,1.34,0,0,1,0,.35,1.68,1.68,0,0,1-.15.34,3.81,3.81,0,0,1-.34.44l-.29.33a.65.65,0,0,0-.09.16Z" transform="translate(0 0)"/><path class="cls-76" d="M170.7,195.44V192.5h1a1.47,1.47,0,0,1,.56.08.56.56,0,0,1,.28.27,1,1,0,0,1,.11.47.89.89,0,0,1-.17.56.69.69,0,0,1-.47.26,1.25,1.25,0,0,1,.26.25,3.62,3.62,0,0,1,.28.48l.29.57h-.58l-.35-.64a3.13,3.13,0,0,0-.26-.43.31.31,0,0,0-.14-.12.54.54,0,0,0-.25,0h-.1v1.23Zm.48-1.7h.36a1.74,1.74,0,0,0,.42,0,.27.27,0,0,0,.15-.11.43.43,0,0,0,.06-.24.36.36,0,0,0-.06-.22A.29.29,0,0,0,172,193a1.7,1.7,0,0,0-.4,0h-.38Z" transform="translate(0 0)"/><path class="cls-76" d="M173.13,195.44V192.5h1.79v.5h-1.31v.65h1.22v.5h-1.22v.79H175v.5Z" transform="translate(0 0)"/><path class="cls-76" d="M175.25,194.48l.48,0c.05.37.23.56.52.56a.48.48,0,0,0,.35-.12.34.34,0,0,0,.13-.28.29.29,0,0,0,0-.17.3.3,0,0,0-.13-.12l-.44-.15a1.37,1.37,0,0,1-.45-.2.73.73,0,0,1-.23-.29.86.86,0,0,1-.09-.39.89.89,0,0,1,.11-.43.65.65,0,0,1,.3-.29,1,1,0,0,1,.48-.1.93.93,0,0,1,.66.23.91.91,0,0,1,.26.66l-.49,0a.57.57,0,0,0-.14-.34.45.45,0,0,0-.3-.09.52.52,0,0,0-.31.08.27.27,0,0,0,0,.41,1.81,1.81,0,0,0,.45.18,1.83,1.83,0,0,1,.53.22.76.76,0,0,1,.25.31,1.17,1.17,0,0,1,.08.45,1,1,0,0,1-.23.64,1,1,0,0,1-.74.26C175.65,195.49,175.32,195.16,175.25,194.48Z" transform="translate(0 0)"/><path class="cls-76" d="M177.62,195.44V192.5h1.79v.5h-1.3v.65h1.21v.5h-1.21v.79h1.35v.5Z" transform="translate(0 0)"/><path class="cls-76" d="M180.41,195.44V193h-.71v-.5h1.92v.5h-.72v2.44Z" transform="translate(0 0)"/><path class="cls-76" d="M195.05,192.5h.89a1.39,1.39,0,0,1,.51.07.83.83,0,0,1,.31.26,1.32,1.32,0,0,1,.23.46,2.84,2.84,0,0,1,.08.71,2.54,2.54,0,0,1-.08.66,1.35,1.35,0,0,1-.22.45,1,1,0,0,1-.32.25,1.36,1.36,0,0,1-.49.08h-.91Zm.49.5v1.94h.36a.94.94,0,0,0,.34,0,.37.37,0,0,0,.17-.13.72.72,0,0,0,.12-.29,3,3,0,0,0,0-.5,2.34,2.34,0,0,0,0-.52.61.61,0,0,0-.14-.29.44.44,0,0,0-.23-.15l-.39,0Z" transform="translate(0 0)"/><path class="cls-76" d="M197.36,194.48l.48,0c0,.37.23.56.52.56a.48.48,0,0,0,.35-.12.34.34,0,0,0,.13-.28.29.29,0,0,0-.05-.17.3.3,0,0,0-.13-.12l-.44-.15a1.37,1.37,0,0,1-.45-.2.73.73,0,0,1-.23-.29.86.86,0,0,1-.09-.39.89.89,0,0,1,.11-.43.65.65,0,0,1,.3-.29,1,1,0,0,1,.48-.1.93.93,0,0,1,.66.23.91.91,0,0,1,.26.66l-.49,0a.57.57,0,0,0-.14-.34.45.45,0,0,0-.3-.09.54.54,0,0,0-.31.08.27.27,0,0,0,0,.41,1.81,1.81,0,0,0,.45.18,1.83,1.83,0,0,1,.53.22.76.76,0,0,1,.25.31,1.17,1.17,0,0,1,.08.45,1,1,0,0,1-.23.64,1,1,0,0,1-.74.26C197.76,195.49,197.43,195.16,197.36,194.48Z" transform="translate(0 0)"/><path class="cls-76" d="M199.75,195.44v-2.92h.48v2.42h1.22v.5Z" transform="translate(0 0)"/><path class="cls-76" d="M235.48,195.44V192.5h.78a2.32,2.32,0,0,1,.57,0,.67.67,0,0,1,.36.29,1.11,1.11,0,0,1,.14.58,1.07,1.07,0,0,1-.12.53.67.67,0,0,1-.3.3,1.58,1.58,0,0,1-.63.09H236v1.11ZM236,193v.83h.27a1.47,1.47,0,0,0,.37,0,.36.36,0,0,0,.16-.14.49.49,0,0,0,.07-.25.45.45,0,0,0-.07-.24.31.31,0,0,0-.16-.14,1.6,1.6,0,0,0-.4,0Z" transform="translate(0 0)"/><path class="cls-76" d="M237.63,194a2.19,2.19,0,0,1,.15-.87,1.22,1.22,0,0,1,.41-.5,1,1,0,0,1,.61-.17,1.05,1.05,0,0,1,.84.39,2.08,2.08,0,0,1,0,2.28,1,1,0,0,1-.82.37,1,1,0,0,1-.83-.36A1.74,1.74,0,0,1,237.63,194Zm.5,0a1.23,1.23,0,0,0,.19.76.59.59,0,0,0,1,0,1.32,1.32,0,0,0,.19-.77,1.22,1.22,0,0,0-.19-.76.6.6,0,0,0-1,0A1.25,1.25,0,0,0,238.13,194Z" transform="translate(0 0)"/><path class="cls-76" d="M240.69,195.44l-.57-2.94h.5l.36,2,.44-2H242l.42,2.06.37-2.06h.49l-.58,2.94h-.52l-.48-2.2-.48,2.2Z" transform="translate(0 0)"/><path class="cls-76" d="M243.53,195.44V192.5h1.79v.5H244v.65h1.21v.5H244v.79h1.35v.5Z" transform="translate(0 0)"/><path class="cls-76" d="M245.78,195.44V192.5h1a1.47,1.47,0,0,1,.56.08.66.66,0,0,1,.28.27,1,1,0,0,1,.1.47.89.89,0,0,1-.16.56.71.71,0,0,1-.47.26,1.55,1.55,0,0,1,.26.25,3.62,3.62,0,0,1,.28.48l.29.57h-.58l-.36-.64a3.54,3.54,0,0,0-.25-.43.4.4,0,0,0-.15-.12.49.49,0,0,0-.24,0h-.1v1.23Zm.49-1.7h.36a1.74,1.74,0,0,0,.42,0,.27.27,0,0,0,.15-.11.54.54,0,0,0,.05-.24.45.45,0,0,0-.05-.22A.28.28,0,0,0,247,193a1.54,1.54,0,0,0-.39,0h-.38Z" transform="translate(0 0)"/></g></g></svg>