<svg xmlns="http://www.w3.org/2000/svg" xmlns:xlink="http://www.w3.org/1999/xlink" viewBox="0 0 568.41 56.16"><defs><style>.cls-1{fill:#1a81c4;}.cls-2{fill:url(#linear-gradient);}.cls-3{fill:#fff;}.cls-4{opacity:0.5;fill:url(#linear-gradient-2);}.cls-5{fill:#004570;}.cls-6{fill:url(#linear-gradient-3);}.cls-7{fill:url(#radial-gradient);}.cls-8{fill:url(#linear-gradient-4);}.cls-9{fill:url(#radial-gradient-2);}.cls-10{fill:url(#linear-gradient-5);}.cls-11{fill:url(#radial-gradient-3);}.cls-12{fill:url(#linear-gradient-6);}.cls-13{fill:url(#radial-gradient-4);}.cls-14{fill:#1e1e1e;}.cls-15{fill:url(#linear-gradient-7);}.cls-16{fill:url(#linear-gradient-8);}.cls-17{fill:url(#linear-gradient-9);}.cls-18{fill:url(#linear-gradient-10);}.cls-19{fill:url(#linear-gradient-11);}.cls-20{fill:url(#linear-gradient-12);}.cls-21{fill:url(#linear-gradient-13);}.cls-22{fill:url(#linear-gradient-14);}.cls-23{fill:url(#linear-gradient-15);}.cls-24{fill:url(#linear-gradient-16);}.cls-25{fill:url(#linear-gradient-17);}.cls-26{fill:url(#linear-gradient-18);}.cls-102,.cls-104,.cls-117,.cls-119,.cls-27,.cls-29,.cls-42,.cls-44,.cls-57,.cls-59,.cls-72,.cls-74,.cls-87,.cls-89{opacity:0.2;}.cls-27{fill:url(#linear-gradient-19);}.cls-28{fill:url(#linear-gradient-20);}.cls-29{fill:url(#linear-gradient-21);}.cls-30{fill:url(#linear-gradient-22);}.cls-31{fill:url(#linear-gradient-23);}.cls-32{fill:url(#linear-gradient-24);}.cls-33{fill:url(#linear-gradient-25);}.cls-34{fill:url(#linear-gradient-26);}.cls-35{fill:url(#linear-gradient-27);}.cls-36{fill:url(#linear-gradient-28);}.cls-37{fill:url(#linear-gradient-29);}.cls-38{fill:url(#linear-gradient-30);}.cls-39{fill:url(#linear-gradient-31);}.cls-40{fill:url(#linear-gradient-32);}.cls-41{fill:url(#linear-gradient-33);}.cls-42{fill:url(#linear-gradient-34);}.cls-43{fill:url(#linear-gradient-35);}.cls-44{fill:url(#linear-gradient-36);}.cls-45{fill:url(#linear-gradient-37);}.cls-46{fill:url(#linear-gradient-38);}.cls-47{fill:url(#linear-gradient-39);}.cls-48{fill:url(#linear-gradient-40);}.cls-49{fill:url(#linear-gradient-41);}.cls-50{fill:url(#linear-gradient-42);}.cls-51{fill:url(#linear-gradient-43);}.cls-52{fill:url(#linear-gradient-44);}.cls-53{fill:url(#linear-gradient-45);}.cls-54{fill:url(#linear-gradient-46);}.cls-55{fill:url(#linear-gradient-47);}.cls-56{fill:url(#linear-gradient-48);}.cls-57{fill:url(#linear-gradient-49);}.cls-58{fill:url(#linear-gradient-50);}.cls-59{fill:url(#linear-gradient-51);}.cls-60{fill:url(#linear-gradient-52);}.cls-61{fill:url(#linear-gradient-53);}.cls-62{fill:url(#linear-gradient-54);}.cls-63{fill:url(#linear-gradient-55);}.cls-64{fill:url(#linear-gradient-56);}.cls-65{fill:url(#linear-gradient-57);}.cls-66{fill:url(#linear-gradient-58);}.cls-67{fill:url(#linear-gradient-59);}.cls-68{fill:url(#linear-gradient-60);}.cls-69{fill:url(#linear-gradient-61);}.cls-70{fill:url(#linear-gradient-62);}.cls-71{fill:url(#linear-gradient-63);}.cls-72{fill:url(#linear-gradient-64);}.cls-73{fill:url(#linear-gradient-65);}.cls-74{fill:url(#linear-gradient-66);}.cls-75{fill:url(#linear-gradient-67);}.cls-76{fill:url(#linear-gradient-68);}.cls-77{fill:url(#linear-gradient-69);}.cls-78{fill:url(#linear-gradient-70);}.cls-79{fill:url(#linear-gradient-71);}.cls-80{fill:url(#linear-gradient-72);}.cls-81{fill:url(#linear-gradient-73);}.cls-82{fill:url(#linear-gradient-74);}.cls-83{fill:url(#linear-gradient-75);}.cls-84{fill:url(#linear-gradient-76);}.cls-85{fill:url(#linear-gradient-77);}.cls-86{fill:url(#linear-gradient-78);}.cls-87{fill:url(#linear-gradient-79);}.cls-88{fill:url(#linear-gradient-80);}.cls-89{fill:url(#linear-gradient-81);}.cls-90{fill:url(#linear-gradient-82);}.cls-91{fill:url(#linear-gradient-83);}.cls-92{fill:url(#linear-gradient-84);}.cls-93{fill:url(#linear-gradient-85);}.cls-94{fill:url(#linear-gradient-86);}.cls-95{fill:url(#linear-gradient-87);}.cls-96{fill:url(#linear-gradient-88);}.cls-97{fill:url(#linear-gradient-89);}.cls-98{fill:url(#linear-gradient-90);}.cls-99{fill:url(#linear-gradient-91);}.cls-100{fill:url(#linear-gradient-92);}.cls-101{fill:url(#linear-gradient-93);}.cls-102{fill:url(#linear-gradient-94);}.cls-103{fill:url(#linear-gradient-95);}.cls-104{fill:url(#linear-gradient-96);}.cls-105{fill:url(#linear-gradient-97);}.cls-106{fill:url(#linear-gradient-98);}.cls-107{fill:url(#linear-gradient-99);}.cls-108{fill:url(#linear-gradient-100);}.cls-109{fill:url(#linear-gradient-101);}.cls-110{fill:url(#linear-gradient-102);}.cls-111{fill:url(#linear-gradient-103);}.cls-112{fill:url(#linear-gradient-104);}.cls-113{fill:url(#linear-gradient-105);}.cls-114{fill:url(#linear-gradient-106);}.cls-115{fill:url(#linear-gradient-107);}.cls-116{fill:url(#linear-gradient-108);}.cls-117{fill:url(#linear-gradient-109);}.cls-118{fill:url(#linear-gradient-110);}.cls-119{fill:url(#linear-gradient-111);}.cls-120{fill:url(#linear-gradient-112);}.cls-121{fill:url(#linear-gradient-113);}.cls-122{fill:url(#linear-gradient-114);}.cls-123{fill:url(#linear-gradient-115);}.cls-124{fill:#3d3d3d;}</style><linearGradient id="linear-gradient" x1="5.56" y1="28.08" x2="562.84" y2="28.08" gradientUnits="userSpaceOnUse"><stop offset="0.01" stop-color="#196396"/><stop offset="1" stop-color="#1b71ab"/></linearGradient><linearGradient id="linear-gradient-2" x1="284.18" y1="44.7" x2="284.18" y2="4.5" gradientUnits="userSpaceOnUse"><stop offset="0.01" stop-color="#fff"/><stop offset="1" stop-color="#fff" stop-opacity="0"/></linearGradient><linearGradient id="linear-gradient-3" x1="526.56" y1="26.37" x2="526.56" y2="15.33" gradientUnits="userSpaceOnUse"><stop offset="0.01" stop-color="#1d1d1b"/><stop offset="1" stop-color="#a6a6a5"/></linearGradient><radialGradient id="radial-gradient" cx="526.92" cy="21.21" r="5.16" gradientUnits="userSpaceOnUse"><stop offset="0" stop-color="#616160"/><stop offset="1" stop-color="#1d1d1b"/></radialGradient><linearGradient id="linear-gradient-4" x1="526.56" y1="40.77" x2="526.56" y2="29.73" xlink:href="#linear-gradient-3"/><radialGradient id="radial-gradient-2" cx="526.92" cy="35.61" r="5.16" xlink:href="#radial-gradient"/><linearGradient id="linear-gradient-5" x1="543.48" y1="26.37" x2="543.48" y2="15.33" xlink:href="#linear-gradient-3"/><radialGradient id="radial-gradient-3" cx="543.84" cy="21.21" r="5.16" xlink:href="#radial-gradient"/><linearGradient id="linear-gradient-6" x1="543.48" y1="40.77" x2="543.48" y2="29.73" xlink:href="#linear-gradient-3"/><radialGradient id="radial-gradient-4" cx="543.84" cy="35.61" r="5.16" xlink:href="#radial-gradient"/><linearGradient id="linear-gradient-7" x1="283.78" y1="63.73" x2="283.78" y2="48.53" gradientTransform="translate(494.45 93.79) rotate(180)" gradientUnits="userSpaceOnUse"><stop offset="0" stop-color="#aaa"/><stop offset="0.72" stop-color="#aaa"/><stop offset="1" stop-color="#7a7a7a"/></linearGradient><linearGradient id="linear-gradient-8" x1="279.39" y1="48.39" x2="288.17" y2="48.39" gradientTransform="translate(-73.12 -2.99)" xlink:href="#linear-gradient-7"/><linearGradient id="linear-gradient-9" x1="278.82" y1="62.39" x2="278.82" y2="57.31" gradientTransform="translate(-63.19 -25.91)" gradientUnits="userSpaceOnUse"><stop offset="0" stop-color="#946014"/><stop offset="1" stop-color="#1d1d1b"/></linearGradient><linearGradient id="linear-gradient-10" x1="280.24" y1="62.39" x2="280.24" y2="57.31" gradientTransform="translate(-66.02 -25.91)" xlink:href="#linear-gradient-9"/><linearGradient id="linear-gradient-11" x1="281.66" y1="62.39" x2="281.66" y2="57.31" gradientTransform="translate(-68.86 -25.91)" xlink:href="#linear-gradient-9"/><linearGradient id="linear-gradient-12" x1="283.07" y1="62.39" x2="283.07" y2="57.31" gradientTransform="translate(-71.7 -25.91)" xlink:href="#linear-gradient-9"/><linearGradient id="linear-gradient-13" x1="284.49" y1="62.39" x2="284.49" y2="57.31" gradientTransform="translate(-74.54 -25.91)" xlink:href="#linear-gradient-9"/><linearGradient id="linear-gradient-14" x1="285.91" y1="62.39" x2="285.91" y2="57.31" gradientTransform="translate(-77.38 -25.91)" xlink:href="#linear-gradient-9"/><linearGradient id="linear-gradient-15" x1="287.33" y1="62.39" x2="287.33" y2="57.31" gradientTransform="translate(-80.21 -25.91)" xlink:href="#linear-gradient-9"/><linearGradient id="linear-gradient-16" x1="288.75" y1="62.39" x2="288.75" y2="57.31" gradientTransform="translate(-83.05 -25.91)" xlink:href="#linear-gradient-9"/><linearGradient id="linear-gradient-17" x1="283.78" y1="55.52" x2="283.78" y2="53.61" gradientTransform="translate(-73.12 -15.34)" gradientUnits="userSpaceOnUse"><stop offset="0"/><stop offset="1" stop-color="#090909" stop-opacity="0"/></linearGradient><linearGradient id="linear-gradient-18" x1="276.7" y1="51.35" x2="276.7" y2="49.56" gradientTransform="translate(-58.96 -7.13)" gradientUnits="userSpaceOnUse"><stop offset="0" stop-color="#006937"/><stop offset="1" stop-color="#004c2e"/></linearGradient><linearGradient id="linear-gradient-19" x1="276.7" y1="50.43" x2="276.7" y2="49.56" gradientTransform="translate(494.45 93.79) rotate(180)" gradientUnits="userSpaceOnUse"><stop offset="0" stop-color="#fff"/><stop offset="0.01" stop-color="#fff"/><stop offset="1" stop-color="#fff" stop-opacity="0"/></linearGradient><linearGradient id="linear-gradient-20" x1="291.35" y1="51.35" x2="291.35" y2="49.56" gradientTransform="translate(-88.25 -7.13)" gradientUnits="userSpaceOnUse"><stop offset="0" stop-color="#bf910a"/><stop offset="1" stop-color="#a86212"/></linearGradient><linearGradient id="linear-gradient-21" x1="291.35" y1="50.43" x2="291.35" y2="49.56" xlink:href="#linear-gradient-19"/><linearGradient id="linear-gradient-22" x1="257.77" y1="63.73" x2="257.77" y2="48.53" xlink:href="#linear-gradient-7"/><linearGradient id="linear-gradient-23" x1="253.38" y1="48.39" x2="262.16" y2="48.39" gradientTransform="translate(-21.09 -2.99)" xlink:href="#linear-gradient-7"/><linearGradient id="linear-gradient-24" x1="252.8" y1="62.39" x2="252.8" y2="57.31" gradientTransform="translate(-11.16 -25.91)" xlink:href="#linear-gradient-9"/><linearGradient id="linear-gradient-25" x1="254.22" y1="62.39" x2="254.22" y2="57.31" gradientTransform="translate(-14 -25.91)" xlink:href="#linear-gradient-9"/><linearGradient id="linear-gradient-26" x1="255.64" y1="62.39" x2="255.64" y2="57.31" gradientTransform="translate(-16.84 -25.91)" xlink:href="#linear-gradient-9"/><linearGradient id="linear-gradient-27" x1="257.06" y1="62.39" x2="257.06" y2="57.31" gradientTransform="translate(-19.67 -25.91)" xlink:href="#linear-gradient-9"/><linearGradient id="linear-gradient-28" x1="258.48" y1="62.39" x2="258.48" y2="57.31" gradientTransform="translate(-22.51 -25.91)" xlink:href="#linear-gradient-9"/><linearGradient id="linear-gradient-29" x1="259.9" y1="62.39" x2="259.9" y2="57.31" gradientTransform="translate(-25.35 -25.91)" xlink:href="#linear-gradient-9"/><linearGradient id="linear-gradient-30" x1="261.32" y1="62.39" x2="261.32" y2="57.31" gradientTransform="translate(-28.19 -25.91)" xlink:href="#linear-gradient-9"/><linearGradient id="linear-gradient-31" x1="262.74" y1="62.39" x2="262.74" y2="57.31" gradientTransform="translate(-31.03 -25.91)" xlink:href="#linear-gradient-9"/><linearGradient id="linear-gradient-32" x1="257.77" y1="55.52" x2="257.77" y2="53.61" gradientTransform="translate(-21.09 -15.34)" xlink:href="#linear-gradient-17"/><linearGradient id="linear-gradient-33" x1="250.69" y1="51.35" x2="250.69" y2="49.56" gradientTransform="translate(-6.93 -7.13)" xlink:href="#linear-gradient-18"/><linearGradient id="linear-gradient-34" x1="250.69" y1="50.43" x2="250.69" y2="49.56" xlink:href="#linear-gradient-19"/><linearGradient id="linear-gradient-35" x1="265.34" y1="51.35" x2="265.34" y2="49.56" gradientTransform="translate(-36.22 -7.13)" xlink:href="#linear-gradient-20"/><linearGradient id="linear-gradient-36" x1="265.34" y1="50.43" x2="265.34" y2="49.56" xlink:href="#linear-gradient-19"/><linearGradient id="linear-gradient-37" x1="231.76" y1="63.73" x2="231.76" y2="48.53" xlink:href="#linear-gradient-7"/><linearGradient id="linear-gradient-38" x1="227.37" y1="48.39" x2="236.15" y2="48.39" gradientTransform="translate(30.93 -2.99)" xlink:href="#linear-gradient-7"/><linearGradient id="linear-gradient-39" x1="226.79" y1="62.39" x2="226.79" y2="57.31" gradientTransform="translate(40.87 -25.91)" xlink:href="#linear-gradient-9"/><linearGradient id="linear-gradient-40" x1="228.21" y1="62.39" x2="228.21" y2="57.31" gradientTransform="translate(38.03 -25.91)" xlink:href="#linear-gradient-9"/><linearGradient id="linear-gradient-41" x1="229.63" y1="62.39" x2="229.63" y2="57.31" gradientTransform="translate(35.19 -25.91)" xlink:href="#linear-gradient-9"/><linearGradient id="linear-gradient-42" x1="231.05" y1="62.39" x2="231.05" y2="57.31" gradientTransform="translate(32.35 -25.91)" xlink:href="#linear-gradient-9"/><linearGradient id="linear-gradient-43" x1="232.47" y1="62.39" x2="232.47" y2="57.31" gradientTransform="translate(29.51 -25.91)" xlink:href="#linear-gradient-9"/><linearGradient id="linear-gradient-44" x1="233.89" y1="62.39" x2="233.89" y2="57.31" gradientTransform="translate(26.68 -25.91)" xlink:href="#linear-gradient-9"/><linearGradient id="linear-gradient-45" x1="235.31" y1="62.39" x2="235.31" y2="57.31" gradientTransform="translate(23.84 -25.91)" xlink:href="#linear-gradient-9"/><linearGradient id="linear-gradient-46" x1="236.72" y1="62.39" x2="236.72" y2="57.31" gradientTransform="translate(21 -25.91)" xlink:href="#linear-gradient-9"/><linearGradient id="linear-gradient-47" x1="231.76" y1="55.52" x2="231.76" y2="53.61" gradientTransform="translate(30.93 -15.34)" xlink:href="#linear-gradient-17"/><linearGradient id="linear-gradient-48" x1="224.68" y1="51.35" x2="224.68" y2="49.56" gradientTransform="translate(45.1 -7.13)" xlink:href="#linear-gradient-18"/><linearGradient id="linear-gradient-49" x1="224.68" y1="50.43" x2="224.68" y2="49.56" xlink:href="#linear-gradient-19"/><linearGradient id="linear-gradient-50" x1="239.32" y1="51.35" x2="239.32" y2="49.56" gradientTransform="translate(15.8 -7.13)" xlink:href="#linear-gradient-20"/><linearGradient id="linear-gradient-51" x1="239.32" y1="50.43" x2="239.32" y2="49.56" xlink:href="#linear-gradient-19"/><linearGradient id="linear-gradient-52" x1="205.74" y1="63.73" x2="205.74" y2="48.53" xlink:href="#linear-gradient-7"/><linearGradient id="linear-gradient-53" x1="201.35" y1="48.39" x2="210.13" y2="48.39" gradientTransform="translate(82.96 -2.99)" xlink:href="#linear-gradient-7"/><linearGradient id="linear-gradient-54" x1="200.78" y1="62.39" x2="200.78" y2="57.31" gradientTransform="translate(92.89 -25.91)" xlink:href="#linear-gradient-9"/><linearGradient id="linear-gradient-55" x1="202.2" y1="62.39" x2="202.2" y2="57.31" gradientTransform="translate(90.06 -25.91)" xlink:href="#linear-gradient-9"/><linearGradient id="linear-gradient-56" x1="203.62" y1="62.39" x2="203.62" y2="57.31" gradientTransform="translate(87.22 -25.91)" xlink:href="#linear-gradient-9"/><linearGradient id="linear-gradient-57" x1="205.03" y1="62.39" x2="205.03" y2="57.31" gradientTransform="translate(84.38 -25.91)" xlink:href="#linear-gradient-9"/><linearGradient id="linear-gradient-58" x1="206.45" y1="62.39" x2="206.45" y2="57.31" gradientTransform="translate(81.54 -25.91)" xlink:href="#linear-gradient-9"/><linearGradient id="linear-gradient-59" x1="207.87" y1="62.39" x2="207.87" y2="57.31" gradientTransform="translate(78.7 -25.91)" xlink:href="#linear-gradient-9"/><linearGradient id="linear-gradient-60" x1="209.29" y1="62.39" x2="209.29" y2="57.31" gradientTransform="translate(75.86 -25.91)" xlink:href="#linear-gradient-9"/><linearGradient id="linear-gradient-61" x1="210.71" y1="62.39" x2="210.71" y2="57.31" gradientTransform="translate(73.03 -25.91)" xlink:href="#linear-gradient-9"/><linearGradient id="linear-gradient-62" x1="205.74" y1="55.52" x2="205.74" y2="53.61" gradientTransform="translate(82.96 -15.34)" xlink:href="#linear-gradient-17"/><linearGradient id="linear-gradient-63" x1="198.66" y1="51.35" x2="198.66" y2="49.56" gradientTransform="translate(97.12 -7.13)" xlink:href="#linear-gradient-18"/><linearGradient id="linear-gradient-64" x1="198.66" y1="50.43" x2="198.66" y2="49.56" xlink:href="#linear-gradient-19"/><linearGradient id="linear-gradient-65" x1="213.31" y1="51.35" x2="213.31" y2="49.56" gradientTransform="translate(67.83 -7.13)" xlink:href="#linear-gradient-20"/><linearGradient id="linear-gradient-66" x1="213.31" y1="50.43" x2="213.31" y2="49.56" xlink:href="#linear-gradient-19"/><linearGradient id="linear-gradient-67" x1="179.73" y1="63.73" x2="179.73" y2="48.53" xlink:href="#linear-gradient-7"/><linearGradient id="linear-gradient-68" x1="175.34" y1="48.39" x2="184.12" y2="48.39" gradientTransform="translate(134.99 -2.99)" xlink:href="#linear-gradient-7"/><linearGradient id="linear-gradient-69" x1="174.76" y1="62.39" x2="174.76" y2="57.31" gradientTransform="translate(144.92 -25.91)" xlink:href="#linear-gradient-9"/><linearGradient id="linear-gradient-70" x1="176.18" y1="62.39" x2="176.18" y2="57.31" gradientTransform="translate(142.08 -25.91)" xlink:href="#linear-gradient-9"/><linearGradient id="linear-gradient-71" x1="177.6" y1="62.39" x2="177.6" y2="57.31" gradientTransform="translate(139.24 -25.91)" xlink:href="#linear-gradient-9"/><linearGradient id="linear-gradient-72" x1="179.02" y1="62.39" x2="179.02" y2="57.31" gradientTransform="translate(136.41 -25.91)" xlink:href="#linear-gradient-9"/><linearGradient id="linear-gradient-73" x1="180.44" y1="62.39" x2="180.44" y2="57.31" gradientTransform="translate(133.57 -25.91)" xlink:href="#linear-gradient-9"/><linearGradient id="linear-gradient-74" x1="181.86" y1="62.39" x2="181.86" y2="57.31" gradientTransform="translate(130.73 -25.91)" xlink:href="#linear-gradient-9"/><linearGradient id="linear-gradient-75" x1="183.28" y1="62.39" x2="183.28" y2="57.31" gradientTransform="translate(127.89 -25.91)" xlink:href="#linear-gradient-9"/><linearGradient id="linear-gradient-76" x1="184.7" y1="62.39" x2="184.7" y2="57.31" gradientTransform="translate(125.05 -25.91)" xlink:href="#linear-gradient-9"/><linearGradient id="linear-gradient-77" x1="179.73" y1="55.52" x2="179.73" y2="53.61" gradientTransform="translate(134.99 -15.34)" xlink:href="#linear-gradient-17"/><linearGradient id="linear-gradient-78" x1="172.65" y1="51.35" x2="172.65" y2="49.56" gradientTransform="translate(149.15 -7.13)" xlink:href="#linear-gradient-18"/><linearGradient id="linear-gradient-79" x1="172.65" y1="50.43" x2="172.65" y2="49.56" xlink:href="#linear-gradient-19"/><linearGradient id="linear-gradient-80" x1="187.3" y1="51.35" x2="187.3" y2="49.56" gradientTransform="translate(119.86 -7.13)" xlink:href="#linear-gradient-20"/><linearGradient id="linear-gradient-81" x1="187.3" y1="50.43" x2="187.3" y2="49.56" xlink:href="#linear-gradient-19"/><linearGradient id="linear-gradient-82" x1="153.72" y1="63.73" x2="153.72" y2="48.53" xlink:href="#linear-gradient-7"/><linearGradient id="linear-gradient-83" x1="149.33" y1="48.39" x2="158.11" y2="48.39" gradientTransform="translate(187.01 -2.99)" xlink:href="#linear-gradient-7"/><linearGradient id="linear-gradient-84" x1="148.75" y1="62.39" x2="148.75" y2="57.31" gradientTransform="translate(196.95 -25.91)" xlink:href="#linear-gradient-9"/><linearGradient id="linear-gradient-85" x1="150.17" y1="62.39" x2="150.17" y2="57.31" gradientTransform="translate(194.11 -25.91)" xlink:href="#linear-gradient-9"/><linearGradient id="linear-gradient-86" x1="151.59" y1="62.39" x2="151.59" y2="57.31" gradientTransform="translate(191.27 -25.91)" xlink:href="#linear-gradient-9"/><linearGradient id="linear-gradient-87" x1="153.01" y1="62.39" x2="153.01" y2="57.31" gradientTransform="translate(188.43 -25.91)" xlink:href="#linear-gradient-9"/><linearGradient id="linear-gradient-88" x1="154.43" y1="62.39" x2="154.43" y2="57.31" gradientTransform="translate(185.59 -25.91)" xlink:href="#linear-gradient-9"/><linearGradient id="linear-gradient-89" x1="155.85" y1="62.39" x2="155.85" y2="57.31" gradientTransform="translate(182.76 -25.91)" xlink:href="#linear-gradient-9"/><linearGradient id="linear-gradient-90" x1="157.27" y1="62.39" x2="157.27" y2="57.31" gradientTransform="translate(179.92 -25.91)" xlink:href="#linear-gradient-9"/><linearGradient id="linear-gradient-91" x1="158.68" y1="62.39" x2="158.68" y2="57.31" gradientTransform="translate(177.08 -25.91)" xlink:href="#linear-gradient-9"/><linearGradient id="linear-gradient-92" x1="153.72" y1="55.52" x2="153.72" y2="53.61" gradientTransform="translate(187.01 -15.34)" xlink:href="#linear-gradient-17"/><linearGradient id="linear-gradient-93" x1="146.64" y1="51.35" x2="146.64" y2="49.56" gradientTransform="translate(201.18 -7.13)" xlink:href="#linear-gradient-18"/><linearGradient id="linear-gradient-94" x1="146.64" y1="50.43" x2="146.64" y2="49.56" xlink:href="#linear-gradient-19"/><linearGradient id="linear-gradient-95" x1="161.28" y1="51.35" x2="161.28" y2="49.56" gradientTransform="translate(171.88 -7.13)" xlink:href="#linear-gradient-20"/><linearGradient id="linear-gradient-96" x1="161.28" y1="50.43" x2="161.28" y2="49.56" xlink:href="#linear-gradient-19"/><linearGradient id="linear-gradient-97" x1="274.47" y1="23.62" x2="274.47" y2="8.41" gradientTransform="translate(95.04 0)" xlink:href="#linear-gradient-7"/><linearGradient id="linear-gradient-98" x1="270.08" y1="8.27" x2="278.87" y2="8.27" gradientTransform="translate(95.04 0)" xlink:href="#linear-gradient-7"/><linearGradient id="linear-gradient-99" x1="269.51" y1="22.27" x2="269.51" y2="17.2" gradientTransform="translate(95.04 0)" xlink:href="#linear-gradient-9"/><linearGradient id="linear-gradient-100" x1="270.93" y1="22.27" x2="270.93" y2="17.2" gradientTransform="translate(95.04 0)" xlink:href="#linear-gradient-9"/><linearGradient id="linear-gradient-101" x1="272.35" y1="22.27" x2="272.35" y2="17.2" gradientTransform="translate(95.04 0)" xlink:href="#linear-gradient-9"/><linearGradient id="linear-gradient-102" x1="273.77" y1="22.27" x2="273.77" y2="17.2" gradientTransform="translate(95.04 0)" xlink:href="#linear-gradient-9"/><linearGradient id="linear-gradient-103" x1="275.18" y1="22.27" x2="275.18" y2="17.2" gradientTransform="translate(95.04 0)" xlink:href="#linear-gradient-9"/><linearGradient id="linear-gradient-104" x1="276.6" y1="22.27" x2="276.6" y2="17.2" gradientTransform="translate(95.04 0)" xlink:href="#linear-gradient-9"/><linearGradient id="linear-gradient-105" x1="278.02" y1="22.27" x2="278.02" y2="17.2" gradientTransform="translate(95.04 0)" xlink:href="#linear-gradient-9"/><linearGradient id="linear-gradient-106" x1="279.44" y1="22.27" x2="279.44" y2="17.2" gradientTransform="translate(95.04 0)" xlink:href="#linear-gradient-9"/><linearGradient id="linear-gradient-107" x1="274.47" y1="15.41" x2="274.47" y2="13.49" gradientTransform="translate(95.04 0)" xlink:href="#linear-gradient-17"/><linearGradient id="linear-gradient-108" x1="267.39" y1="11.23" x2="267.39" y2="9.45" gradientTransform="translate(95.04 0)" xlink:href="#linear-gradient-18"/><linearGradient id="linear-gradient-109" x1="267.39" y1="10.32" x2="267.39" y2="9.45" gradientTransform="translate(95.04 0)" xlink:href="#linear-gradient-19"/><linearGradient id="linear-gradient-110" x1="282.04" y1="11.23" x2="282.04" y2="9.45" gradientTransform="translate(95.04 0)" xlink:href="#linear-gradient-20"/><linearGradient id="linear-gradient-111" x1="282.04" y1="10.32" x2="282.04" y2="9.45" gradientTransform="translate(95.04 0)" xlink:href="#linear-gradient-19"/><linearGradient id="linear-gradient-112" x1="386.34" y1="38.54" x2="386.34" y2="35.1" gradientUnits="userSpaceOnUse"><stop offset="0.01" stop-color="#1a3e1e"/><stop offset="1" stop-color="#089439"/></linearGradient><linearGradient id="linear-gradient-113" x1="386.34" y1="44.15" x2="386.34" y2="40.72" xlink:href="#linear-gradient-112"/><linearGradient id="linear-gradient-114" x1="188.88" y1="39.09" x2="188.88" y2="35.65" xlink:href="#linear-gradient-112"/><linearGradient id="linear-gradient-115" x1="188.88" y1="44.7" x2="188.88" y2="41.27" xlink:href="#linear-gradient-112"/></defs><g id="Layer_2" data-name="Layer 2"><g id="Layer_1-2" data-name="Layer 1"><g id="Smoothwall"><rect class="cls-1" width="568.41" height="56.16"/><rect class="cls-2" x="5.56" y="4.5" width="557.28" height="47.16"/><path class="cls-3" d="M20.76,16a2.8,2.8,0,0,1,2.38-1.45,2,2,0,0,1,2.15,1.34s0,.08.07.11a3.2,3.2,0,0,1,.7-.81A2.91,2.91,0,0,1,29.42,15a2.3,2.3,0,0,1,.84,1.49,5.65,5.65,0,0,1,.07,1V21.8c0,.18,0,.24-.22.23-.49,0-1,0-1.46,0-.16,0-.2,0-.2-.19,0-1.46,0-2.91,0-4.37A2.2,2.2,0,0,0,28.4,17c-.13-.69-.67-.9-1.36-.72a1.83,1.83,0,0,0-1.26,1.27,3.12,3.12,0,0,0-.18,1.09c0,1,0,2.1,0,3.14,0,.18-.05.23-.22.22-.49,0-1,0-1.48,0-.15,0-.19-.05-.19-.19,0-1.43,0-2.86,0-4.29a2,2,0,0,0-.15-.83.8.8,0,0,0-.78-.46,1.68,1.68,0,0,0-1.57.93,3.1,3.1,0,0,0-.38,1.58c0,1,0,2,0,3.05,0,.16,0,.22-.2.21-.49,0-1,0-1.48,0C19,22,19,22,19,21.85V14.91c0-.12,0-.17.17-.17h1.46c.14,0,.18.06.17.19C20.78,15.3,20.78,15.66,20.76,16Z"/><path class="cls-3" d="M63.46,20.17c.15-.58.32-1.14.49-1.7.34-1.19.69-2.38,1-3.57a.15.15,0,0,1,.17-.14h1.39a.16.16,0,0,1,.18.14c.46,1.65,1,3.28,1.39,4.94,0,.12,0,.25.09.41.17-.9.45-1.74.67-2.59l.75-2.78a.15.15,0,0,1,.18-.14h1.62c.16,0,.17.06.13.19l-1.32,4.23-.84,2.74c0,.08-.06.13-.17.13H67.41c-.08,0-.14,0-.16-.11-.44-1.47-.89-2.93-1.33-4.4,0-.11,0-.22-.08-.36-.39,1.57-.92,3.08-1.34,4.61a.3.3,0,0,1-.34.27c-.56,0-1.11,0-1.67,0a.2.2,0,0,1-.22-.16c-.71-2.32-1.44-4.63-2.16-6.94,0-.15,0-.19.13-.19h1.65c.11,0,.15,0,.18.14.43,1.62.87,3.23,1.3,4.85C63.41,19.87,63.43,20,63.46,20.17Z"/><path class="cls-3" d="M54.77,15.93l.17-.23a2.88,2.88,0,0,1,2.2-1.12,3.27,3.27,0,0,1,1.39.21,2.13,2.13,0,0,1,1.28,1.74,5.14,5.14,0,0,1,.07.88c0,1.47,0,2.93,0,4.4,0,.18-.06.23-.23.22-.48,0-.95,0-1.43,0-.16,0-.21,0-.21-.2,0-1.43,0-2.85,0-4.27a2,2,0,0,0-.06-.48,1,1,0,0,0-1-.82,2.08,2.08,0,0,0-2.17,1.8c0,.21,0,.42,0,.63,0,1,0,2.08,0,3.13,0,.17-.05.22-.22.21-.5,0-1,0-1.48,0-.13,0-.19,0-.19-.17q0-4.89,0-9.78c0-.14,0-.16.18-.16h1.53c.14,0,.18,0,.18.17,0,1.16,0,2.31,0,3.46,0,.12,0,.25,0,.37Z"/><path class="cls-3" d="M35,22.21a4.14,4.14,0,0,1-3.42-1.68A3.73,3.73,0,0,1,32,15.82a4.11,4.11,0,0,1,2.7-1.23,4.28,4.28,0,0,1,3,.85,3.53,3.53,0,0,1,1.42,2.61,3.77,3.77,0,0,1-3.29,4.09A3.3,3.3,0,0,1,35,22.21ZM32.84,18.4a1.34,1.34,0,0,0,0,.2,2.05,2.05,0,0,0,1.2,1.8,2.11,2.11,0,0,0,2.24-.17,2.23,2.23,0,1,0-3.45-1.83Z"/><path class="cls-3" d="M76.32,21a2.54,2.54,0,0,1-1.91,1.2,2.43,2.43,0,0,1-2.85-2,1.94,1.94,0,0,1,1-2,4.8,4.8,0,0,1,1.84-.63,9.79,9.79,0,0,1,1.62-.1c.14,0,.18,0,.18-.18a1.17,1.17,0,0,0-1.26-1.17,3.58,3.58,0,0,0-2,.56c-.22.14-.22.14-.35-.1s-.34-.63-.52-.94c-.06-.11,0-.17.06-.23a5.17,5.17,0,0,1,2.55-.8,4,4,0,0,1,1.74.25,2.47,2.47,0,0,1,1.55,2,4.43,4.43,0,0,1,0,.63c0,1.45,0,2.89,0,4.34,0,.16,0,.22-.2.21q-.66,0-1.32,0c-.17,0-.21-.05-.2-.21s0-.55,0-.83h0Zm-.49-2.29c-.19,0-.43,0-.66,0a2.83,2.83,0,0,0-1.35.4.85.85,0,0,0,.12,1.49,1.25,1.25,0,0,0,1,.06,1.91,1.91,0,0,0,1.22-1.61C76.25,18.71,76.24,18.7,75.83,18.7Z"/><path class="cls-3" d="M47.81,18.34a3.69,3.69,0,0,1-2.45,3.56,4.33,4.33,0,0,1-4.2-.51,3.43,3.43,0,0,1-1.5-2.69A3.76,3.76,0,0,1,43,14.64a4.47,4.47,0,0,1,2.5.28.25.25,0,0,1,.18.29,5.48,5.48,0,0,0,0,.7c0,.12,0,.17-.15.19l-.85.15a1.58,1.58,0,0,1-.57-.08,2.24,2.24,0,1,0,1.82,2.68,2.24,2.24,0,0,0-.35-1.76c-.08-.12-.08-.16.07-.18s.47-.1.71-.12.18-.06.19-.19,0-.54.06-.81c0,0,0-.1,0-.12s.07,0,.1.06a3.6,3.6,0,0,1,1.08,2.07A3.71,3.71,0,0,1,47.81,18.34Z"/><path class="cls-3" d="M15.28,22.21a4.53,4.53,0,0,1-2.61-.86,1.49,1.49,0,0,1-.14-.12c-.11-.07-.11-.15,0-.25.24-.34.47-.69.69-1,.07-.1.11-.09.2,0a2.88,2.88,0,0,0,2,.69,1.11,1.11,0,0,0,.61-.18.51.51,0,0,0,.07-.81,1.64,1.64,0,0,0-.48-.31c-.57-.25-1.16-.46-1.71-.75a2.3,2.3,0,0,1-1.12-1.16A1.93,1.93,0,0,1,13.62,15a3.51,3.51,0,0,1,1.55-.44,4.05,4.05,0,0,1,2.56.62l.06,0a.23.23,0,0,1,.09.37c-.19.32-.34.67-.51,1-.06.12-.11.13-.22.05a2.71,2.71,0,0,0-2-.49.86.86,0,0,0-.23.06.57.57,0,0,0-.41.5.53.53,0,0,0,.3.49,5.12,5.12,0,0,0,.82.39,7.67,7.67,0,0,1,1.63.79A1.89,1.89,0,0,1,18,20.73,2.18,2.18,0,0,1,16.58,22,3.59,3.59,0,0,1,15.28,22.21Z"/><path class="cls-3" d="M48.48,17.53c0-.7,0-1.39,0-2.08s0-1.67,0-2.51c0-.13,0-.17.17-.17h1.46c.15,0,.2,0,.2.2,0,.56,0,1.12,0,1.68,0,.2.06.24.24.23h1.3c.11,0,.16,0,.16.16,0,.37,0,.75,0,1.13,0,.14-.06.17-.19.17H50.51c-.16,0-.18.06-.18.19,0,.86,0,1.71,0,2.56a1.27,1.27,0,0,0,1.41,1.4c.39,0,.39,0,.39.4v1c0,.09,0,.17-.13.18a3.59,3.59,0,0,1-2.66-.63,2.19,2.19,0,0,1-.86-1.77c0-.71,0-1.43,0-2.14Z"/><path class="cls-3" d="M82.47,15.94c0-1.28,0-2.55,0-3.83,0-.15,0-.2.2-.19h1.48c.17,0,.2.05.2.21v7.34a1.72,1.72,0,0,0,.06.55c.11.36.33.46.75.44.17,0,.21,0,.21.18,0,.42,0,.84,0,1.26,0,.09,0,.16-.11.17a3,3,0,0,1-1.9-.3,1.74,1.74,0,0,1-.8-1.27,5.37,5.37,0,0,1-.07-.9Z"/><path class="cls-3" d="M80.83,15.91v3.78a1.28,1.28,0,0,0,.07.39c.1.29.37.41.77.38.13,0,.17,0,.17.14,0,.44,0,.88,0,1.31,0,.08,0,.15-.11.16a2.81,2.81,0,0,1-2-.38A1.9,1.9,0,0,1,79,20.27a7.24,7.24,0,0,1,0-1v-7.1c0-.17,0-.22.21-.21h1.48c.15,0,.19,0,.19.18,0,1.27,0,2.54,0,3.81Z"/><path class="cls-3" d="M86.75,14.78a1.43,1.43,0,0,1,0-2.85,1.43,1.43,0,0,1,0,2.85Zm0-.29a1.14,1.14,0,0,0,0-2.27,1.14,1.14,0,0,0,0,2.27Z"/><path class="cls-3" d="M76.32,21h0Z"/><path class="cls-3" d="M86.26,13.35c0-.2,0-.39,0-.59s0-.17.17-.16h.41a.47.47,0,0,1,.45.29.44.44,0,0,1-.16.52c-.06.05-.06.08,0,.14a3.65,3.65,0,0,1,.18.34c0,.06.14.15,0,.2s-.24.07-.3-.08l-.17-.35c0-.09-.09-.15-.19-.13s-.07.12-.08.19a.81.81,0,0,0,0,.22c0,.11,0,.16-.16.17s-.15-.06-.15-.17S86.26,13.55,86.26,13.35Zm.47-.5c-.15,0-.19.06-.16.19s-.09.26.14.26.31-.08.3-.24S86.89,12.84,86.73,12.85Z"/><path class="cls-4" d="M5.52,44.7s285.68-32.3,557.32-.48V4.5H5.56Z"/><rect class="cls-5" x="435.36" y="17.01" width="69.12" height="22.32" rx="1.2"/><path class="cls-3" d="M439.9,21.69v.89l-.28.28-.1-.1V21.55Zm1.26,2.9h-1.4a.3.3,0,0,1-.24-.23l.38-.14H441Zm-1.26-3-.37-.14a.3.3,0,0,1,.23-.23h1.5a.3.3,0,0,1,.23.23l-.38.14Zm1.21,1.13.19.18-.19.19H439.9l-.19-.19.19-.18Zm.29.23.09.1v1.31a.3.3,0,0,1-.23.23l-.15-.37v-1Z"/><path class="cls-3" d="M442.33,21.69v.89l-.28.28-.09-.1V21.55Zm0,1.54v1l-.14.37a.3.3,0,0,1-.23-.23V23.05l.09-.1Zm1.13-1.64h-1.12l-.38-.14a.3.3,0,0,1,.24-.23h1.4Zm-.33,1.17-.19.19-.18-.19V21.69h.37Zm.42-.18v-1l.14-.37a.3.3,0,0,1,.24.23v1.31l-.1.1Zm.28.37.1.1v1.31a.3.3,0,0,1-.24.23l-.14-.37v-1Z"/><path class="cls-3" d="M444.49,22.86l-.09-.1V21.69l.23-.24.14.14v1Zm.28.37v1l-.14.14-.23-.24V23.05l.09-.1Zm1.12-1.64h-1l-.18-.18.18-.19h1l.19.19Zm.19,2.81-.19.19h-1l-.18-.19.18-.18h1ZM446,22.58v-1l.14-.14.23.24v1.07l-.09.1Zm.28.37.09.1v1.07l-.23.24-.14-.14v-1Z"/><path class="cls-3" d="M446.92,22.86l-.09-.1V21.69l.23-.24.15.14v1Zm.29.37v1l-.15.14-.23-.24V23.05l.09-.1Zm1.12-1.64h-1l-.19-.18.19-.19h1l.19.19Zm.19,2.81-.19.19h-1l-.19-.19.19-.18h1Zm-.1-1.82v-1l.14-.14.24.24v1.07l-.1.1Zm.28.37.1.1v1.07l-.24.24-.14-.14v-1Z"/><path class="cls-3" d="M449.64,21.59l-.37-.14a.3.3,0,0,1,.23-.23H451a.3.3,0,0,1,.23.23l-.37.14Zm.42,1.08v-1h.37v1l-.18.19Zm.19.28.18.19v1.22a.3.3,0,0,1-.23.23l-.14-.37V23.14Z"/><path class="cls-3" d="M451.79,22.9l-.09-.09V21.5a.31.31,0,0,1,.23-.24l.14.38v1Zm.28.33v1l-.14.37a.3.3,0,0,1-.23-.23V23.05l.09-.1Zm1.22-.51.19.18-.19.19h-1.22l-.18-.19.18-.18Zm0-.14v-1l.14-.37a.3.3,0,0,1,.24.23v1.31l-.1.1Zm.28.37.1.1v1.31a.3.3,0,0,1-.24.23l-.14-.37v-1Z"/><path class="cls-3" d="M454.23,22.86l-.09-.1V21.45a.29.29,0,0,1,.23-.23l.14.37v1Zm-.09,1.4V23.05l.09-.1.28.28v.89Zm1.63.33h-1.4a.3.3,0,0,1-.23-.23l.38-.14h1.11Zm-.46-.47h-.38V23.05l.19-.19.19.19Zm.42-1.54v-1l.14-.37a.3.3,0,0,1,.23.23v1.31l-.09.1ZM456,23l.09.1v1.31a.3.3,0,0,1-.23.23l-.14-.37v-1Z"/><path class="cls-3" d="M457,21.69v.89l-.28.28-.1-.1V21.55Zm0,1.54v1l-.14.37a.3.3,0,0,1-.24-.23V23.05l.1-.1Zm1.12-1.64H457l-.37-.14a.3.3,0,0,1,.23-.23h1.4Zm.09,1.13.19.18-.19.19H457l-.19-.19.19-.18Zm0-.14v-1l.15-.37a.3.3,0,0,1,.23.23v1.31l-.09.1Zm.29.37.09.1v1.31a.3.3,0,0,1-.23.23l-.15-.37v-1Z"/><path class="cls-3" d="M459.1,22.86l-.09-.1V21.45a.3.3,0,0,1,.23-.23l.14.37v1Zm.28.37v1l-.14.37a.3.3,0,0,1-.23-.23V23.05l.09-.1Zm.1,1h1.12l.38.14a.31.31,0,0,1-.24.23h-1.4Z"/><path class="cls-3" d="M461.54,22.86l-.1-.1V21.45a.31.31,0,0,1,.24-.23l.14.37v1Zm.28.37v1l-.14.37a.31.31,0,0,1-.24-.23V23.05l.1-.1Zm.09,1H463l.37.14a.3.3,0,0,1-.23.23h-1.41Z"/><path class="cls-3" d="M465.66,21.69v.89l-.28.28-.09-.1V21.55Zm1.27,2.9h-1.41a.3.3,0,0,1-.23-.23l.37-.14h1.13Zm-1.26-3-.38-.14a.3.3,0,0,1,.24-.23H467a.29.29,0,0,1,.23.23l-.37.14Zm1.21,1.13.19.18-.19.19h-1.22l-.19-.19.19-.18Zm.28.23.09.1v1.31a.29.29,0,0,1-.23.23l-.14-.37v-1Z"/><path class="cls-3" d="M468.1,21.69v.89l-.28.28-.1-.1V21.55Zm-.38,2.57V23.05l.1-.1.28.28v.89Zm1.64.33H468a.3.3,0,0,1-.24-.23l.38-.14h1.12Zm-.14-3H468.1l-.37-.14a.3.3,0,0,1,.23-.23h1.4Zm.09,1.13.19.18-.19.19H468.1l-.19-.19.19-.18Zm0-.14v-1l.15-.37a.3.3,0,0,1,.23.23v1.31l-.09.1Zm.29.37.09.1v1.31a.3.3,0,0,1-.23.23l-.15-.37v-1Z"/><circle class="cls-6" cx="526.56" cy="20.85" r="5.52"/><circle class="cls-7" cx="526.92" cy="21.21" r="5.16"/><circle class="cls-8" cx="526.56" cy="35.25" r="5.52"/><circle class="cls-9" cx="526.92" cy="35.61" r="5.16"/><circle class="cls-10" cx="543.48" cy="20.85" r="5.52"/><circle class="cls-11" cx="543.84" cy="21.21" r="5.16"/><circle class="cls-12" cx="543.48" cy="35.25" r="5.52"/><circle class="cls-13" cx="543.84" cy="35.61" r="5.16"/><rect class="cls-14" x="200.43" y="31.14" width="19.43" height="14.12" transform="translate(420.29 76.4) rotate(180)"/><polygon class="cls-15" points="207.44 45.26 207.44 43.91 205.7 43.91 205.7 41.63 201.53 41.63 201.53 31.4 205.7 31.4 215.63 31.4 219.79 31.4 219.79 41.63 215.63 41.63 215.63 43.91 213.89 43.91 213.89 45.26 221.28 45.26 221.28 30.05 200.04 30.05 200.04 45.26 207.44 45.26"/><rect class="cls-16" x="206.27" y="45.26" width="8.78" height="0.28" transform="translate(421.33 90.8) rotate(180)"/><rect class="cls-17" x="215.35" y="31.4" width="0.57" height="5.08" transform="translate(431.26 67.87) rotate(180)"/><rect class="cls-18" x="213.93" y="31.4" width="0.57" height="5.08" transform="translate(428.42 67.87) rotate(180)"/><rect class="cls-19" x="212.51" y="31.4" width="0.57" height="5.08" transform="translate(425.59 67.87) rotate(180)"/><rect class="cls-20" x="211.09" y="31.4" width="0.57" height="5.08" transform="translate(422.75 67.87) rotate(180)"/><rect class="cls-21" x="209.67" y="31.4" width="0.57" height="5.08" transform="translate(419.91 67.87) rotate(180)"/><rect class="cls-22" x="208.25" y="31.4" width="0.57" height="5.08" transform="translate(417.07 67.87) rotate(180)"/><rect class="cls-23" x="206.83" y="31.4" width="0.57" height="5.08" transform="translate(414.23 67.87) rotate(180)"/><rect class="cls-24" x="205.41" y="31.4" width="0.57" height="5.08" transform="translate(411.4 67.87) rotate(180)"/><rect class="cls-25" x="205.96" y="38.26" width="9.4" height="1.92" transform="translate(421.33 78.44) rotate(180)"/><rect class="cls-26" x="216.14" y="42.44" width="3.21" height="1.79" rx="0.33" transform="translate(435.49 86.66) rotate(180)"/><path class="cls-27" d="M216.28,44.22h2.93a.14.14,0,0,0,.14-.14v-.73a.15.15,0,0,1-.14.15h-2.93a.15.15,0,0,1-.14-.15v.73A.14.14,0,0,0,216.28,44.22Z"/><rect class="cls-28" x="201.49" y="42.44" width="3.21" height="1.79" rx="0.33" transform="translate(406.2 86.66) rotate(180)"/><path class="cls-29" d="M201.64,44.22h2.92a.15.15,0,0,0,.15-.14v-.73a.15.15,0,0,1-.15.15h-2.92a.15.15,0,0,1-.15-.15v.73A.15.15,0,0,0,201.64,44.22Z"/><rect class="cls-14" x="226.44" y="31.14" width="19.43" height="14.12" transform="translate(472.32 76.4) rotate(180)"/><polygon class="cls-30" points="233.45 45.26 233.45 43.91 231.72 43.91 231.72 41.63 227.55 41.63 227.55 31.4 231.72 31.4 241.64 31.4 245.81 31.4 245.81 41.63 241.64 41.63 241.64 43.91 239.9 43.91 239.9 45.26 247.3 45.26 247.3 30.05 226.06 30.05 226.06 45.26 233.45 45.26"/><rect class="cls-31" x="232.29" y="45.26" width="8.78" height="0.28" transform="translate(473.36 90.8) rotate(180)"/><rect class="cls-32" x="241.36" y="31.4" width="0.57" height="5.08" transform="translate(483.29 67.87) rotate(180)"/><rect class="cls-33" x="239.94" y="31.4" width="0.57" height="5.08" transform="translate(480.45 67.87) rotate(180)"/><rect class="cls-34" x="238.52" y="31.4" width="0.57" height="5.08" transform="translate(477.61 67.87) rotate(180)"/><rect class="cls-35" x="237.1" y="31.4" width="0.57" height="5.08" transform="translate(474.78 67.87) rotate(180)"/><rect class="cls-36" x="235.68" y="31.4" width="0.57" height="5.08" transform="translate(471.94 67.87) rotate(180)"/><rect class="cls-37" x="234.26" y="31.4" width="0.57" height="5.08" transform="translate(469.1 67.87) rotate(180)"/><rect class="cls-38" x="232.85" y="31.4" width="0.57" height="5.08" transform="translate(466.26 67.87) rotate(180)"/><rect class="cls-39" x="231.43" y="31.4" width="0.57" height="5.08" transform="translate(463.42 67.87) rotate(180)"/><rect class="cls-40" x="231.98" y="38.26" width="9.4" height="1.92" transform="translate(473.36 78.44) rotate(180)"/><rect class="cls-41" x="242.15" y="42.44" width="3.21" height="1.79" rx="0.33" transform="translate(487.52 86.66) rotate(180)"/><path class="cls-42" d="M242.3,44.22h2.92a.15.15,0,0,0,.15-.14v-.73a.15.15,0,0,1-.15.15H242.3a.15.15,0,0,1-.15-.15v.73A.15.15,0,0,0,242.3,44.22Z"/><rect class="cls-43" x="227.51" y="42.44" width="3.21" height="1.79" rx="0.33" transform="translate(458.22 86.66) rotate(180)"/><path class="cls-44" d="M227.65,44.22h2.93a.14.14,0,0,0,.14-.14v-.73a.15.15,0,0,1-.14.15h-2.93a.15.15,0,0,1-.14-.15v.73A.14.14,0,0,0,227.65,44.22Z"/><rect class="cls-14" x="252.46" y="31.14" width="19.43" height="14.12" transform="translate(524.34 76.4) rotate(180)"/><polygon class="cls-45" points="259.47 45.26 259.47 43.91 257.73 43.91 257.73 41.63 253.56 41.63 253.56 31.4 257.73 31.4 267.65 31.4 271.82 31.4 271.82 41.63 267.65 41.63 267.65 43.91 265.92 43.91 265.92 45.26 273.31 45.26 273.31 30.05 252.07 30.05 252.07 45.26 259.47 45.26"/><rect class="cls-46" x="258.3" y="45.26" width="8.78" height="0.28" transform="translate(525.38 90.8) rotate(180)"/><rect class="cls-47" x="267.37" y="31.4" width="0.57" height="5.08" transform="translate(535.32 67.87) rotate(180)"/><rect class="cls-48" x="265.95" y="31.4" width="0.57" height="5.08" transform="translate(532.48 67.87) rotate(180)"/><rect class="cls-49" x="264.54" y="31.4" width="0.57" height="5.08" transform="translate(529.64 67.87) rotate(180)"/><rect class="cls-50" x="263.12" y="31.4" width="0.57" height="5.08" transform="translate(526.8 67.87) rotate(180)"/><rect class="cls-51" x="261.7" y="31.4" width="0.57" height="5.08" transform="translate(523.96 67.87) rotate(180)"/><rect class="cls-52" x="260.28" y="31.4" width="0.57" height="5.08" transform="translate(521.13 67.87) rotate(180)"/><rect class="cls-53" x="258.86" y="31.4" width="0.57" height="5.08" transform="translate(518.29 67.87) rotate(180)"/><rect class="cls-54" x="257.44" y="31.4" width="0.57" height="5.08" transform="translate(515.45 67.87) rotate(180)"/><rect class="cls-55" x="257.99" y="38.26" width="9.4" height="1.92" transform="translate(525.38 78.44) rotate(180)"/><rect class="cls-56" x="268.17" y="42.44" width="3.21" height="1.79" rx="0.33" transform="translate(539.55 86.66) rotate(180)"/><path class="cls-57" d="M268.31,44.22h2.93a.14.14,0,0,0,.14-.14v-.73a.15.15,0,0,1-.14.15h-2.93a.15.15,0,0,1-.14-.15v.73A.14.14,0,0,0,268.31,44.22Z"/><rect class="cls-58" x="253.52" y="42.44" width="3.21" height="1.79" rx="0.33" transform="translate(510.25 86.66) rotate(180)"/><path class="cls-59" d="M253.66,44.22h2.93a.14.14,0,0,0,.14-.14v-.73a.15.15,0,0,1-.14.15h-2.93a.15.15,0,0,1-.14-.15v.73A.14.14,0,0,0,253.66,44.22Z"/><rect class="cls-14" x="278.47" y="31.14" width="19.43" height="14.12" transform="translate(576.37 76.4) rotate(180)"/><polygon class="cls-60" points="285.48 45.26 285.48 43.91 283.74 43.91 283.74 41.63 279.57 41.63 279.57 31.4 283.74 31.4 293.67 31.4 297.83 31.4 297.83 41.63 293.67 41.63 293.67 43.91 291.93 43.91 291.93 45.26 299.32 45.26 299.32 30.05 278.08 30.05 278.08 45.26 285.48 45.26"/><rect class="cls-61" x="284.31" y="45.26" width="8.78" height="0.28" transform="translate(577.41 90.8) rotate(180)"/><rect class="cls-62" x="293.39" y="31.4" width="0.57" height="5.08" transform="translate(587.34 67.87) rotate(180)"/><rect class="cls-63" x="291.97" y="31.4" width="0.57" height="5.08" transform="translate(584.5 67.87) rotate(180)"/><rect class="cls-64" x="290.55" y="31.4" width="0.57" height="5.08" transform="translate(581.67 67.87) rotate(180)"/><rect class="cls-65" x="289.13" y="31.4" width="0.57" height="5.08" transform="translate(578.83 67.87) rotate(180)"/><rect class="cls-66" x="287.71" y="31.4" width="0.57" height="5.08" transform="translate(575.99 67.87) rotate(180)"/><rect class="cls-67" x="286.29" y="31.4" width="0.57" height="5.08" transform="translate(573.15 67.87) rotate(180)"/><rect class="cls-68" x="284.87" y="31.4" width="0.57" height="5.08" transform="translate(570.31 67.87) rotate(180)"/><rect class="cls-69" x="283.45" y="31.4" width="0.57" height="5.08" transform="translate(567.48 67.87) rotate(180)"/><rect class="cls-70" x="284" y="38.26" width="9.4" height="1.92" transform="translate(577.41 78.44) rotate(180)"/><rect class="cls-71" x="294.18" y="42.44" width="3.21" height="1.79" rx="0.33" transform="translate(591.57 86.66) rotate(180)"/><path class="cls-72" d="M294.32,44.22h2.93a.14.14,0,0,0,.14-.14v-.73a.15.15,0,0,1-.14.15h-2.93a.15.15,0,0,1-.14-.15v.73A.14.14,0,0,0,294.32,44.22Z"/><rect class="cls-73" x="279.53" y="42.44" width="3.21" height="1.79" rx="0.33" transform="translate(562.28 86.66) rotate(180)"/><path class="cls-74" d="M279.68,44.22h2.92a.14.14,0,0,0,.14-.14v-.73a.15.15,0,0,1-.14.15h-2.92a.15.15,0,0,1-.15-.15v.73A.15.15,0,0,0,279.68,44.22Z"/><rect class="cls-14" x="304.48" y="31.14" width="19.43" height="14.12" transform="translate(628.4 76.4) rotate(180)"/><polygon class="cls-75" points="311.49 45.26 311.49 43.91 309.76 43.91 309.76 41.63 305.59 41.63 305.59 31.4 309.76 31.4 319.68 31.4 323.85 31.4 323.85 41.63 319.68 41.63 319.68 43.91 317.94 43.91 317.94 45.26 325.34 45.26 325.34 30.05 304.1 30.05 304.1 45.26 311.49 45.26"/><rect class="cls-76" x="310.33" y="45.26" width="8.78" height="0.28" transform="translate(629.44 90.8) rotate(180)"/><rect class="cls-77" x="319.4" y="31.4" width="0.57" height="5.08" transform="translate(639.37 67.87) rotate(180)"/><rect class="cls-78" x="317.98" y="31.4" width="0.57" height="5.08" transform="translate(636.53 67.87) rotate(180)"/><rect class="cls-79" x="316.56" y="31.4" width="0.57" height="5.08" transform="translate(633.69 67.87) rotate(180)"/><rect class="cls-80" x="315.14" y="31.4" width="0.57" height="5.08" transform="translate(630.85 67.87) rotate(180)"/><rect class="cls-81" x="313.72" y="31.4" width="0.57" height="5.08" transform="translate(628.02 67.87) rotate(180)"/><rect class="cls-82" x="312.3" y="31.4" width="0.57" height="5.08" transform="translate(625.18 67.87) rotate(180)"/><rect class="cls-83" x="310.89" y="31.4" width="0.57" height="5.08" transform="translate(622.34 67.87) rotate(180)"/><rect class="cls-84" x="309.47" y="31.4" width="0.57" height="5.08" transform="translate(619.5 67.87) rotate(180)"/><rect class="cls-85" x="310.02" y="38.26" width="9.4" height="1.92" transform="translate(629.44 78.44) rotate(180)"/><rect class="cls-86" x="320.19" y="42.44" width="3.21" height="1.79" rx="0.33" transform="translate(643.6 86.66) rotate(180)"/><path class="cls-87" d="M320.34,44.22h2.92a.15.15,0,0,0,.15-.14v-.73a.15.15,0,0,1-.15.15h-2.92a.15.15,0,0,1-.15-.15v.73A.15.15,0,0,0,320.34,44.22Z"/><rect class="cls-88" x="305.55" y="42.44" width="3.21" height="1.79" rx="0.33" transform="translate(614.3 86.66) rotate(180)"/><path class="cls-89" d="M305.69,44.22h2.93a.14.14,0,0,0,.14-.14v-.73a.15.15,0,0,1-.14.15h-2.93a.15.15,0,0,1-.14-.15v.73A.14.14,0,0,0,305.69,44.22Z"/><rect class="cls-14" x="330.5" y="31.14" width="19.43" height="14.12" transform="translate(680.42 76.4) rotate(180)"/><polygon class="cls-90" points="337.51 45.26 337.51 43.91 335.77 43.91 335.77 41.63 331.6 41.63 331.6 31.4 335.77 31.4 345.69 31.4 349.86 31.4 349.86 41.63 345.69 41.63 345.69 43.91 343.96 43.91 343.96 45.26 351.35 45.26 351.35 30.05 330.11 30.05 330.11 45.26 337.51 45.26"/><rect class="cls-91" x="336.34" y="45.26" width="8.78" height="0.28" transform="translate(681.46 90.8) rotate(180)"/><rect class="cls-92" x="345.41" y="31.4" width="0.57" height="5.08" transform="translate(691.4 67.87) rotate(180)"/><rect class="cls-93" x="343.99" y="31.4" width="0.57" height="5.08" transform="translate(688.56 67.87) rotate(180)"/><rect class="cls-94" x="342.57" y="31.4" width="0.57" height="5.08" transform="translate(685.72 67.87) rotate(180)"/><rect class="cls-95" x="341.16" y="31.4" width="0.57" height="5.08" transform="translate(682.88 67.87) rotate(180)"/><rect class="cls-96" x="339.74" y="31.4" width="0.57" height="5.08" transform="translate(680.04 67.87) rotate(180)"/><rect class="cls-97" x="338.32" y="31.4" width="0.57" height="5.08" transform="translate(677.21 67.87) rotate(180)"/><rect class="cls-98" x="336.9" y="31.4" width="0.57" height="5.08" transform="translate(674.37 67.87) rotate(180)"/><rect class="cls-99" x="335.48" y="31.4" width="0.57" height="5.08" transform="translate(671.53 67.87) rotate(180)"/><rect class="cls-100" x="336.03" y="38.26" width="9.4" height="1.92" transform="translate(681.46 78.44) rotate(180)"/><rect class="cls-101" x="346.21" y="42.44" width="3.21" height="1.79" rx="0.33" transform="translate(695.63 86.66) rotate(180)"/><path class="cls-102" d="M346.35,44.22h2.93a.14.14,0,0,0,.14-.14v-.73a.15.15,0,0,1-.14.15h-2.93a.15.15,0,0,1-.14-.15v.73A.14.14,0,0,0,346.35,44.22Z"/><rect class="cls-103" x="331.56" y="42.44" width="3.21" height="1.79" rx="0.33" transform="translate(666.33 86.66) rotate(180)"/><path class="cls-104" d="M331.7,44.22h2.93a.14.14,0,0,0,.14-.14v-.73a.15.15,0,0,1-.14.15H331.7a.15.15,0,0,1-.14-.15v.73A.14.14,0,0,0,331.7,44.22Z"/><rect class="cls-14" x="360.32" y="8.41" width="19.43" height="14.12"/><polygon class="cls-105" points="372.74 8.41 372.74 9.76 374.48 9.76 374.48 12.04 378.64 12.04 378.64 22.27 374.48 22.27 364.55 22.27 360.38 22.27 360.38 12.04 364.55 12.04 364.55 9.76 366.29 9.76 366.29 8.41 358.89 8.41 358.89 23.62 380.13 23.62 380.13 8.41 372.74 8.41"/><rect class="cls-106" x="365.12" y="8.13" width="8.78" height="0.28"/><rect class="cls-107" x="364.26" y="17.2" width="0.57" height="5.08"/><rect class="cls-108" x="365.68" y="17.2" width="0.57" height="5.08"/><rect class="cls-109" x="367.1" y="17.2" width="0.57" height="5.08"/><rect class="cls-110" x="368.52" y="17.2" width="0.57" height="5.08"/><rect class="cls-111" x="369.94" y="17.2" width="0.57" height="5.08"/><rect class="cls-112" x="371.36" y="17.2" width="0.57" height="5.08"/><rect class="cls-113" x="372.78" y="17.2" width="0.57" height="5.08"/><rect class="cls-114" x="374.2" y="17.2" width="0.57" height="5.08"/><rect class="cls-115" x="364.81" y="13.49" width="9.4" height="1.92"/><rect class="cls-116" x="360.83" y="9.45" width="3.21" height="1.79" rx="0.33"/><path class="cls-117" d="M363.9,9.45H361a.14.14,0,0,0-.14.14v.73a.14.14,0,0,1,.14-.14h2.93a.14.14,0,0,1,.14.14V9.59A.14.14,0,0,0,363.9,9.45Z"/><rect class="cls-118" x="375.47" y="9.45" width="3.21" height="1.79" rx="0.33"/><path class="cls-119" d="M378.54,9.45h-2.92a.15.15,0,0,0-.15.14v.73a.15.15,0,0,1,.15-.14h2.92a.15.15,0,0,1,.15.14V9.59A.15.15,0,0,0,378.54,9.45Z"/><circle class="cls-120" cx="386.34" cy="36.82" r="1.72"/><circle class="cls-121" cx="386.34" cy="42.44" r="1.72"/><path class="cls-3" d="M390.25,37.92V35.06h.88a1.67,1.67,0,0,1,.46,0,.64.64,0,0,1,.33.28.94.94,0,0,1,.12.49,1,1,0,0,1-.2.64.84.84,0,0,1-.68.24h-.6v1.16Zm.31-1.5h.61a.47.47,0,0,0,.55-.52.54.54,0,0,0-.07-.29.33.33,0,0,0-.16-.17.85.85,0,0,0-.33,0h-.6Z"/><path class="cls-3" d="M392.85,37.92l-.62-2.86h.32l.35,1.88a5.86,5.86,0,0,1,.1.58l.11-.53.45-1.93h.37l.34,1.45c.08.35.14.69.18,1,0-.18.07-.39.12-.62l.37-1.84h.31l-.65,2.86h-.29l-.5-2.18-.08-.33-.06.33-.5,2.18Z"/><path class="cls-3" d="M395.53,37.92V35.06h1a1.12,1.12,0,0,1,.48.08.57.57,0,0,1,.26.27.94.94,0,0,1,.1.43.79.79,0,0,1-.17.52.78.78,0,0,1-.49.26,1.16,1.16,0,0,1,.2.16,2.25,2.25,0,0,1,.24.36l.41.78h-.39l-.31-.59a3.77,3.77,0,0,0-.28-.47.56.56,0,0,0-.18-.17.7.7,0,0,0-.24,0h-.36v1.27Zm.31-1.6h.67a.74.74,0,0,0,.33,0,.33.33,0,0,0,.18-.17.51.51,0,0,0-.06-.6.52.52,0,0,0-.38-.12h-.74Z"/><path class="cls-3" d="M390.5,44.22V41.36h.31v1.18H392V41.36h.31v2.86H392V42.87h-1.22v1.35Z"/><path class="cls-3" d="M392.86,44.22V41.36h.81a1.78,1.78,0,0,1,.46,0,.78.78,0,0,1,.35.25,1.26,1.26,0,0,1,.24.46,2.54,2.54,0,0,1,.08.66,2,2,0,0,1-.14.82.94.94,0,0,1-.37.48,1,1,0,0,1-.58.14Zm.31-.33h.5a.92.92,0,0,0,.46-.1.57.57,0,0,0,.24-.32,1.84,1.84,0,0,0,.11-.7,1.56,1.56,0,0,0-.12-.68.6.6,0,0,0-.3-.34,1.21,1.21,0,0,0-.4,0h-.49Z"/><path class="cls-3" d="M395.23,44.22V41.36H396a1.78,1.78,0,0,1,.46,0,.84.84,0,0,1,.35.25,1.43,1.43,0,0,1,.24.46,2.54,2.54,0,0,1,.08.66,2.19,2.19,0,0,1-.14.82,1,1,0,0,1-.37.48,1,1,0,0,1-.58.14Zm.31-.33h.5a1,1,0,0,0,.46-.1.68.68,0,0,0,.24-.32,2.06,2.06,0,0,0,.11-.7,1.56,1.56,0,0,0-.12-.68.68.68,0,0,0-.3-.34,1.25,1.25,0,0,0-.4,0h-.49Z"/><circle cx="403.92" cy="40.35" r="1.02"/><path class="cls-3" d="M406.37,41.36V39.59H407a.56.56,0,0,1,.29,0,.31.31,0,0,1,.16.16.6.6,0,0,1,.06.27.47.47,0,0,1-.1.32.45.45,0,0,1-.31.16.49.49,0,0,1,.13.1,1.3,1.3,0,0,1,.15.23l.25.48h-.24l-.19-.37-.17-.29a.47.47,0,0,0-.11-.1.35.35,0,0,0-.16,0h-.22v.79Zm.19-1H407a.49.49,0,0,0,.2,0,.23.23,0,0,0,.11-.11.27.27,0,0,0,0-.16.28.28,0,0,0-.07-.21.35.35,0,0,0-.24-.08h-.46Z"/><path class="cls-3" d="M408.53,41l.19,0a.55.55,0,0,1-.17.31.47.47,0,0,1-.66-.06.77.77,0,0,1-.14-.49.84.84,0,0,1,.14-.51.41.41,0,0,1,.35-.17.43.43,0,0,1,.35.17.77.77,0,0,1,.13.49v.06h-.79a.64.64,0,0,0,.1.33.29.29,0,0,0,.22.11C408.39,41.21,408.48,41.12,408.53,41Zm-.59-.36h.59a.44.44,0,0,0-.07-.25.26.26,0,0,0-.22-.12.28.28,0,0,0-.2.1A.46.46,0,0,0,407.94,40.59Z"/><path class="cls-3" d="M408.87,41l.18,0a.29.29,0,0,0,.09.2.23.23,0,0,0,.18.07.24.24,0,0,0,.18-.06.16.16,0,0,0,.07-.14.14.14,0,0,0-.06-.12.51.51,0,0,0-.18-.08,1.35,1.35,0,0,1-.28-.1.43.43,0,0,1-.11-.12.47.47,0,0,1,0-.17.37.37,0,0,1,.11-.27.39.39,0,0,1,.29-.1.46.46,0,0,1,.21,0,.28.28,0,0,1,.13.11.4.4,0,0,1,.07.21l-.18,0a.2.2,0,0,0-.22-.21.3.3,0,0,0-.18.05.17.17,0,0,0-.05.12.12.12,0,0,0,.05.11,1,1,0,0,0,.19.08,1.47,1.47,0,0,1,.29.11.29.29,0,0,1,.1.12.29.29,0,0,1,0,.17.37.37,0,0,1-.12.29.42.42,0,0,1-.32.12A.42.42,0,0,1,408.87,41Z"/><path class="cls-3" d="M410.68,41l.18,0a.54.54,0,0,1-.16.31.47.47,0,0,1-.66-.06.72.72,0,0,1-.14-.49.77.77,0,0,1,.14-.51.41.41,0,0,1,.35-.17.4.4,0,0,1,.34.17.77.77,0,0,1,.14.49v.06h-.79a.56.56,0,0,0,.1.33.29.29,0,0,0,.22.11C410.53,41.21,410.63,41.12,410.68,41Zm-.59-.36h.59a.53.53,0,0,0-.07-.25.26.26,0,0,0-.42,0A.46.46,0,0,0,410.09,40.59Z"/><path class="cls-3" d="M411.49,41.16l0,.2-.13,0a.33.33,0,0,1-.15,0,.16.16,0,0,1-.08-.1,1.26,1.26,0,0,1,0-.26v-.74H411v-.17h.13v-.31l.18-.13v.44h.18v.17h-.18V41a.42.42,0,0,0,0,.13.1.1,0,0,0,.09,0Z"/><circle class="cls-122" cx="188.88" cy="37.37" r="1.72"/><circle class="cls-123" cx="188.88" cy="42.99" r="1.72"/><path class="cls-3" d="M117.7,34.88l4.1-.37a8.87,8.87,0,0,0,1.49,4.31,8,8,0,0,0,3.33,2.48,12,12,0,0,0,4.86.94,10,10,0,0,0,6-1.59,4.89,4.89,0,0,0,2.15-4.11,4.36,4.36,0,0,0-.78-2.59,5.62,5.62,0,0,0-2.35-1.82,50.24,50.24,0,0,0-6.8-2,26.4,26.4,0,0,1-6.61-2.32,8.64,8.64,0,0,1-3.07-3A7.64,7.64,0,0,1,119,20.79a8.23,8.23,0,0,1,3.14-6.65q3.15-2.6,8.48-2.59A15.73,15.73,0,0,1,137,12.77a9.64,9.64,0,0,1,4.27,3.47,10,10,0,0,1,1.62,5.33l-4.18.32A6.69,6.69,0,0,0,136.36,17a9,9,0,0,0-5.64-1.58,9.62,9.62,0,0,0-5.64,1.39,4.21,4.21,0,0,0-1.94,3.57,3.8,3.8,0,0,0,1.43,3.16c.94.75,3.07,1.5,6.39,2.27a47.86,47.86,0,0,1,6.83,1.95,10.58,10.58,0,0,1,4.54,3.38,8.14,8.14,0,0,1,1.54,5,9.07,9.07,0,0,1-1.62,5.24,10.1,10.1,0,0,1-4.38,3.6,16.45,16.45,0,0,1-6.69,1.23q-6.09,0-9.72-3.06A10.72,10.72,0,0,1,117.7,34.88Z"/><path class="cls-3" d="M154.31,27.48a7.78,7.78,0,0,1-3.66-2.62,7,7,0,0,1-1.23-4.24,7.94,7.94,0,0,1,2.68-6.21,10.68,10.68,0,0,1,13.55.05,8.1,8.1,0,0,1,2.72,6.3,6.79,6.79,0,0,1-1.21,4.1,7.75,7.75,0,0,1-3.63,2.62,8.46,8.46,0,0,1,6.18,8.63,9.47,9.47,0,0,1-3.1,7.31,12,12,0,0,1-15.43,0,9.57,9.57,0,0,1-3.1-7.43,9,9,0,0,1,1.65-5.55A8.21,8.21,0,0,1,154.31,27.48ZM152.21,36a6.61,6.61,0,0,0,6.71,6.86A6.63,6.63,0,0,0,163.64,41a6.42,6.42,0,0,0,1.94-4.9,6.57,6.57,0,0,0-2-5,6.7,6.7,0,0,0-4.78-1.89,6.5,6.5,0,0,0-6.6,6.73Zm1.34-15.49a5.14,5.14,0,0,0,1.55,3.92,5.39,5.39,0,0,0,3.82,1.46,5.32,5.32,0,0,0,3.76-1.44,4.8,4.8,0,0,0,1.56-3.72,5,5,0,0,0-1.6-3.84,5.52,5.52,0,0,0-7.53,0A4.79,4.79,0,0,0,153.55,20.51Z"/><path class="cls-3" d="M34.82,31.85V27.24H33.3v-.61H37v.61H35.43v4.61Z"/><path class="cls-3" d="M37.48,31.85V26.63h.57V28.5a1.38,1.38,0,0,1,.45-.39,1.12,1.12,0,0,1,.55-.13,1.14,1.14,0,0,1,.84.32,1.67,1.67,0,0,1,.31,1.15v2.4h-.57v-2.4a1.07,1.07,0,0,0-.18-.7.65.65,0,0,0-.52-.22.82.82,0,0,0-.63.28,1.41,1.41,0,0,0-.25,1v2.07Z"/><path class="cls-3" d="M43.33,30.63l.58.08a1.54,1.54,0,0,1-.52.91,1.45,1.45,0,0,1-1,.31,1.42,1.42,0,0,1-1.14-.5A2.12,2.12,0,0,1,40.86,30a2.25,2.25,0,0,1,.44-1.49A1.41,1.41,0,0,1,42.42,28a1.36,1.36,0,0,1,1.08.51A2.16,2.16,0,0,1,43.93,30v.17H41.44a1.56,1.56,0,0,0,.32,1,.88.88,0,0,0,.69.33C42.87,31.41,43.17,31.15,43.33,30.63Zm-1.85-1h1.86a1.46,1.46,0,0,0-.23-.73.84.84,0,0,0-.69-.35.87.87,0,0,0-.65.29A1.19,1.19,0,0,0,41.48,29.59Z"/><path class="cls-3" d="M47.31,31.85l-1.22-5.22h.62l.7,3.42c.07.35.14.71.2,1.07l.2-1,.88-3.52h.74l.65,2.64a17.17,17.17,0,0,1,.36,1.85c.06-.34.13-.72.23-1.14l.72-3.35H52l-1.26,5.22h-.59l-1-4L49,27.26c0,.23-.09.43-.14.61l-1,4Z"/><path class="cls-3" d="M54.64,30.63l.58.08a1.54,1.54,0,0,1-.52.91,1.45,1.45,0,0,1-1,.31,1.42,1.42,0,0,1-1.14-.5A2.12,2.12,0,0,1,52.17,30a2.25,2.25,0,0,1,.44-1.49A1.41,1.41,0,0,1,53.73,28a1.36,1.36,0,0,1,1.08.51A2.16,2.16,0,0,1,55.24,30v.17H52.75a1.56,1.56,0,0,0,.32,1,.88.88,0,0,0,.69.33C54.18,31.41,54.48,31.15,54.64,30.63Zm-1.85-1h1.86a1.46,1.46,0,0,0-.23-.73.84.84,0,0,0-.69-.35.87.87,0,0,0-.65.29A1.19,1.19,0,0,0,52.79,29.59Z"/><path class="cls-3" d="M56.46,31.85h-.53V26.63h.57v1.86a1.19,1.19,0,0,1,.4-.38,1,1,0,0,1,.51-.13,1.19,1.19,0,0,1,.71.22,1.46,1.46,0,0,1,.51.66,2.63,2.63,0,0,1,.19,1.07,2.25,2.25,0,0,1-.43,1.48,1.28,1.28,0,0,1-1,.52.9.9,0,0,1-.52-.14,1.08,1.08,0,0,1-.4-.42Zm0-1.92a2.77,2.77,0,0,0,.11.88,1,1,0,0,0,.33.44.78.78,0,0,0,.47.16A.8.8,0,0,0,58,31,1.82,1.82,0,0,0,58.25,30,1.76,1.76,0,0,0,58,28.86a.75.75,0,0,0-.64-.35.78.78,0,0,0-.62.36A1.79,1.79,0,0,0,56.45,29.93Z"/><path class="cls-3" d="M62.56,31.85V29.64l-1.77-3h.74l.91,1.57c.17.32.33.61.47.89.13-.28.3-.58.5-.93l.89-1.53H65l-1.83,3v2.21Z"/><path class="cls-3" d="M64.67,30a2.13,2.13,0,0,1,.44-1.48,1.49,1.49,0,0,1,2.23,0,2.07,2.07,0,0,1,.45,1.44,2.23,2.23,0,0,1-.44,1.51,1.5,1.5,0,0,1-2.24,0A2.17,2.17,0,0,1,64.67,30Zm.57,0a1.76,1.76,0,0,0,.29,1.1.88.88,0,0,0,.71.36.84.84,0,0,0,.69-.37A1.73,1.73,0,0,0,67.21,30a1.64,1.64,0,0,0-.29-1.08.86.86,0,0,0-.71-.36.84.84,0,0,0-.68.36A1.72,1.72,0,0,0,65.24,30Z"/><path class="cls-3" d="M70.63,31.85v-.56a1.31,1.31,0,0,1-.45.48,1.12,1.12,0,0,1-.6.16,1.07,1.07,0,0,1-.67-.2.89.89,0,0,1-.38-.5,3,3,0,0,1-.09-.82V28.07H69v2.09a3.22,3.22,0,0,0,.06.78.6.6,0,0,0,.24.32.65.65,0,0,0,.39.12.81.81,0,0,0,.66-.31,1.57,1.57,0,0,0,.22-1v-2h.57v3.78Z"/><path class="cls-3" d="M74.71,31.85l-1.22-5.22h.62l.7,3.42c.07.35.14.71.19,1.07l.21-1,.88-3.52h.73l.66,2.64a17.17,17.17,0,0,1,.36,1.85c.06-.34.13-.72.22-1.14l.73-3.35h.61l-1.26,5.22h-.59l-1-4-.14-.61c0,.23-.09.43-.14.61l-1,4Z"/><path class="cls-3" d="M81.81,31.38a2,2,0,0,1-.59.41,1.38,1.38,0,0,1-.63.14,1.12,1.12,0,0,1-.83-.29,1,1,0,0,1-.31-.79,1.24,1.24,0,0,1,.14-.58,1.07,1.07,0,0,1,.4-.39,2,2,0,0,1,.76-.21,4.11,4.11,0,0,0,1-.23v-.16a.76.76,0,0,0-.15-.54.82.82,0,0,0-.65-.23,1,1,0,0,0-.59.15,1,1,0,0,0-.28.57l-.56-.08a1.4,1.4,0,0,1,.48-.89,1.65,1.65,0,0,1,1-.28,1.58,1.58,0,0,1,.82.18.87.87,0,0,1,.38.46,3.08,3.08,0,0,1,.08.79v.85c0,.6,0,1,0,1.13a1.88,1.88,0,0,0,.14.46h-.58A1.54,1.54,0,0,1,81.81,31.38Zm0-1.43a3.6,3.6,0,0,1-.92.24,1.82,1.82,0,0,0-.49.13.5.5,0,0,0-.22.21.53.53,0,0,0-.08.31.55.55,0,0,0,.18.43.69.69,0,0,0,.49.16,1,1,0,0,0,.55-.15.82.82,0,0,0,.37-.39,1.62,1.62,0,0,0,.12-.71Z"/><path class="cls-3" d="M83.21,31.85V28.07h.51v.53a1.24,1.24,0,0,1,.45-.46,1.25,1.25,0,0,1,1.1-.06.85.85,0,0,1,.37.26,1.06,1.06,0,0,1,.21.41,2.89,2.89,0,0,1,.07.77v2.33h-.56V29.54a1.72,1.72,0,0,0-.08-.6.6.6,0,0,0-.24-.3.68.68,0,0,0-.38-.11.82.82,0,0,0-.64.28,1.51,1.51,0,0,0-.24,1v2.07Z"/><path class="cls-3" d="M88,31.27l.08.57a1.76,1.76,0,0,1-.42.06,1,1,0,0,1-.48-.11.51.51,0,0,1-.24-.3,2.41,2.41,0,0,1-.07-.75V28.56H86.5v-.49h.41v-.94l.56-.38v1.32H88v.49h-.57v2.22a1,1,0,0,0,0,.39.28.28,0,0,0,.27.13Z"/><rect class="cls-14" x="360.93" y="26.73" width="17.24" height="7.21"/><rect class="cls-124" x="363.05" y="28.98" width="13.41" height="1.35"/><rect class="cls-14" x="360.93" y="37.76" width="17.24" height="7.21"/><rect class="cls-124" x="363.05" y="40.01" width="13.41" height="1.35"/></g></g></g></svg>