<svg xmlns="http://www.w3.org/2000/svg" xmlns:xlink="http://www.w3.org/1999/xlink" viewBox="0 0 359.28 49.78"><defs><style>.cls-1{fill:#575656;stroke:#4d4c4c;stroke-miterlimit:10;}.cls-2{fill:#3f3f3f;}.cls-3{fill:url(#radial-gradient);}.cls-4{fill:url(#radial-gradient-2);}.cls-5{fill:url(#radial-gradient-3);}.cls-6{fill:url(#radial-gradient-4);}.cls-7{fill:#fff;}.cls-8{fill:url(#radial-gradient-5);}.cls-9{fill:#1d1d1b;}.cls-10{fill:#1e1e1e;}.cls-11{fill:url(#linear-gradient);}.cls-12{fill:url(#linear-gradient-2);}.cls-13{fill:url(#linear-gradient-3);}.cls-14{fill:url(#linear-gradient-4);}.cls-15{fill:url(#linear-gradient-5);}.cls-16{fill:url(#linear-gradient-6);}.cls-17{fill:url(#linear-gradient-7);}.cls-18{fill:url(#linear-gradient-8);}.cls-19{fill:url(#linear-gradient-9);}.cls-20{fill:url(#linear-gradient-10);}.cls-21{fill:url(#linear-gradient-11);}.cls-22{fill:url(#linear-gradient-12);}.cls-100,.cls-113,.cls-115,.cls-128,.cls-130,.cls-23,.cls-25,.cls-38,.cls-40,.cls-53,.cls-55,.cls-68,.cls-70,.cls-83,.cls-85,.cls-98{opacity:0.2;}.cls-23{fill:url(#linear-gradient-13);}.cls-24{fill:url(#linear-gradient-14);}.cls-25{fill:url(#linear-gradient-15);}.cls-26{fill:url(#linear-gradient-16);}.cls-27{fill:url(#linear-gradient-17);}.cls-28{fill:url(#linear-gradient-18);}.cls-29{fill:url(#linear-gradient-19);}.cls-30{fill:url(#linear-gradient-20);}.cls-31{fill:url(#linear-gradient-21);}.cls-32{fill:url(#linear-gradient-22);}.cls-33{fill:url(#linear-gradient-23);}.cls-34{fill:url(#linear-gradient-24);}.cls-35{fill:url(#linear-gradient-25);}.cls-36{fill:url(#linear-gradient-26);}.cls-37{fill:url(#linear-gradient-27);}.cls-38{fill:url(#linear-gradient-28);}.cls-39{fill:url(#linear-gradient-29);}.cls-40{fill:url(#linear-gradient-30);}.cls-41{fill:url(#linear-gradient-31);}.cls-42{fill:url(#linear-gradient-32);}.cls-43{fill:url(#linear-gradient-33);}.cls-44{fill:url(#linear-gradient-34);}.cls-45{fill:url(#linear-gradient-35);}.cls-46{fill:url(#linear-gradient-36);}.cls-47{fill:url(#linear-gradient-37);}.cls-48{fill:url(#linear-gradient-38);}.cls-49{fill:url(#linear-gradient-39);}.cls-50{fill:url(#linear-gradient-40);}.cls-51{fill:url(#linear-gradient-41);}.cls-52{fill:url(#linear-gradient-42);}.cls-53{fill:url(#linear-gradient-43);}.cls-54{fill:url(#linear-gradient-44);}.cls-55{fill:url(#linear-gradient-45);}.cls-56{fill:url(#linear-gradient-46);}.cls-57{fill:url(#linear-gradient-47);}.cls-58{fill:url(#linear-gradient-48);}.cls-59{fill:url(#linear-gradient-49);}.cls-60{fill:url(#linear-gradient-50);}.cls-61{fill:url(#linear-gradient-51);}.cls-62{fill:url(#linear-gradient-52);}.cls-63{fill:url(#linear-gradient-53);}.cls-64{fill:url(#linear-gradient-54);}.cls-65{fill:url(#linear-gradient-55);}.cls-66{fill:url(#linear-gradient-56);}.cls-67{fill:url(#linear-gradient-57);}.cls-68{fill:url(#linear-gradient-58);}.cls-69{fill:url(#linear-gradient-59);}.cls-70{fill:url(#linear-gradient-60);}.cls-71{fill:url(#linear-gradient-61);}.cls-72{fill:url(#linear-gradient-62);}.cls-73{fill:url(#linear-gradient-63);}.cls-74{fill:url(#linear-gradient-64);}.cls-75{fill:url(#linear-gradient-65);}.cls-76{fill:url(#linear-gradient-66);}.cls-77{fill:url(#linear-gradient-67);}.cls-78{fill:url(#linear-gradient-68);}.cls-79{fill:url(#linear-gradient-69);}.cls-80{fill:url(#linear-gradient-70);}.cls-81{fill:url(#linear-gradient-71);}.cls-82{fill:url(#linear-gradient-72);}.cls-83{fill:url(#linear-gradient-73);}.cls-84{fill:url(#linear-gradient-74);}.cls-85{fill:url(#linear-gradient-75);}.cls-86{fill:url(#linear-gradient-76);}.cls-87{fill:url(#linear-gradient-77);}.cls-88{fill:url(#linear-gradient-78);}.cls-89{fill:url(#linear-gradient-79);}.cls-90{fill:url(#linear-gradient-80);}.cls-91{fill:url(#linear-gradient-81);}.cls-92{fill:url(#linear-gradient-82);}.cls-93{fill:url(#linear-gradient-83);}.cls-94{fill:url(#linear-gradient-84);}.cls-95{fill:url(#linear-gradient-85);}.cls-96{fill:url(#linear-gradient-86);}.cls-97{fill:url(#linear-gradient-87);}.cls-98{fill:url(#linear-gradient-88);}.cls-99{fill:url(#linear-gradient-89);}.cls-100{fill:url(#linear-gradient-90);}.cls-101{fill:url(#linear-gradient-91);}.cls-102{fill:url(#linear-gradient-92);}.cls-103{fill:url(#linear-gradient-93);}.cls-104{fill:url(#linear-gradient-94);}.cls-105{fill:url(#linear-gradient-95);}.cls-106{fill:url(#linear-gradient-96);}.cls-107{fill:url(#linear-gradient-97);}.cls-108{fill:url(#linear-gradient-98);}.cls-109{fill:url(#linear-gradient-99);}.cls-110{fill:url(#linear-gradient-100);}.cls-111{fill:url(#linear-gradient-101);}.cls-112{fill:url(#linear-gradient-102);}.cls-113{fill:url(#linear-gradient-103);}.cls-114{fill:url(#linear-gradient-104);}.cls-115{fill:url(#linear-gradient-105);}.cls-116{fill:url(#linear-gradient-106);}.cls-117{fill:url(#linear-gradient-107);}.cls-118{fill:url(#linear-gradient-108);}.cls-119{fill:url(#linear-gradient-109);}.cls-120{fill:url(#linear-gradient-110);}.cls-121{fill:url(#linear-gradient-111);}.cls-122{fill:url(#linear-gradient-112);}.cls-123{fill:url(#linear-gradient-113);}.cls-124{fill:url(#linear-gradient-114);}.cls-125{fill:url(#linear-gradient-115);}.cls-126{fill:url(#linear-gradient-116);}.cls-127{fill:url(#linear-gradient-117);}.cls-128{fill:url(#linear-gradient-118);}.cls-129{fill:url(#linear-gradient-119);}.cls-130{fill:url(#linear-gradient-120);}.cls-131{fill:url(#linear-gradient-121);}.cls-132{fill:url(#linear-gradient-122);}.cls-133{fill:url(#linear-gradient-123);}.cls-134{fill:url(#linear-gradient-124);}.cls-135{fill:url(#linear-gradient-125);}.cls-136{fill:url(#linear-gradient-126);}.cls-137{fill:url(#linear-gradient-127);}.cls-138{fill:url(#linear-gradient-128);}.cls-139{fill:url(#linear-gradient-129);}.cls-140{fill:url(#linear-gradient-130);}.cls-141{fill:url(#linear-gradient-131);}.cls-142{fill:#3d3d3d;}.cls-143{fill:url(#linear-gradient-132);}.cls-144{fill:url(#linear-gradient-133);}.cls-145{fill:url(#linear-gradient-134);}.cls-146{fill:url(#linear-gradient-135);}.cls-147{fill:url(#linear-gradient-136);}.cls-148{fill:url(#linear-gradient-137);}.cls-149{fill:url(#linear-gradient-138);}.cls-150{fill:#e52421;}</style><radialGradient id="radial-gradient" cx="36.73" cy="30.5" r="1.48" gradientUnits="userSpaceOnUse"><stop offset="0" stop-color="#6cb52d"/><stop offset="1" stop-color="#009640"/></radialGradient><radialGradient id="radial-gradient-2" cx="44.32" cy="30.5" r="1.48" xlink:href="#radial-gradient"/><radialGradient id="radial-gradient-3" cx="36.73" cy="36.22" r="1.48" xlink:href="#radial-gradient"/><radialGradient id="radial-gradient-4" cx="44.32" cy="36.22" r="1.48" xlink:href="#radial-gradient"/><radialGradient id="radial-gradient-5" cx="22.58" cy="33.13" r="3.66" gradientUnits="userSpaceOnUse"><stop offset="0" stop-color="#878787"/><stop offset="1" stop-color="#3c3c3b"/></radialGradient><linearGradient id="linear-gradient" x1="5.39" y1="38.93" x2="5.39" y2="23.73" gradientTransform="translate(95.04 0)" gradientUnits="userSpaceOnUse"><stop offset="0" stop-color="#aaa"/><stop offset="0.72" stop-color="#aaa"/><stop offset="1" stop-color="#7a7a7a"/></linearGradient><linearGradient id="linear-gradient-2" x1="1" y1="23.59" x2="9.78" y2="23.59" xlink:href="#linear-gradient"/><linearGradient id="linear-gradient-3" x1="0.42" y1="37.59" x2="0.42" y2="32.51" gradientTransform="translate(95.04 0)" gradientUnits="userSpaceOnUse"><stop offset="0" stop-color="#946014"/><stop offset="1" stop-color="#1d1d1b"/></linearGradient><linearGradient id="linear-gradient-4" x1="1.84" y1="37.59" x2="1.84" y2="32.51" xlink:href="#linear-gradient-3"/><linearGradient id="linear-gradient-5" x1="3.26" y1="37.59" x2="3.26" y2="32.51" xlink:href="#linear-gradient-3"/><linearGradient id="linear-gradient-6" x1="4.68" y1="37.59" x2="4.68" y2="32.51" xlink:href="#linear-gradient-3"/><linearGradient id="linear-gradient-7" x1="6.1" y1="37.59" x2="6.1" y2="32.51" xlink:href="#linear-gradient-3"/><linearGradient id="linear-gradient-8" x1="7.52" y1="37.59" x2="7.52" y2="32.51" xlink:href="#linear-gradient-3"/><linearGradient id="linear-gradient-9" x1="8.94" y1="37.59" x2="8.94" y2="32.51" xlink:href="#linear-gradient-3"/><linearGradient id="linear-gradient-10" x1="10.36" y1="37.59" x2="10.36" y2="32.51" xlink:href="#linear-gradient-3"/><linearGradient id="linear-gradient-11" x1="5.39" y1="30.72" x2="5.39" y2="28.81" gradientTransform="translate(95.04 0)" gradientUnits="userSpaceOnUse"><stop offset="0"/><stop offset="1" stop-color="#090909" stop-opacity="0"/></linearGradient><linearGradient id="linear-gradient-12" x1="-1.69" y1="26.55" x2="-1.69" y2="24.76" gradientTransform="translate(95.04 0)" gradientUnits="userSpaceOnUse"><stop offset="0" stop-color="#006937"/><stop offset="1" stop-color="#004c2e"/></linearGradient><linearGradient id="linear-gradient-13" x1="-1.69" y1="25.63" x2="-1.69" y2="24.76" gradientTransform="translate(95.04 0)" gradientUnits="userSpaceOnUse"><stop offset="0" stop-color="#fff"/><stop offset="0.01" stop-color="#fff"/><stop offset="1" stop-color="#fff" stop-opacity="0"/></linearGradient><linearGradient id="linear-gradient-14" x1="12.96" y1="26.55" x2="12.96" y2="24.76" gradientTransform="translate(95.04 0)" gradientUnits="userSpaceOnUse"><stop offset="0" stop-color="#bf910a"/><stop offset="1" stop-color="#a86212"/></linearGradient><linearGradient id="linear-gradient-15" x1="12.96" y1="25.63" x2="12.96" y2="24.76" xlink:href="#linear-gradient-13"/><linearGradient id="linear-gradient-16" x1="26.21" y1="38.93" x2="26.21" y2="23.73" xlink:href="#linear-gradient"/><linearGradient id="linear-gradient-17" x1="21.82" y1="23.59" x2="30.6" y2="23.59" xlink:href="#linear-gradient"/><linearGradient id="linear-gradient-18" x1="21.25" y1="37.59" x2="21.25" y2="32.51" xlink:href="#linear-gradient-3"/><linearGradient id="linear-gradient-19" x1="22.66" y1="37.59" x2="22.66" y2="32.51" xlink:href="#linear-gradient-3"/><linearGradient id="linear-gradient-20" x1="24.08" y1="37.59" x2="24.08" y2="32.51" xlink:href="#linear-gradient-3"/><linearGradient id="linear-gradient-21" x1="25.5" y1="37.59" x2="25.5" y2="32.51" xlink:href="#linear-gradient-3"/><linearGradient id="linear-gradient-22" x1="26.92" y1="37.59" x2="26.92" y2="32.51" xlink:href="#linear-gradient-3"/><linearGradient id="linear-gradient-23" x1="28.34" y1="37.59" x2="28.34" y2="32.51" xlink:href="#linear-gradient-3"/><linearGradient id="linear-gradient-24" x1="29.76" y1="37.59" x2="29.76" y2="32.51" xlink:href="#linear-gradient-3"/><linearGradient id="linear-gradient-25" x1="31.18" y1="37.59" x2="31.18" y2="32.51" xlink:href="#linear-gradient-3"/><linearGradient id="linear-gradient-26" x1="26.21" y1="30.72" x2="26.21" y2="28.81" xlink:href="#linear-gradient-11"/><linearGradient id="linear-gradient-27" x1="19.13" y1="26.55" x2="19.13" y2="24.76" xlink:href="#linear-gradient-12"/><linearGradient id="linear-gradient-28" x1="19.13" y1="25.63" x2="19.13" y2="24.76" xlink:href="#linear-gradient-13"/><linearGradient id="linear-gradient-29" x1="33.78" y1="26.55" x2="33.78" y2="24.76" xlink:href="#linear-gradient-14"/><linearGradient id="linear-gradient-30" x1="33.78" y1="25.63" x2="33.78" y2="24.76" xlink:href="#linear-gradient-13"/><linearGradient id="linear-gradient-31" x1="47.03" y1="38.93" x2="47.03" y2="23.73" xlink:href="#linear-gradient"/><linearGradient id="linear-gradient-32" x1="42.64" y1="23.59" x2="51.43" y2="23.59" xlink:href="#linear-gradient"/><linearGradient id="linear-gradient-33" x1="42.07" y1="37.59" x2="42.07" y2="32.51" xlink:href="#linear-gradient-3"/><linearGradient id="linear-gradient-34" x1="43.49" y1="37.59" x2="43.49" y2="32.51" xlink:href="#linear-gradient-3"/><linearGradient id="linear-gradient-35" x1="44.91" y1="37.59" x2="44.91" y2="32.51" xlink:href="#linear-gradient-3"/><linearGradient id="linear-gradient-36" x1="46.33" y1="37.59" x2="46.33" y2="32.51" xlink:href="#linear-gradient-3"/><linearGradient id="linear-gradient-37" x1="47.74" y1="37.59" x2="47.74" y2="32.51" xlink:href="#linear-gradient-3"/><linearGradient id="linear-gradient-38" x1="49.16" y1="37.59" x2="49.16" y2="32.51" xlink:href="#linear-gradient-3"/><linearGradient id="linear-gradient-39" x1="50.58" y1="37.59" x2="50.58" y2="32.51" xlink:href="#linear-gradient-3"/><linearGradient id="linear-gradient-40" x1="52" y1="37.59" x2="52" y2="32.51" xlink:href="#linear-gradient-3"/><linearGradient id="linear-gradient-41" x1="47.03" y1="30.72" x2="47.03" y2="28.81" xlink:href="#linear-gradient-11"/><linearGradient id="linear-gradient-42" x1="39.95" y1="26.55" x2="39.95" y2="24.76" xlink:href="#linear-gradient-12"/><linearGradient id="linear-gradient-43" x1="39.95" y1="25.63" x2="39.95" y2="24.76" xlink:href="#linear-gradient-13"/><linearGradient id="linear-gradient-44" x1="54.6" y1="26.55" x2="54.6" y2="24.76" xlink:href="#linear-gradient-14"/><linearGradient id="linear-gradient-45" x1="54.6" y1="25.63" x2="54.6" y2="24.76" xlink:href="#linear-gradient-13"/><linearGradient id="linear-gradient-46" x1="67.86" y1="38.93" x2="67.86" y2="23.73" xlink:href="#linear-gradient"/><linearGradient id="linear-gradient-47" x1="63.47" y1="23.59" x2="72.25" y2="23.59" xlink:href="#linear-gradient"/><linearGradient id="linear-gradient-48" x1="62.89" y1="37.59" x2="62.89" y2="32.51" xlink:href="#linear-gradient-3"/><linearGradient id="linear-gradient-49" x1="64.31" y1="37.59" x2="64.31" y2="32.51" xlink:href="#linear-gradient-3"/><linearGradient id="linear-gradient-50" x1="65.73" y1="37.59" x2="65.73" y2="32.51" xlink:href="#linear-gradient-3"/><linearGradient id="linear-gradient-51" x1="67.15" y1="37.59" x2="67.15" y2="32.51" xlink:href="#linear-gradient-3"/><linearGradient id="linear-gradient-52" x1="68.57" y1="37.59" x2="68.57" y2="32.51" xlink:href="#linear-gradient-3"/><linearGradient id="linear-gradient-53" x1="69.99" y1="37.59" x2="69.99" y2="32.51" xlink:href="#linear-gradient-3"/><linearGradient id="linear-gradient-54" x1="71.4" y1="37.59" x2="71.4" y2="32.51" xlink:href="#linear-gradient-3"/><linearGradient id="linear-gradient-55" x1="72.82" y1="37.59" x2="72.82" y2="32.51" xlink:href="#linear-gradient-3"/><linearGradient id="linear-gradient-56" x1="67.86" y1="30.72" x2="67.86" y2="28.81" xlink:href="#linear-gradient-11"/><linearGradient id="linear-gradient-57" x1="60.77" y1="26.55" x2="60.77" y2="24.76" xlink:href="#linear-gradient-12"/><linearGradient id="linear-gradient-58" x1="60.77" y1="25.63" x2="60.77" y2="24.76" xlink:href="#linear-gradient-13"/><linearGradient id="linear-gradient-59" x1="75.42" y1="26.55" x2="75.42" y2="24.76" xlink:href="#linear-gradient-14"/><linearGradient id="linear-gradient-60" x1="75.42" y1="25.63" x2="75.42" y2="24.76" xlink:href="#linear-gradient-13"/><linearGradient id="linear-gradient-61" x1="97.09" y1="38.93" x2="97.09" y2="23.73" xlink:href="#linear-gradient"/><linearGradient id="linear-gradient-62" x1="92.7" y1="23.59" x2="101.48" y2="23.59" xlink:href="#linear-gradient"/><linearGradient id="linear-gradient-63" x1="92.12" y1="37.59" x2="92.12" y2="32.51" xlink:href="#linear-gradient-3"/><linearGradient id="linear-gradient-64" x1="93.54" y1="37.59" x2="93.54" y2="32.51" xlink:href="#linear-gradient-3"/><linearGradient id="linear-gradient-65" x1="94.96" y1="37.59" x2="94.96" y2="32.51" xlink:href="#linear-gradient-3"/><linearGradient id="linear-gradient-66" x1="96.38" y1="37.59" x2="96.38" y2="32.51" xlink:href="#linear-gradient-3"/><linearGradient id="linear-gradient-67" x1="97.8" y1="37.59" x2="97.8" y2="32.51" xlink:href="#linear-gradient-3"/><linearGradient id="linear-gradient-68" x1="99.22" y1="37.59" x2="99.22" y2="32.51" xlink:href="#linear-gradient-3"/><linearGradient id="linear-gradient-69" x1="100.64" y1="37.59" x2="100.64" y2="32.51" xlink:href="#linear-gradient-3"/><linearGradient id="linear-gradient-70" x1="102.06" y1="37.59" x2="102.06" y2="32.51" xlink:href="#linear-gradient-3"/><linearGradient id="linear-gradient-71" x1="97.09" y1="30.72" x2="97.09" y2="28.81" xlink:href="#linear-gradient-11"/><linearGradient id="linear-gradient-72" x1="90.01" y1="26.55" x2="90.01" y2="24.76" xlink:href="#linear-gradient-12"/><linearGradient id="linear-gradient-73" x1="90.01" y1="25.63" x2="90.01" y2="24.76" xlink:href="#linear-gradient-13"/><linearGradient id="linear-gradient-74" x1="104.66" y1="26.55" x2="104.66" y2="24.76" xlink:href="#linear-gradient-14"/><linearGradient id="linear-gradient-75" x1="104.66" y1="25.63" x2="104.66" y2="24.76" xlink:href="#linear-gradient-13"/><linearGradient id="linear-gradient-76" x1="117.91" y1="38.93" x2="117.91" y2="23.73" xlink:href="#linear-gradient"/><linearGradient id="linear-gradient-77" x1="113.52" y1="23.59" x2="122.3" y2="23.59" xlink:href="#linear-gradient"/><linearGradient id="linear-gradient-78" x1="112.95" y1="37.59" x2="112.95" y2="32.51" xlink:href="#linear-gradient-3"/><linearGradient id="linear-gradient-79" x1="114.37" y1="37.59" x2="114.37" y2="32.51" xlink:href="#linear-gradient-3"/><linearGradient id="linear-gradient-80" x1="115.79" y1="37.59" x2="115.79" y2="32.51" xlink:href="#linear-gradient-3"/><linearGradient id="linear-gradient-81" x1="117.2" y1="37.59" x2="117.2" y2="32.51" xlink:href="#linear-gradient-3"/><linearGradient id="linear-gradient-82" x1="118.62" y1="37.59" x2="118.62" y2="32.51" xlink:href="#linear-gradient-3"/><linearGradient id="linear-gradient-83" x1="120.04" y1="37.59" x2="120.04" y2="32.51" xlink:href="#linear-gradient-3"/><linearGradient id="linear-gradient-84" x1="121.46" y1="37.59" x2="121.46" y2="32.51" xlink:href="#linear-gradient-3"/><linearGradient id="linear-gradient-85" x1="122.88" y1="37.59" x2="122.88" y2="32.51" xlink:href="#linear-gradient-3"/><linearGradient id="linear-gradient-86" x1="117.91" y1="30.72" x2="117.91" y2="28.81" xlink:href="#linear-gradient-11"/><linearGradient id="linear-gradient-87" x1="110.83" y1="26.55" x2="110.83" y2="24.76" xlink:href="#linear-gradient-12"/><linearGradient id="linear-gradient-88" x1="110.83" y1="25.63" x2="110.83" y2="24.76" xlink:href="#linear-gradient-13"/><linearGradient id="linear-gradient-89" x1="125.48" y1="26.55" x2="125.48" y2="24.76" xlink:href="#linear-gradient-14"/><linearGradient id="linear-gradient-90" x1="125.48" y1="25.63" x2="125.48" y2="24.76" xlink:href="#linear-gradient-13"/><linearGradient id="linear-gradient-91" x1="138.74" y1="38.93" x2="138.74" y2="23.73" xlink:href="#linear-gradient"/><linearGradient id="linear-gradient-92" x1="134.35" y1="23.59" x2="143.13" y2="23.59" xlink:href="#linear-gradient"/><linearGradient id="linear-gradient-93" x1="133.77" y1="37.59" x2="133.77" y2="32.51" xlink:href="#linear-gradient-3"/><linearGradient id="linear-gradient-94" x1="135.19" y1="37.59" x2="135.19" y2="32.51" xlink:href="#linear-gradient-3"/><linearGradient id="linear-gradient-95" x1="136.61" y1="37.59" x2="136.61" y2="32.51" xlink:href="#linear-gradient-3"/><linearGradient id="linear-gradient-96" x1="138.03" y1="37.59" x2="138.03" y2="32.51" xlink:href="#linear-gradient-3"/><linearGradient id="linear-gradient-97" x1="139.45" y1="37.59" x2="139.45" y2="32.51" xlink:href="#linear-gradient-3"/><linearGradient id="linear-gradient-98" x1="140.86" y1="37.59" x2="140.86" y2="32.51" xlink:href="#linear-gradient-3"/><linearGradient id="linear-gradient-99" x1="142.28" y1="37.59" x2="142.28" y2="32.51" xlink:href="#linear-gradient-3"/><linearGradient id="linear-gradient-100" x1="143.7" y1="37.59" x2="143.7" y2="32.51" xlink:href="#linear-gradient-3"/><linearGradient id="linear-gradient-101" x1="138.74" y1="30.72" x2="138.74" y2="28.81" xlink:href="#linear-gradient-11"/><linearGradient id="linear-gradient-102" x1="131.65" y1="26.55" x2="131.65" y2="24.76" xlink:href="#linear-gradient-12"/><linearGradient id="linear-gradient-103" x1="131.65" y1="25.63" x2="131.65" y2="24.76" xlink:href="#linear-gradient-13"/><linearGradient id="linear-gradient-104" x1="146.3" y1="26.55" x2="146.3" y2="24.76" xlink:href="#linear-gradient-14"/><linearGradient id="linear-gradient-105" x1="146.3" y1="25.63" x2="146.3" y2="24.76" xlink:href="#linear-gradient-13"/><linearGradient id="linear-gradient-106" x1="159.56" y1="38.93" x2="159.56" y2="23.73" xlink:href="#linear-gradient"/><linearGradient id="linear-gradient-107" x1="155.17" y1="23.59" x2="163.95" y2="23.59" xlink:href="#linear-gradient"/><linearGradient id="linear-gradient-108" x1="154.59" y1="37.59" x2="154.59" y2="32.51" xlink:href="#linear-gradient-3"/><linearGradient id="linear-gradient-109" x1="156.01" y1="37.59" x2="156.01" y2="32.51" xlink:href="#linear-gradient-3"/><linearGradient id="linear-gradient-110" x1="157.43" y1="37.59" x2="157.43" y2="32.51" xlink:href="#linear-gradient-3"/><linearGradient id="linear-gradient-111" x1="158.85" y1="37.59" x2="158.85" y2="32.51" xlink:href="#linear-gradient-3"/><linearGradient id="linear-gradient-112" x1="160.27" y1="37.59" x2="160.27" y2="32.51" xlink:href="#linear-gradient-3"/><linearGradient id="linear-gradient-113" x1="161.69" y1="37.59" x2="161.69" y2="32.51" xlink:href="#linear-gradient-3"/><linearGradient id="linear-gradient-114" x1="163.11" y1="37.59" x2="163.11" y2="32.51" xlink:href="#linear-gradient-3"/><linearGradient id="linear-gradient-115" x1="164.53" y1="37.59" x2="164.53" y2="32.51" xlink:href="#linear-gradient-3"/><linearGradient id="linear-gradient-116" x1="159.56" y1="30.72" x2="159.56" y2="28.81" xlink:href="#linear-gradient-11"/><linearGradient id="linear-gradient-117" x1="152.48" y1="26.55" x2="152.48" y2="24.76" xlink:href="#linear-gradient-12"/><linearGradient id="linear-gradient-118" x1="152.48" y1="25.63" x2="152.48" y2="24.76" xlink:href="#linear-gradient-13"/><linearGradient id="linear-gradient-119" x1="167.12" y1="26.55" x2="167.12" y2="24.76" xlink:href="#linear-gradient-14"/><linearGradient id="linear-gradient-120" x1="167.12" y1="25.63" x2="167.12" y2="24.76" xlink:href="#linear-gradient-13"/><linearGradient id="linear-gradient-121" x1="226.98" y1="-293.28" x2="226.98" y2="-308.1" gradientTransform="translate(57.7 332.21)" xlink:href="#linear-gradient"/><linearGradient id="linear-gradient-122" x1="222.7" y1="-308.24" x2="231.26" y2="-308.24" gradientTransform="translate(57.7 332.21)" xlink:href="#linear-gradient"/><linearGradient id="linear-gradient-123" x1="222.13" y1="-294.59" x2="222.13" y2="-299.54" gradientTransform="translate(57.7 332.21)" xlink:href="#linear-gradient-3"/><linearGradient id="linear-gradient-124" x1="223.52" y1="-294.59" x2="223.52" y2="-299.54" gradientTransform="translate(57.7 332.21)" xlink:href="#linear-gradient-3"/><linearGradient id="linear-gradient-125" x1="224.9" y1="-294.59" x2="224.9" y2="-299.54" gradientTransform="translate(57.7 332.21)" xlink:href="#linear-gradient-3"/><linearGradient id="linear-gradient-126" x1="226.28" y1="-294.59" x2="226.28" y2="-299.54" gradientTransform="translate(57.7 332.21)" xlink:href="#linear-gradient-3"/><linearGradient id="linear-gradient-127" x1="227.67" y1="-294.59" x2="227.67" y2="-299.54" gradientTransform="translate(57.7 332.21)" xlink:href="#linear-gradient-3"/><linearGradient id="linear-gradient-128" x1="229.05" y1="-294.59" x2="229.05" y2="-299.54" gradientTransform="translate(57.7 332.21)" xlink:href="#linear-gradient-3"/><linearGradient id="linear-gradient-129" x1="230.44" y1="-294.59" x2="230.44" y2="-299.54" gradientTransform="translate(57.7 332.21)" xlink:href="#linear-gradient-3"/><linearGradient id="linear-gradient-130" x1="231.82" y1="-294.59" x2="231.82" y2="-299.54" gradientTransform="translate(57.7 332.21)" xlink:href="#linear-gradient-3"/><linearGradient id="linear-gradient-131" x1="226.98" y1="-301.28" x2="226.98" y2="-303.15" gradientTransform="translate(57.7 332.21)" xlink:href="#linear-gradient-11"/><linearGradient id="linear-gradient-132" x1="275.62" y1="-308.1" x2="281.18" y2="-308.1" gradientTransform="translate(57.7 332.21)" xlink:href="#linear-gradient"/><linearGradient id="linear-gradient-133" x1="275.64" y1="-294.45" x2="275.64" y2="-299.4" gradientTransform="translate(57.7 332.21)" xlink:href="#linear-gradient-3"/><linearGradient id="linear-gradient-134" x1="277.02" y1="-294.45" x2="277.02" y2="-299.4" gradientTransform="translate(57.7 332.21)" xlink:href="#linear-gradient-3"/><linearGradient id="linear-gradient-135" x1="278.4" y1="-294.45" x2="278.4" y2="-299.4" gradientTransform="translate(57.7 332.21)" xlink:href="#linear-gradient-3"/><linearGradient id="linear-gradient-136" x1="279.79" y1="-294.45" x2="279.79" y2="-299.4" gradientTransform="translate(57.7 332.21)" xlink:href="#linear-gradient-3"/><linearGradient id="linear-gradient-137" x1="281.17" y1="-294.45" x2="281.17" y2="-299.4" gradientTransform="translate(57.7 332.21)" xlink:href="#linear-gradient-3"/><linearGradient id="linear-gradient-138" x1="278.4" y1="-301.14" x2="278.4" y2="-303.01" gradientTransform="translate(57.7 332.21)" xlink:href="#linear-gradient-11"/></defs><g id="Layer_2" data-name="Layer 2"><g id="Layer_1-2" data-name="Layer 1"><rect class="cls-1" x="0.5" y="0.5" width="358.28" height="48.78"/><rect class="cls-2" x="10.78" y="4.58" width="339.84" height="40.32" rx="4.08"/><circle class="cls-3" cx="36.73" cy="30.5" r="1.48"/><circle class="cls-4" cx="44.32" cy="30.5" r="1.48"/><circle class="cls-5" cx="36.73" cy="36.22" r="1.48"/><circle class="cls-6" cx="44.32" cy="36.22" r="1.48"/><path class="cls-7" d="M34,26.39l-.14.43H33.7l.46-1.37h.21l.47,1.37h-.19l-.14-.43Zm.45-.14-.14-.39c0-.09,0-.17-.07-.25h0a2.17,2.17,0,0,1-.07.24l-.13.4Z"/><path class="cls-7" d="M35,25.45h.18v1.22h.58v.15H35Z"/><path class="cls-7" d="M36.23,26.39l-.15.43H35.9l.47-1.37h.21l.47,1.37h-.19l-.15-.43Zm.44-.14-.13-.39c0-.09,0-.17-.07-.25h0l-.06.24-.14.4Z"/><path class="cls-7" d="M37.25,25.47a1.72,1.72,0,0,1,.34,0,.57.57,0,0,1,.39.11.35.35,0,0,1,.11.26.36.36,0,0,1-.26.35h0c.11,0,.17.13.2.27a2.46,2.46,0,0,0,.11.38H38a1.47,1.47,0,0,1-.09-.33c0-.19-.12-.26-.28-.26h-.16v.59h-.18Zm.18.62h.18c.19,0,.3-.1.3-.26s-.12-.25-.31-.25h-.17Z"/><path class="cls-7" d="M39.5,26.22c0-.19,0-.42,0-.59h0c0,.16-.1.33-.17.52l-.24.66h-.14l-.22-.65c-.06-.19-.12-.37-.16-.53h0c0,.17,0,.4,0,.6l0,.59h-.17l.09-1.37h.23l.23.66c.06.17.1.32.14.46h0a3.85,3.85,0,0,1,.14-.46l.24-.66h.23l.08,1.37h-.17Z"/><path class="cls-7" d="M41.31,26.6a.63.63,0,0,0,.32.09c.18,0,.28-.09.28-.23s-.07-.2-.25-.27-.36-.2-.36-.39a.39.39,0,0,1,.44-.37.68.68,0,0,1,.3.06l0,.15a.45.45,0,0,0-.26-.07.23.23,0,0,0-.26.21c0,.13.09.19.28.26s.35.2.35.4-.16.4-.48.4a.66.66,0,0,1-.35-.09Z"/><path class="cls-7" d="M42.6,25.6h-.42v-.15h1v.15h-.42v1.22H42.6Z"/><path class="cls-7" d="M43.42,26.39l-.14.43h-.19l.47-1.37h.21l.47,1.37h-.19l-.15-.43Zm.45-.14-.14-.39c0-.09,0-.17-.07-.25h0a2.17,2.17,0,0,1-.07.24l-.13.4Z"/><path class="cls-7" d="M44.55,25.6h-.42v-.15h1v.15h-.42v1.22h-.17Z"/><path class="cls-7" d="M45.47,25.45v.81c0,.31.14.44.32.44s.34-.14.34-.44v-.81h.17v.8c0,.42-.22.59-.51.59s-.49-.16-.49-.58v-.81Z"/><path class="cls-7" d="M46.59,26.6a.61.61,0,0,0,.32.09c.18,0,.28-.09.28-.23s-.07-.2-.26-.27-.36-.2-.36-.39a.4.4,0,0,1,.45-.37.68.68,0,0,1,.3.06l0,.15a.51.51,0,0,0-.26-.07c-.19,0-.26.12-.26.21s.08.19.27.26.35.2.35.4-.15.4-.48.4a.72.72,0,0,1-.35-.09Z"/><path class="cls-7" d="M33.74,40a1.52,1.52,0,0,1,.34,0,.57.57,0,0,1,.38.11.37.37,0,0,1,.12.29.38.38,0,0,1-.1.29.58.58,0,0,1-.42.15h-.14v.55h-.18Zm.18.66h.14c.22,0,.35-.1.35-.29s-.13-.27-.33-.27l-.16,0Z"/><path class="cls-7" d="M36,40.63a.64.64,0,0,1-.63.72.62.62,0,0,1-.62-.69.65.65,0,0,1,.64-.72A.62.62,0,0,1,36,40.63Zm-1.06,0c0,.3.16.56.44.56s.43-.26.43-.57-.14-.56-.43-.56S34.93,40.35,34.93,40.65Z"/><path class="cls-7" d="M36.45,41.33,36.1,40h.19l.16.69c0,.17.08.34.1.48h0q0-.21.12-.48l.18-.69H37l.17.7a4.64,4.64,0,0,1,.09.46h0c0-.15.07-.3.11-.47l.18-.69h.18l-.39,1.37H37.2L37,40.62a2.23,2.23,0,0,1-.09-.45h0a3.42,3.42,0,0,1-.1.45l-.2.71Z"/><path class="cls-7" d="M38.65,40.69h-.53v.49h.59v.15h-.77V40h.74v.15h-.56v.43h.53Z"/><path class="cls-7" d="M39,40a1.55,1.55,0,0,1,.33,0,.62.62,0,0,1,.4.11.35.35,0,0,1,.11.26.37.37,0,0,1-.26.35h0c.11,0,.17.13.2.27a2.46,2.46,0,0,0,.11.38h-.19a2.4,2.4,0,0,1-.09-.33c0-.19-.11-.26-.27-.26h-.17v.59H39Zm.17.62h.18c.19,0,.31-.1.31-.26s-.13-.25-.31-.25h-.18Z"/><path class="cls-7" d="M43.28,41.12a.52.52,0,0,0,.29.09.26.26,0,0,0,.3-.26c0-.18-.17-.26-.34-.26h-.1v-.14h.1c.13,0,.29-.06.29-.22a.2.2,0,0,0-.23-.2.44.44,0,0,0-.26.09l0-.13a.62.62,0,0,1,.34-.1c.26,0,.38.15.38.31a.32.32,0,0,1-.24.31h0a.34.34,0,0,1,.29.34c0,.21-.16.39-.48.39a.58.58,0,0,1-.34-.09Z"/><path class="cls-7" d="M45.38,41.27a1.23,1.23,0,0,1-.42.07.71.71,0,0,1-.51-.18A.72.72,0,0,1,45,40a.82.82,0,0,1,.34.06l0,.14a.74.74,0,0,0-.3,0,.55.55,0,0,0,0,1.1.57.57,0,0,0,.24,0v-.41h-.28v-.14h.45Z"/><path class="cls-8" d="M22.58,29.46a3.67,3.67,0,1,0,3.67,3.67A3.66,3.66,0,0,0,22.58,29.46Zm0,5.81a2.14,2.14,0,1,1,2.14-2.14A2.14,2.14,0,0,1,22.58,35.27Z"/><circle class="cls-9" cx="22.58" cy="33.13" r="1"/><rect class="cls-10" x="91.24" y="23.73" width="19.43" height="14.12"/><polygon class="cls-11" points="103.66 23.73 103.66 25.08 105.39 25.08 105.39 27.36 109.56 27.36 109.56 37.59 105.39 37.59 95.47 37.59 91.3 37.59 91.3 27.36 95.47 27.36 95.47 25.08 97.2 25.08 97.2 23.73 89.81 23.73 89.81 38.94 111.05 38.94 111.05 23.73 103.66 23.73"/><rect class="cls-12" x="96.04" y="23.44" width="8.78" height="0.28"/><rect class="cls-13" x="95.18" y="32.51" width="0.57" height="5.08"/><rect class="cls-14" x="96.6" y="32.51" width="0.57" height="5.08"/><rect class="cls-15" x="98.02" y="32.51" width="0.57" height="5.08"/><rect class="cls-16" x="99.44" y="32.51" width="0.57" height="5.08"/><rect class="cls-17" x="100.85" y="32.51" width="0.57" height="5.08"/><rect class="cls-18" x="102.27" y="32.51" width="0.57" height="5.08"/><rect class="cls-19" x="103.69" y="32.51" width="0.57" height="5.08"/><rect class="cls-20" x="105.11" y="32.51" width="0.57" height="5.08"/><rect class="cls-21" x="95.73" y="28.81" width="9.4" height="1.92"/><rect class="cls-22" x="91.74" y="24.76" width="3.21" height="1.79" rx="0.33"/><path class="cls-23" d="M94.81,24.76H91.88a.15.15,0,0,0-.14.14v.73a.14.14,0,0,1,.14-.14h2.93a.14.14,0,0,1,.14.14V24.9A.14.14,0,0,0,94.81,24.76Z"/><rect class="cls-24" x="106.39" y="24.76" width="3.21" height="1.79" rx="0.33"/><path class="cls-25" d="M109.46,24.76h-2.93a.14.14,0,0,0-.14.14v.73a.14.14,0,0,1,.14-.14h2.93a.14.14,0,0,1,.14.14V24.9A.14.14,0,0,0,109.46,24.76Z"/><rect class="cls-10" x="112.06" y="23.73" width="19.43" height="14.12"/><polygon class="cls-26" points="124.48 23.73 124.48 25.08 126.21 25.08 126.21 27.36 130.38 27.36 130.38 37.59 126.21 37.59 116.29 37.59 112.12 37.59 112.12 27.36 116.29 27.36 116.29 25.08 118.03 25.08 118.03 23.73 110.63 23.73 110.63 38.94 131.87 38.94 131.87 23.73 124.48 23.73"/><rect class="cls-27" x="116.86" y="23.44" width="8.78" height="0.28"/><rect class="cls-28" x="116" y="32.51" width="0.57" height="5.08"/><rect class="cls-29" x="117.42" y="32.51" width="0.57" height="5.08"/><rect class="cls-30" x="118.84" y="32.51" width="0.57" height="5.08"/><rect class="cls-31" x="120.26" y="32.51" width="0.57" height="5.08"/><rect class="cls-32" x="121.68" y="32.51" width="0.57" height="5.08"/><rect class="cls-33" x="123.1" y="32.51" width="0.57" height="5.08"/><rect class="cls-34" x="124.52" y="32.51" width="0.57" height="5.08"/><rect class="cls-35" x="125.93" y="32.51" width="0.57" height="5.08"/><rect class="cls-36" x="116.55" y="28.81" width="9.4" height="1.92"/><rect class="cls-37" x="112.56" y="24.76" width="3.21" height="1.79" rx="0.33"/><path class="cls-38" d="M115.63,24.76h-2.92a.15.15,0,0,0-.15.14v.73a.15.15,0,0,1,.15-.14h2.92a.15.15,0,0,1,.15.14V24.9A.15.15,0,0,0,115.63,24.76Z"/><rect class="cls-39" x="127.21" y="24.76" width="3.21" height="1.79" rx="0.33"/><path class="cls-40" d="M130.28,24.76h-2.93a.15.15,0,0,0-.14.14v.73a.14.14,0,0,1,.14-.14h2.93a.14.14,0,0,1,.14.14V24.9A.14.14,0,0,0,130.28,24.76Z"/><rect class="cls-10" x="132.88" y="23.73" width="19.43" height="14.12"/><polygon class="cls-41" points="145.3 23.73 145.3 25.08 147.03 25.08 147.03 27.36 151.21 27.36 151.21 37.59 147.03 37.59 137.11 37.59 132.94 37.59 132.94 27.36 137.11 27.36 137.11 25.08 138.85 25.08 138.85 23.73 131.46 23.73 131.46 38.94 152.69 38.94 152.69 23.73 145.3 23.73"/><rect class="cls-42" x="137.68" y="23.44" width="8.78" height="0.28"/><rect class="cls-43" x="136.82" y="32.51" width="0.57" height="5.08"/><rect class="cls-44" x="138.24" y="32.51" width="0.57" height="5.08"/><rect class="cls-45" x="139.66" y="32.51" width="0.57" height="5.08"/><rect class="cls-46" x="141.08" y="32.51" width="0.57" height="5.08"/><rect class="cls-47" x="142.5" y="32.51" width="0.57" height="5.08"/><rect class="cls-48" x="143.92" y="32.51" width="0.57" height="5.08"/><rect class="cls-49" x="145.34" y="32.51" width="0.57" height="5.08"/><rect class="cls-50" x="146.76" y="32.51" width="0.57" height="5.08"/><rect class="cls-51" x="137.37" y="28.81" width="9.4" height="1.92"/><rect class="cls-52" x="133.39" y="24.76" width="3.21" height="1.79" rx="0.33"/><path class="cls-53" d="M136.46,24.76h-2.93a.14.14,0,0,0-.14.14v.73a.14.14,0,0,1,.14-.14h2.93a.14.14,0,0,1,.14.14V24.9A.15.15,0,0,0,136.46,24.76Z"/><rect class="cls-54" x="148.03" y="24.76" width="3.21" height="1.79" rx="0.33"/><path class="cls-55" d="M151.1,24.76h-2.92a.15.15,0,0,0-.15.14v.73a.15.15,0,0,1,.15-.14h2.92a.15.15,0,0,1,.15.14V24.9A.15.15,0,0,0,151.1,24.76Z"/><rect class="cls-10" x="153.7" y="23.73" width="19.43" height="14.12"/><polygon class="cls-56" points="166.12 23.73 166.12 25.08 167.86 25.08 167.86 27.36 172.03 27.36 172.03 37.59 167.86 37.59 157.94 37.59 153.77 37.59 153.77 27.36 157.94 27.36 157.94 25.08 159.67 25.08 159.67 23.73 152.28 23.73 152.28 38.94 173.52 38.94 173.52 23.73 166.12 23.73"/><rect class="cls-57" x="158.51" y="23.44" width="8.78" height="0.28"/><rect class="cls-58" x="157.65" y="32.51" width="0.57" height="5.08"/><rect class="cls-59" x="159.06" y="32.51" width="0.57" height="5.08"/><rect class="cls-60" x="160.48" y="32.51" width="0.57" height="5.08"/><rect class="cls-61" x="161.9" y="32.51" width="0.57" height="5.08"/><rect class="cls-62" x="163.32" y="32.51" width="0.57" height="5.08"/><rect class="cls-63" x="164.74" y="32.51" width="0.57" height="5.08"/><rect class="cls-64" x="166.16" y="32.51" width="0.57" height="5.08"/><rect class="cls-65" x="167.58" y="32.51" width="0.57" height="5.08"/><rect class="cls-66" x="158.2" y="28.81" width="9.4" height="1.92"/><rect class="cls-67" x="154.21" y="24.76" width="3.21" height="1.79" rx="0.33"/><path class="cls-68" d="M157.28,24.76h-2.93a.14.14,0,0,0-.14.14v.73a.14.14,0,0,1,.14-.14h2.93a.14.14,0,0,1,.14.14V24.9A.14.14,0,0,0,157.28,24.76Z"/><rect class="cls-69" x="168.86" y="24.76" width="3.21" height="1.79" rx="0.33"/><path class="cls-70" d="M171.93,24.76H169a.14.14,0,0,0-.14.14v.73a.14.14,0,0,1,.14-.14h2.93a.14.14,0,0,1,.14.14V24.9A.15.15,0,0,0,171.93,24.76Z"/><rect class="cls-10" x="182.94" y="23.73" width="19.43" height="14.12"/><polygon class="cls-71" points="195.36 23.73 195.36 25.08 197.09 25.08 197.09 27.36 201.26 27.36 201.26 37.59 197.09 37.59 187.17 37.59 183 37.59 183 27.36 187.17 27.36 187.17 25.08 188.91 25.08 188.91 23.73 181.51 23.73 181.51 38.94 202.75 38.94 202.75 23.73 195.36 23.73"/><rect class="cls-72" x="187.74" y="23.44" width="8.78" height="0.28"/><rect class="cls-73" x="186.88" y="32.51" width="0.57" height="5.08"/><rect class="cls-74" x="188.3" y="32.51" width="0.57" height="5.08"/><rect class="cls-75" x="189.72" y="32.51" width="0.57" height="5.08"/><rect class="cls-76" x="191.14" y="32.51" width="0.57" height="5.08"/><rect class="cls-77" x="192.56" y="32.51" width="0.57" height="5.08"/><rect class="cls-78" x="193.98" y="32.51" width="0.57" height="5.08"/><rect class="cls-79" x="195.39" y="32.51" width="0.57" height="5.08"/><rect class="cls-80" x="196.81" y="32.51" width="0.57" height="5.08"/><rect class="cls-81" x="187.43" y="28.81" width="9.4" height="1.92"/><rect class="cls-82" x="183.44" y="24.76" width="3.21" height="1.79" rx="0.33"/><path class="cls-83" d="M186.51,24.76h-2.92a.15.15,0,0,0-.15.14v.73a.15.15,0,0,1,.15-.14h2.92a.15.15,0,0,1,.15.14V24.9A.15.15,0,0,0,186.51,24.76Z"/><rect class="cls-84" x="198.09" y="24.76" width="3.21" height="1.79" rx="0.33"/><path class="cls-85" d="M201.16,24.76h-2.93a.15.15,0,0,0-.14.14v.73a.14.14,0,0,1,.14-.14h2.93a.14.14,0,0,1,.14.14V24.9A.14.14,0,0,0,201.16,24.76Z"/><rect class="cls-10" x="203.76" y="23.73" width="19.43" height="14.12"/><polygon class="cls-86" points="216.18 23.73 216.18 25.08 217.91 25.08 217.91 27.36 222.09 27.36 222.09 37.59 217.91 37.59 207.99 37.59 203.82 37.59 203.82 27.36 207.99 27.36 207.99 25.08 209.73 25.08 209.73 23.73 202.33 23.73 202.33 38.94 223.57 38.94 223.57 23.73 216.18 23.73"/><rect class="cls-87" x="208.56" y="23.44" width="8.78" height="0.28"/><rect class="cls-88" x="207.7" y="32.51" width="0.57" height="5.08"/><rect class="cls-89" x="209.12" y="32.51" width="0.57" height="5.08"/><rect class="cls-90" x="210.54" y="32.51" width="0.57" height="5.08"/><rect class="cls-91" x="211.96" y="32.51" width="0.57" height="5.08"/><rect class="cls-92" x="213.38" y="32.51" width="0.57" height="5.08"/><rect class="cls-93" x="214.8" y="32.51" width="0.57" height="5.08"/><rect class="cls-94" x="216.22" y="32.51" width="0.57" height="5.08"/><rect class="cls-95" x="217.64" y="32.51" width="0.57" height="5.08"/><rect class="cls-96" x="208.25" y="28.81" width="9.4" height="1.92"/><rect class="cls-97" x="204.27" y="24.76" width="3.21" height="1.79" rx="0.33"/><path class="cls-98" d="M207.34,24.76h-2.93a.14.14,0,0,0-.14.14v.73a.14.14,0,0,1,.14-.14h2.93a.14.14,0,0,1,.14.14V24.9A.15.15,0,0,0,207.34,24.76Z"/><rect class="cls-99" x="218.91" y="24.76" width="3.21" height="1.79" rx="0.33"/><path class="cls-100" d="M222,24.76h-2.92a.15.15,0,0,0-.15.14v.73a.15.15,0,0,1,.15-.14H222a.15.15,0,0,1,.15.14V24.9A.15.15,0,0,0,222,24.76Z"/><rect class="cls-10" x="224.58" y="23.73" width="19.43" height="14.12"/><polygon class="cls-101" points="237 23.73 237 25.08 238.74 25.08 238.74 27.36 242.91 27.36 242.91 37.59 238.74 37.59 228.82 37.59 224.65 37.59 224.65 27.36 228.82 27.36 228.82 25.08 230.55 25.08 230.55 23.73 223.16 23.73 223.16 38.94 244.4 38.94 244.4 23.73 237 23.73"/><rect class="cls-102" x="229.39" y="23.44" width="8.78" height="0.28"/><rect class="cls-103" x="228.52" y="32.51" width="0.57" height="5.08"/><rect class="cls-104" x="229.94" y="32.51" width="0.57" height="5.08"/><rect class="cls-105" x="231.36" y="32.51" width="0.57" height="5.08"/><rect class="cls-106" x="232.78" y="32.51" width="0.57" height="5.08"/><rect class="cls-107" x="234.2" y="32.51" width="0.57" height="5.08"/><rect class="cls-108" x="235.62" y="32.51" width="0.57" height="5.08"/><rect class="cls-109" x="237.04" y="32.51" width="0.57" height="5.08"/><rect class="cls-110" x="238.46" y="32.51" width="0.57" height="5.08"/><rect class="cls-111" x="229.08" y="28.81" width="9.4" height="1.92"/><rect class="cls-112" x="225.09" y="24.76" width="3.21" height="1.79" rx="0.33"/><path class="cls-113" d="M228.16,24.76h-2.93a.14.14,0,0,0-.14.14v.73a.14.14,0,0,1,.14-.14h2.93a.14.14,0,0,1,.14.14V24.9A.14.14,0,0,0,228.16,24.76Z"/><rect class="cls-114" x="239.74" y="24.76" width="3.21" height="1.79" rx="0.33"/><path class="cls-115" d="M242.81,24.76h-2.93a.14.14,0,0,0-.14.14v.73a.14.14,0,0,1,.14-.14h2.93a.14.14,0,0,1,.14.14V24.9A.15.15,0,0,0,242.81,24.76Z"/><rect class="cls-10" x="245.41" y="23.73" width="19.43" height="14.12"/><polygon class="cls-116" points="257.82 23.73 257.82 25.08 259.56 25.08 259.56 27.36 263.73 27.36 263.73 37.59 259.56 37.59 249.64 37.59 245.47 37.59 245.47 27.36 249.64 27.36 249.64 25.08 251.37 25.08 251.37 23.73 243.98 23.73 243.98 38.94 265.22 38.94 265.22 23.73 257.82 23.73"/><rect class="cls-117" x="250.21" y="23.44" width="8.78" height="0.28"/><rect class="cls-118" x="249.35" y="32.51" width="0.57" height="5.08"/><rect class="cls-119" x="250.77" y="32.51" width="0.57" height="5.08"/><rect class="cls-120" x="252.19" y="32.51" width="0.57" height="5.08"/><rect class="cls-121" x="253.6" y="32.51" width="0.57" height="5.08"/><rect class="cls-122" x="255.02" y="32.51" width="0.57" height="5.08"/><rect class="cls-123" x="256.44" y="32.51" width="0.57" height="5.08"/><rect class="cls-124" x="257.86" y="32.51" width="0.57" height="5.08"/><rect class="cls-125" x="259.28" y="32.51" width="0.57" height="5.08"/><rect class="cls-126" x="249.9" y="28.81" width="9.4" height="1.92"/><rect class="cls-127" x="245.91" y="24.76" width="3.21" height="1.79" rx="0.33"/><path class="cls-128" d="M249,24.76h-2.93a.14.14,0,0,0-.14.14v.73a.14.14,0,0,1,.14-.14H249a.14.14,0,0,1,.14.14V24.9A.14.14,0,0,0,249,24.76Z"/><rect class="cls-129" x="260.56" y="24.76" width="3.21" height="1.79" rx="0.33"/><path class="cls-130" d="M263.63,24.76H260.7a.14.14,0,0,0-.14.14v.73a.14.14,0,0,1,.14-.14h2.93a.14.14,0,0,1,.14.14V24.9A.14.14,0,0,0,263.63,24.76Z"/><rect class="cls-10" x="275.72" y="24.11" width="18.94" height="13.77"/><polygon class="cls-131" points="287.82 24.11 287.82 25.42 289.52 25.42 289.52 27.64 293.58 27.64 293.58 37.62 289.52 37.62 279.84 37.62 275.78 37.62 275.78 27.64 279.84 27.64 279.84 25.42 281.54 25.42 281.54 24.11 274.32 24.11 274.32 38.94 295.04 38.94 295.04 24.11 287.82 24.11"/><rect class="cls-132" x="280.4" y="23.83" width="8.56" height="0.28"/><rect class="cls-133" x="279.56" y="32.67" width="0.56" height="4.95"/><rect class="cls-134" x="280.94" y="32.67" width="0.56" height="4.95"/><rect class="cls-135" x="282.33" y="32.67" width="0.56" height="4.95"/><rect class="cls-136" x="283.71" y="32.67" width="0.56" height="4.95"/><rect class="cls-137" x="285.09" y="32.67" width="0.56" height="4.95"/><rect class="cls-138" x="286.48" y="32.67" width="0.56" height="4.95"/><rect class="cls-139" x="287.86" y="32.67" width="0.56" height="4.95"/><rect class="cls-140" x="289.25" y="32.67" width="0.56" height="4.95"/><rect class="cls-141" x="280.1" y="29.06" width="9.17" height="1.87"/><rect class="cls-10" x="71.2" y="26.71" width="17.24" height="7.21" transform="translate(110.13 -49.5) rotate(90)"/><rect class="cls-142" x="73.79" y="29.84" width="13.41" height="1.35" transform="translate(111.01 -49.97) rotate(90)"/><rect class="cls-10" x="328.14" y="24.25" width="15.94" height="13.77"/><polygon points="340.75 24.25 340.75 25.56 339.44 25.56 339.44 27.78 343.51 27.78 343.51 37.76 339.44 37.76 332.77 37.76 328.7 37.76 328.7 27.78 332.77 27.78 332.77 25.56 334.46 25.56 334.46 24.25 327.25 24.25 327.25 39.07 344.96 39.07 344.96 24.25 340.75 24.25"/><rect class="cls-143" x="333.33" y="23.97" width="5.56" height="0.28"/><rect class="cls-144" x="333.06" y="32.81" width="0.56" height="4.95"/><rect class="cls-145" x="334.45" y="32.81" width="0.56" height="4.95"/><rect class="cls-146" x="335.83" y="32.81" width="0.56" height="4.95"/><rect class="cls-147" x="337.21" y="32.81" width="0.56" height="4.95"/><rect class="cls-148" x="338.6" y="32.81" width="0.56" height="4.95"/><rect class="cls-149" x="333.02" y="29.2" width="6.17" height="1.87"/><path class="cls-150" d="M332.31,21.1l-.69-2.69H332l.32,1.36c.08.34.15.67.2.93h0a9.32,9.32,0,0,1,.22-.93l.36-1.36h.36l.33,1.36a9,9,0,0,1,.19.93h0c.05-.3.13-.6.21-.93l.36-1.36h.35l-.76,2.69h-.36l-.34-1.4a8.12,8.12,0,0,1-.18-.88h0a9,9,0,0,1-.21.88l-.38,1.4Z"/><path class="cls-150" d="M335.46,20.25l-.28.85h-.36l.92-2.69h.42l.91,2.69h-.37l-.29-.85Zm.88-.27-.26-.77c-.06-.18-.1-.34-.14-.5h0a4.5,4.5,0,0,1-.14.49l-.26.78Z"/><path class="cls-150" d="M337.47,21.1V18.41h.38l.86,1.36a8.1,8.1,0,0,1,.49.88h0a9.75,9.75,0,0,1,0-1.11V18.41h.32V21.1h-.35l-.85-1.37a8.21,8.21,0,0,1-.51-.9h0c0,.34,0,.66,0,1.11V21.1Z"/><path class="cls-7" d="M99.28,42.37c0,.88-.32,1.37-.87,1.37s-.83-.48-.83-1.34.36-1.35.87-1.35S99.28,41.54,99.28,42.37Zm-1.37,0c0,.67.21,1.06.51,1.06s.52-.42.52-1.09-.16-1.06-.51-1.06S97.91,41.7,97.91,42.41Z"/><path class="cls-7" d="M99.42,43.85,100.49,41h.27l-1.08,2.89Z"/><path class="cls-7" d="M102.59,42.37c0,.88-.32,1.37-.87,1.37s-.83-.48-.83-1.34.36-1.35.87-1.35S102.59,41.54,102.59,42.37Zm-1.36,0c0,.67.2,1.06.51,1.06s.51-.42.51-1.09-.16-1.06-.51-1.06S101.23,41.7,101.23,42.41Z"/><path class="cls-7" d="M120.15,42.37c0,.88-.32,1.37-.87,1.37s-.83-.48-.83-1.34.36-1.35.87-1.35S120.15,41.54,120.15,42.37Zm-1.36,0c0,.67.2,1.06.51,1.06s.51-.42.51-1.09-.16-1.06-.51-1.06S118.79,41.7,118.79,42.41Z"/><path class="cls-7" d="M120.29,43.85,121.37,41h.26l-1.08,2.89Z"/><path class="cls-7" d="M122.53,41.42h0l-.43.25L122,41.4l.55-.3h.29v2.59h-.33Z"/><path class="cls-7" d="M141,42.37c0,.88-.31,1.37-.87,1.37s-.82-.48-.83-1.34.36-1.35.87-1.35S141,41.54,141,42.37Zm-1.36,0c0,.67.2,1.06.51,1.06s.51-.42.51-1.09-.16-1.06-.51-1.06S139.66,41.7,139.66,42.41Z"/><path class="cls-7" d="M141.16,43.85,142.24,41h.26l-1.08,2.89Z"/><path class="cls-7" d="M142.66,43.69v-.21l.27-.27c.64-.63.93-1,.94-1.36a.46.46,0,0,0-.5-.51.86.86,0,0,0-.54.22l-.1-.25a1.08,1.08,0,0,1,.71-.26.72.72,0,0,1,.76.76c0,.48-.33.86-.86,1.39l-.2.19h1.13v.29Z"/><path class="cls-7" d="M161.89,42.37c0,.88-.31,1.37-.87,1.37s-.82-.48-.83-1.34.36-1.35.87-1.35S161.89,41.54,161.89,42.37Zm-1.36,0c0,.67.2,1.06.51,1.06s.51-.42.51-1.09-.15-1.06-.51-1.06S160.53,41.7,160.53,42.41Z"/><path class="cls-7" d="M162,43.85,163.11,41h.26l-1.08,2.89Z"/><path class="cls-7" d="M163.62,43.29a1.12,1.12,0,0,0,.55.16.5.5,0,0,0,.57-.5c0-.36-.32-.52-.65-.52h-.19v-.26h.19c.25,0,.56-.14.56-.44a.39.39,0,0,0-.44-.4.9.9,0,0,0-.5.18l-.09-.26a1.17,1.17,0,0,1,.66-.2.63.63,0,0,1,.25,1.23h0a.66.66,0,0,1,.56.67.81.81,0,0,1-.91.78,1.24,1.24,0,0,1-.66-.18Z"/><path class="cls-7" d="M173.64,41.42h0l-.44.25-.06-.27.55-.3H174v2.59h-.32Z"/><path class="cls-7" d="M176.55,42.37c0,.88-.32,1.37-.87,1.37s-.82-.48-.83-1.34.36-1.35.87-1.35S176.55,41.54,176.55,42.37Zm-1.36,0c0,.67.2,1.06.51,1.06s.51-.42.51-1.09-.16-1.06-.51-1.06S175.19,41.7,175.19,42.41Z"/><path class="cls-7" d="M176.69,43.85,177.77,41H178L177,43.85Z"/><path class="cls-7" d="M178.93,41.42h0l-.43.25-.07-.27.55-.3h.29v2.59h-.33Z"/><path class="cls-7" d="M181.85,42.37c0,.88-.32,1.37-.88,1.37s-.82-.48-.83-1.34.37-1.35.88-1.35S181.85,41.54,181.85,42.37Zm-1.37,0c0,.67.2,1.06.51,1.06s.52-.42.52-1.09-.16-1.06-.51-1.06S180.48,41.7,180.48,42.41Z"/><path class="cls-7" d="M183.83,42.37c0,.88-.32,1.37-.87,1.37s-.83-.48-.83-1.34.36-1.35.87-1.35S183.83,41.54,183.83,42.37Zm-1.36,0c0,.67.2,1.06.51,1.06s.51-.42.51-1.09-.16-1.06-.51-1.06S182.47,41.7,182.47,42.41Z"/><path class="cls-7" d="M191.55,42.37c0,.88-.31,1.37-.87,1.37s-.82-.48-.83-1.34.36-1.35.87-1.35S191.55,41.54,191.55,42.37Zm-1.36,0c0,.67.2,1.06.51,1.06s.51-.42.51-1.09-.16-1.06-.51-1.06S190.19,41.7,190.19,42.41Z"/><path class="cls-7" d="M191.69,43.85,192.77,41H193L192,43.85Z"/><path class="cls-7" d="M194.25,43.69V43h-1.17v-.24l1.12-1.65h.37v1.61h.35V43h-.35v.7Zm0-1v-.87c0-.13,0-.27,0-.4h0l-.21.38-.62.88h.83Z"/><path class="cls-7" d="M212.42,42.37c0,.88-.31,1.37-.87,1.37s-.82-.48-.83-1.34.37-1.35.87-1.35S212.42,41.54,212.42,42.37Zm-1.36,0c0,.67.2,1.06.51,1.06s.52-.42.52-1.09-.16-1.06-.51-1.06S211.06,41.7,211.06,42.41Z"/><path class="cls-7" d="M212.56,43.85,213.64,41h.26l-1.08,2.89Z"/><path class="cls-7" d="M215.56,41.39h-.95l-.1.67.21,0a1.11,1.11,0,0,1,.54.14.77.77,0,0,1,.36.67.89.89,0,0,1-.94.89,1.19,1.19,0,0,1-.62-.16l.08-.27a1.14,1.14,0,0,0,.54.14.55.55,0,0,0,.59-.56c0-.34-.22-.58-.72-.58a2.86,2.86,0,0,0-.35,0l.16-1.24h1.2Z"/><path class="cls-7" d="M233.3,42.37c0,.88-.32,1.37-.88,1.37s-.82-.48-.83-1.34.37-1.35.88-1.35S233.3,41.54,233.3,42.37Zm-1.37,0c0,.67.2,1.06.51,1.06s.52-.42.52-1.09-.16-1.06-.51-1.06S231.93,41.7,231.93,42.41Z"/><path class="cls-7" d="M233.44,43.85,234.51,41h.27l-1.09,2.89Z"/><path class="cls-7" d="M236.37,41.34a1.14,1.14,0,0,0-.25,0,1,1,0,0,0-.88.92h0a.74.74,0,0,1,.6-.3.76.76,0,0,1,.76.84.86.86,0,0,1-.84.92c-.53,0-.88-.43-.88-1.11a1.64,1.64,0,0,1,.42-1.17,1.37,1.37,0,0,1,.8-.38,1.24,1.24,0,0,1,.25,0Zm-.1,1.5c0-.37-.2-.59-.51-.59a.55.55,0,0,0-.49.32.33.33,0,0,0,0,.15c0,.43.2.75.55.75S236.27,43.21,236.27,42.84Z"/><path class="cls-7" d="M254.17,42.37c0,.88-.32,1.37-.87,1.37s-.83-.48-.83-1.34.36-1.35.87-1.35S254.17,41.54,254.17,42.37Zm-1.36,0c0,.67.2,1.06.51,1.06s.51-.42.51-1.09-.16-1.06-.51-1.06S252.81,41.7,252.81,42.41Z"/><path class="cls-7" d="M254.31,43.85,255.38,41h.27l-1.08,2.89Z"/><path class="cls-7" d="M257.44,41.1v.23l-1.09,2.36H256l1.09-2.3h-1.23V41.1Z"/><path class="cls-7" d="M278.59,43.61a1.7,1.7,0,0,1-.69.12,1.24,1.24,0,0,1-1.28-1.36,1.4,1.4,0,0,1,2-1.29l-.08.28a1.22,1.22,0,0,0-.52-.11,1,1,0,0,0-1,1.11,1,1,0,0,0,1,1.08,1.25,1.25,0,0,0,.55-.11Z"/><path class="cls-7" d="M281.16,42.32A1.25,1.25,0,0,1,280,43.74a1.22,1.22,0,0,1-1.17-1.37A1.26,1.26,0,0,1,280,41,1.21,1.21,0,0,1,281.16,42.32Zm-2,0c0,.58.3,1.09.83,1.09s.83-.5.83-1.12-.27-1.09-.83-1.09S279.14,41.77,279.14,42.36Z"/><path class="cls-7" d="M281.6,43.69V41H282l.83,1.36a9.72,9.72,0,0,1,.47.88h0c0-.36,0-.68,0-1.1V41h.31v2.69h-.34l-.82-1.36a7.31,7.31,0,0,1-.49-.9h0c0,.34,0,.66,0,1.11v1.15Z"/><path class="cls-7" d="M284.1,43.27a1.12,1.12,0,0,0,.6.18c.34,0,.54-.19.54-.46s-.13-.4-.49-.54-.68-.38-.68-.76a.75.75,0,0,1,.84-.73,1.11,1.11,0,0,1,.57.13l-.09.28a1,1,0,0,0-.49-.13c-.36,0-.49.22-.49.41s.15.37.51.52.67.39.67.79-.3.77-.91.77a1.3,1.3,0,0,1-.67-.17Z"/><path class="cls-7" d="M288.27,42.32c0,.93-.54,1.42-1.2,1.42a1.22,1.22,0,0,1-1.17-1.37A1.26,1.26,0,0,1,287.1,41,1.21,1.21,0,0,1,288.27,42.32Zm-2,0c0,.58.31,1.09.83,1.09s.84-.5.84-1.12-.27-1.09-.83-1.09S286.25,41.77,286.25,42.36Z"/><path class="cls-7" d="M288.71,41h.34v2.4h1.11v.29h-1.45Z"/><path class="cls-7" d="M291.89,42.43h-1v1H292v.29h-1.46V41H292v.29h-1.07v.85h1Z"/><path class="cls-7" d="M43.72,12.05c-.78,0-1.56,0-2.35,0-.19,0-.22.06-.21.23a5.42,5.42,0,0,0,.15,1.06,1.84,1.84,0,0,0,1.63,1.44,3.53,3.53,0,0,0,2.8-.57c.09-.06.13,0,.19,0,.3.37.3.36-.11.62a4.07,4.07,0,0,1-2.34.54,4.47,4.47,0,0,1-1-.13,2.27,2.27,0,0,1-1.75-1.81,6.64,6.64,0,0,1,0-2.91,2.43,2.43,0,0,1,2.42-2,5,5,0,0,1,1.39,0,2,2,0,0,1,1.71,1.87,10,10,0,0,1,.09,1.44c0,.16,0,.2-.2.2C45.3,12,44.51,12.05,43.72,12.05Zm-.29-.59H45.5c.13,0,.19,0,.17-.18s0-.49-.07-.73A1.5,1.5,0,0,0,44.27,9.1a3.73,3.73,0,0,0-1.56,0,1.8,1.8,0,0,0-1.38,1.33,4.32,4.32,0,0,0-.14.8c0,.16,0,.2.17.2Z"/><path class="cls-7" d="M34.51,11.94c0-1,0-2.08,0-3.12,0-.16,0-.2.2-.2H37.6a3.4,3.4,0,0,1,.83.09,1.76,1.76,0,0,1,1.43,1.77,3.13,3.13,0,0,1-.07,1,1.77,1.77,0,0,1-1.62,1.42c-.91.1-1.82,0-2.73,0-.32,0-.32,0-.32.32,0,.6,0,1.2,0,1.81,0,.14,0,.18-.18.18-.43,0-.43,0-.43-.42Zm.61-1.15c0,.47,0,.94,0,1.4,0,.11,0,.17.15.17.86,0,1.72,0,2.58,0a1.33,1.33,0,0,0,1.39-1.43v-.18a1.36,1.36,0,0,0-1.45-1.47h-2.5c-.13,0-.17,0-.17.17C35.12,9.88,35.12,10.33,35.12,10.79Z"/><path class="cls-7" d="M26.25,12.81c0-.74,0-1.48,0-2.22a3.43,3.43,0,0,1,.06-.55,1.6,1.6,0,0,1,1.32-1.41,5.37,5.37,0,0,1,2.67,0,1.69,1.69,0,0,1,1.34,1.63c.07.7,0,1.41,0,2.11,0,.89,0,1.78,0,2.67,0,.15,0,.22-.19.21-.45,0-.45,0-.45-.45,0-1.39,0-2.77,0-4.16a2.3,2.3,0,0,0-.05-.45,1.21,1.21,0,0,0-1-1,4.42,4.42,0,0,0-1.88,0,1.34,1.34,0,0,0-1.22,1.51q0,2.17,0,4.35c0,.2,0,.27-.25.26-.37,0-.37,0-.37-.37V12.81Z"/><path class="cls-7" d="M24.6,11.07c0-.75,0-1.49,0-2.24,0-.19.06-.22.23-.22.4,0,.4,0,.4.41,0,1.41,0,2.82,0,4.22a4.18,4.18,0,0,1-.11.79,1.53,1.53,0,0,1-1.18,1.2,5.41,5.41,0,0,1-2.71,0,1.67,1.67,0,0,1-1.39-1.59,7,7,0,0,1-.05-1c0-1.27,0-2.54,0-3.81,0-.17,0-.21.21-.21.43,0,.43,0,.43.42V13a3.54,3.54,0,0,0,.07.73,1.17,1.17,0,0,0,.89,1,4.24,4.24,0,0,0,2.29,0,1.17,1.17,0,0,0,.89-1,6.64,6.64,0,0,0,.06-1.09Z"/><path class="cls-7" d="M18.71,11.79c0,1,0,1.94,0,2.91a2.69,2.69,0,0,1-.11.69,1.57,1.57,0,0,1-1.15,1.14,5.59,5.59,0,0,1-1.47.18c-.14,0-.18-.05-.17-.19,0-.41,0-.41.41-.41a3.08,3.08,0,0,0,.91-.13,1.2,1.2,0,0,0,.94-1.08,4.73,4.73,0,0,0,0-.65V8.83c0-.17,0-.23.21-.22.41,0,.41,0,.41.4v2.78Z"/><path class="cls-7" d="M47.78,12.77v2.3c0,.15,0,.2-.19.2-.44,0-.44,0-.44-.45V10.73a3.48,3.48,0,0,1,.11-.85,1.66,1.66,0,0,1,1.45-1.29,6.3,6.3,0,0,1,1.56-.09c.14,0,.2,0,.2.2,0,.39,0,.39-.38.38a5.18,5.18,0,0,0-1.18.09,1.26,1.26,0,0,0-1.11,1.3c0,.76,0,1.53,0,2.3Z"/><path class="cls-7" d="M33.41,12v3.08c0,.17,0,.23-.21.22-.4,0-.4,0-.4-.41v-6c0-.19,0-.26.24-.25.37,0,.37,0,.37.38Z"/><path class="cls-7" d="M39.32,16.48l-.41,1.23c0,.08,0,.2-.16.19s-.11-.11-.14-.19l-.48-1.49c0-.06-.1-.13,0-.17s.15,0,.19.11c.13.44.28.88.43,1.35.15-.44.28-.86.41-1.27,0-.08,0-.19.16-.2s.14.13.17.21c.13.4.26.8.43,1.2.11-.35.23-.7.34-1,0-.09.07-.18.09-.27s.1-.11.17-.09,0,.1,0,.14c-.16.52-.32,1-.49,1.55,0,.07,0,.16-.14.16s-.12-.08-.14-.16c-.14-.42-.27-.84-.41-1.26Z"/><path class="cls-7" d="M34.1,17.5V16.21c0-.05,0-.13,0-.15s.17,0,.17.1v1.59c0,.06,0,.12-.07.13a.2.2,0,0,1-.2-.09c-.21-.31-.43-.61-.65-.91-.12-.15-.23-.31-.38-.52v1.08c0,.11,0,.23,0,.34s0,.1-.1.1-.11,0-.11-.09V16.14c0-.06,0-.09.07-.09a.24.24,0,0,1,.24.09c.24.35.49.69.74,1Z"/><path class="cls-7" d="M40.76,17a.83.83,0,0,1,.39-.83,1.11,1.11,0,0,1,1.09,0c.41.23.42.64.37,1.05s-.51.81-1.12.72S40.76,17.53,40.76,17ZM41,17c0,.51.24.77.72.77a.67.67,0,0,0,.71-.75.67.67,0,0,0-.72-.76A.64.64,0,0,0,41,17Z"/><path class="cls-7" d="M44.4,17.86a.21.21,0,0,1-.31-.12c0-.1-.12-.18-.16-.28a.47.47,0,0,0-.58-.33c-.11,0-.14.06-.13.16v.45c0,.07,0,.14-.1.14s-.11-.05-.11-.13c0-.52,0-1.05,0-1.57,0-.1,0-.14.13-.14.28,0,.56,0,.84,0a.43.43,0,0,1,.46.39.52.52,0,0,1-.31.64c-.13,0-.13.08-.07.18S44.28,17.65,44.4,17.86Zm-.77-1.62c-.41,0-.41,0-.41.41v.17c0,.11,0,.14.14.13s.35,0,.53,0a.34.34,0,0,0,.33-.39c0-.21-.12-.3-.36-.31Z"/><path class="cls-7" d="M34.75,17c0-.25,0-.5,0-.75s0-.17.15-.17h1c.07,0,.15,0,.15.1s-.09.09-.15.09c-.25,0-.49,0-.73,0s-.14,0-.15.14c0,.45,0,.45.43.45h.43c.08,0,.15,0,.14.1s-.07.09-.13.09h-.71c-.11,0-.15,0-.16.14,0,.53,0,.53.5.53h.43c.07,0,.11,0,.11.09s0,.1-.11.1h-1c-.12,0-.12-.06-.12-.15C34.76,17.48,34.75,17.22,34.75,17Z"/><path class="cls-7" d="M47.13,16a1,1,0,0,1,.58.09s.14,0,.1.12-.08.12-.18.07a1,1,0,0,0-.67-.07c-.14,0-.22.11-.22.25a.24.24,0,0,0,.19.27l.57.13c.33.08.44.22.43.51s-.15.43-.46.5a1.46,1.46,0,0,1-.92-.12s-.14,0-.09-.14.09-.09.18-.05a1.16,1.16,0,0,0,.75.12c.18,0,.32-.1.33-.31s-.13-.28-.3-.32l-.48-.1c-.32-.08-.45-.23-.42-.52s.19-.41.5-.43Z"/><path class="cls-7" d="M46.19,16.06c-.2.21-.36.4-.54.58a.17.17,0,0,0,0,.27c.22.31.43.62.64.95a.24.24,0,0,1-.32-.11c-.17-.27-.36-.53-.55-.81-.22.19-.43.37-.36.7a.56.56,0,0,1,0,.13c0,.07,0,.11-.11.11s-.11,0-.11-.11c0-.53,0-1.07,0-1.6,0-.08,0-.13.12-.13s.1.06.1.13V17a1.56,1.56,0,0,0,.34-.34c.16-.16.32-.33.47-.5S46,16,46.19,16.06Z"/><path class="cls-7" d="M37.16,17.06v.69c0,.07,0,.13-.09.13s-.12,0-.12-.13c0-.44,0-.89,0-1.33,0-.14,0-.2-.18-.18s-.27,0-.4,0-.11,0-.11-.1,0-.1.11-.1q.69,0,1.38,0c.07,0,.1,0,.1.1s0,.1-.1.1-.28,0-.41,0-.2,0-.19.18S37.16,16.85,37.16,17.06Z"/><path class="cls-7" d="M60.05,14.13a1.56,1.56,0,0,0,.78.22c.45,0,.71-.23.71-.57s-.18-.5-.64-.68-.89-.48-.89-.95a1,1,0,0,1,1.09-.92,1.48,1.48,0,0,1,.75.17l-.12.35a1.36,1.36,0,0,0-.64-.16c-.46,0-.64.28-.64.51s.21.47.67.65.86.5.86,1-.38,1-1.18,1a1.76,1.76,0,0,1-.86-.21Z"/><path class="cls-7" d="M62.58,11.33a5,5,0,0,1,.83-.07,1.38,1.38,0,0,1,1,.28.84.84,0,0,1,.26.64A.89.89,0,0,1,64,13v0a.82.82,0,0,1,.49.68,5.26,5.26,0,0,0,.26.92h-.45a4.29,4.29,0,0,1-.22-.8c-.1-.47-.28-.64-.68-.66H63v1.46h-.43ZM63,12.87h.45c.46,0,.76-.26.76-.64s-.32-.63-.78-.63a1.79,1.79,0,0,0-.43,0Z"/><path class="cls-7" d="M67.14,14.66l-.43-.74c-.18-.29-.29-.47-.39-.67h0a7.27,7.27,0,0,1-.37.67l-.4.74H65l1-1.7-1-1.67h.5l.45.79c.12.22.22.39.31.57h0c.1-.2.18-.36.31-.57l.46-.79h.5l-1,1.64,1,1.73Z"/><path class="cls-7" d="M69,11.82h0l-.57.3-.08-.33.71-.38h.37v3.25H69Z"/><path class="cls-7" d="M71.51,11.82h0l-.56.3-.09-.33.71-.38h.38v3.25h-.43Z"/><path class="cls-7" d="M75.28,13c0,1.11-.41,1.72-1.13,1.72s-1.06-.6-1.07-1.68.47-1.69,1.13-1.69S75.28,12,75.28,13Zm-1.76.05c0,.85.26,1.33.66,1.33s.66-.53.66-1.36-.2-1.33-.66-1.33S73.52,12.16,73.52,13.05Z"/></g></g></svg>