<svg xmlns="http://www.w3.org/2000/svg" xmlns:xlink="http://www.w3.org/1999/xlink" viewBox="0 0 358.28 52.72"><defs><style>.cls-1{fill:#4d4c4c;}.cls-2{fill:#282828;}.cls-3{fill:url(#radial-gradient);}.cls-4{fill:url(#radial-gradient-2);}.cls-5{fill:url(#radial-gradient-3);}.cls-6{fill:url(#radial-gradient-4);}.cls-7{fill:url(#radial-gradient-5);}.cls-8{fill:url(#radial-gradient-6);}.cls-9{fill:url(#radial-gradient-7);}.cls-10{fill:url(#radial-gradient-8);}.cls-11{fill:url(#radial-gradient-9);}.cls-12{fill:url(#radial-gradient-10);}.cls-13{fill:url(#radial-gradient-11);}.cls-14{fill:url(#radial-gradient-12);}.cls-15{fill:url(#radial-gradient-13);}.cls-16{fill:url(#radial-gradient-14);}.cls-17{fill:#fff;}.cls-18{fill:#5a5a5a;}</style><radialGradient id="radial-gradient" cx="138.57" cy="24.96" r="1.95" gradientUnits="userSpaceOnUse"><stop offset="0" stop-color="#6cb52d"/><stop offset="1" stop-color="#009640"/></radialGradient><radialGradient id="radial-gradient-2" cx="149.79" cy="24.96" r="1.95" xlink:href="#radial-gradient"/><radialGradient id="radial-gradient-3" cx="161.86" cy="24.96" r="1.95" xlink:href="#radial-gradient"/><radialGradient id="radial-gradient-4" cx="173.9" cy="24.96" r="1.95" xlink:href="#radial-gradient"/><radialGradient id="radial-gradient-5" cx="138.41" cy="34.86" r="1.95" xlink:href="#radial-gradient"/><radialGradient id="radial-gradient-6" cx="149.64" cy="34.86" r="1.95" xlink:href="#radial-gradient"/><radialGradient id="radial-gradient-7" cx="161.7" cy="34.86" r="1.95" xlink:href="#radial-gradient"/><radialGradient id="radial-gradient-8" cx="173.75" cy="34.86" r="1.95" xlink:href="#radial-gradient"/><radialGradient id="radial-gradient-9" cx="186.64" cy="34.86" r="1.95" xlink:href="#radial-gradient"/><radialGradient id="radial-gradient-10" cx="197.86" cy="34.86" r="1.95" xlink:href="#radial-gradient"/><radialGradient id="radial-gradient-11" cx="209.93" cy="34.86" r="1.95" xlink:href="#radial-gradient"/><radialGradient id="radial-gradient-12" cx="221.98" cy="34.86" r="1.95" xlink:href="#radial-gradient"/><radialGradient id="radial-gradient-13" cx="114.96" cy="24.96" r="1.95" xlink:href="#radial-gradient"/><radialGradient id="radial-gradient-14" cx="114.96" cy="34.86" r="1.95" xlink:href="#radial-gradient"/></defs><g id="Layer_2" data-name="Layer 2"><g id="Layer_1-2" data-name="Layer 1"><rect class="cls-1" width="358.28" height="52.72"/><rect class="cls-2" x="10.28" y="5.82" width="339.84" height="40.32" rx="4.08"/><circle class="cls-3" cx="138.57" cy="24.96" r="1.95"/><circle class="cls-4" cx="149.79" cy="24.96" r="1.95"/><circle class="cls-5" cx="161.86" cy="24.96" r="1.95"/><circle class="cls-6" cx="173.9" cy="24.96" r="1.95"/><circle class="cls-7" cx="138.41" cy="34.86" r="1.95"/><circle class="cls-8" cx="149.64" cy="34.86" r="1.95"/><circle class="cls-9" cx="161.7" cy="34.86" r="1.95"/><circle class="cls-10" cx="173.75" cy="34.86" r="1.95"/><circle class="cls-11" cx="186.64" cy="34.86" r="1.95"/><circle class="cls-12" cx="197.86" cy="34.86" r="1.95"/><circle class="cls-13" cx="209.93" cy="34.86" r="1.95"/><circle class="cls-14" cx="221.98" cy="34.86" r="1.95"/><circle class="cls-15" cx="114.96" cy="24.96" r="1.95"/><circle class="cls-16" cx="114.96" cy="34.86" r="1.95"/><path class="cls-17" d="M18.44,34.86V32.11h-1v-.56h2.63v.56h-1v2.75Z"/><path class="cls-17" d="M20.54,34.86V31.58h.67V34.3h1.66v.56Z"/><path class="cls-17" d="M23.27,34v-.64h1.25V34Z"/><path class="cls-17" d="M24.72,33.78l.65-.06a.78.78,0,0,0,.24.48.69.69,0,0,0,.49.16.77.77,0,0,0,.49-.14.43.43,0,0,0,.16-.32.27.27,0,0,0-.07-.2.54.54,0,0,0-.24-.14l-.54-.15a1.76,1.76,0,0,1-.75-.33.83.83,0,0,1-.31-.66.88.88,0,0,1,.56-.81,1.6,1.6,0,0,1,.65-.12,1.35,1.35,0,0,1,.94.28,1,1,0,0,1,.33.73l-.67,0a.52.52,0,0,0-.18-.36.64.64,0,0,0-.42-.11.76.76,0,0,0-.46.12.24.24,0,0,0-.11.2.26.26,0,0,0,.1.2,1.7,1.7,0,0,0,.62.22,3.72,3.72,0,0,1,.72.24.94.94,0,0,1,.37.34,1.06,1.06,0,0,1,.13.53,1,1,0,0,1-.61.9,1.87,1.87,0,0,1-.72.12,1.43,1.43,0,0,1-1-.29A1.25,1.25,0,0,1,24.72,33.78Z"/><path class="cls-17" d="M28,34.86V31.55h2.27v.56h-1.6v.78H30v.56H28.66v1.41Z"/><path class="cls-17" d="M32.3,34.86h-.64V32.47a2.12,2.12,0,0,1-.82.48v-.58a1.52,1.52,0,0,0,.54-.31,1.14,1.14,0,0,0,.4-.53h.52Z"/><path class="cls-17" d="M34.32,31.53a.9.9,0,0,1,.75.35,2.16,2.16,0,0,1,.33,1.35,2.18,2.18,0,0,1-.33,1.35.9.9,0,0,1-.75.34,1,1,0,0,1-.78-.37,2.19,2.19,0,0,1-.3-1.33,2.19,2.19,0,0,1,.33-1.35A.92.92,0,0,1,34.32,31.53Zm0,.53a.38.38,0,0,0-.21.07.56.56,0,0,0-.14.27,3.93,3.93,0,0,0-.06.83A3.54,3.54,0,0,0,34,34a.64.64,0,0,0,.14.29.31.31,0,0,0,.21.07.33.33,0,0,0,.21-.07.57.57,0,0,0,.14-.26,4,4,0,0,0,.06-.83,3.48,3.48,0,0,0-.06-.8.59.59,0,0,0-.15-.3A.35.35,0,0,0,34.32,32.06Z"/><path class="cls-17" d="M36.89,31.53a.91.91,0,0,1,.76.35A2.23,2.23,0,0,1,38,33.23a2.25,2.25,0,0,1-.32,1.35.9.9,0,0,1-.76.34,1,1,0,0,1-.78-.37,2.27,2.27,0,0,1-.29-1.33,2.27,2.27,0,0,1,.32-1.35A.92.92,0,0,1,36.89,31.53Zm0,.53a.37.37,0,0,0-.2.07.49.49,0,0,0-.14.27,3.22,3.22,0,0,0-.07.83,3.54,3.54,0,0,0,.06.8.55.55,0,0,0,.15.29.31.31,0,0,0,.2.07.31.31,0,0,0,.21-.07.49.49,0,0,0,.14-.26,3.83,3.83,0,0,0,.07-.83,3.48,3.48,0,0,0-.06-.8.59.59,0,0,0-.15-.3A.38.38,0,0,0,36.89,32.06Z"/><path class="cls-17" d="M39.47,31.53a.9.9,0,0,1,.75.35,2.16,2.16,0,0,1,.33,1.35,2.18,2.18,0,0,1-.33,1.35.9.9,0,0,1-.75.34,1,1,0,0,1-.78-.37,2.19,2.19,0,0,1-.3-1.33,2.19,2.19,0,0,1,.33-1.35A.92.92,0,0,1,39.47,31.53Zm0,.53a.38.38,0,0,0-.21.07.56.56,0,0,0-.14.27,3.93,3.93,0,0,0-.06.83,3.54,3.54,0,0,0,.06.8.64.64,0,0,0,.14.29.35.35,0,0,0,.42,0,.57.57,0,0,0,.14-.26,4,4,0,0,0,.06-.83,3.48,3.48,0,0,0-.06-.8.59.59,0,0,0-.15-.3A.35.35,0,0,0,39.47,32.06Z"/><path class="cls-17" d="M41.11,34.86V31.55h1.08a3.39,3.39,0,0,1,.79.05.91.91,0,0,1,.48.32,1,1,0,0,1,.19.65,1.13,1.13,0,0,1-.11.51.91.91,0,0,1-.28.33.88.88,0,0,1-.35.15,3.13,3.13,0,0,1-.69,0h-.44v1.25Zm.67-2.75v.94h.37a2,2,0,0,0,.53,0,.56.56,0,0,0,.21-.17.43.43,0,0,0,.07-.25.4.4,0,0,0-.11-.3.46.46,0,0,0-.26-.15,4.42,4.42,0,0,0-.49,0Z"/><path class="cls-17" d="M18.31,40.25a.71.71,0,0,1-.26-.21.61.61,0,0,1-.08-.3.58.58,0,0,1,.19-.45.9.9,0,0,1,1.08,0,.58.58,0,0,1,.19.45.61.61,0,0,1-.08.3.64.64,0,0,1-.25.21.59.59,0,0,1,.41.6.73.73,0,0,1-.21.54.78.78,0,0,1-.58.22.85.85,0,0,1-.55-.18.66.66,0,0,1-.26-.56A.75.75,0,0,1,18,40.5.65.65,0,0,1,18.31,40.25Zm.06.57a.4.4,0,0,0,.1.3.32.32,0,0,0,.24.11.3.3,0,0,0,.24-.1.4.4,0,0,0,.1-.3.37.37,0,0,0-.1-.28.3.3,0,0,0-.24-.1.32.32,0,0,0-.26.11A.5.5,0,0,0,18.37,40.82Zm0-1a.29.29,0,0,0,.08.22.32.32,0,0,0,.42,0,.26.26,0,0,0,.08-.22.25.25,0,0,0-.08-.21.28.28,0,0,0-.2-.08.31.31,0,0,0-.22.08A.32.32,0,0,0,18.41,39.77Z"/><path class="cls-17" d="M19.86,40.91v-.47h.92v.47Z"/><path class="cls-17" d="M21.05,41.56V39.12h.79a2.47,2.47,0,0,1,.59,0,.59.59,0,0,1,.35.24.77.77,0,0,1,.14.47.86.86,0,0,1-.08.38.7.7,0,0,1-.21.24.72.72,0,0,1-.25.12,3.36,3.36,0,0,1-.52,0h-.32v.92Zm.49-2v.7h.27a1.4,1.4,0,0,0,.39,0,.4.4,0,0,0,.16-.12.41.41,0,0,0,.05-.19.29.29,0,0,0-.08-.22.33.33,0,0,0-.19-.11l-.36,0Z"/><path class="cls-17" d="M23.21,40.65a1,1,0,0,1,.12-.45.85.85,0,0,1,.32-.33.94.94,0,0,1,.47-.12.87.87,0,0,1,.66.27.89.89,0,0,1,.26.65.94.94,0,0,1-.26.67.85.85,0,0,1-.65.26,1,1,0,0,1-.47-.11.78.78,0,0,1-.33-.32A1,1,0,0,1,23.21,40.65Zm.48,0a.6.6,0,0,0,.13.4.37.37,0,0,0,.31.14.36.36,0,0,0,.3-.14.55.55,0,0,0,.13-.4.54.54,0,0,0-.13-.4.36.36,0,0,0-.3-.14.37.37,0,0,0-.31.14A.58.58,0,0,0,23.69,40.68Z"/><path class="cls-17" d="M25.85,41.56h-.46V39.79h.43v.26a.74.74,0,0,1,.2-.24.36.36,0,0,1,.2-.06.59.59,0,0,1,.31.09l-.14.41a.46.46,0,0,0-.22-.08.25.25,0,0,0-.17.06.34.34,0,0,0-.11.19,3.41,3.41,0,0,0,0,.6Z"/><path class="cls-17" d="M27.54,39.79v.38h-.32v.71c0,.14,0,.23,0,.25s0,0,.05.06a.09.09,0,0,0,.07,0,.59.59,0,0,0,.19,0l0,.36a.87.87,0,0,1-.37.07.51.51,0,0,1-.22,0,.34.34,0,0,1-.22-.29,2.65,2.65,0,0,1,0-.33v-.77h-.22v-.38h.22v-.35l.46-.27v.62Z"/><path class="cls-17" d="M29.92,41.56h-.47V39.8a1.55,1.55,0,0,1-.61.35v-.42a1.4,1.4,0,0,0,.4-.23.94.94,0,0,0,.3-.39h.38Z"/><path class="cls-17" d="M31.41,39.11a.69.69,0,0,1,.55.25,1.63,1.63,0,0,1,.24,1,1.65,1.65,0,0,1-.24,1,.68.68,0,0,1-.55.24.72.72,0,0,1-.58-.27,1.66,1.66,0,0,1-.22-1,1.6,1.6,0,0,1,.24-1A.68.68,0,0,1,31.41,39.11Zm0,.39a.3.3,0,0,0-.16,0,.46.46,0,0,0-.1.2,2.74,2.74,0,0,0,0,.61,2.47,2.47,0,0,0,0,.59c0,.11.06.18.11.21a.2.2,0,0,0,.15.06.24.24,0,0,0,.15-.06.34.34,0,0,0,.1-.19,2.74,2.74,0,0,0,.05-.61,2.64,2.64,0,0,0,0-.59.49.49,0,0,0-.11-.22A.3.3,0,0,0,31.41,39.5Z"/><path class="cls-17" d="M32.36,41.6,33,39.08h.35l-.61,2.52Z"/><path class="cls-17" d="M34.66,41.56h-.47V39.8a1.51,1.51,0,0,1-.6.35v-.42A1.36,1.36,0,0,0,34,39.5a.86.86,0,0,0,.3-.39h.38Z"/><path class="cls-17" d="M36.15,39.11a.67.67,0,0,1,.55.25,1.63,1.63,0,0,1,.24,1,1.65,1.65,0,0,1-.24,1,.66.66,0,0,1-.55.24.72.72,0,0,1-.58-.27,1.67,1.67,0,0,1-.21-1,1.6,1.6,0,0,1,.24-1A.64.64,0,0,1,36.15,39.11Zm0,.39a.25.25,0,0,0-.15,0,.38.38,0,0,0-.11.2,2.91,2.91,0,0,0,0,.61,2.64,2.64,0,0,0,0,.59c0,.11.06.18.11.21a.22.22,0,0,0,.3,0,.29.29,0,0,0,.1-.19,2.24,2.24,0,0,0,.05-.61,2.64,2.64,0,0,0,0-.59.49.49,0,0,0-.11-.22A.25.25,0,0,0,36.15,39.5Z"/><path class="cls-17" d="M38.05,39.11a.69.69,0,0,1,.55.25,1.63,1.63,0,0,1,.24,1,1.65,1.65,0,0,1-.24,1,.68.68,0,0,1-.55.24.72.72,0,0,1-.58-.27,1.66,1.66,0,0,1-.22-1,1.6,1.6,0,0,1,.24-1A.68.68,0,0,1,38.05,39.11Zm0,.39a.3.3,0,0,0-.16,0,.46.46,0,0,0-.1.2,2.74,2.74,0,0,0,0,.61,2.47,2.47,0,0,0,0,.59c0,.11.06.18.11.21a.2.2,0,0,0,.15.06.24.24,0,0,0,.15-.06.34.34,0,0,0,.1-.19,2.74,2.74,0,0,0,.05-.61,2.64,2.64,0,0,0,0-.59.49.49,0,0,0-.11-.22A.3.3,0,0,0,38.05,39.5Z"/><path class="cls-17" d="M39.25,41.56V39.12H40l.44,1.67.44-1.67h.74v2.44h-.46V39.64l-.48,1.92h-.48l-.48-1.92v1.92Z"/><path class="cls-17" d="M42.08,41.56V39.12h.46V40a.7.7,0,0,1,.52-.25.68.68,0,0,1,.53.24,1,1,0,0,1,.21.67,1,1,0,0,1-.21.7.69.69,0,0,1-.53.24.66.66,0,0,1-.3-.07.77.77,0,0,1-.25-.23v.26Zm.46-.92a.76.76,0,0,0,.09.41.37.37,0,0,0,.32.18.32.32,0,0,0,.26-.13.62.62,0,0,0,.11-.42.63.63,0,0,0-.11-.43.34.34,0,0,0-.28-.14.39.39,0,0,0-.28.13A.64.64,0,0,0,42.54,40.64Z"/><path class="cls-17" d="M44.17,39.79h.43v.26a.77.77,0,0,1,.23-.21.62.62,0,0,1,.32-.09.67.67,0,0,1,.53.25,1,1,0,0,1,.21.67,1,1,0,0,1-.22.69.66.66,0,0,1-.52.24.6.6,0,0,1-.27-.06.91.91,0,0,1-.25-.19v.89h-.46Zm.46.86a.68.68,0,0,0,.12.44.37.37,0,0,0,.28.14.35.35,0,0,0,.28-.13.7.7,0,0,0,.1-.43.61.61,0,0,0-.11-.41.33.33,0,0,0-.27-.14.37.37,0,0,0-.29.14A.6.6,0,0,0,44.63,40.65Z"/><path class="cls-17" d="M46.1,41.06l.47-.07a.31.31,0,0,0,.12.2.4.4,0,0,0,.26.08.48.48,0,0,0,.27-.07.15.15,0,0,0,.06-.13.11.11,0,0,0,0-.08.34.34,0,0,0-.16-.07,2.8,2.8,0,0,1-.72-.22.46.46,0,0,1-.21-.4.5.5,0,0,1,.18-.39.9.9,0,0,1,.57-.16,1,1,0,0,1,.54.12.63.63,0,0,1,.24.35l-.44.08a.28.28,0,0,0-.11-.15.36.36,0,0,0-.22-.06.56.56,0,0,0-.27,0,.14.14,0,0,0,0,.1.09.09,0,0,0,0,.08,1.69,1.69,0,0,0,.44.13,1.37,1.37,0,0,1,.52.21.44.44,0,0,1,.15.35.56.56,0,0,1-.2.42,1,1,0,0,1-.6.17,1.06,1.06,0,0,1-.58-.14A.66.66,0,0,1,46.1,41.06Z"/><path class="cls-17" d="M49.11,39.12H50a1.86,1.86,0,0,1,.47.05.84.84,0,0,1,.36.22,1.07,1.07,0,0,1,.24.4,1.89,1.89,0,0,1,.08.58,1.62,1.62,0,0,1-.08.52,1.15,1.15,0,0,1-.26.43.78.78,0,0,1-.35.19,1.26,1.26,0,0,1-.43.05h-.93Zm.49.41v1.62H50l.3,0a.54.54,0,0,0,.2-.1.66.66,0,0,0,.13-.24,1.75,1.75,0,0,0,0-.45,1.58,1.58,0,0,0,0-.43.69.69,0,0,0-.14-.24.55.55,0,0,0-.23-.11,1.76,1.76,0,0,0-.41,0Z"/><path class="cls-17" d="M52.6,41l.46.08a.76.76,0,0,1-.28.39.83.83,0,0,1-.49.13.8.8,0,0,1-.68-.3,1,1,0,0,1-.17-.61,1,1,0,0,1,.23-.69.82.82,0,0,1,1.2,0,1.17,1.17,0,0,1,.22.79H51.91a.55.55,0,0,0,.12.33.37.37,0,0,0,.27.11.28.28,0,0,0,.18-.06A.39.39,0,0,0,52.6,41Zm0-.47a.46.46,0,0,0-.1-.31.34.34,0,0,0-.5,0,.45.45,0,0,0-.1.31Z"/><path class="cls-17" d="M53.3,41.06l.47-.07a.29.29,0,0,0,.13.2.37.37,0,0,0,.25.08.55.55,0,0,0,.28-.07.15.15,0,0,0,.06-.13.09.09,0,0,0,0-.08s-.07-.05-.15-.07a2.8,2.8,0,0,1-.72-.22.46.46,0,0,1-.21-.4.5.5,0,0,1,.18-.39.87.87,0,0,1,.56-.16.94.94,0,0,1,.54.12.65.65,0,0,1,.25.35l-.44.08a.28.28,0,0,0-.11-.15.37.37,0,0,0-.23-.06.54.54,0,0,0-.26,0,.12.12,0,0,0-.06.1.1.1,0,0,0,.05.08,1.55,1.55,0,0,0,.44.13,1.37,1.37,0,0,1,.52.21A.44.44,0,0,1,55,41a.54.54,0,0,1-.21.42.91.91,0,0,1-.6.17,1,1,0,0,1-.57-.14A.72.72,0,0,1,53.3,41.06Z"/><path class="cls-17" d="M55.35,41.56V39.12h.47v1.3l.55-.63h.57l-.6.65L57,41.56h-.51L56,40.77l-.22.23v.56Z"/><path class="cls-17" d="M58.08,39.79v.38h-.32v1s0,0,.05.06a.1.1,0,0,0,.08,0,.62.62,0,0,0,.18,0l0,.36a.84.84,0,0,1-.37.07.51.51,0,0,1-.22,0,.3.3,0,0,1-.15-.11.38.38,0,0,1-.07-.18,2.65,2.65,0,0,1,0-.33v-.77h-.22v-.38h.22v-.35l.47-.27v.62Z"/><path class="cls-17" d="M58.29,40.65a1,1,0,0,1,.12-.45.78.78,0,0,1,.32-.33.94.94,0,0,1,.47-.12.87.87,0,0,1,.66.27.89.89,0,0,1,.26.65.94.94,0,0,1-.26.67.85.85,0,0,1-.65.26,1,1,0,0,1-.47-.11.73.73,0,0,1-.33-.32A1,1,0,0,1,58.29,40.65Zm.48,0a.55.55,0,0,0,.13.4.36.36,0,0,0,.3.14.37.37,0,0,0,.31-.14.6.6,0,0,0,.13-.4.58.58,0,0,0-.13-.4.37.37,0,0,0-.31-.14.36.36,0,0,0-.3.14A.54.54,0,0,0,58.77,40.68Z"/><path class="cls-17" d="M60.47,39.79h.44v.26a.59.59,0,0,1,.23-.21.57.57,0,0,1,.32-.09A.65.65,0,0,1,62,40a1,1,0,0,1,.22.67,1.06,1.06,0,0,1-.22.69.67.67,0,0,1-.52.24.6.6,0,0,1-.27-.06.79.79,0,0,1-.25-.19v.89h-.47Zm.46.86a.68.68,0,0,0,.12.44.38.38,0,0,0,.29.14.32.32,0,0,0,.27-.13.69.69,0,0,0,.11-.43.67.67,0,0,0-.11-.41.37.37,0,0,0-.28-.14.35.35,0,0,0-.28.14A.55.55,0,0,0,60.93,40.65Z"/><path class="cls-17" d="M63.39,40.77l.48-.05a.62.62,0,0,0,.18.36.57.57,0,0,0,.36.11.53.53,0,0,0,.36-.1.31.31,0,0,0,.12-.24.24.24,0,0,0,0-.14.5.5,0,0,0-.18-.11l-.4-.11a1.18,1.18,0,0,1-.55-.24.64.64,0,0,1-.23-.49.66.66,0,0,1,.11-.35.68.68,0,0,1,.3-.25,1.42,1.42,0,0,1,.48-.08,1.08,1.08,0,0,1,.7.2.76.76,0,0,1,.24.54l-.49,0a.41.41,0,0,0-.14-.27.52.52,0,0,0-.31-.08.57.57,0,0,0-.34.09.16.16,0,0,0-.08.15.21.21,0,0,0,.08.15,1.4,1.4,0,0,0,.45.16,2.54,2.54,0,0,1,.53.17.73.73,0,0,1,.27.25.71.71,0,0,1,.1.39.75.75,0,0,1-.12.4.64.64,0,0,1-.33.27,1.36,1.36,0,0,1-.53.09,1,1,0,0,1-.71-.22A1,1,0,0,1,63.39,40.77Z"/><path class="cls-17" d="M66.12,41.56l-.56-1.77H66L66.35,41l.3-1.16h.45L67.4,41l.34-1.16h.46l-.57,1.77h-.45l-.3-1.13-.3,1.13Z"/><path class="cls-17" d="M68.45,39.55v-.43h.46v.43Zm0,2V39.79h.46v1.77Z"/><path class="cls-17" d="M70.2,39.79v.38h-.32v.71c0,.14,0,.23,0,.25s0,0,0,.06a.09.09,0,0,0,.07,0,.59.59,0,0,0,.19,0l0,.36a.87.87,0,0,1-.37.07.59.59,0,0,1-.23,0,.31.31,0,0,1-.14-.11.3.3,0,0,1-.07-.18,2.16,2.16,0,0,1,0-.33v-.77H69.2v-.38h.21v-.35l.47-.27v.62Z"/><path class="cls-17" d="M72.07,40.32l-.46.08a.31.31,0,0,0-.11-.21.33.33,0,0,0-.21-.07.35.35,0,0,0-.28.12.63.63,0,0,0-.1.41.69.69,0,0,0,.1.44.35.35,0,0,0,.29.13.32.32,0,0,0,.22-.07.57.57,0,0,0,.12-.26l.46.07a.83.83,0,0,1-.28.48.85.85,0,0,1-.54.16.81.81,0,0,1-.62-.24,1.12,1.12,0,0,1,0-1.36.82.82,0,0,1,.62-.25.89.89,0,0,1,.52.14A.76.76,0,0,1,72.07,40.32Z"/><path class="cls-17" d="M72.89,39.12V40a.68.68,0,0,1,.54-.27.73.73,0,0,1,.3.06.51.51,0,0,1,.19.16.4.4,0,0,1,.09.2,1.6,1.6,0,0,1,0,.36v1h-.47v-.93a1.19,1.19,0,0,0,0-.35.27.27,0,0,0-.09-.12.31.31,0,0,0-.17,0,.37.37,0,0,0-.21.06.28.28,0,0,0-.13.17,1,1,0,0,0,0,.34v.88h-.46V39.12Z"/><path class="cls-17" d="M75.79,41.56l-.56-1.77h.45L76,41l.31-1.16h.45l.3,1.16.33-1.16h.47l-.57,1.77h-.45l-.31-1.13-.3,1.13Z"/><path class="cls-17" d="M78.11,39.55v-.43h.47v.43Zm0,2V39.79h.47v1.77Z"/><path class="cls-17" d="M79.87,39.79v.38h-.32v.71a1.23,1.23,0,0,0,0,.25.09.09,0,0,0,0,.06.11.11,0,0,0,.08,0,.67.67,0,0,0,.19,0l0,.36a.87.87,0,0,1-.37.07.59.59,0,0,1-.23,0,.3.3,0,0,1-.15-.11.38.38,0,0,1-.06-.18,2.16,2.16,0,0,1,0-.33v-.77h-.21v-.38h.21v-.35l.47-.27v.62Z"/><path class="cls-17" d="M80.66,39.12V40a.68.68,0,0,1,.54-.27.73.73,0,0,1,.3.06.51.51,0,0,1,.19.16.4.4,0,0,1,.09.2,1.6,1.6,0,0,1,0,.36v1h-.47v-.93a1.19,1.19,0,0,0,0-.35.27.27,0,0,0-.09-.12.31.31,0,0,0-.17,0,.37.37,0,0,0-.21.06.28.28,0,0,0-.13.17,1,1,0,0,0,0,.34v.88h-.47V39.12Z"/><path class="cls-17" d="M84.05,41.56v-.49h-1v-.41l1.06-1.55h.39v1.55h.3v.41h-.3v.49Zm0-.9v-.83l-.57.83Z"/><path class="cls-17" d="M85.07,40.91v-.47H86v.47Z"/><path class="cls-17" d="M86.26,41.56V39.12h.8a2.37,2.37,0,0,1,.58,0,.56.56,0,0,1,.35.24.72.72,0,0,1,.15.47.74.74,0,0,1-.09.38.68.68,0,0,1-.2.24.76.76,0,0,1-.26.12,3.3,3.3,0,0,1-.51,0h-.32v.92Zm.5-2v.7H87a1.52,1.52,0,0,0,.39,0,.44.44,0,0,0,.15-.12.34.34,0,0,0,0-.41.36.36,0,0,0-.2-.11l-.35,0Z"/><path class="cls-17" d="M88.43,40.65a1.06,1.06,0,0,1,.11-.45.87.87,0,0,1,.33-.33.94.94,0,0,1,.47-.12A.87.87,0,0,1,90,40a.88.88,0,0,1,.25.65.93.93,0,0,1-.25.67.87.87,0,0,1-.66.26,1,1,0,0,1-.46-.11.75.75,0,0,1-.34-.32A1.14,1.14,0,0,1,88.43,40.65Zm.48,0a.6.6,0,0,0,.12.4.39.39,0,0,0,.31.14.38.38,0,0,0,.31-.14.6.6,0,0,0,.12-.4.58.58,0,0,0-.12-.4.38.38,0,0,0-.31-.14.39.39,0,0,0-.31.14A.58.58,0,0,0,88.91,40.68Z"/><path class="cls-17" d="M91.07,41.56H90.6V39.79H91v.26a.74.74,0,0,1,.2-.24.34.34,0,0,1,.2-.06.59.59,0,0,1,.31.09l-.15.41a.42.42,0,0,0-.22-.08.23.23,0,0,0-.16.06.29.29,0,0,0-.11.19,2.63,2.63,0,0,0,0,.6Z"/><path class="cls-17" d="M92.76,39.79v.38h-.32v.71a1.23,1.23,0,0,0,0,.25.09.09,0,0,0,0,.06.11.11,0,0,0,.08,0,.67.67,0,0,0,.19,0l0,.36a.87.87,0,0,1-.37.07.56.56,0,0,1-.23,0,.3.3,0,0,1-.15-.11.38.38,0,0,1-.06-.18,2.16,2.16,0,0,1,0-.33v-.77h-.21v-.38H92v-.35l.47-.27v.62Z"/><path class="cls-17" d="M94,41.56V39.12h.79a2.37,2.37,0,0,1,.58,0,.61.61,0,0,1,.36.24.77.77,0,0,1,.14.47.86.86,0,0,1-.08.38.83.83,0,0,1-.21.24.76.76,0,0,1-.26.12,3.3,3.3,0,0,1-.51,0h-.32v.92Zm.49-2v.7h.27a1.52,1.52,0,0,0,.39,0,.36.36,0,0,0,.15-.12.34.34,0,0,0,0-.41.36.36,0,0,0-.2-.11,2.28,2.28,0,0,0-.35,0Z"/><path class="cls-17" d="M96.2,40.65a1,1,0,0,1,.12-.45.78.78,0,0,1,.32-.33.94.94,0,0,1,.47-.12.87.87,0,0,1,.66.27.89.89,0,0,1,.26.65.94.94,0,0,1-.26.67.87.87,0,0,1-.65.26,1,1,0,0,1-.47-.11.68.68,0,0,1-.33-.32A1,1,0,0,1,96.2,40.65Zm.48,0a.55.55,0,0,0,.13.4.36.36,0,0,0,.3.14.37.37,0,0,0,.31-.14.6.6,0,0,0,.12-.4.58.58,0,0,0-.12-.4.37.37,0,0,0-.31-.14.36.36,0,0,0-.3.14A.54.54,0,0,0,96.68,40.68Z"/><path class="cls-17" d="M98.4,41.56V39.12h1.81v.41H98.89v.55h1.23v.41H98.89v.66h1.36v.41Z"/><path class="cls-17" d="M101.2,41.21v-.63h-.64v-.44h.64V39.5h.43v.64h.64v.44h-.64v.63Z"/><path class="cls-17" d="M107.45,21.56v-2.5h.81a2.52,2.52,0,0,1,.6,0,.56.56,0,0,1,.36.24.77.77,0,0,1,.15.49.74.74,0,0,1-.09.38.58.58,0,0,1-.21.25.68.68,0,0,1-.26.12,3.36,3.36,0,0,1-.52,0H108v.95Zm.51-2.08v.71h.27a1.16,1.16,0,0,0,.4,0,.4.4,0,0,0,.16-.12.34.34,0,0,0,.06-.2.33.33,0,0,0-.08-.22.33.33,0,0,0-.2-.11l-.37,0Z"/><path class="cls-17" d="M109.67,20.63a1,1,0,0,1,.12-.47.77.77,0,0,1,.33-.34,1.06,1.06,0,0,1,.48-.11.88.88,0,0,1,.67.26.91.91,0,0,1,.27.68.93.93,0,0,1-.27.68.9.9,0,0,1-.67.27,1,1,0,0,1-.47-.12.71.71,0,0,1-.34-.32A1.12,1.12,0,0,1,109.67,20.63Zm.49,0a.56.56,0,0,0,.13.41.39.39,0,0,0,.31.15.41.41,0,0,0,.32-.15.76.76,0,0,0,0-.82.4.4,0,0,0-.32-.14.38.38,0,0,0-.31.14A.56.56,0,0,0,110.16,20.65Z"/><path class="cls-17" d="M111.91,21.56v-2.5h1.86v.42h-1.35V20h1.25v.43h-1.25v.68h1.39v.42Z"/><path class="cls-17" d="M115.2,21.56v-2.5H116l.45,1.7.45-1.7h.76v2.5h-.47v-2l-.5,2h-.48l-.5-2v2Z"/><path class="cls-17" d="M120.37,21.56h-.55l-.21-.57h-1l-.21.57h-.53l1-2.5h.53Zm-.93-1-.34-.93-.34.93Z"/><path class="cls-17" d="M120.39,21.56l.85-1.31-.77-1.19h.59l.5.8.49-.8h.58l-.77,1.21.85,1.29h-.61l-.55-.87-.56.87Z"/><path class="cls-17" d="M110,41.56v-2.5h.81a3.23,3.23,0,0,1,.6,0,.68.68,0,0,1,.36.25.73.73,0,0,1,.15.48.75.75,0,0,1-.09.39.58.58,0,0,1-.21.25.76.76,0,0,1-.26.12,3.51,3.51,0,0,1-.53,0h-.32v.94Zm.51-2.07v.71h.27a1.55,1.55,0,0,0,.4,0,.34.34,0,0,0,.16-.13.31.31,0,0,0,.06-.19.28.28,0,0,0-.09-.22.37.37,0,0,0-.2-.12h-.6Z"/><path class="cls-17" d="M112.16,40.63a1,1,0,0,1,.12-.46.8.8,0,0,1,.34-.34,1,1,0,0,1,.48-.12.91.91,0,0,1,.93.94.94.94,0,0,1-.26.68.9.9,0,0,1-.67.27,1,1,0,0,1-.47-.11.75.75,0,0,1-.35-.33A1.07,1.07,0,0,1,112.16,40.63Zm.5,0a.61.61,0,0,0,.12.41.4.4,0,0,0,.32.14.38.38,0,0,0,.31-.14.71.71,0,0,0,0-.82.39.39,0,0,0-.31-.15.41.41,0,0,0-.32.15A.61.61,0,0,0,112.66,40.66Z"/><path class="cls-17" d="M114.74,41.56l-.57-1.81h.47l.34,1.19.31-1.19h.46l.3,1.19.35-1.19h.47l-.58,1.81h-.46l-.31-1.16-.31,1.16Z"/><path class="cls-17" d="M118.17,41l.48.08a.8.8,0,0,1-.29.4.89.89,0,0,1-.5.13.83.83,0,0,1-.7-.3,1.07,1.07,0,0,1-.18-.63,1,1,0,0,1,.24-.7.76.76,0,0,1,.59-.26.81.81,0,0,1,.64.27,1.15,1.15,0,0,1,.22.82h-1.2a.55.55,0,0,0,.12.33.36.36,0,0,0,.28.12.24.24,0,0,0,.18-.07A.33.33,0,0,0,118.17,41Zm0-.49a.46.46,0,0,0-.11-.31.34.34,0,0,0-.25-.11.36.36,0,0,0-.26.11.45.45,0,0,0-.1.31Z"/><path class="cls-17" d="M119.52,41.56H119V39.75h.45V40a.74.74,0,0,1,.2-.24.37.37,0,0,1,.21-.06.65.65,0,0,1,.32.09l-.15.42a.46.46,0,0,0-.23-.08.27.27,0,0,0-.17.06.4.4,0,0,0-.11.2,3.32,3.32,0,0,0,0,.6Z"/><path class="cls-17" d="M138.78,41.67h-.63v-2.4a2.12,2.12,0,0,1-.82.48v-.57a2.21,2.21,0,0,0,.54-.31,1.19,1.19,0,0,0,.4-.53h.51Z"/><path class="cls-17" d="M152.17,41.08v.59h-2.23a1.63,1.63,0,0,1,.22-.64,4.12,4.12,0,0,1,.72-.79,4.11,4.11,0,0,0,.52-.55.67.67,0,0,0,.13-.38.41.41,0,0,0-.11-.33.42.42,0,0,0-.32-.12.41.41,0,0,0-.31.12.61.61,0,0,0-.14.4l-.63-.06a1,1,0,0,1,.35-.75,1.16,1.16,0,0,1,.75-.23,1.1,1.1,0,0,1,.77.26.87.87,0,0,1,.28.66,1.26,1.26,0,0,1-.08.43,1.92,1.92,0,0,1-.25.42,4,4,0,0,1-.42.42c-.2.19-.33.31-.38.37a1,1,0,0,0-.13.18Z"/><path class="cls-17" d="M160.3,40.79l.61-.08a.55.55,0,0,0,.16.36.46.46,0,0,0,.31.13.43.43,0,0,0,.33-.15.6.6,0,0,0,.14-.41.53.53,0,0,0-.13-.38.43.43,0,0,0-.31-.14,1.25,1.25,0,0,0-.3.05l.07-.52a.53.53,0,0,0,.4-.11.39.39,0,0,0,.13-.31.35.35,0,0,0-.1-.27.33.33,0,0,0-.26-.1.41.41,0,0,0-.28.11.56.56,0,0,0-.14.33l-.58-.1a1.34,1.34,0,0,1,.18-.48.86.86,0,0,1,.34-.28,1.15,1.15,0,0,1,.5-.1,1,1,0,0,1,.75.3.78.78,0,0,1,.23.55.77.77,0,0,1-.48.69.78.78,0,0,1,.46.28.8.8,0,0,1,.17.51,1,1,0,0,1-.32.74,1.19,1.19,0,0,1-1.54.05A1,1,0,0,1,160.3,40.79Z"/><path class="cls-17" d="M174.43,41.67V41h-1.35v-.56l1.43-2.1h.54v2.1h.41V41h-.41v.67Zm0-1.23V39.31l-.76,1.13Z"/><path class="cls-17" d="M186.06,40.81l.64-.06a.57.57,0,0,0,.16.34.45.45,0,0,0,.31.12.41.41,0,0,0,.33-.16.75.75,0,0,0,.14-.49.61.61,0,0,0-.14-.45.43.43,0,0,0-.35-.16.62.62,0,0,0-.49.25l-.52-.08.33-1.72h1.68V39H187l-.1.56a1,1,0,0,1,1.15.2,1.11,1.11,0,0,1,.29.8,1.22,1.22,0,0,1-.23.73,1,1,0,0,1-.9.44,1.13,1.13,0,0,1-.75-.24A1.07,1.07,0,0,1,186.06,40.81Z"/><path class="cls-17" d="M199.79,39.16l-.62.07a.43.43,0,0,0-.11-.28.37.37,0,0,0-.25-.09.42.42,0,0,0-.34.18,1.6,1.6,0,0,0-.18.75.77.77,0,0,1,.59-.28.89.89,0,0,1,.69.31,1.13,1.13,0,0,1,.28.78,1.09,1.09,0,0,1-.3.81,1,1,0,0,1-.77.31,1,1,0,0,1-.82-.39,2,2,0,0,1-.32-1.28,2.08,2.08,0,0,1,.33-1.31,1.1,1.1,0,0,1,.88-.4.91.91,0,0,1,.62.21A1,1,0,0,1,199.79,39.16Zm-1.44,1.39a.78.78,0,0,0,.14.48.43.43,0,0,0,.33.17.38.38,0,0,0,.29-.14.7.7,0,0,0,.12-.46.69.69,0,0,0-.13-.47.39.39,0,0,0-.32-.15.43.43,0,0,0-.31.14A.67.67,0,0,0,198.35,40.55Z"/><path class="cls-17" d="M209.22,39V38.4h2.17v.46a3.4,3.4,0,0,0-.55.76,4.8,4.8,0,0,0-.42,1.05,3.43,3.43,0,0,0-.14,1h-.62a4.28,4.28,0,0,1,.29-1.41,4.38,4.38,0,0,1,.71-1.27Z"/><path class="cls-17" d="M221.34,39.88a.81.81,0,0,1-.36-.29.77.77,0,0,1-.11-.4.8.8,0,0,1,.26-.61,1.25,1.25,0,0,1,1.47,0,.77.77,0,0,1,.26.61.71.71,0,0,1-.12.41.83.83,0,0,1-.33.28.82.82,0,0,1,.56.81,1,1,0,0,1-.29.75,1.08,1.08,0,0,1-.78.28,1.25,1.25,0,0,1-.76-.23,1,1,0,0,1-.22-1.27A.85.85,0,0,1,221.34,39.88Zm.08.78a.59.59,0,0,0,.13.41.46.46,0,0,0,.34.14.39.39,0,0,0,.32-.14.56.56,0,0,0,.13-.41.51.51,0,0,0-.13-.37.45.45,0,0,0-.33-.14.39.39,0,0,0-.35.16A.56.56,0,0,0,221.42,40.66Zm.05-1.42a.38.38,0,0,0,.4.4.42.42,0,0,0,.29-.11.41.41,0,0,0,.11-.3.39.39,0,0,0-.11-.28.4.4,0,0,0-.29-.11.42.42,0,0,0-.29.11A.4.4,0,0,0,221.47,39.24Z"/><path class="cls-17" d="M180.45,25.84V23.45h.77a3.39,3.39,0,0,1,.58,0,.63.63,0,0,1,.34.24.71.71,0,0,1,.14.47.72.72,0,0,1-.08.37.57.57,0,0,1-.2.23.72.72,0,0,1-.25.12,3.16,3.16,0,0,1-.5,0h-.32v.9Zm.48-2v.68h.27a1.57,1.57,0,0,0,.38,0,.44.44,0,0,0,.15-.12.3.3,0,0,0,.05-.19.3.3,0,0,0-.07-.21.31.31,0,0,0-.2-.11,2.28,2.28,0,0,0-.35,0Z"/><path class="cls-17" d="M182.57,25a1,1,0,0,1,.11-.44.85.85,0,0,1,.32-.33,1,1,0,0,1,.46-.11.87.87,0,0,1,.65.26.86.86,0,0,1,.25.64.88.88,0,0,1-.25.65.84.84,0,0,1-.64.26,1,1,0,0,1-.46-.11.76.76,0,0,1-.33-.31A1.13,1.13,0,0,1,182.57,25Zm.47,0a.57.57,0,0,0,.12.39.41.41,0,0,0,.31.14.41.41,0,0,0,.3-.14.58.58,0,0,0,.12-.4.57.57,0,0,0-.12-.39.41.41,0,0,0-.3-.14.41.41,0,0,0-.31.14A.58.58,0,0,0,183,25Z"/><path class="cls-17" d="M184.72,25.84V23.45h1.78v.4h-1.29v.54h1.2v.4h-1.2v.65h1.33v.4Z"/><path class="cls-17" d="M187.76,25.06l.47,0a.64.64,0,0,0,.17.35.56.56,0,0,0,.35.11.59.59,0,0,0,.36-.1.31.31,0,0,0,.11-.23.2.2,0,0,0-.05-.15.38.38,0,0,0-.17-.1l-.39-.11a1.25,1.25,0,0,1-.54-.23.61.61,0,0,1-.22-.48.62.62,0,0,1,.1-.35.73.73,0,0,1,.3-.24,1.32,1.32,0,0,1,.47-.08,1,1,0,0,1,.68.2.69.69,0,0,1,.24.52l-.48,0a.39.39,0,0,0-.14-.26.51.51,0,0,0-.3-.08.62.62,0,0,0-.33.08.19.19,0,0,0-.08.15.18.18,0,0,0,.07.15,1.4,1.4,0,0,0,.45.16,2.09,2.09,0,0,1,.52.17.67.67,0,0,1,.26.24.71.71,0,0,1,.1.39.68.68,0,0,1-.12.38.66.66,0,0,1-.32.27,1.31,1.31,0,0,1-.52.09,1,1,0,0,1-.7-.21A.93.93,0,0,1,187.76,25.06Z"/><path class="cls-17" d="M190.91,24.11v.36h-.32v.7c0,.15,0,.23,0,.25l0,.06.08,0a.63.63,0,0,0,.19,0l0,.35a.8.8,0,0,1-.36.07.51.51,0,0,1-.22,0,.3.3,0,0,1-.15-.11.38.38,0,0,1-.06-.18,1.91,1.91,0,0,1,0-.32v-.76h-.21v-.36h.21v-.35l.46-.26v.61Z"/><path class="cls-17" d="M191.57,24.64l-.42-.08a.71.71,0,0,1,.24-.37.92.92,0,0,1,.51-.12,1.08,1.08,0,0,1,.46.07.44.44,0,0,1,.21.19.94.94,0,0,1,.06.41v.53a2.44,2.44,0,0,0,0,.34,1.27,1.27,0,0,0,.08.23h-.45l-.05-.13a.35.35,0,0,0,0-.06.83.83,0,0,1-.25.18.93.93,0,0,1-.29.05.61.61,0,0,1-.42-.14.51.51,0,0,1-.16-.37.53.53,0,0,1,.07-.26.49.49,0,0,1,.2-.18,1.66,1.66,0,0,1,.37-.11,2.09,2.09,0,0,0,.44-.11v0a.25.25,0,0,0-.06-.19.4.4,0,0,0-.25-.06.33.33,0,0,0-.19,0A.32.32,0,0,0,191.57,24.64Zm.61.37-.28.07a.9.9,0,0,0-.25.08.19.19,0,0,0-.09.16.23.23,0,0,0,.08.17.21.21,0,0,0,.18.07.46.46,0,0,0,.24-.08.25.25,0,0,0,.1-.15.66.66,0,0,0,0-.23Z"/><path class="cls-17" d="M193.88,24.11v.36h-.31v.7a1.17,1.17,0,0,0,0,.25s0,0,0,.06l.08,0a.54.54,0,0,0,.18,0l0,.35a.86.86,0,0,1-.36.07.56.56,0,0,1-.23,0,.31.31,0,0,1-.14-.11.38.38,0,0,1-.07-.18,2.38,2.38,0,0,1,0-.32v-.76h-.21v-.36h.21v-.35l.46-.26v.61Z"/><path class="cls-17" d="M195.34,25.84v-.26a.54.54,0,0,1-.25.22.61.61,0,0,1-.32.08.68.68,0,0,1-.32-.07.53.53,0,0,1-.2-.22,1,1,0,0,1-.06-.38v-1.1h.46v.8a3.12,3.12,0,0,0,0,.44.28.28,0,0,0,.1.14.29.29,0,0,0,.17,0,.42.42,0,0,0,.21-.06.31.31,0,0,0,.12-.16,1.48,1.48,0,0,0,0-.47v-.73h.46v1.73Z"/><path class="cls-17" d="M196.08,25.35l.46-.07a.31.31,0,0,0,.12.2.39.39,0,0,0,.25.07.49.49,0,0,0,.27-.06.16.16,0,0,0,.06-.13.11.11,0,0,0,0-.08.31.31,0,0,0-.16-.06,2.59,2.59,0,0,1-.7-.23.44.44,0,0,1-.21-.39.49.49,0,0,1,.18-.38.86.86,0,0,1,.55-.15.92.92,0,0,1,.53.12.54.54,0,0,1,.24.34l-.43.08a.26.26,0,0,0-.11-.16.42.42,0,0,0-.22-.05.57.57,0,0,0-.26.05.12.12,0,0,0-.05.09s0,.06.05.09a1.85,1.85,0,0,0,.43.13,1.25,1.25,0,0,1,.51.2.44.44,0,0,1,.14.34.5.5,0,0,1-.2.41.85.85,0,0,1-.59.17,1,1,0,0,1-.56-.14A.67.67,0,0,1,196.08,25.35Z"/><path class="cls-17" d="M148.33,21.56v-2.4h.77a2.37,2.37,0,0,1,.58,0,.57.57,0,0,1,.34.23.71.71,0,0,1,.14.47.7.7,0,0,1-.08.37.68.68,0,0,1-.2.24.91.91,0,0,1-.25.11,3.16,3.16,0,0,1-.5,0h-.32v.91Zm.48-2v.68h.27a1.43,1.43,0,0,0,.38,0,.44.44,0,0,0,.15-.12.27.27,0,0,0,0-.18.32.32,0,0,0-.07-.22.36.36,0,0,0-.2-.11h-.58Z"/><path class="cls-17" d="M150.45,20.66a1,1,0,0,1,.11-.44.76.76,0,0,1,.32-.32.9.9,0,0,1,.46-.12A.87.87,0,0,1,152,20a.86.86,0,0,1,.25.64,1,1,0,0,1-.25.66.88.88,0,0,1-.64.26,1.07,1.07,0,0,1-.46-.11.78.78,0,0,1-.33-.32A1.13,1.13,0,0,1,150.45,20.66Zm.47,0a.57.57,0,0,0,.12.39.36.36,0,0,0,.3.14.39.39,0,0,0,.31-.14.57.57,0,0,0,.12-.39.62.62,0,0,0-.12-.4.42.42,0,0,0-.31-.13.38.38,0,0,0-.3.13A.62.62,0,0,0,150.92,20.69Z"/><path class="cls-17" d="M152.6,21.56v-2.4h1.78v.41h-1.29v.53h1.2v.4h-1.2v.65h1.33v.41Z"/><path class="cls-17" d="M155.76,21.56v-2.4h.78a2.32,2.32,0,0,1,.57,0,.59.59,0,0,1,.35.23.77.77,0,0,1,.14.47.81.81,0,0,1-.08.37.7.7,0,0,1-.21.24.8.8,0,0,1-.25.11,3.07,3.07,0,0,1-.5,0h-.31v.91Zm.49-2v.68h.26a1.37,1.37,0,0,0,.38,0,.31.31,0,0,0,.15-.12.28.28,0,0,0,.06-.18.33.33,0,0,0-.08-.22.33.33,0,0,0-.19-.11h-.58Z"/><path class="cls-17" d="M157.88,20.66a.88.88,0,0,1,.12-.44.71.71,0,0,1,.32-.32.88.88,0,0,1,.46-.12.87.87,0,0,1,.89.9.91.91,0,0,1-.25.66.87.87,0,0,1-.64.26,1,1,0,0,1-.45-.11.68.68,0,0,1-.33-.32A1,1,0,0,1,157.88,20.66Zm.47,0a.57.57,0,0,0,.13.39.39.39,0,0,0,.6,0,.57.57,0,0,0,.12-.39.62.62,0,0,0-.12-.4.41.41,0,0,0-.6,0A.62.62,0,0,0,158.35,20.69Z"/><path class="cls-17" d="M160.47,21.56H160V19.82h.43v.25a.68.68,0,0,1,.2-.23.34.34,0,0,1,.2-.06.58.58,0,0,1,.3.09l-.14.4a.42.42,0,0,0-.22-.08.23.23,0,0,0-.16.06.34.34,0,0,0-.11.19,3.13,3.13,0,0,0,0,.58Z"/><path class="cls-17" d="M162.13,19.82v.37h-.31v.7a1.11,1.11,0,0,0,0,.24.07.07,0,0,0,0,.06.1.1,0,0,0,.08,0,.62.62,0,0,0,.18,0l0,.36a1,1,0,0,1-.36.07.56.56,0,0,1-.23-.05.3.3,0,0,1-.14-.1.48.48,0,0,1-.07-.18,2.56,2.56,0,0,1,0-.33v-.75h-.21v-.37h.21v-.34l.46-.27v.61Z"/><path class="cls-17" d="M162.29,21.06l.46-.07a.31.31,0,0,0,.12.2.37.37,0,0,0,.25.07.49.49,0,0,0,.27-.06.14.14,0,0,0,.06-.12.12.12,0,0,0,0-.09.53.53,0,0,0-.16-.06,2.7,2.7,0,0,1-.7-.22.46.46,0,0,1-.21-.39.46.46,0,0,1,.18-.38.79.79,0,0,1,.55-.16.92.92,0,0,1,.53.12.57.57,0,0,1,.24.34l-.43.08a.25.25,0,0,0-.11-.15.34.34,0,0,0-.22-.06.54.54,0,0,0-.26.05.14.14,0,0,0-.05.1.09.09,0,0,0,0,.08,2.31,2.31,0,0,0,.43.13,1.13,1.13,0,0,1,.51.2.42.42,0,0,1,.15.34.53.53,0,0,1-.2.41.85.85,0,0,1-.59.18.93.93,0,0,1-.56-.15A.61.61,0,0,1,162.29,21.06Z"/><rect x="261.33" y="33.25" width="9.01" height="3.89"/><rect class="cls-18" x="265.49" y="33.25" width="3.89" height="3.89"/><path class="cls-17" d="M255.9,29.13a1.9,1.9,0,0,1,.13-.75,1.38,1.38,0,0,1,.28-.4,1,1,0,0,1,.38-.26,1.54,1.54,0,0,1,.63-.12,1.38,1.38,0,0,1,1,.4,1.58,1.58,0,0,1,.38,1.12,1.53,1.53,0,0,1-.38,1.11,1.54,1.54,0,0,1-2.07,0A1.49,1.49,0,0,1,255.9,29.13Zm.61,0a1.11,1.11,0,0,0,.23.76.75.75,0,0,0,.58.26.77.77,0,0,0,.59-.26,1.42,1.42,0,0,0,0-1.52.76.76,0,0,0-.59-.24.75.75,0,0,0-.59.25A1.08,1.08,0,0,0,256.51,29.11Z"/><path class="cls-17" d="M259,28.46h.31V28.3a1,1,0,0,1,.06-.4.4.4,0,0,1,.21-.22.86.86,0,0,1,.38-.08,1.49,1.49,0,0,1,.47.07l-.07.39-.26,0a.24.24,0,0,0-.18.06.37.37,0,0,0-.05.22v.15h.42v.44h-.42v1.68h-.56V28.9H259Z"/><path class="cls-17" d="M260.32,28.46h.31V28.3a1,1,0,0,1,.06-.4.49.49,0,0,1,.21-.22.87.87,0,0,1,.39-.08,1.53,1.53,0,0,1,.47.07l-.08.39a1.15,1.15,0,0,0-.26,0,.21.21,0,0,0-.17.06.3.3,0,0,0-.06.22v.15h.42v.44h-.42v1.68h-.56V28.9h-.31Z"/><path class="cls-17" d="M268.64,29.13a1.89,1.89,0,0,1,.14-.75,1.18,1.18,0,0,1,.27-.4,1,1,0,0,1,.38-.26,1.54,1.54,0,0,1,.63-.12,1.38,1.38,0,0,1,1,.4,1.79,1.79,0,0,1,0,2.23,1.54,1.54,0,0,1-2.07,0A1.49,1.49,0,0,1,268.64,29.13Zm.61,0a1.11,1.11,0,0,0,.23.76.77.77,0,0,0,.59.26.75.75,0,0,0,.58-.26,1.37,1.37,0,0,0,0-1.52.82.82,0,0,0-1.17,0A1.08,1.08,0,0,0,269.25,29.11Z"/><path class="cls-17" d="M273.88,30.58h-.56V29.5a1.87,1.87,0,0,0,0-.45.26.26,0,0,0-.12-.15.31.31,0,0,0-.19-.06.45.45,0,0,0-.26.08.37.37,0,0,0-.16.21,1.71,1.71,0,0,0-.05.49v1h-.56V28.46h.52v.31a.86.86,0,0,1,.7-.36.74.74,0,0,1,.34.07.55.55,0,0,1,.24.17.7.7,0,0,1,.11.23,1.87,1.87,0,0,1,0,.38Z"/><path class="cls-17" d="M256.79,42.7V40.56h1.61v.36h-1.17v.47h1.09v.37h-1.09v.58h1.21v.36Z"/><path class="cls-17" d="M258.61,42.7l.56-.8-.54-.75h.51l.28.42.29-.42h.48l-.53.73.58.82h-.51l-.31-.48-.33.48Z"/><path class="cls-17" d="M261.21,41.15v.32h-.29v.63c0,.13,0,.2,0,.22a.1.1,0,0,0,0,0,.08.08,0,0,0,.07,0l.17,0,0,.31a.67.67,0,0,1-.33.07.65.65,0,0,1-.2,0,.34.34,0,0,1-.13-.1.34.34,0,0,1-.06-.16,2,2,0,0,1,0-.29v-.68h-.19v-.32h.19v-.31l.41-.24v.55Z"/><path class="cls-17" d="M262.4,42.21l.42.06a.72.72,0,0,1-.25.35.75.75,0,0,1-.43.12.7.7,0,0,1-.61-.27.9.9,0,0,1-.16-.53.85.85,0,0,1,.21-.61.65.65,0,0,1,.51-.22.72.72,0,0,1,.56.23,1,1,0,0,1,.19.7h-1a.44.44,0,0,0,.1.29.33.33,0,0,0,.24.1.28.28,0,0,0,.16,0A.32.32,0,0,0,262.4,42.21Zm0-.42a.42.42,0,0,0-.1-.27.27.27,0,0,0-.21-.09.32.32,0,0,0-.23.09.46.46,0,0,0-.08.27Z"/><path class="cls-17" d="M264.6,42.7h-.41v-.79a1.11,1.11,0,0,0,0-.33.19.19,0,0,0-.08-.11.24.24,0,0,0-.15,0,.41.41,0,0,0-.19,0,.31.31,0,0,0-.12.16,1.37,1.37,0,0,0,0,.36v.7h-.41V41.15h.38v.22a.65.65,0,0,1,.52-.26.7.7,0,0,1,.25,0,.45.45,0,0,1,.17.13.34.34,0,0,1,.08.17,1,1,0,0,1,0,.27Z"/><path class="cls-17" d="M266.46,42.7h-.38v-.23a.62.62,0,0,1-.23.2.58.58,0,0,1-.73-.15.9.9,0,0,1-.19-.6.82.82,0,0,1,.19-.6.59.59,0,0,1,.47-.21.58.58,0,0,1,.46.22v-.77h.41Zm-1.1-.81a.65.65,0,0,0,.07.36.3.3,0,0,0,.28.16.31.31,0,0,0,.24-.12.53.53,0,0,0,.1-.36.59.59,0,0,0-.1-.39.33.33,0,0,0-.25-.11.3.3,0,0,0-.24.11A.52.52,0,0,0,265.36,41.89Z"/><path class="cls-17" d="M268.4,43.33h-.28a2.87,2.87,0,0,1-.35-.7,2.25,2.25,0,0,1-.12-.71,2.15,2.15,0,0,1,.15-.8,2.66,2.66,0,0,1,.32-.6h.29a4,4,0,0,0-.28.75,2.84,2.84,0,0,0-.08.66,2.72,2.72,0,0,0,.05.49,3.37,3.37,0,0,0,.12.48A3.42,3.42,0,0,0,268.4,43.33Z"/><path class="cls-17" d="M269.69,42.7h-.41V41.15a1.32,1.32,0,0,1-.54.31v-.37a1.32,1.32,0,0,0,.36-.2.84.84,0,0,0,.26-.34h.33Z"/><path class="cls-17" d="M270.35,42.13v-.41h.82v.41Z"/><path class="cls-17" d="M272.13,42.7v-.43h-.88v-.36l.94-1.36h.35v1.36h.26v.36h-.26v.43Zm0-.79v-.74l-.49.74Z"/><path class="cls-17" d="M273,43.33c.08-.17.13-.31.17-.4s.06-.2.09-.32a2.21,2.21,0,0,0,.06-.34,1.87,1.87,0,0,0,0-.34,2.84,2.84,0,0,0-.08-.66,4,4,0,0,0-.28-.75h.28a2.52,2.52,0,0,1,.35.67,2.16,2.16,0,0,1,.12.71,2.68,2.68,0,0,1-.09.66,2.86,2.86,0,0,1-.37.77Z"/><rect x="282.44" y="33.25" width="9.01" height="3.89"/><rect class="cls-18" x="286.59" y="33.25" width="3.89" height="3.89"/><path class="cls-17" d="M277,29.13a1.87,1.87,0,0,1,.13-.75,1.56,1.56,0,0,1,.27-.4,1.12,1.12,0,0,1,.38-.26,1.62,1.62,0,0,1,.64-.12,1.36,1.36,0,0,1,1,.4,1.54,1.54,0,0,1,.39,1.12,1.57,1.57,0,0,1-.38,1.11,1.55,1.55,0,0,1-2.08,0A1.53,1.53,0,0,1,277,29.13Zm.61,0a1.06,1.06,0,0,0,.23.76.75.75,0,0,0,.58.26.74.74,0,0,0,.58-.26,1.4,1.4,0,0,0,0-1.52.76.76,0,0,0-.59-.24.75.75,0,0,0-.59.25A1.08,1.08,0,0,0,277.62,29.11Z"/><path class="cls-17" d="M280.06,28.46h.32V28.3a1,1,0,0,1,.05-.4.49.49,0,0,1,.21-.22.87.87,0,0,1,.39-.08,1.49,1.49,0,0,1,.47.07l-.08.39-.25,0a.23.23,0,0,0-.18.06.37.37,0,0,0-.05.22v.15h.42v.44h-.42v1.68h-.56V28.9h-.32Z"/><path class="cls-17" d="M281.43,28.46h.31V28.3a1,1,0,0,1,.06-.4.4.4,0,0,1,.21-.22.86.86,0,0,1,.38-.08,1.49,1.49,0,0,1,.47.07l-.07.39-.26,0a.24.24,0,0,0-.18.06.37.37,0,0,0-.05.22v.15h.42v.44h-.42v1.68h-.56V28.9h-.31Z"/><path class="cls-17" d="M289.75,29.13a2.06,2.06,0,0,1,.13-.75,1.38,1.38,0,0,1,.28-.4,1,1,0,0,1,.38-.26,1.54,1.54,0,0,1,.63-.12,1.38,1.38,0,0,1,1,.4,1.79,1.79,0,0,1,0,2.23,1.54,1.54,0,0,1-2.07,0A1.49,1.49,0,0,1,289.75,29.13Zm.61,0a1.11,1.11,0,0,0,.23.76.75.75,0,0,0,.58.26.77.77,0,0,0,.59-.26,1.42,1.42,0,0,0,0-1.52.76.76,0,0,0-.59-.24.75.75,0,0,0-.59.25A1.14,1.14,0,0,0,290.36,29.11Z"/><path class="cls-17" d="M295,30.58h-.57V29.5a2.07,2.07,0,0,0,0-.45.36.36,0,0,0-.12-.15.31.31,0,0,0-.19-.06.5.5,0,0,0-.27.08.42.42,0,0,0-.16.21,2.39,2.39,0,0,0,0,.49v1h-.56V28.46h.52v.31a.86.86,0,0,1,.7-.36.74.74,0,0,1,.34.07.61.61,0,0,1,.24.17.67.67,0,0,1,.1.23,1.76,1.76,0,0,1,0,.38Z"/><path class="cls-17" d="M277.9,42.7V40.56h.7a2.72,2.72,0,0,1,.52,0,.51.51,0,0,1,.31.21.62.62,0,0,1,.13.42.81.81,0,0,1-.07.33.55.55,0,0,1-.19.21.72.72,0,0,1-.22.1,2.69,2.69,0,0,1-.46,0h-.28v.81Zm.44-1.78v.61h.24a.88.88,0,0,0,.34,0,.24.24,0,0,0,.14-.1.34.34,0,0,0,.05-.17A.29.29,0,0,0,279,41a.4.4,0,0,0-.18-.1h-.52Z"/><path class="cls-17" d="M280.31,42.7h-.41V41.15h.38v.22a.67.67,0,0,1,.18-.21.35.35,0,0,1,.18,0,.56.56,0,0,1,.27.08l-.13.36a.32.32,0,0,0-.19-.07.25.25,0,0,0-.15.05.3.3,0,0,0-.09.17,2,2,0,0,0,0,.52Z"/><path class="cls-17" d="M281.09,40.94v-.38h.42v.38Zm0,1.76V41.15h.42V42.7Z"/><path class="cls-17" d="M281.84,41.9a.82.82,0,0,1,.1-.4.74.74,0,0,1,.29-.29.8.8,0,0,1,.41-.1.82.82,0,0,1,.59.23.79.79,0,0,1,.22.58.76.76,0,0,1-.23.58.75.75,0,0,1-.57.24,1,1,0,0,1-.42-.1.71.71,0,0,1-.29-.28A1,1,0,0,1,281.84,41.9Zm.42,0a.53.53,0,0,0,.11.36.37.37,0,0,0,.27.12.38.38,0,0,0,.28-.12.53.53,0,0,0,.11-.36.52.52,0,0,0-.11-.35.38.38,0,0,0-.28-.12.37.37,0,0,0-.27.12A.52.52,0,0,0,282.26,41.92Z"/><path class="cls-17" d="M284.18,42.7h-.42V41.15h.39v.22a.56.56,0,0,1,.17-.21.41.41,0,0,1,.18,0,.57.57,0,0,1,.28.08l-.13.36a.35.35,0,0,0-.2-.07.24.24,0,0,0-.14.05.31.31,0,0,0-.1.17,2.79,2.79,0,0,0,0,.52Z"/><path class="cls-17" d="M285,40.94v-.38h.41v.38Zm0,1.76V41.15h.41V42.7Z"/><path class="cls-17" d="M286.51,41.15v.32h-.28v.63a.93.93,0,0,0,0,.22.07.07,0,0,0,0,0,.08.08,0,0,0,.07,0,.41.41,0,0,0,.16,0l0,.32a.88.88,0,0,1-.33.07.65.65,0,0,1-.2,0,.28.28,0,0,1-.13-.1.34.34,0,0,1-.06-.16,2,2,0,0,1,0-.29v-.68h-.2v-.32h.2v-.31l.41-.24v.55Z"/><path class="cls-17" d="M286.61,41.15h.44l.37,1.1.37-1.1h.43l-.55,1.49-.1.27a1.9,1.9,0,0,1-.11.21.43.43,0,0,1-.11.12.59.59,0,0,1-.16.07l-.21,0-.24,0,0-.33a.52.52,0,0,0,.17,0,.29.29,0,0,0,.22-.08.64.64,0,0,0,.1-.22Z"/><path class="cls-17" d="M290,43.33h-.28a2.87,2.87,0,0,1-.35-.7,2.56,2.56,0,0,1-.11-.71,2.14,2.14,0,0,1,.14-.8,2.86,2.86,0,0,1,.32-.6H290a4,4,0,0,0-.28.75,2.84,2.84,0,0,0-.08.66,2.72,2.72,0,0,0,0,.49,3.37,3.37,0,0,0,.12.48Z"/><path class="cls-17" d="M291.31,42.7h-.42V41.15a1.44,1.44,0,0,1-.54.31v-.37a1.32,1.32,0,0,0,.36-.2.84.84,0,0,0,.26-.34h.34Z"/><path class="cls-17" d="M292,42.13v-.41h.81v.41Z"/><path class="cls-17" d="M294.33,42.32v.38h-1.45a.91.91,0,0,1,.14-.41,2.78,2.78,0,0,1,.47-.51,2.26,2.26,0,0,0,.34-.36.4.4,0,0,0,.09-.25.29.29,0,0,0-.08-.21.27.27,0,0,0-.2-.07.28.28,0,0,0-.21.07.44.44,0,0,0-.09.26l-.41,0a.65.65,0,0,1,.23-.49.84.84,0,0,1,.49-.14.68.68,0,0,1,.5.17.54.54,0,0,1,.18.42.66.66,0,0,1-.05.28,1,1,0,0,1-.16.27,2.39,2.39,0,0,1-.28.28,3,3,0,0,0-.24.23.47.47,0,0,0-.09.12Z"/><path class="cls-17" d="M294.59,43.33a4.17,4.17,0,0,0,.17-.4,2.07,2.07,0,0,0,.09-.32c0-.12,0-.24.07-.34s0-.22,0-.34a2.84,2.84,0,0,0-.08-.66,4.69,4.69,0,0,0-.27-.75h.28a2.49,2.49,0,0,1,.34.67,1.94,1.94,0,0,1,.13.71,2.71,2.71,0,0,1-.1.66,2.59,2.59,0,0,1-.37.77Z"/><rect x="303.55" y="33.25" width="9.01" height="3.89"/><rect class="cls-18" x="307.7" y="33.25" width="3.89" height="3.89"/><path class="cls-17" d="M298.11,29.13a1.86,1.86,0,0,1,.14-.75,1.56,1.56,0,0,1,.27-.4,1,1,0,0,1,.38-.26,1.54,1.54,0,0,1,.63-.12,1.36,1.36,0,0,1,1,.4,1.79,1.79,0,0,1,0,2.23,1.34,1.34,0,0,1-1,.4,1.36,1.36,0,0,1-1-.4A1.49,1.49,0,0,1,298.11,29.13Zm.61,0a1.11,1.11,0,0,0,.23.76.77.77,0,0,0,.59.26.75.75,0,0,0,.58-.26,1.11,1.11,0,0,0,.23-.76,1.17,1.17,0,0,0-.22-.76.78.78,0,0,0-.59-.24.74.74,0,0,0-.59.25A1.08,1.08,0,0,0,298.72,29.11Z"/><path class="cls-17" d="M301.17,28.46h.31V28.3a1,1,0,0,1,.06-.4.49.49,0,0,1,.21-.22.87.87,0,0,1,.39-.08,1.53,1.53,0,0,1,.47.07l-.08.39a1.15,1.15,0,0,0-.26,0,.21.21,0,0,0-.17.06s-.05.11-.05.22v.15h.42v.44h-.42v1.68h-.57V28.9h-.31Z"/><path class="cls-17" d="M302.53,28.46h.32V28.3a1.3,1.3,0,0,1,0-.4.49.49,0,0,1,.21-.22.93.93,0,0,1,.39-.08,1.49,1.49,0,0,1,.47.07l-.08.39a1.07,1.07,0,0,0-.25,0,.24.24,0,0,0-.18.06.37.37,0,0,0,0,.22v.15h.42v.44h-.42v1.68h-.56V28.9h-.32Z"/><path class="cls-17" d="M310.86,29.13a1.87,1.87,0,0,1,.13-.75,1.56,1.56,0,0,1,.27-.4,1.12,1.12,0,0,1,.38-.26,1.62,1.62,0,0,1,.64-.12,1.36,1.36,0,0,1,1,.4,1.54,1.54,0,0,1,.39,1.12,1.57,1.57,0,0,1-.38,1.11,1.55,1.55,0,0,1-2.08,0A1.53,1.53,0,0,1,310.86,29.13Zm.61,0a1.06,1.06,0,0,0,.23.76.75.75,0,0,0,.58.26.74.74,0,0,0,.58-.26,1.4,1.4,0,0,0,0-1.52.76.76,0,0,0-.59-.24.75.75,0,0,0-.59.25A1.08,1.08,0,0,0,311.47,29.11Z"/><path class="cls-17" d="M316.09,30.58h-.56V29.5a1.45,1.45,0,0,0,0-.45.28.28,0,0,0-.11-.15.34.34,0,0,0-.2-.06.5.5,0,0,0-.26.08.37.37,0,0,0-.16.21,1.83,1.83,0,0,0,0,.49v1h-.56V28.46h.52v.31a.85.85,0,0,1,.7-.36.77.77,0,0,1,.34.07.51.51,0,0,1,.23.17.7.7,0,0,1,.11.23,1.87,1.87,0,0,1,0,.38Z"/><path class="cls-17" d="M299,42.7V40.56h.92a1.55,1.55,0,0,1,.5,0,.47.47,0,0,1,.25.21.57.57,0,0,1,.1.34.61.61,0,0,1-.14.4.69.69,0,0,1-.43.19,1.54,1.54,0,0,1,.23.18,2.34,2.34,0,0,1,.25.35l.27.42h-.53l-.31-.47c-.12-.16-.19-.27-.23-.31a.37.37,0,0,0-.14-.09.54.54,0,0,0-.22,0h-.08v.9Zm.44-1.24h.32a2.54,2.54,0,0,0,.39,0,.23.23,0,0,0,.12-.09.31.31,0,0,0,.05-.17.24.24,0,0,0-.06-.17.27.27,0,0,0-.16-.08h-.66Z"/><path class="cls-17" d="M302.1,42.21l.41.06a.7.7,0,0,1-.25.35.75.75,0,0,1-.43.12.71.71,0,0,1-.61-.27.91.91,0,0,1-.15-.54.89.89,0,0,1,.2-.6.67.67,0,0,1,.52-.22.72.72,0,0,1,.55.23,1,1,0,0,1,.19.7h-1a.5.5,0,0,0,.1.29.37.37,0,0,0,.24.1.31.31,0,0,0,.17,0A.55.55,0,0,0,302.1,42.21Zm0-.42a.37.37,0,0,0-.09-.27.31.31,0,0,0-.44,0,.4.4,0,0,0-.09.27Z"/><path class="cls-17" d="M304.24,41.61l-.41.07a.32.32,0,0,0-.1-.18.23.23,0,0,0-.18-.07.31.31,0,0,0-.25.11.56.56,0,0,0-.09.36.66.66,0,0,0,.09.39.33.33,0,0,0,.25.11.25.25,0,0,0,.19-.07.38.38,0,0,0,.11-.23l.41.07a.68.68,0,0,1-.25.42.73.73,0,0,1-.48.15.75.75,0,0,1-.55-.22.85.85,0,0,1-.2-.6.84.84,0,0,1,.2-.59.73.73,0,0,1,.56-.22.75.75,0,0,1,.45.12A.66.66,0,0,1,304.24,41.61Z"/><path class="cls-17" d="M304.46,41.9a.82.82,0,0,1,.1-.4.74.74,0,0,1,.29-.29.88.88,0,0,1,1,.13.82.82,0,0,1-.58,1.4,1,1,0,0,1-.41-.1.68.68,0,0,1-.3-.28A1,1,0,0,1,304.46,41.9Zm.42,0a.53.53,0,0,0,.11.36.37.37,0,0,0,.27.12.38.38,0,0,0,.28-.12.53.53,0,0,0,.11-.36.52.52,0,0,0-.11-.35.38.38,0,0,0-.28-.12.37.37,0,0,0-.27.12A.52.52,0,0,0,304.88,41.92Z"/><path class="cls-17" d="M306.83,42.7l-.63-1.55h.43l.3.79.08.26c0-.06,0-.11.05-.13l0-.13.3-.79h.43l-.63,1.55Z"/><path class="cls-17" d="M309,42.21l.41.06a.65.65,0,0,1-.25.35.73.73,0,0,1-.43.12.69.69,0,0,1-.6-.27.85.85,0,0,1-.16-.54.89.89,0,0,1,.2-.6.67.67,0,0,1,.52-.22.7.7,0,0,1,.55.23,1,1,0,0,1,.2.7h-1a.39.39,0,0,0,.1.29.33.33,0,0,0,.23.1.29.29,0,0,0,.17,0A.4.4,0,0,0,309,42.21Zm0-.42a.37.37,0,0,0-.09-.27.31.31,0,0,0-.44,0,.4.4,0,0,0-.09.27Z"/><path class="cls-17" d="M310.16,42.7h-.41V41.15h.38v.22a.67.67,0,0,1,.18-.21.35.35,0,0,1,.18,0,.56.56,0,0,1,.27.08l-.13.36a.32.32,0,0,0-.19-.07.25.25,0,0,0-.15.05.3.3,0,0,0-.09.17,2,2,0,0,0,0,.52Z"/><path class="cls-17" d="M312.47,43.33h-.29a2.83,2.83,0,0,1-.34-.7,2.25,2.25,0,0,1-.12-.71,2.15,2.15,0,0,1,.15-.8,2.46,2.46,0,0,1,.32-.6h.28a6.21,6.21,0,0,0-.28.75,2.84,2.84,0,0,0-.07.66,2.7,2.7,0,0,0,0,.49,2.42,2.42,0,0,0,.13.48A3.42,3.42,0,0,0,312.47,43.33Z"/><path class="cls-17" d="M313.76,42.7h-.41V41.15a1.62,1.62,0,0,1-.54.31v-.37a1.15,1.15,0,0,0,.35-.2.7.7,0,0,0,.26-.34h.34Z"/><path class="cls-17" d="M314.42,42.13v-.41h.82v.41Z"/><path class="cls-17" d="M316.2,42.7v-.43h-.88v-.36l.93-1.36h.35v1.36h.27v.36h-.27v.43Zm0-.79v-.74l-.5.74Z"/><path class="cls-17" d="M317,43.33c.09-.17.14-.31.18-.4s.06-.2.09-.32a2.45,2.45,0,0,0,.06-.34,1.88,1.88,0,0,0,0-.34,2.84,2.84,0,0,0-.07-.66,4,4,0,0,0-.28-.75h.28a2.52,2.52,0,0,1,.35.67,2.16,2.16,0,0,1,.12.71,2.3,2.3,0,0,1-.1.66,2.56,2.56,0,0,1-.36.77Z"/><g id="g3777"><path id="path3775" class="cls-17" d="M20.14,21.54a.67.67,0,0,1-.42-.34l0-.09V18.64H17.16l-.1-.06a.7.7,0,0,1-.26-.28c0-.06,0-.16,0-1.15V16h5.49v5.51h-1C20.67,21.56,20.18,21.55,20.14,21.54Z"/><path id="path3761" class="cls-17" d="M23.14,18.54s0-.57,0-1.22v-1.2h.61a2.45,2.45,0,0,0,1-.12,1.87,1.87,0,0,0,1.17-1.9,1.72,1.72,0,0,0-1.38-1.67,2.37,2.37,0,0,0-.84,0,1.89,1.89,0,0,0-1.46,1.42,3.48,3.48,0,0,0-.05.73c0,.53,0,.59,0,.59H19.75s0-1.29,0-1.46a4.33,4.33,0,0,1,2.37-3.3,4.25,4.25,0,0,1,2-.46,4.35,4.35,0,0,1,1.92.41,4,4,0,0,1,2.25,2.94A4.39,4.39,0,0,1,27,17.36a4.25,4.25,0,0,1-2.26,1.14,5.1,5.1,0,0,1-.93.06c-.56,0-.68,0-.69,0Z"/></g><g id="g3781"><path id="path3773" class="cls-17" d="M32.38,19.86l-.08-.06c0-.05,0-.08,0-1.89V16.08l.11-.13a2.25,2.25,0,0,1,1-.61,1.65,1.65,0,0,1,.49,0,1.34,1.34,0,0,1,.78.17,1.7,1.7,0,0,1,.85,2,1.61,1.61,0,0,1-1.3,1.16,3.18,3.18,0,0,1-.51,0c-.3,0-.33,0-.35,0a1.57,1.57,0,0,1,0-.29,1.4,1.4,0,0,1,0-.29s.05,0,.34,0a1,1,0,0,0,.81-.25,1.08,1.08,0,0,0,.06-1.45,1,1,0,0,0-.86-.28,1.06,1.06,0,0,0-.58.28l-.09.1v1.72a16.86,16.86,0,0,1,0,1.75,2,2,0,0,1-.6,0Z"/><path id="path3771" class="cls-17" d="M30.61,18.61a.9.9,0,0,1-.45-.21,1,1,0,0,1-.26-.53c0-.16,0-3.07,0-3.13a3.54,3.54,0,0,1,.73-.36s0,.11,0,.48v.48h.45c.53,0,.48,0,.47.38V16h-.92v.87c0,.81,0,.86.05.93a.42.42,0,0,0,.14.12c.09,0,.12,0,.53,0a1.64,1.64,0,0,1,.46,0,.76.76,0,0,1,0,.31.69.69,0,0,1,0,.3,6.26,6.26,0,0,1-1.22,0Z"/><path id="path3769" class="cls-17" d="M38.08,18.59,38,18.54V14.23l.34-.18a1.9,1.9,0,0,1,.38-.16s0,.38,0,2.37a15.7,15.7,0,0,1,0,2.37l-.3,0c-.27,0-.28,0-.34-.06Z"/><path id="path3767" class="cls-17" d="M39.57,18.63c-.12-.05-.11,0-.11-1.7V15.36h.72V17c0,1.28,0,1.63,0,1.64A3.11,3.11,0,0,1,39.57,18.63Z"/><path id="path3765" class="cls-17" d="M41,18.62c-.11-.06-.11,0-.11-1.36a7.13,7.13,0,0,1,0-1.29,1.86,1.86,0,0,1,.4-.39A2.5,2.5,0,0,1,42,15.3a2.21,2.21,0,0,1,.85,0A1.56,1.56,0,0,1,44,16.42a5.37,5.37,0,0,1,0,1.19c0,.9,0,1,0,1a2.63,2.63,0,0,1-.69,0,6.68,6.68,0,0,1,0-1,4.16,4.16,0,0,0,0-1.08.79.79,0,0,0-.74-.59.88.88,0,0,0-.71.25l-.09.07v1.14a11.56,11.56,0,0,1,0,1.18s0,0-.3,0A.94.94,0,0,1,41,18.62Z"/><path id="path3763" class="cls-17" d="M44.77,18.63c-.12-.05-.12.06-.11-2.26V14.23l.36-.18a1.57,1.57,0,0,1,.37-.16s0,.65,0,1.42v1.41L46,16l.58-.68H47c.35,0,.42,0,.42,0s-.29.36-.65.77a8.66,8.66,0,0,0-.64.76s.33.4.72.84.73.83.73.85-.05,0-.43,0h-.43l-.05,0-.64-.78c-.33-.4-.61-.72-.61-.73a7.18,7.18,0,0,0,0,.74c0,.47,0,.75,0,.78s0,0-.31,0l-.32,0Z"/><path id="path3759" class="cls-17" d="M36.39,17.33a4,4,0,0,1-.33-.7,2.26,2.26,0,0,1,.67,0h.65V17c0,.28,0,.37,0,.38a3.63,3.63,0,0,1-.49,0C36.47,17.37,36.42,17.37,36.39,17.33Z"/><path id="path2987" class="cls-17" d="M39.44,14.59a.4.4,0,0,1-.1-.35.43.43,0,0,1,.24-.37.3.3,0,0,1,.25-.06.46.46,0,0,1,.38.15.49.49,0,0,1,0,.63s-.08,0-.39,0-.36,0-.4,0Z"/></g></g></g></svg>