<svg xmlns="http://www.w3.org/2000/svg" xmlns:xlink="http://www.w3.org/1999/xlink" viewBox="0 0 291.39 274.71"><defs><style>.cls-1{fill:url(#linear-gradient);}.cls-2{fill:url(#linear-gradient-2);}.cls-3{fill:url(#linear-gradient-3);}.cls-4{fill:url(#linear-gradient-4);}.cls-5{fill:#9c9b9b;}.cls-6{opacity:0.2;fill:url(#linear-gradient-5);}.cls-7{fill:#909091;}</style><linearGradient id="linear-gradient" x1="58.78" y1="98.46" x2="77.5" y2="98.46" gradientUnits="userSpaceOnUse"><stop offset="0" stop-color="#ededed"/><stop offset="0.5" stop-color="#c1c1c1"/><stop offset="0.82" stop-color="#d8d8d8"/><stop offset="1" stop-color="#ededed"/></linearGradient><linearGradient id="linear-gradient-2" x1="32.5" y1="257.42" x2="258.89" y2="257.42" gradientUnits="userSpaceOnUse"><stop offset="0" stop-color="#7a7a7a"/><stop offset="0.5" stop-color="#c1c1c1"/><stop offset="1" stop-color="#7a7a7a"/></linearGradient><linearGradient id="linear-gradient-3" y1="236.82" x2="291.39" y2="236.82" gradientUnits="userSpaceOnUse"><stop offset="0" stop-color="#ededed"/><stop offset="0.5" stop-color="#c1c1c1"/><stop offset="1" stop-color="#ededed"/></linearGradient><linearGradient id="linear-gradient-4" x1="41.32" y1="207.67" x2="250.01" y2="207.67" xlink:href="#linear-gradient-3"/><linearGradient id="linear-gradient-5" x1="137.95" y1="207.62" x2="250.04" y2="207.62" gradientUnits="userSpaceOnUse"><stop offset="0" stop-color="#fff"/><stop offset="0.01" stop-color="#fff"/><stop offset="1" stop-color="#fff" stop-opacity="0"/></linearGradient></defs><g id="Layer_2" data-name="Layer 2"><g id="Layer_1-2" data-name="Layer 1"><path class="cls-1" d="M75.48,84.6c-3.87-16.1-3.55-27.36-3.55-27.36V12.6c0-13-3.79-12.6-3.79-12.6s-3.79-.36-3.79,12.6V57.24S64.67,68.5,60.8,84.6c-2.34,9.72-2,26.64-2,26.64v85.68H77.48V111.24S77.82,94.32,75.48,84.6Z"/><path class="cls-2" d="M32.5,274.68s2.88.36,8.82-1.44c0,0-2.34-3.24,14.58-4.32l84.43-2.16s53.09,0,103.13,2.52c0,0,8.9.36,15.43,5.4l-12.55-19.44-47.52-15.12h-93.6l-55.08,17.3Z"/><path class="cls-3" d="M291.29,263.52c-13.32-15.48-14-26.28-14-26.28A113.11,113.11,0,0,0,246.76,199l-98.12,30.49h-5.88L44.63,199a113.11,113.11,0,0,0-30.49,38.28s-.72,10.8-14,26.28c0,0-3.6,9.72,32.4,11.16,0,0,22.32-23.4,67.68-28.44,0,0,19.27-1.44,42.58-1.44h5.88c23.3,0,42.57,1.44,42.57,1.44,45.36,5,67.68,28.44,67.68,28.44C294.89,273.24,291.29,263.52,291.29,263.52Z"/><path class="cls-4" d="M248.93,202s-4.86-11.88-35.46-14.4c-27.9-2.3-62-1.6-67.81-1.46-5.81-.14-39.91-.84-67.8,1.46C47.26,190.08,42.4,202,42.4,202S35,217.8,58.78,224.28c0,0,18.33,6.07,86.88,5.05,68.56,1,86.89-5.05,86.89-5.05C256.31,217.8,248.93,202,248.93,202Z"/><path class="cls-5" d="M145.66,229.33c68.56,1,86.89-5.05,86.89-5.05H58.78S77.11,230.35,145.66,229.33Z"/><path class="cls-6" d="M249,202s-4.86-11.88-35.46-14.4c-27.9-2.3-62-1.6-67.8-1.46-1.3,0-4-.09-7.75-.14l35.4,43.39c46-.69,59.23-5.07,59.23-5.07C256.34,217.8,249,202,249,202Z"/><path class="cls-7" d="M138.44,194.3h1.71c.64,0,.84.23.54.65a6,6,0,0,1-.47.58,2.36,2.36,0,0,1-1.48.57c-.65,0-1.22,0-1.83,0h-1a.61.61,0,0,0-.46.14c-.16.14-.36.28-.53.42a.51.51,0,0,1-.41.13h-1.6c-.18,0-.19,0-.06-.12l3.38-2.27a.56.56,0,0,1,.4-.13Zm-.17.38h-.59a.47.47,0,0,0-.34.12l-1.1.86c-.1.08-.12.12,0,.12h1.4a1,1,0,0,0,.75-.27L139,195c.17-.18.13-.26-.13-.27Z"/><path class="cls-7" d="M161,194.31a3.66,3.66,0,0,1-.15.69,1.66,1.66,0,0,1-.18.35c-.06.08,0,.12.3.2,1.43.37,2.92.75,4.48,1.13l.59.14h-2.21a2.36,2.36,0,0,1-.43-.09l-3.57-.92,1.2.84c.21.14.17.18-.12.17h-1.5a.47.47,0,0,1-.37-.11l-2.75-2.3c-.11-.09-.08-.11.05-.11h1.19a.56.56,0,0,1,.37.13l1.38,1,.15-.16a3.23,3.23,0,0,0,.44-.84c0-.08.11-.11.31-.11Z"/><path class="cls-7" d="M151.7,195.09l.83,1.57c0,.05.16.15,0,.15a2.9,2.9,0,0,1-.72,0s-.06-.08-.08-.12c-.33-.74-.66-1.49-1-2.24-.06-.11,0-.15.15-.14h.06a3.74,3.74,0,0,1,2.41.55c1,.39,2,.78,3.07,1.17a2.81,2.81,0,0,1,.33.13c.05-.08-.06-.15-.12-.21l-1.5-1.46c-.14-.13-.16-.19.08-.18.4,0,.39,0,.68.27l2.35,2.1c.13.12.12.16-.14.15h-1a3.84,3.84,0,0,1-1.48-.25c-1.26-.46-2.45-.92-3.54-1.37A1,1,0,0,0,151.7,195.09Z"/><path class="cls-7" d="M133.51,194.3h2.1c.26,0,.18.06,0,.19a.89.89,0,0,1-.6.19h-1.1a.86.86,0,0,0-.48.15l-3.26,1.85a1,1,0,0,1-.61.15H128c-.25,0-.23,0,0-.14l3.65-1.83c.29-.15.29-.18.05-.18h-1.18c-.16,0-.12,0,.08-.13.54-.25.53-.25.9-.25Z"/><path class="cls-7" d="M146,196.82h-2.08c-.8,0-1.21-.25-1-.65.27-.57.56-1.15.83-1.73.05-.11.12-.14.29-.14h1.11c.18,0,.22,0,.19.15-.16.55-.3,1.1-.45,1.65-.08.3,0,.35.61.35q1.31,0,2.61,0c.32,0,.33.07.34.19s0,.19-.3.18Z"/><path class="cls-7" d="M148.72,195.56c-.06-.37-.11-.74-.18-1.12,0-.11,0-.14.19-.14h1.17c.13,0,.19,0,.22.12.28.76.56,1.52.85,2.29,0,.09,0,.11-.2.11h-1.56c-.23,0-.31,0-.32-.14C148.85,196.31,148.78,195.94,148.72,195.56Z"/><path class="cls-7" d="M141.61,195.74c-.24,0-.47,0-.71,0s-.2,0-.13-.12c.17-.25.16-.25.6-.25h1.19c.29,0,.16.11.11.2s0,.18-.32.17S141.86,195.74,141.61,195.74Z"/><path class="cls-7" d="M163,195a2.78,2.78,0,0,1-1.14-.32c-.33-.17-.4-.32-.15-.33a3.42,3.42,0,0,1,1.18.33C163.28,194.81,163.33,195,163,195Zm-.13-.06c.25,0,.21-.11-.09-.26a2.48,2.48,0,0,0-.93-.26c-.22,0-.18.11.11.27A2.45,2.45,0,0,0,162.91,194.89Z"/><path class="cls-7" d="M162.53,194.59c0,.06.32.12.39.19-.57-.18-.64-.18-.41,0a2.39,2.39,0,0,1-.59-.32c0-.05.14,0,.37,0v0l-.17,0c-.07,0-.18,0,0,.06a.47.47,0,0,0,.29.06l.07,0Z"/><path class="cls-7" d="M162.29,194.47a.46.46,0,0,1,.24.12l-.07,0-.16-.07Z"/></g></g></svg>