<svg xmlns="http://www.w3.org/2000/svg" xmlns:xlink="http://www.w3.org/1999/xlink" viewBox="0 0 103.82 38.48"><defs><style>.cls-1{fill:url(#linear-gradient);}.cls-2{fill:url(#linear-gradient-2);}.cls-3{fill:#282828;}.cls-4{fill:#444;}</style><linearGradient id="linear-gradient" x1="16.88" y1="53.98" x2="86.35" y2="-15.5" gradientUnits="userSpaceOnUse"><stop offset="0" stop-color="#020202"/><stop offset="0.51" stop-color="#151515"/><stop offset="1" stop-color="#020202"/></linearGradient><linearGradient id="linear-gradient-2" x1="16.82" y1="54.34" x2="87" y2="-15.85" xlink:href="#linear-gradient"/></defs><g id="Layer_2" data-name="Layer 2"><g id="Layer_1-2" data-name="Layer 1"><rect class="cls-1" x="1.38" width="100.46" height="38.48"/><rect class="cls-2" y="0.97" width="103.82" height="36.55"/><path class="cls-3" d="M57.05,16a2.31,2.31,0,0,0-.76-.1H49.76c-1.48,0-3,0-4.45,0h0c-2.5,0-3.28-1.23-3.71-3.06a7,7,0,0,1-.15-2c0-.31.08-.37.37-.37h5l2.29,0c.46,0,.91,0,1.37,0,2.23.09,5.72,1.76,6.53,5.16,0,.09,0,.19,0,.31Z"/><path class="cls-4" d="M49.09,10.38v.25l1.38,0c2.18.1,5.62,1.73,6.41,5.07,0,0,0,.08,0,.12a2.68,2.68,0,0,0-.62-.05H49.76c-1.48,0-3,0-4.46,0h-.09c-2.32,0-3.08-1.18-3.5-3a7.51,7.51,0,0,1-.15-2c0-.24,0-.24.25-.24h7.28v-.25m0,0-2.28,0h-5c-.37,0-.48.11-.5.48a7.64,7.64,0,0,0,.16,2c.45,1.9,1.29,3.15,3.74,3.15h.1c1.48,0,3,0,4.45,0h6.52a2,2,0,0,1,.92.17,4.17,4.17,0,0,0-.08-.55c-.79-3.35-4.23-5.15-6.64-5.26l-1.39,0Z"/><path class="cls-3" d="M53.53,28.19c0-.08-.16-.09-.26-.09H44.46V28a1.44,1.44,0,0,1,0-.6,1.43,1.43,0,0,1,.63-.06H49.9a.73.73,0,0,0,.53-.15.67.67,0,0,0,.15-.5c0-.28-.07-.66-.55-.66h-.65a.55.55,0,0,0,.07-.42c0-.2,0-.39,0-.48a.43.43,0,0,1,.28-.08l.26,0,.3,0H51c.64,0,.7-.05.73-.64a.81.81,0,0,0-.12-.58.6.6,0,0,0-.46-.14l-1.52,0H47.85a.45.45,0,0,1,0-.08c.06-.8.06-.8.85-.8h6.51A6.74,6.74,0,0,0,61,19.79a11.18,11.18,0,0,1-1,4.35,7,7,0,0,1-6,4.05h-.5Z"/><path class="cls-4" d="M60.88,20.21a10.63,10.63,0,0,1-1,3.88,6.77,6.77,0,0,1-5.87,4h-.39a.57.57,0,0,0-.34-.1H44.57c0-.22,0-.45,0-.48a2.4,2.4,0,0,1,.55,0h4.85a.8.8,0,0,0,.6-.19.74.74,0,0,0,.18-.58c0-.52-.23-.78-.67-.78H49.6c0-.1,0-.21,0-.31s0-.33,0-.38.06,0,.19,0l.25,0,.31,0H51c.67,0,.82-.07.85-.76V24.4a.78.78,0,0,0-.16-.6.73.73,0,0,0-.55-.19H51.1c-.48,0-1,0-1.45,0H48a1.64,1.64,0,0,1,.09-.58,1.84,1.84,0,0,1,.65-.05h6.49a6.8,6.8,0,0,0,5.65-2.78m.22-.71h0l-.11.15a6.59,6.59,0,0,1-5.74,3.09H48.72c-.91,0-.91,0-1,.92a1.23,1.23,0,0,1,0,.21h1.95c.49,0,1,0,1.46,0h0c.38,0,.48.14.46.53,0,.59,0,.59-.61.59h-.67c-.18,0-.38,0-.56,0a.49.49,0,0,0-.36.11c-.21.2,0,.62-.07.94,0,.05-.08.11,0,.18H50c.32,0,.42.17.42.53s-.16.52-.53.52H45.07c-.83,0-.83,0-.75.79a2,2,0,0,1,0,.23h8.94a.32.32,0,0,1,.25.1H54a7.07,7.07,0,0,0,6.07-4.12,11.72,11.72,0,0,0,1.06-4.7Z"/><path class="cls-3" d="M57.26,21.38c.16-.57.32-1.11.44-1.66a7.94,7.94,0,0,0-1.37-6.83,7.72,7.72,0,0,0-3.22-2.33l-.1,0h.11a7.25,7.25,0,0,1,6.09,2.82A9,9,0,0,1,61,17.83a1.43,1.43,0,0,1-.14.87A6.54,6.54,0,0,1,57.07,22C57.13,21.78,57.2,21.58,57.26,21.38Z"/><path class="cls-4" d="M53.65,10.66a7,7,0,0,1,5.46,2.76,8.92,8.92,0,0,1,1.79,4.43,1.33,1.33,0,0,1-.13.79,6.46,6.46,0,0,1-3.51,3.15l.12-.38c.17-.57.33-1.11.44-1.67a8,8,0,0,0-1.39-6.93,7.61,7.61,0,0,0-2.78-2.15m-.53-.26h-.54a1,1,0,0,0,.49.27A7.59,7.59,0,0,1,56.23,13a7.77,7.77,0,0,1,1.34,6.72c-.16.83-.44,1.62-.68,2.5A6.79,6.79,0,0,0,61,18.76a1.48,1.48,0,0,0,.15-.94,9.11,9.11,0,0,0-1.83-4.55,7.36,7.36,0,0,0-6.19-2.87Z"/><path class="cls-3" d="M44.2,26h-.27c-.37,0-.37,0-.38-.6a2.83,2.83,0,0,0,0-.3V25a.57.57,0,0,0,.36.1H44l.14,0,.19,0c.08,0,.1,0,.11.07a2.26,2.26,0,0,1,0,.86Zm-1.77-1.2a1.09,1.09,0,0,1,0-.48c0-.06,0-.12,0-.18a.31.31,0,0,0,.19.06h.28c.21,0,.29,0,.29.27a.36.36,0,0,1-.06.27.28.28,0,0,1-.21.06l-.32,0A.47.47,0,0,0,42.43,24.78Z"/><path class="cls-4" d="M42.94,24.29h.11a.44.44,0,0,1,0,.15.36.36,0,0,1,0,.19h-.52a1.15,1.15,0,0,1,0-.31v0h.4m1.39.88a2.06,2.06,0,0,1,0,.7h-.62a2.19,2.19,0,0,1,0-.48v-.16a.66.66,0,0,0,.21,0H44l.16,0,.15,0m-1.59-1.31h-.23c-.09,0-.21,0-.21.13,0,.33-.12.67.08,1a.27.27,0,0,1,.22-.09l.17,0h.15c.24,0,.4-.07.4-.45s-.17-.4-.38-.4h-.32a.23.23,0,0,1-.15-.05l0,0,.45,0c.43,0,.43.18.43,1,0,.14,0,.28,0,.41,0,.65,0,.73.51.73h.47c.08,0,.15,0,.16-.1a2.33,2.33,0,0,0,0-.91.21.21,0,0,0-.23-.17c-.11,0-.24,0-.34,0h-.12c-.33,0-.44-.16-.41-.55,0-.58,0-.59-.57-.59h-.16Z"/><path class="cls-3" d="M41.5,28.24c-.11,0-.19,0-.2-.48,0-.19,0-.31.07-.37a.39.39,0,0,1,.28-.07h.12c.48,0,.48,0,.48.49s0,.4-.56.4Z"/><path class="cls-4" d="M41.65,27.44h.19l.27,0a2.93,2.93,0,0,1,0,.33,1.86,1.86,0,0,1,0,.26,2.31,2.31,0,0,1-.42,0h-.07l-.14,0a.76.76,0,0,1-.06-.36c0-.22,0-.27,0-.28s0,0,.19,0m0-.25c-.35,0-.49.12-.48.57s.07.6.33.6a.65.65,0,0,0,.19,0h0c.66,0,.66,0,.66-.53s0-.58-.59-.61Z"/><path class="cls-3" d="M44.8,23.79l-.16,0h-.21a1.08,1.08,0,0,1-.32,0,1.83,1.83,0,0,1,0-.26l0-.26a.4.4,0,0,1,0-.28c0-.05.14-.06.26-.06l.21,0,.16,0c.2,0,.22.07.22.36a1.62,1.62,0,0,0,0,.22.45.45,0,0,1,0,.33S44.9,23.79,44.8,23.79Z"/><path class="cls-4" d="M44.74,23h.07a1.06,1.06,0,0,1,0,.22,1.93,1.93,0,0,0,0,.24c0,.17,0,.22-.05.22h0a.34.34,0,0,1-.13,0h-.45a.76.76,0,0,1,0-.16c0-.07,0-.16,0-.26a.49.49,0,0,1,0-.19l.18,0,.22,0h.14m0-.25h-.18c-.32.06-.67-.07-.62.5s0,.65.43.65h.24l.19,0c.21,0,.34-.12.3-.5s.07-.69-.36-.69Z"/><path class="cls-3" d="M48,25.9a.46.46,0,0,0-.21,0h-.17l-.16,0a.22.22,0,0,1-.18-.06c-.05,0-.06-.14-.05-.28a.78.78,0,0,0,0-.43.66.66,0,0,1,.21,0h.22l.25,0H48c0,.13,0,.25,0,.36A.88.88,0,0,1,48,25.9Z"/><path class="cls-4" d="M47.42,25.21l.21,0h.25a2,2,0,0,0,0,.25,1.1,1.1,0,0,1,0,.25h-.12l-.19,0h-.23s0,0,0-.18v-.06a1,1,0,0,0,0-.3h.05m0-.25a.76.76,0,0,0-.4.11c.16.13.11.32.09.47,0,.32.07.47.35.47h.11a1.46,1.46,0,0,1,.22,0,.32.32,0,0,1,.25.11c.23-.3.06-.64.09-1A.12.12,0,0,0,48,25h-.12c-.16,0-.31,0-.47,0Z"/><path class="cls-3" d="M47,25.07c.16.13.11.32.09.47,0,.36.09.5.46.47.15,0,.34-.07.47.08C46.79,26.11,47,26.32,47,25.07Z"/><path class="cls-4" d="M47,25.07c0,.91-.13,1,.29,1l.73,0a.32.32,0,0,0-.25-.11,1.46,1.46,0,0,0-.22,0h-.11c-.28,0-.38-.15-.35-.47,0-.15.07-.34-.09-.47Z"/><path class="cls-3" d="M45.91,24.77c-.23,0-.25-.06-.26-.33s0-.23.05-.25l.14,0h.07l.18,0c.09,0,.16,0,.17.3,0,.13,0,.21,0,.25s-.13.06-.29.06Z"/><path class="cls-4" d="M46.1,24.28s0,0,0,.19a.31.31,0,0,1,0,.15.75.75,0,0,1-.21,0H45.8s0-.05,0-.19,0-.14,0-.15H46l.11,0M45.79,24c-.2,0-.27.14-.26.41s0,.44.38.44h0c.33,0,.47-.07.46-.43s-.06-.42-.29-.42a.57.57,0,0,1-.3,0Z"/></g></g></svg>