<svg xmlns="http://www.w3.org/2000/svg" xmlns:xlink="http://www.w3.org/1999/xlink" viewBox="0 0 568.41 56.16"><defs><style>.cls-1{fill:url(#linear-gradient);}.cls-2{fill:#1e1e1e;}.cls-3{fill:url(#linear-gradient-2);}.cls-4{fill:url(#linear-gradient-3);}.cls-5{fill:url(#linear-gradient-4);}.cls-6{fill:url(#linear-gradient-5);}.cls-7{fill:url(#linear-gradient-6);}.cls-8{fill:url(#linear-gradient-7);}.cls-9{fill:url(#linear-gradient-8);}.cls-10{fill:url(#linear-gradient-9);}.cls-11{fill:url(#linear-gradient-10);}.cls-12{fill:url(#linear-gradient-11);}.cls-13{fill:url(#linear-gradient-12);}.cls-14{fill:url(#linear-gradient-13);}.cls-15{fill:url(#linear-gradient-14);}.cls-16{fill:url(#linear-gradient-15);}.cls-17{fill:url(#linear-gradient-16);}.cls-18{fill:url(#linear-gradient-17);}.cls-19{fill:url(#linear-gradient-18);}.cls-20{fill:url(#linear-gradient-19);}.cls-21{fill:url(#linear-gradient-20);}.cls-22{fill:url(#linear-gradient-21);}.cls-23{fill:url(#linear-gradient-22);}.cls-24{fill:url(#linear-gradient-23);}.cls-25{fill:url(#linear-gradient-24);}.cls-26{fill:url(#linear-gradient-25);}.cls-27{fill:url(#linear-gradient-26);}.cls-28{fill:url(#linear-gradient-27);}.cls-29{fill:url(#linear-gradient-28);}.cls-30{fill:url(#linear-gradient-29);}.cls-31{fill:url(#linear-gradient-30);}.cls-32{fill:url(#linear-gradient-31);}.cls-33{fill:url(#linear-gradient-32);}.cls-34{fill:url(#linear-gradient-33);}.cls-35{fill:url(#linear-gradient-34);}.cls-36{fill:url(#linear-gradient-35);}.cls-37{fill:url(#linear-gradient-36);}.cls-38{fill:url(#linear-gradient-37);}.cls-39{fill:url(#linear-gradient-38);}.cls-40{fill:url(#linear-gradient-39);}.cls-41{fill:url(#linear-gradient-40);}.cls-42{fill:url(#linear-gradient-41);}.cls-43{fill:url(#linear-gradient-42);}.cls-44{fill:url(#linear-gradient-43);}.cls-45{fill:url(#linear-gradient-44);}.cls-46{fill:url(#linear-gradient-45);}.cls-47{fill:url(#linear-gradient-46);}.cls-48{fill:url(#linear-gradient-47);}.cls-49{fill:url(#linear-gradient-48);}.cls-50{fill:url(#linear-gradient-49);}.cls-51{fill:url(#linear-gradient-50);}.cls-52{fill:url(#linear-gradient-51);}.cls-53{fill:url(#linear-gradient-52);}.cls-54{fill:url(#linear-gradient-53);}.cls-55{fill:url(#linear-gradient-54);}.cls-56{fill:url(#linear-gradient-55);}.cls-57{fill:url(#linear-gradient-56);}.cls-58{fill:url(#linear-gradient-57);}.cls-59{fill:url(#linear-gradient-58);}.cls-60{fill:url(#linear-gradient-59);}.cls-61{fill:url(#linear-gradient-60);}.cls-62{fill:url(#linear-gradient-61);}.cls-63{fill:url(#linear-gradient-62);}.cls-64{fill:url(#linear-gradient-63);}.cls-65{fill:url(#linear-gradient-64);}.cls-66{fill:url(#linear-gradient-65);}.cls-67{fill:url(#linear-gradient-66);}.cls-68{fill:url(#linear-gradient-67);}.cls-69{fill:url(#linear-gradient-68);}.cls-70{fill:url(#linear-gradient-69);}.cls-71{fill:url(#linear-gradient-70);}.cls-72{fill:url(#linear-gradient-71);}.cls-73{fill:url(#linear-gradient-72);}.cls-74{fill:url(#linear-gradient-73);}.cls-75{fill:url(#linear-gradient-74);}.cls-76{fill:url(#linear-gradient-75);}.cls-77{fill:url(#linear-gradient-76);}.cls-78{fill:url(#linear-gradient-77);}.cls-79{fill:url(#linear-gradient-78);}.cls-80{fill:url(#linear-gradient-79);}.cls-81{fill:url(#linear-gradient-80);}.cls-82{fill:url(#linear-gradient-81);}.cls-83{fill:url(#linear-gradient-82);}.cls-84{fill:url(#linear-gradient-83);}.cls-85{fill:url(#linear-gradient-84);}.cls-86{fill:url(#linear-gradient-85);}.cls-87{fill:url(#linear-gradient-86);}.cls-88{fill:url(#linear-gradient-87);}.cls-89{fill:url(#linear-gradient-88);}.cls-90{fill:url(#linear-gradient-89);}.cls-91{fill:#090a0a;stroke:#999;}.cls-103,.cls-104,.cls-91{stroke-miterlimit:10;}.cls-92{fill:url(#linear-gradient-90);}.cls-93{fill:url(#linear-gradient-91);}.cls-94{fill:url(#linear-gradient-92);}.cls-95{fill:url(#linear-gradient-93);}.cls-96{fill:url(#linear-gradient-94);}.cls-97{fill:url(#linear-gradient-95);}.cls-98{fill:url(#linear-gradient-96);}.cls-99{fill:url(#linear-gradient-97);}.cls-100{fill:url(#linear-gradient-98);}.cls-101{fill:url(#linear-gradient-99);}.cls-102{fill:url(#linear-gradient-100);}.cls-103{fill:none;stroke:#2b2b2b;}.cls-104,.cls-106{fill:#2b2b2b;}.cls-104{stroke:#8b8b8c;}.cls-105{fill:#1d1d1b;}</style><linearGradient id="linear-gradient" x1="284.2" y1="56.16" x2="284.2" gradientUnits="userSpaceOnUse"><stop offset="0" stop-color="#e8e8e8"/><stop offset="0.03" stop-color="#b0b0b0"/><stop offset="0.96" stop-color="#b0b0b0"/><stop offset="1" stop-color="#e8e8e8"/></linearGradient><linearGradient id="linear-gradient-2" x1="75.52" y1="2675.6" x2="75.52" y2="2660.78" gradientTransform="translate(481.31 2702.69) rotate(180)" gradientUnits="userSpaceOnUse"><stop offset="0" stop-color="#aaa"/><stop offset="0.72" stop-color="#aaa"/><stop offset="1" stop-color="#7a7a7a"/></linearGradient><linearGradient id="linear-gradient-3" x1="71.23" y1="2660.64" x2="79.8" y2="2660.64" gradientTransform="translate(330.28 -2618.58)" xlink:href="#linear-gradient-2"/><linearGradient id="linear-gradient-4" x1="70.67" y1="2674.29" x2="70.67" y2="2669.34" gradientTransform="translate(339.97 -2640.94)" gradientUnits="userSpaceOnUse"><stop offset="0" stop-color="#946014"/><stop offset="1" stop-color="#1d1d1b"/></linearGradient><linearGradient id="linear-gradient-5" x1="72.06" y1="2674.29" x2="72.06" y2="2669.34" gradientTransform="translate(337.2 -2640.94)" xlink:href="#linear-gradient-4"/><linearGradient id="linear-gradient-6" x1="73.44" y1="2674.29" x2="73.44" y2="2669.34" gradientTransform="translate(334.43 -2640.94)" xlink:href="#linear-gradient-4"/><linearGradient id="linear-gradient-7" x1="74.82" y1="2674.29" x2="74.82" y2="2669.34" gradientTransform="translate(331.66 -2640.94)" xlink:href="#linear-gradient-4"/><linearGradient id="linear-gradient-8" x1="76.21" y1="2674.29" x2="76.21" y2="2669.34" gradientTransform="translate(328.9 -2640.94)" xlink:href="#linear-gradient-4"/><linearGradient id="linear-gradient-9" x1="77.59" y1="2674.29" x2="77.59" y2="2669.34" gradientTransform="translate(326.13 -2640.94)" xlink:href="#linear-gradient-4"/><linearGradient id="linear-gradient-10" x1="78.97" y1="2674.29" x2="78.97" y2="2669.34" gradientTransform="translate(323.36 -2640.94)" xlink:href="#linear-gradient-4"/><linearGradient id="linear-gradient-11" x1="80.36" y1="2674.29" x2="80.36" y2="2669.34" gradientTransform="translate(320.59 -2640.94)" xlink:href="#linear-gradient-4"/><linearGradient id="linear-gradient-12" x1="75.52" y1="2667.59" x2="75.52" y2="2665.73" gradientTransform="translate(330.28 -2630.63)" gradientUnits="userSpaceOnUse"><stop offset="0"/><stop offset="1" stop-color="#090909" stop-opacity="0"/></linearGradient><linearGradient id="linear-gradient-13" x1="54.94" y1="2675.6" x2="54.94" y2="2660.78" xlink:href="#linear-gradient-2"/><linearGradient id="linear-gradient-14" x1="50.66" y1="2660.64" x2="59.22" y2="2660.64" gradientTransform="translate(371.43 -2618.58)" xlink:href="#linear-gradient-2"/><linearGradient id="linear-gradient-15" x1="50.1" y1="2674.29" x2="50.1" y2="2669.34" gradientTransform="translate(381.11 -2640.94)" xlink:href="#linear-gradient-4"/><linearGradient id="linear-gradient-16" x1="51.48" y1="2674.29" x2="51.48" y2="2669.34" gradientTransform="translate(378.35 -2640.94)" xlink:href="#linear-gradient-4"/><linearGradient id="linear-gradient-17" x1="52.87" y1="2674.29" x2="52.87" y2="2669.34" gradientTransform="translate(375.58 -2640.94)" xlink:href="#linear-gradient-4"/><linearGradient id="linear-gradient-18" x1="54.25" y1="2674.29" x2="54.25" y2="2669.34" gradientTransform="translate(372.81 -2640.94)" xlink:href="#linear-gradient-4"/><linearGradient id="linear-gradient-19" x1="55.63" y1="2674.29" x2="55.63" y2="2669.34" gradientTransform="translate(370.04 -2640.94)" xlink:href="#linear-gradient-4"/><linearGradient id="linear-gradient-20" x1="57.02" y1="2674.29" x2="57.02" y2="2669.34" gradientTransform="translate(367.28 -2640.94)" xlink:href="#linear-gradient-4"/><linearGradient id="linear-gradient-21" x1="58.4" y1="2674.29" x2="58.4" y2="2669.34" gradientTransform="translate(364.51 -2640.94)" xlink:href="#linear-gradient-4"/><linearGradient id="linear-gradient-22" x1="59.79" y1="2674.29" x2="59.79" y2="2669.34" gradientTransform="translate(361.74 -2640.94)" xlink:href="#linear-gradient-4"/><linearGradient id="linear-gradient-23" x1="54.94" y1="2667.59" x2="54.94" y2="2665.73" gradientTransform="translate(371.43 -2630.63)" xlink:href="#linear-gradient-12"/><linearGradient id="linear-gradient-24" x1="34.37" y1="2675.6" x2="34.37" y2="2660.78" xlink:href="#linear-gradient-2"/><linearGradient id="linear-gradient-25" x1="30.09" y1="2660.64" x2="38.65" y2="2660.64" gradientTransform="translate(412.57 -2618.58)" xlink:href="#linear-gradient-2"/><linearGradient id="linear-gradient-26" x1="29.53" y1="2674.29" x2="29.53" y2="2669.34" gradientTransform="translate(422.26 -2640.94)" xlink:href="#linear-gradient-4"/><linearGradient id="linear-gradient-27" x1="30.91" y1="2674.29" x2="30.91" y2="2669.34" gradientTransform="translate(419.49 -2640.94)" xlink:href="#linear-gradient-4"/><linearGradient id="linear-gradient-28" x1="32.29" y1="2674.29" x2="32.29" y2="2669.34" gradientTransform="translate(416.72 -2640.94)" xlink:href="#linear-gradient-4"/><linearGradient id="linear-gradient-29" x1="33.68" y1="2674.29" x2="33.68" y2="2669.34" gradientTransform="translate(413.96 -2640.94)" xlink:href="#linear-gradient-4"/><linearGradient id="linear-gradient-30" x1="35.06" y1="2674.29" x2="35.06" y2="2669.34" gradientTransform="translate(411.19 -2640.94)" xlink:href="#linear-gradient-4"/><linearGradient id="linear-gradient-31" x1="36.45" y1="2674.29" x2="36.45" y2="2669.34" gradientTransform="translate(408.42 -2640.94)" xlink:href="#linear-gradient-4"/><linearGradient id="linear-gradient-32" x1="37.83" y1="2674.29" x2="37.83" y2="2669.34" gradientTransform="translate(405.65 -2640.94)" xlink:href="#linear-gradient-4"/><linearGradient id="linear-gradient-33" x1="39.21" y1="2674.29" x2="39.21" y2="2669.34" gradientTransform="translate(402.89 -2640.94)" xlink:href="#linear-gradient-4"/><linearGradient id="linear-gradient-34" x1="34.37" y1="2667.59" x2="34.37" y2="2665.73" gradientTransform="translate(412.57 -2630.63)" xlink:href="#linear-gradient-12"/><linearGradient id="linear-gradient-35" x1="13.8" y1="2675.6" x2="13.8" y2="2660.78" xlink:href="#linear-gradient-2"/><linearGradient id="linear-gradient-36" x1="9.52" y1="2660.64" x2="18.08" y2="2660.64" gradientTransform="translate(453.72 -2618.58)" xlink:href="#linear-gradient-2"/><linearGradient id="linear-gradient-37" x1="8.95" y1="2674.29" x2="8.95" y2="2669.34" gradientTransform="translate(463.4 -2640.94)" xlink:href="#linear-gradient-4"/><linearGradient id="linear-gradient-38" x1="10.34" y1="2674.29" x2="10.34" y2="2669.34" gradientTransform="translate(460.64 -2640.94)" xlink:href="#linear-gradient-4"/><linearGradient id="linear-gradient-39" x1="11.72" y1="2674.29" x2="11.72" y2="2669.34" gradientTransform="translate(457.87 -2640.94)" xlink:href="#linear-gradient-4"/><linearGradient id="linear-gradient-40" x1="13.1" y1="2674.29" x2="13.1" y2="2669.34" gradientTransform="translate(455.1 -2640.94)" xlink:href="#linear-gradient-4"/><linearGradient id="linear-gradient-41" x1="14.49" y1="2674.29" x2="14.49" y2="2669.34" gradientTransform="translate(452.33 -2640.94)" xlink:href="#linear-gradient-4"/><linearGradient id="linear-gradient-42" x1="15.87" y1="2674.29" x2="15.87" y2="2669.34" gradientTransform="translate(449.57 -2640.94)" xlink:href="#linear-gradient-4"/><linearGradient id="linear-gradient-43" x1="17.26" y1="2674.29" x2="17.26" y2="2669.34" gradientTransform="translate(446.8 -2640.94)" xlink:href="#linear-gradient-4"/><linearGradient id="linear-gradient-44" x1="18.64" y1="2674.29" x2="18.64" y2="2669.34" gradientTransform="translate(444.03 -2640.94)" xlink:href="#linear-gradient-4"/><linearGradient id="linear-gradient-45" x1="13.8" y1="2667.59" x2="13.8" y2="2665.73" gradientTransform="translate(453.72 -2630.63)" xlink:href="#linear-gradient-12"/><linearGradient id="linear-gradient-46" x1="409.82" y1="-305.1" x2="409.82" y2="-319.93" gradientTransform="translate(57.7 332.21)" xlink:href="#linear-gradient-2"/><linearGradient id="linear-gradient-47" x1="405.53" y1="-320.07" x2="414.1" y2="-320.07" gradientTransform="translate(57.7 332.21)" xlink:href="#linear-gradient-2"/><linearGradient id="linear-gradient-48" x1="404.97" y1="-306.42" x2="404.97" y2="-311.37" gradientTransform="translate(57.7 332.21)" xlink:href="#linear-gradient-4"/><linearGradient id="linear-gradient-49" x1="406.36" y1="-306.42" x2="406.36" y2="-311.37" gradientTransform="translate(57.7 332.21)" xlink:href="#linear-gradient-4"/><linearGradient id="linear-gradient-50" x1="407.74" y1="-306.42" x2="407.74" y2="-311.37" gradientTransform="translate(57.7 332.21)" xlink:href="#linear-gradient-4"/><linearGradient id="linear-gradient-51" x1="409.12" y1="-306.42" x2="409.12" y2="-311.37" gradientTransform="translate(57.7 332.21)" xlink:href="#linear-gradient-4"/><linearGradient id="linear-gradient-52" x1="410.51" y1="-306.42" x2="410.51" y2="-311.37" gradientTransform="translate(57.7 332.21)" xlink:href="#linear-gradient-4"/><linearGradient id="linear-gradient-53" x1="411.89" y1="-306.42" x2="411.89" y2="-311.37" gradientTransform="translate(57.7 332.21)" xlink:href="#linear-gradient-4"/><linearGradient id="linear-gradient-54" x1="413.28" y1="-306.42" x2="413.28" y2="-311.37" gradientTransform="translate(57.7 332.21)" xlink:href="#linear-gradient-4"/><linearGradient id="linear-gradient-55" x1="414.66" y1="-306.42" x2="414.66" y2="-311.37" gradientTransform="translate(57.7 332.21)" xlink:href="#linear-gradient-4"/><linearGradient id="linear-gradient-56" x1="409.82" y1="-313.11" x2="409.82" y2="-314.98" gradientTransform="translate(57.7 332.21)" xlink:href="#linear-gradient-12"/><linearGradient id="linear-gradient-57" x1="389.24" y1="-305.1" x2="389.24" y2="-319.93" gradientTransform="translate(57.7 332.21)" xlink:href="#linear-gradient-2"/><linearGradient id="linear-gradient-58" x1="384.96" y1="-320.07" x2="393.52" y2="-320.07" gradientTransform="translate(57.7 332.21)" xlink:href="#linear-gradient-2"/><linearGradient id="linear-gradient-59" x1="384.4" y1="-306.42" x2="384.4" y2="-311.37" gradientTransform="translate(57.7 332.21)" xlink:href="#linear-gradient-4"/><linearGradient id="linear-gradient-60" x1="385.78" y1="-306.42" x2="385.78" y2="-311.37" gradientTransform="translate(57.7 332.21)" xlink:href="#linear-gradient-4"/><linearGradient id="linear-gradient-61" x1="387.17" y1="-306.42" x2="387.17" y2="-311.37" gradientTransform="translate(57.7 332.21)" xlink:href="#linear-gradient-4"/><linearGradient id="linear-gradient-62" x1="388.55" y1="-306.42" x2="388.55" y2="-311.37" gradientTransform="translate(57.7 332.21)" xlink:href="#linear-gradient-4"/><linearGradient id="linear-gradient-63" x1="389.94" y1="-306.42" x2="389.94" y2="-311.37" gradientTransform="translate(57.7 332.21)" xlink:href="#linear-gradient-4"/><linearGradient id="linear-gradient-64" x1="391.32" y1="-306.42" x2="391.32" y2="-311.37" gradientTransform="translate(57.7 332.21)" xlink:href="#linear-gradient-4"/><linearGradient id="linear-gradient-65" x1="392.7" y1="-306.42" x2="392.7" y2="-311.37" gradientTransform="translate(57.7 332.21)" xlink:href="#linear-gradient-4"/><linearGradient id="linear-gradient-66" x1="394.09" y1="-306.42" x2="394.09" y2="-311.37" gradientTransform="translate(57.7 332.21)" xlink:href="#linear-gradient-4"/><linearGradient id="linear-gradient-67" x1="389.24" y1="-313.11" x2="389.24" y2="-314.98" gradientTransform="translate(57.7 332.21)" xlink:href="#linear-gradient-12"/><linearGradient id="linear-gradient-68" x1="368.67" y1="-305.1" x2="368.67" y2="-319.93" gradientTransform="translate(57.7 332.21)" xlink:href="#linear-gradient-2"/><linearGradient id="linear-gradient-69" x1="364.39" y1="-320.07" x2="372.95" y2="-320.07" gradientTransform="translate(57.7 332.21)" xlink:href="#linear-gradient-2"/><linearGradient id="linear-gradient-70" x1="363.83" y1="-306.42" x2="363.83" y2="-311.37" gradientTransform="translate(57.7 332.21)" xlink:href="#linear-gradient-4"/><linearGradient id="linear-gradient-71" x1="365.21" y1="-306.42" x2="365.21" y2="-311.37" gradientTransform="translate(57.7 332.21)" xlink:href="#linear-gradient-4"/><linearGradient id="linear-gradient-72" x1="366.59" y1="-306.42" x2="366.59" y2="-311.37" gradientTransform="translate(57.7 332.21)" xlink:href="#linear-gradient-4"/><linearGradient id="linear-gradient-73" x1="367.98" y1="-306.42" x2="367.98" y2="-311.37" gradientTransform="translate(57.7 332.21)" xlink:href="#linear-gradient-4"/><linearGradient id="linear-gradient-74" x1="369.36" y1="-306.42" x2="369.36" y2="-311.37" gradientTransform="translate(57.7 332.21)" xlink:href="#linear-gradient-4"/><linearGradient id="linear-gradient-75" x1="370.75" y1="-306.42" x2="370.75" y2="-311.37" gradientTransform="translate(57.7 332.21)" xlink:href="#linear-gradient-4"/><linearGradient id="linear-gradient-76" x1="372.13" y1="-306.42" x2="372.13" y2="-311.37" gradientTransform="translate(57.7 332.21)" xlink:href="#linear-gradient-4"/><linearGradient id="linear-gradient-77" x1="373.51" y1="-306.42" x2="373.51" y2="-311.37" gradientTransform="translate(57.7 332.21)" xlink:href="#linear-gradient-4"/><linearGradient id="linear-gradient-78" x1="368.67" y1="-313.11" x2="368.67" y2="-314.98" gradientTransform="translate(57.7 332.21)" xlink:href="#linear-gradient-12"/><linearGradient id="linear-gradient-79" x1="348.1" y1="-305.1" x2="348.1" y2="-319.93" gradientTransform="translate(57.7 332.21)" xlink:href="#linear-gradient-2"/><linearGradient id="linear-gradient-80" x1="343.82" y1="-320.07" x2="352.38" y2="-320.07" gradientTransform="translate(57.7 332.21)" xlink:href="#linear-gradient-2"/><linearGradient id="linear-gradient-81" x1="343.25" y1="-306.42" x2="343.25" y2="-311.37" gradientTransform="translate(57.7 332.21)" xlink:href="#linear-gradient-4"/><linearGradient id="linear-gradient-82" x1="344.64" y1="-306.42" x2="344.64" y2="-311.37" gradientTransform="translate(57.7 332.21)" xlink:href="#linear-gradient-4"/><linearGradient id="linear-gradient-83" x1="346.02" y1="-306.42" x2="346.02" y2="-311.37" gradientTransform="translate(57.7 332.21)" xlink:href="#linear-gradient-4"/><linearGradient id="linear-gradient-84" x1="347.41" y1="-306.42" x2="347.41" y2="-311.37" gradientTransform="translate(57.7 332.21)" xlink:href="#linear-gradient-4"/><linearGradient id="linear-gradient-85" x1="348.79" y1="-306.42" x2="348.79" y2="-311.37" gradientTransform="translate(57.7 332.21)" xlink:href="#linear-gradient-4"/><linearGradient id="linear-gradient-86" x1="350.17" y1="-306.42" x2="350.17" y2="-311.37" gradientTransform="translate(57.7 332.21)" xlink:href="#linear-gradient-4"/><linearGradient id="linear-gradient-87" x1="351.56" y1="-306.42" x2="351.56" y2="-311.37" gradientTransform="translate(57.7 332.21)" xlink:href="#linear-gradient-4"/><linearGradient id="linear-gradient-88" x1="352.94" y1="-306.42" x2="352.94" y2="-311.37" gradientTransform="translate(57.7 332.21)" xlink:href="#linear-gradient-4"/><linearGradient id="linear-gradient-89" x1="348.1" y1="-313.11" x2="348.1" y2="-314.98" gradientTransform="translate(57.7 332.21)" xlink:href="#linear-gradient-12"/><linearGradient id="linear-gradient-90" x1="421.89" y1="2929.45" x2="421.89" y2="2914.63" gradientTransform="translate(87.05 -2885.87)" xlink:href="#linear-gradient-2"/><linearGradient id="linear-gradient-91" x1="417.61" y1="2914.49" x2="426.17" y2="2914.49" gradientTransform="translate(87.05 -2885.87)" xlink:href="#linear-gradient-2"/><linearGradient id="linear-gradient-92" x1="417.04" y1="2928.14" x2="417.04" y2="2923.19" gradientTransform="translate(87.05 -2885.87)" xlink:href="#linear-gradient-4"/><linearGradient id="linear-gradient-93" x1="418.43" y1="2928.14" x2="418.43" y2="2923.19" gradientTransform="translate(87.05 -2885.87)" xlink:href="#linear-gradient-4"/><linearGradient id="linear-gradient-94" x1="419.81" y1="2928.14" x2="419.81" y2="2923.19" gradientTransform="translate(87.05 -2885.87)" xlink:href="#linear-gradient-4"/><linearGradient id="linear-gradient-95" x1="421.2" y1="2928.14" x2="421.2" y2="2923.19" gradientTransform="translate(87.05 -2885.87)" xlink:href="#linear-gradient-4"/><linearGradient id="linear-gradient-96" x1="422.58" y1="2928.14" x2="422.58" y2="2923.19" gradientTransform="translate(87.05 -2885.87)" xlink:href="#linear-gradient-4"/><linearGradient id="linear-gradient-97" x1="423.96" y1="2928.14" x2="423.96" y2="2923.19" gradientTransform="translate(87.05 -2885.87)" xlink:href="#linear-gradient-4"/><linearGradient id="linear-gradient-98" x1="425.35" y1="2928.14" x2="425.35" y2="2923.19" gradientTransform="translate(87.05 -2885.87)" xlink:href="#linear-gradient-4"/><linearGradient id="linear-gradient-99" x1="426.73" y1="2928.14" x2="426.73" y2="2923.19" gradientTransform="translate(87.05 -2885.87)" xlink:href="#linear-gradient-4"/><linearGradient id="linear-gradient-100" x1="421.89" y1="2921.45" x2="421.89" y2="2919.58" gradientTransform="translate(87.05 -2885.87)" xlink:href="#linear-gradient-12"/></defs><g id="Layer_2" data-name="Layer 2"><g id="Layer_1-2" data-name="Layer 1"><g id="UDM_Pro" data-name="UDM Pro"><g id="Zyxel_24_Port" data-name="Zyxel 24 Port"><rect class="cls-1" width="568.41" height="56.16"/><rect class="cls-2" x="395.82" y="28.15" width="18.94" height="13.77" transform="translate(810.58 70.06) rotate(180)"/><polygon class="cls-3" points="402.65 41.91 402.65 40.6 400.96 40.6 400.96 38.38 396.89 38.38 396.89 28.4 400.96 28.4 410.63 28.4 414.7 28.4 414.7 38.38 410.63 38.38 410.63 40.6 408.94 40.6 408.94 41.91 416.15 41.91 416.15 27.09 395.44 27.09 395.44 41.91 402.65 41.91"/><rect class="cls-4" x="401.51" y="41.91" width="8.56" height="0.28" transform="translate(811.59 84.11) rotate(180)"/><rect class="cls-5" x="410.36" y="28.4" width="0.56" height="4.95" transform="translate(821.28 61.75) rotate(180)"/><rect class="cls-6" x="408.98" y="28.4" width="0.56" height="4.95" transform="translate(818.51 61.75) rotate(180)"/><rect class="cls-7" x="407.59" y="28.4" width="0.56" height="4.95" transform="translate(815.74 61.75) rotate(180)"/><rect class="cls-8" x="406.21" y="28.4" width="0.56" height="4.95" transform="translate(812.98 61.75) rotate(180)"/><rect class="cls-9" x="404.83" y="28.4" width="0.56" height="4.95" transform="translate(810.21 61.75) rotate(180)"/><rect class="cls-10" x="403.44" y="28.4" width="0.56" height="4.95" transform="translate(807.44 61.75) rotate(180)"/><rect class="cls-11" x="402.06" y="28.4" width="0.56" height="4.95" transform="translate(804.67 61.75) rotate(180)"/><rect class="cls-12" x="400.68" y="28.4" width="0.56" height="4.95" transform="translate(801.91 61.75) rotate(180)"/><rect class="cls-13" x="401.21" y="35.09" width="9.17" height="1.87" transform="translate(811.59 72.06) rotate(180)"/><rect class="cls-2" x="416.39" y="28.15" width="18.94" height="13.77" transform="translate(851.72 70.06) rotate(180)"/><polygon class="cls-14" points="423.22 41.91 423.22 40.6 421.53 40.6 421.53 38.38 417.47 38.38 417.47 28.4 421.53 28.4 431.21 28.4 435.27 28.4 435.27 38.38 431.21 38.38 431.21 40.6 429.51 40.6 429.51 41.91 436.73 41.91 436.73 27.09 416.01 27.09 416.01 41.91 423.22 41.91"/><rect class="cls-15" x="422.09" y="41.91" width="8.56" height="0.28" transform="translate(852.74 84.11) rotate(180)"/><rect class="cls-16" x="430.93" y="28.4" width="0.56" height="4.95" transform="translate(862.42 61.75) rotate(180)"/><rect class="cls-17" x="429.55" y="28.4" width="0.56" height="4.95" transform="translate(859.66 61.75) rotate(180)"/><rect class="cls-18" x="428.17" y="28.4" width="0.56" height="4.95" transform="translate(856.89 61.75) rotate(180)"/><rect class="cls-19" x="426.78" y="28.4" width="0.56" height="4.95" transform="translate(854.12 61.75) rotate(180)"/><rect class="cls-20" x="425.4" y="28.4" width="0.56" height="4.95" transform="translate(851.35 61.75) rotate(180)"/><rect class="cls-21" x="424.02" y="28.4" width="0.56" height="4.95" transform="translate(848.59 61.75) rotate(180)"/><rect class="cls-22" x="422.63" y="28.4" width="0.56" height="4.95" transform="translate(845.82 61.75) rotate(180)"/><rect class="cls-23" x="421.25" y="28.4" width="0.56" height="4.95" transform="translate(843.05 61.75) rotate(180)"/><rect class="cls-24" x="421.78" y="35.09" width="9.17" height="1.87" transform="translate(852.74 72.06) rotate(180)"/><rect class="cls-2" x="436.96" y="28.15" width="18.94" height="13.77" transform="translate(892.87 70.06) rotate(180)"/><polygon class="cls-25" points="443.8 41.91 443.8 40.6 442.11 40.6 442.11 38.38 438.04 38.38 438.04 28.4 442.11 28.4 451.78 28.4 455.85 28.4 455.85 38.38 451.78 38.38 451.78 40.6 450.09 40.6 450.09 41.91 457.3 41.91 457.3 27.09 436.59 27.09 436.59 41.91 443.8 41.91"/><rect class="cls-26" x="442.66" y="41.91" width="8.56" height="0.28" transform="translate(893.88 84.11) rotate(180)"/><rect class="cls-27" x="451.51" y="28.4" width="0.56" height="4.95" transform="translate(903.57 61.75) rotate(180)"/><rect class="cls-28" x="450.12" y="28.4" width="0.56" height="4.95" transform="translate(900.8 61.75) rotate(180)"/><rect class="cls-29" x="448.74" y="28.4" width="0.56" height="4.95" transform="translate(898.04 61.75) rotate(180)"/><rect class="cls-30" x="447.36" y="28.4" width="0.56" height="4.95" transform="translate(895.27 61.75) rotate(180)"/><rect class="cls-31" x="445.97" y="28.4" width="0.56" height="4.95" transform="translate(892.5 61.75) rotate(180)"/><rect class="cls-32" x="444.59" y="28.4" width="0.56" height="4.95" transform="translate(889.73 61.75) rotate(180)"/><rect class="cls-33" x="443.2" y="28.4" width="0.56" height="4.95" transform="translate(886.96 61.75) rotate(180)"/><rect class="cls-34" x="441.82" y="28.4" width="0.56" height="4.95" transform="translate(884.2 61.75) rotate(180)"/><rect class="cls-35" x="442.36" y="35.09" width="9.17" height="1.87" transform="translate(893.88 72.06) rotate(180)"/><rect class="cls-2" x="457.54" y="28.15" width="18.94" height="13.77" transform="translate(934.02 70.06) rotate(180)"/><polygon class="cls-36" points="464.37 41.91 464.37 40.6 462.68 40.6 462.68 38.38 458.61 38.38 458.61 28.4 462.68 28.4 472.35 28.4 476.42 28.4 476.42 38.38 472.35 38.38 472.35 40.6 470.66 40.6 470.66 41.91 477.87 41.91 477.87 27.09 457.16 27.09 457.16 41.91 464.37 41.91"/><rect class="cls-37" x="463.23" y="41.91" width="8.56" height="0.28" transform="translate(935.03 84.11) rotate(180)"/><rect class="cls-38" x="472.08" y="28.4" width="0.56" height="4.95" transform="translate(944.72 61.75) rotate(180)"/><rect class="cls-39" x="470.7" y="28.4" width="0.56" height="4.95" transform="translate(941.95 61.75) rotate(180)"/><rect class="cls-40" x="469.31" y="28.4" width="0.56" height="4.95" transform="translate(939.18 61.75) rotate(180)"/><rect class="cls-41" x="467.93" y="28.4" width="0.56" height="4.95" transform="translate(936.41 61.75) rotate(180)"/><rect class="cls-42" x="466.55" y="28.4" width="0.56" height="4.95" transform="translate(933.65 61.75) rotate(180)"/><rect class="cls-43" x="465.16" y="28.4" width="0.56" height="4.95" transform="translate(930.88 61.75) rotate(180)"/><rect class="cls-44" x="463.78" y="28.4" width="0.56" height="4.95" transform="translate(928.11 61.75) rotate(180)"/><rect class="cls-45" x="462.39" y="28.4" width="0.56" height="4.95" transform="translate(925.34 61.75) rotate(180)"/><rect class="cls-46" x="462.93" y="35.09" width="9.17" height="1.87" transform="translate(935.03 72.06) rotate(180)"/><rect class="cls-2" x="458.56" y="12.28" width="18.94" height="13.77"/><polygon class="cls-47" points="470.67 12.28 470.67 13.59 472.36 13.59 472.36 15.82 476.42 15.82 476.42 25.79 472.36 25.79 462.68 25.79 458.62 25.79 458.62 15.82 462.68 15.82 462.68 13.59 464.38 13.59 464.38 12.28 457.16 12.28 457.16 27.11 477.88 27.11 477.88 12.28 470.67 12.28"/><rect class="cls-48" x="463.24" y="12" width="8.56" height="0.28"/><rect class="cls-49" x="462.4" y="20.84" width="0.56" height="4.95"/><rect class="cls-50" x="463.78" y="20.84" width="0.56" height="4.95"/><rect class="cls-51" x="465.17" y="20.84" width="0.56" height="4.95"/><rect class="cls-52" x="466.55" y="20.84" width="0.56" height="4.95"/><rect class="cls-53" x="467.93" y="20.84" width="0.56" height="4.95"/><rect class="cls-54" x="469.32" y="20.84" width="0.56" height="4.95"/><rect class="cls-55" x="470.7" y="20.84" width="0.56" height="4.95"/><rect class="cls-56" x="472.09" y="20.84" width="0.56" height="4.95"/><rect class="cls-57" x="462.94" y="17.23" width="9.17" height="1.87"/><rect class="cls-2" x="437.98" y="12.28" width="18.94" height="13.77"/><polygon class="cls-58" points="450.09 12.28 450.09 13.59 451.78 13.59 451.78 15.82 455.85 15.82 455.85 25.79 451.78 25.79 442.11 25.79 438.04 25.79 438.04 15.82 442.11 15.82 442.11 13.59 443.8 13.59 443.8 12.28 436.59 12.28 436.59 27.11 457.3 27.11 457.3 12.28 450.09 12.28"/><rect class="cls-59" x="442.67" y="12" width="8.56" height="0.28"/><rect class="cls-60" x="441.83" y="20.84" width="0.56" height="4.95"/><rect class="cls-61" x="443.21" y="20.84" width="0.56" height="4.95"/><rect class="cls-62" x="444.59" y="20.84" width="0.56" height="4.95"/><rect class="cls-63" x="445.98" y="20.84" width="0.56" height="4.95"/><rect class="cls-64" x="447.36" y="20.84" width="0.56" height="4.95"/><rect class="cls-65" x="448.75" y="20.84" width="0.56" height="4.95"/><rect class="cls-66" x="450.13" y="20.84" width="0.56" height="4.95"/><rect class="cls-67" x="451.51" y="20.84" width="0.56" height="4.95"/><rect class="cls-68" x="442.36" y="17.23" width="9.17" height="1.87"/><rect class="cls-2" x="417.41" y="12.28" width="18.94" height="13.77"/><polygon class="cls-69" points="429.52 12.28 429.52 13.59 431.21 13.59 431.21 15.82 435.28 15.82 435.28 25.79 431.21 25.79 421.54 25.79 417.47 25.79 417.47 15.82 421.54 15.82 421.54 13.59 423.23 13.59 423.23 12.28 416.02 12.28 416.02 27.11 436.73 27.11 436.73 12.28 429.52 12.28"/><rect class="cls-70" x="422.09" y="12" width="8.56" height="0.28"/><rect class="cls-71" x="421.25" y="20.84" width="0.56" height="4.95"/><rect class="cls-72" x="422.64" y="20.84" width="0.56" height="4.95"/><rect class="cls-73" x="424.02" y="20.84" width="0.56" height="4.95"/><rect class="cls-74" x="425.4" y="20.84" width="0.56" height="4.95"/><rect class="cls-75" x="426.79" y="20.84" width="0.56" height="4.95"/><rect class="cls-76" x="428.17" y="20.84" width="0.56" height="4.95"/><rect class="cls-77" x="429.56" y="20.84" width="0.56" height="4.95"/><rect class="cls-78" x="430.94" y="20.84" width="0.56" height="4.95"/><rect class="cls-79" x="421.79" y="17.23" width="9.17" height="1.87"/><rect class="cls-2" x="396.84" y="12.28" width="18.94" height="13.77"/><polygon class="cls-80" points="408.95 12.28 408.95 13.59 410.64 13.59 410.64 15.82 414.7 15.82 414.7 25.79 410.64 25.79 400.96 25.79 396.9 25.79 396.9 15.82 400.96 15.82 400.96 13.59 402.66 13.59 402.66 12.28 395.45 12.28 395.45 27.11 416.16 27.11 416.16 12.28 408.95 12.28"/><rect class="cls-81" x="401.52" y="12" width="8.56" height="0.28"/><rect class="cls-82" x="400.68" y="20.84" width="0.56" height="4.95"/><rect class="cls-83" x="402.06" y="20.84" width="0.56" height="4.95"/><rect class="cls-84" x="403.45" y="20.84" width="0.56" height="4.95"/><rect class="cls-85" x="404.83" y="20.84" width="0.56" height="4.95"/><rect class="cls-86" x="406.22" y="20.84" width="0.56" height="4.95"/><rect class="cls-87" x="407.6" y="20.84" width="0.56" height="4.95"/><rect class="cls-88" x="408.98" y="20.84" width="0.56" height="4.95"/><rect class="cls-89" x="410.37" y="20.84" width="0.56" height="4.95"/><rect class="cls-90" x="401.22" y="17.23" width="9.17" height="1.87"/><rect class="cls-91" x="530.46" y="30.06" width="22.56" height="14.81" rx="1.44"/><line class="cls-91" x1="537.42" y1="43.25" x2="546.06" y2="43.25"/><rect class="cls-91" x="530.84" y="12.79" width="22.56" height="14.81" rx="1.44"/><line class="cls-91" x1="537.8" y1="25.98" x2="546.44" y2="25.98"/><rect class="cls-2" x="499.97" y="28.75" width="18.94" height="13.77"/><polygon class="cls-92" points="512.08 28.75 512.08 30.07 513.77 30.07 513.77 32.29 517.84 32.29 517.84 42.27 513.77 42.27 504.1 42.27 500.03 42.27 500.03 32.29 504.1 32.29 504.1 30.07 505.79 30.07 505.79 28.75 498.58 28.75 498.58 43.58 519.29 43.58 519.29 28.75 512.08 28.75"/><rect class="cls-93" x="504.65" y="28.48" width="8.56" height="0.28"/><rect class="cls-94" x="503.81" y="37.32" width="0.56" height="4.95"/><rect class="cls-95" x="505.2" y="37.32" width="0.56" height="4.95"/><rect class="cls-96" x="506.58" y="37.32" width="0.56" height="4.95"/><rect class="cls-97" x="507.97" y="37.32" width="0.56" height="4.95"/><rect class="cls-98" x="509.35" y="37.32" width="0.56" height="4.95"/><rect class="cls-99" x="510.73" y="37.32" width="0.56" height="4.95"/><rect class="cls-100" x="512.12" y="37.32" width="0.56" height="4.95"/><rect class="cls-101" x="513.5" y="37.32" width="0.56" height="4.95"/><rect class="cls-102" x="504.35" y="33.71" width="9.17" height="1.87"/><rect class="cls-103" x="237.7" y="13.24" width="139.07" height="29.28"/></g><rect class="cls-104" x="6.31" y="13.24" width="29.37" height="29.37" rx="2.89"/><path class="cls-105" d="M12.65,46.86h1V48.8a1.67,1.67,0,0,1-.09.55,1.18,1.18,0,0,1-.28.45,1.41,1.41,0,0,1-.4.27,2.12,2.12,0,0,1-.71.11,5.13,5.13,0,0,1-.52,0,1.24,1.24,0,0,1-.47-.13,1.31,1.31,0,0,1-.35-.28,1.11,1.11,0,0,1-.21-.38,2,2,0,0,1-.09-.55V46.86h1v2a.52.52,0,0,0,.56.56.58.58,0,0,0,.41-.14.57.57,0,0,0,.15-.42Z"/><path class="cls-105" d="M14.34,46.86h1.5a1.78,1.78,0,0,1,.71.12,1.17,1.17,0,0,1,.45.34,1.41,1.41,0,0,1,.26.52,2.61,2.61,0,0,1,.08.64,2.16,2.16,0,0,1-.12.81,1.37,1.37,0,0,1-.33.48,1,1,0,0,1-.45.26,2.36,2.36,0,0,1-.6.09h-1.5Zm1,.73v1.79h.25a1.16,1.16,0,0,0,.45-.07.48.48,0,0,0,.21-.25,1.47,1.47,0,0,0,.08-.56,1.09,1.09,0,0,0-.17-.71.7.7,0,0,0-.56-.2Z"/><path class="cls-105" d="M17.86,46.86h1.33l.51,2,.51-2h1.32v3.26H20.7V47.63l-.63,2.49h-.75l-.63-2.49v2.49h-.83Z"/><path class="cls-105" d="M23.69,46.86h1.68a1.12,1.12,0,0,1,.82.26,1,1,0,0,1,.27.74,1,1,0,0,1-.3.77,1.25,1.25,0,0,1-.9.28H24.7v1.21h-1Zm1,1.39H25a.68.68,0,0,0,.41-.1.36.36,0,0,0,0-.52.51.51,0,0,0-.39-.11H24.7Z"/><path class="cls-105" d="M26.94,47.75h.85v.39A.81.81,0,0,1,28,47.8a.49.49,0,0,1,.32-.1.91.91,0,0,1,.44.13l-.28.64a.85.85,0,0,0-.26-.07.31.31,0,0,0-.27.15,1.56,1.56,0,0,0-.14.78v.79h-.91Z"/><path class="cls-105" d="M28.91,48.94a1.21,1.21,0,0,1,.37-.89,1.59,1.59,0,0,1,2.06.06,1.23,1.23,0,0,1,.29.82,1.18,1.18,0,0,1-.36.89,1.6,1.6,0,0,1-1.92.06A1.16,1.16,0,0,1,28.91,48.94Zm.91,0a.75.75,0,0,0,.13.47.41.41,0,0,0,.32.15.39.39,0,0,0,.32-.15.71.71,0,0,0,.13-.48.65.65,0,0,0-.13-.45.4.4,0,0,0-.31-.16.44.44,0,0,0-.33.16A.72.72,0,0,0,29.82,48.94Z"/><rect class="cls-106" x="416.65" y="3.26" width="133.79" height="2.27"/><rect class="cls-106" x="279.65" y="3.26" width="133.79" height="2.27"/><rect class="cls-106" x="142.65" y="3.26" width="133.79" height="2.27"/><rect class="cls-106" x="5.65" y="3.26" width="133.79" height="2.27"/></g></g></g></svg>