<svg xmlns="http://www.w3.org/2000/svg" xmlns:xlink="http://www.w3.org/1999/xlink" viewBox="0 0 147.54 174.33"><defs><style>.cls-1{fill:url(#radial-gradient);}.cls-2{fill:#e0e0e0;}.cls-3{fill:url(#linear-gradient);}.cls-4{fill:url(#radial-gradient-2);}.cls-5{fill:url(#radial-gradient-3);}.cls-6{fill:url(#radial-gradient-4);}.cls-7{fill:none;stroke:#000;stroke-miterlimit:10;}</style><radialGradient id="radial-gradient" cx="73.77" cy="87.16" r="80.74" gradientUnits="userSpaceOnUse"><stop offset="0.73" stop-color="#9d9d9c"/><stop offset="1" stop-color="#dadada"/></radialGradient><linearGradient id="linear-gradient" x1="31.32" y1="144.22" x2="116.22" y2="59.32" gradientUnits="userSpaceOnUse"><stop offset="0.01" stop-color="#1d1d1b"/><stop offset="1" stop-color="#575756"/></linearGradient><radialGradient id="radial-gradient-2" cx="73.81" cy="23.25" r="12.21" xlink:href="#linear-gradient"/><radialGradient id="radial-gradient-3" cx="73.81" cy="23.25" r="9.2" xlink:href="#linear-gradient"/><radialGradient id="radial-gradient-4" cx="73.81" cy="23.25" r="3.89" xlink:href="#linear-gradient"/></defs><g id="Layer_2" data-name="Layer 2"><g id="Layer_3" data-name="Layer 3"><path class="cls-1" d="M147.54,101.21c0-33.61-19.37-51.3-26.54-59.44s-20.8-29-20.8-29C91.35.14,76.3,0,73.77,0S56.19.14,47.34,12.76c0,0-13.63,20.87-20.8,29S0,67.6,0,101.21c0,33.43,28.19,72.68,73.4,73.11h.74C119.35,173.89,147.54,134.64,147.54,101.21Z"/><path class="cls-2" d="M130.6,63.71,100.88,18.42C89.2-.34,73.77,3.2,73.77,3.2S58.34-.34,46.66,18.42L16.94,63.71S6.68,81.4,6.68,98c0,0,.83,70.05,67.09,70.05S140.86,98,140.86,98C140.86,81.4,130.6,63.71,130.6,63.71Z"/><path class="cls-3" d="M34.81,147.56h77.92a61,61,0,0,0,20.48-45.78c0-33.49-26.61-60.64-59.44-60.64S14.33,68.29,14.33,101.78A61,61,0,0,0,34.81,147.56Z"/><circle class="cls-4" cx="73.81" cy="23.25" r="12.21"/><rect x="90.86" y="20.19" width="6.01" height="14.86" rx="3.01"/><circle class="cls-5" cx="73.81" cy="23.25" r="9.2"/><circle class="cls-6" cx="73.81" cy="23.25" r="3.89"/><path class="cls-7" d="M70.5,157.78s.81.93.81-2.26c0,0-.21-2.51,1.79-3.49,0,0,.93-.39.93-.94"/><path class="cls-7" d="M77.57,157.78s-.81.93-.81-2.26c0,0,.21-2.51-1.79-3.49,0,0-.94-.39-.94-.94"/><ellipse cx="73.93" cy="158.44" rx="1.04" ry="0.53"/></g></g></svg>