<svg xmlns="http://www.w3.org/2000/svg" xmlns:xlink="http://www.w3.org/1999/xlink" viewBox="0 0 419.83 74.64"><defs><style>.cls-1{fill:url(#linear-gradient);}.cls-2,.cls-3{fill:none;stroke-miterlimit:10;}.cls-2{stroke:url(#linear-gradient-2);}.cls-3{stroke:#aaa;}.cls-4{fill:#1d1d1b;}.cls-5{fill:url(#linear-gradient-3);}.cls-6{fill:url(#linear-gradient-4);}.cls-7{fill:url(#linear-gradient-5);}.cls-8{fill:url(#linear-gradient-6);}.cls-9{fill:url(#linear-gradient-7);}.cls-10{fill:url(#linear-gradient-8);}.cls-11{fill:url(#linear-gradient-9);}</style><linearGradient id="linear-gradient" x1="209.91" y1="74.64" x2="209.91" gradientUnits="userSpaceOnUse"><stop offset="0" stop-color="#7a7a7a"/><stop offset="0.24" stop-color="#f4f4f4"/><stop offset="1" stop-color="#f1f1f1"/></linearGradient><linearGradient id="linear-gradient-2" x1="104.71" y1="173.37" x2="315.12" y2="-37.05" gradientUnits="userSpaceOnUse"><stop offset="0" stop-color="#aaa"/><stop offset="0.37" stop-color="#7a7a7a"/><stop offset="1" stop-color="#aaa"/></linearGradient><linearGradient id="linear-gradient-3" x1="170.04" y1="19.51" x2="182.08" y2="19.51" gradientUnits="userSpaceOnUse"><stop offset="0" stop-color="#aaa"/><stop offset="0.72" stop-color="#aaa"/><stop offset="1" stop-color="#7a7a7a"/></linearGradient><linearGradient id="linear-gradient-4" x1="190.22" y1="20.28" x2="200.83" y2="20.28" xlink:href="#linear-gradient-3"/><linearGradient id="linear-gradient-5" x1="200.59" y1="21.01" x2="212.98" y2="21.01" xlink:href="#linear-gradient-3"/><linearGradient id="linear-gradient-6" x1="232.13" y1="19.58" x2="241.35" y2="19.58" xlink:href="#linear-gradient-3"/><linearGradient id="linear-gradient-7" x1="214.24" y1="19.67" x2="225.83" y2="19.67" xlink:href="#linear-gradient-3"/><linearGradient id="linear-gradient-8" x1="182.62" y1="20.27" x2="190.23" y2="20.27" xlink:href="#linear-gradient-3"/><linearGradient id="linear-gradient-9" x1="223.71" y1="20.25" x2="231.19" y2="20.25" xlink:href="#linear-gradient-3"/></defs><g id="Layer_2" data-name="Layer 2"><g id="Layer_1-2" data-name="Layer 1"><g id="Draytek_Vigor_130" data-name="Draytek Vigor 130"><path class="cls-1" d="M379.15,7c-7.69.24-36,0-36,0s-32.89-1-63.53-3.84C256.64,1,226.9.28,213.48.08V0l-3.57,0-3.56,0V.08c-13.42.2-43.16.88-66.15,3C109.56,6,76.67,7,76.67,7s-28.3.24-36,0C40.68,7,.13,34.56.13,67c0,0,.44,5.76,2.73,7.68H417c2.29-1.92,2.73-7.68,2.73-7.68C419.7,34.56,379.15,7,379.15,7Z"/><line class="cls-2" y1="68.16" x2="419.83" y2="68.16"/><line class="cls-3" x1="211.74" y1="3.36" x2="160.6" y2="3.36"/><line class="cls-3" x1="211.74" y1="5.57" x2="149.36" y2="5.57"/><line class="cls-3" x1="211.74" y1="7.78" x2="157.55" y2="7.78"/><line class="cls-3" x1="211.74" y1="9.98" x2="166.37" y2="9.98"/><line class="cls-3" x1="211.74" y1="12.19" x2="182.24" y2="12.19"/><line class="cls-3" x1="211.92" y1="14.4" x2="202.8" y2="14.4"/><line class="cls-3" x1="208.08" y1="3.36" x2="259.23" y2="3.36"/><line class="cls-3" x1="208.08" y1="5.57" x2="270.47" y2="5.57"/><line class="cls-3" x1="208.08" y1="7.78" x2="262.28" y2="7.78"/><line class="cls-3" x1="208.08" y1="9.98" x2="253.46" y2="9.98"/><line class="cls-3" x1="208.08" y1="12.19" x2="237.59" y2="12.19"/><line class="cls-3" x1="207.91" y1="14.4" x2="217.02" y2="14.4"/><path class="cls-4" d="M109.27,48.56h-2.38l-.47-1.11H102.1l-1.36,1.11H98.42l6.28-4.87H107Zm-3.2-1.93-.72-1.81-2.23,1.81Z"/><path class="cls-4" d="M118.09,46.77l2,.3A5,5,0,0,1,118,48.25a10.52,10.52,0,0,1-3,.39,6.46,6.46,0,0,1-3.26-.66,1.32,1.32,0,0,1-.62-1.82,3.69,3.69,0,0,1,2.2-1.88,10.53,10.53,0,0,1,4-.68,6.66,6.66,0,0,1,3,.53,1.28,1.28,0,0,1,.73.9l-2.26.23c0-.25-.2-.45-.55-.6a3.68,3.68,0,0,0-1.38-.22,5.3,5.3,0,0,0-2.11.39,2.35,2.35,0,0,0-1.29,1.26q-.39.93.18,1.32a3.13,3.13,0,0,0,1.75.39,4.84,4.84,0,0,0,1.6-.25A3,3,0,0,0,118.09,46.77Z"/><path class="cls-4" d="M123.75,48.56l1.72-4.05h-3.2l.34-.82h8.59l-.35.82h-3.2l-1.72,4.05Z"/><path class="cls-4" d="M290.09,43.69h4a18.86,18.86,0,0,1,2.1.09,7.4,7.4,0,0,1,1.84.45,5.28,5.28,0,0,1,1.41.79,3.29,3.29,0,0,1,.9,1.15,1.48,1.48,0,0,1,.16,1,1.39,1.39,0,0,1-.75.86,4.06,4.06,0,0,1-1.35.39,12.76,12.76,0,0,1-1.88.11h-4.1Zm2.57.82,1.54,3.23h1.63a12.25,12.25,0,0,0,1.29-.05,2.57,2.57,0,0,0,.79-.2.66.66,0,0,0,.35-.47,1.59,1.59,0,0,0-.21-.9,2.56,2.56,0,0,0-.63-.86,2.81,2.81,0,0,0-.85-.47,4.26,4.26,0,0,0-1.11-.23c-.32,0-.93-.05-1.82-.05Z"/><path class="cls-4" d="M302,47l2.08-.09a2.45,2.45,0,0,0,1.11.71,5.5,5.5,0,0,0,1.69.22,3.79,3.79,0,0,0,1.49-.2c.29-.13.4-.29.31-.47a.65.65,0,0,0-.36-.29,4,4,0,0,0-.89-.21l-1.85-.22a13.67,13.67,0,0,1-2.69-.48,2.35,2.35,0,0,1-1.46-1,.56.56,0,0,1,.14-.69,2.21,2.21,0,0,1,1.11-.5,10.4,10.4,0,0,1,2.05-.17A11,11,0,0,1,308,44a2.69,2.69,0,0,1,1.59,1.08l-2.16,0a1.77,1.77,0,0,0-.86-.54,5.17,5.17,0,0,0-1.46-.16,4.36,4.36,0,0,0-1.4.17q-.3.12-.21.3a.73.73,0,0,0,.47.3,13.31,13.31,0,0,0,2.16.33,25,25,0,0,1,2.52.35,5.31,5.31,0,0,1,1.43.49,1.78,1.78,0,0,1,.8.78.65.65,0,0,1-.14.78,2.24,2.24,0,0,1-1.2.55,12.5,12.5,0,0,1-2.27.17,11.12,11.12,0,0,1-3.35-.42A3.69,3.69,0,0,1,302,47Z"/><path class="cls-4" d="M313.44,48.56l-2.3-4.83h2.18l1.91,4h5.42l.39.82Z"/><path class="cls-4" d="M224.92,43.69h4a17.59,17.59,0,0,1,2.06.09,5.43,5.43,0,0,1,1.66.45,3,3,0,0,1,1.09.79,1.93,1.93,0,0,1,.44,1.15,1.58,1.58,0,0,1-.26,1,2.51,2.51,0,0,1-1.09.85,5.54,5.54,0,0,1-1.51.39,13.68,13.68,0,0,1-1.92.11h-4.11Zm2.24.82.24,3.23H229a13.08,13.08,0,0,0,1.32-.05,3.5,3.5,0,0,0,.87-.2,1.15,1.15,0,0,0,.53-.47,1.45,1.45,0,0,0,.16-.9,1.37,1.37,0,0,0-.94-1.33,3.34,3.34,0,0,0-1-.23c-.31,0-.91-.05-1.8-.05Z"/><path class="cls-4" d="M235.56,46.74a1.09,1.09,0,0,1,.44-.9,3.16,3.16,0,0,1,1.39-.66,8.68,8.68,0,0,1,2.07-.23,7.28,7.28,0,0,1,2.95.52c.78.35,1.19.78,1.23,1.31s-.32,1-1,1.33a6.68,6.68,0,0,1-2.85.53,10,10,0,0,1-2.07-.22,3.75,3.75,0,0,1-1.53-.65A1.39,1.39,0,0,1,235.56,46.74Zm2.12,0a1,1,0,0,0,.61.81,3.25,3.25,0,0,0,1.39.28A3,3,0,0,0,241,47.6a.82.82,0,0,0,.49-.81,1,1,0,0,0-.61-.8,3.06,3.06,0,0,0-1.38-.28,2.8,2.8,0,0,0-1.34.28A.8.8,0,0,0,237.68,46.79Z"/><path class="cls-4" d="M244.73,47l2.12-.09a1.41,1.41,0,0,0,.83.71,4.64,4.64,0,0,0,1.59.22,4.51,4.51,0,0,0,1.58-.2c.34-.13.51-.29.5-.47a.38.38,0,0,0-.25-.29,2.84,2.84,0,0,0-.8-.21l-1.76-.22a11,11,0,0,1-2.5-.48c-.68-.27-1-.59-1.06-1a.79.79,0,0,1,.42-.69,3.17,3.17,0,0,1,1.31-.5,11.46,11.46,0,0,1,2.11-.17,9.41,9.41,0,0,1,3.1.4c.7.27,1.09.63,1.15,1.08l-2.18,0a1,1,0,0,0-.64-.54,4.47,4.47,0,0,0-1.39-.16,5.17,5.17,0,0,0-1.48.17c-.22.08-.33.18-.32.3s.12.22.35.3a10.94,10.94,0,0,0,2,.33,20.5,20.5,0,0,1,2.38.35,3.54,3.54,0,0,1,1.23.49,1,1,0,0,1,.49.78.9.9,0,0,1-.46.78,3.42,3.42,0,0,1-1.42.55,13.7,13.7,0,0,1-2.34.17,9.53,9.53,0,0,1-3.18-.42A2.14,2.14,0,0,1,244.73,47Z"/><path class="cls-4" d="M163.34,48.65,163,43.81h2.18l.29,4h5.42l.06.83Z"/><path class="cls-4" d="M182.24,48.65h-2.37l-1-1.11h-4.31l-.82,1.11H171.4l3.86-4.88h2.3Zm-4.15-1.93-1.62-1.81-1.33,1.81Z"/><path class="cls-4" d="M183.42,48.65l-.35-4.88h2.12L189.85,47l-.24-3.26h2l.35,4.88H189.8l-4.58-3.18.23,3.18Z"/><path class="cls-4" d="M186.25,29.58l-2.73-4h1.67l1.94,3,1.87-3h1.64l-2.74,4Z"/><path class="cls-4" d="M191.23,26.29v-.71h1.46v.71Zm0,3.29v-2.9h1.46v2.9Z"/><path class="cls-4" d="M194.06,29.77l1.67.11a.32.32,0,0,0,.2.21,2.09,2.09,0,0,0,.66.08,3.12,3.12,0,0,0,.86-.09.61.61,0,0,0,.29-.2.68.68,0,0,0,.07-.35v-.42a3.27,3.27,0,0,1-3.43,0,1.17,1.17,0,0,1-.51-1,1.22,1.22,0,0,1,.67-1.11,3.34,3.34,0,0,1,1.66-.38,2.84,2.84,0,0,1,1.7.47v-.41h1.37v2.6a1.45,1.45,0,0,1-.16.77,1.17,1.17,0,0,1-.45.4,3.07,3.07,0,0,1-.78.22,7.21,7.21,0,0,1-1.24.08,5.58,5.58,0,0,1-2-.25c-.39-.17-.59-.38-.59-.64C194.05,29.84,194.06,29.8,194.06,29.77Zm1.31-1.7a.72.72,0,0,0,.34.67,1.5,1.5,0,0,0,.84.22,1.73,1.73,0,0,0,.91-.22.7.7,0,0,0,.37-.65.75.75,0,0,0-.35-.67,1.76,1.76,0,0,0-.9-.22,1.56,1.56,0,0,0-.87.22A.71.71,0,0,0,195.37,28.07Z"/><path class="cls-4" d="M200.38,28.09a1,1,0,0,1,.36-.74,2.24,2.24,0,0,1,1-.54,5.18,5.18,0,0,1,1.47-.19,4.41,4.41,0,0,1,2.06.42,1.25,1.25,0,0,1,.8,1.08,1.26,1.26,0,0,1-.81,1.09,4.28,4.28,0,0,1-2,.43,5.7,5.7,0,0,1-1.45-.18,2.39,2.39,0,0,1-1.06-.52A1.16,1.16,0,0,1,200.38,28.09Zm1.51,0a.72.72,0,0,0,.39.66,2.14,2.14,0,0,0,1.93,0,.72.72,0,0,0,.39-.67.71.71,0,0,0-.39-.65,2.14,2.14,0,0,0-1.93,0A.72.72,0,0,0,201.89,28.13Z"/><path class="cls-4" d="M208.66,29.58h-1.47v-2.9h1.36v.41a2.23,2.23,0,0,1,.63-.38,2.11,2.11,0,0,1,.64-.09,3.43,3.43,0,0,1,1,.14l-.45.67a2.31,2.31,0,0,0-.69-.13,1.31,1.31,0,0,0-.52.09.7.7,0,0,0-.34.32,2.52,2.52,0,0,0-.12,1Z"/><path class="cls-4" d="M217.82,29.58h-1.46V26.69a7,7,0,0,1-1.9.58v-.69a5.85,5.85,0,0,0,1.25-.38,1.89,1.89,0,0,0,.92-.64h1.19Z"/><path class="cls-4" d="M220,28.52l1.42-.09a.65.65,0,0,0,.37.43,1.59,1.59,0,0,0,.72.15,1.47,1.47,0,0,0,.76-.18.53.53,0,0,0,.31-.48.51.51,0,0,0-.29-.46,1.49,1.49,0,0,0-.73-.17,4.47,4.47,0,0,0-.67.06l.16-.63a2.22,2.22,0,0,0,.91-.13c.21-.1.31-.23.31-.38a.37.37,0,0,0-.23-.33,1.32,1.32,0,0,0-.61-.12,1.41,1.41,0,0,0-.64.14.57.57,0,0,0-.33.4l-1.35-.12a1.34,1.34,0,0,1,.43-.58,2,2,0,0,1,.79-.34,5,5,0,0,1,1.14-.13,3.56,3.56,0,0,1,1.73.36c.36.2.54.42.54.67s-.36.63-1.1.84a2.41,2.41,0,0,1,1.05.33.73.73,0,0,1,.4.62c0,.35-.25.65-.74.9a4.14,4.14,0,0,1-1.83.37,4.09,4.09,0,0,1-1.72-.32A1.25,1.25,0,0,1,220,28.52Z"/><path class="cls-4" d="M228.44,25.56a3.11,3.11,0,0,1,1.74.42,1.8,1.8,0,0,1,.74,1.63,1.81,1.81,0,0,1-.75,1.63,3.14,3.14,0,0,1-1.73.41,3.22,3.22,0,0,1-1.8-.45,1.76,1.76,0,0,1-.68-1.6,1.81,1.81,0,0,1,.75-1.63A3.14,3.14,0,0,1,228.44,25.56Zm0,.64a1.21,1.21,0,0,0-.48.09.66.66,0,0,0-.32.32,2.36,2.36,0,0,0-.15,1,2.13,2.13,0,0,0,.14,1,.65.65,0,0,0,.34.35,1.27,1.27,0,0,0,.94,0,.64.64,0,0,0,.33-.32,2.31,2.31,0,0,0,.15-1,2.37,2.37,0,0,0-.14-1,.72.72,0,0,0-.34-.35A1.16,1.16,0,0,0,228.44,26.2Z"/><path class="cls-5" d="M172.76,22a10,10,0,0,1-2.53-.07c-.49-.24.1-.69.23-1,.39-1.1.85-2.2,1.26-3.3.21-.57.18-.57,1.56-.54s3,0,4.44.19a19,19,0,0,1,2,.33c2,.46,2.76,1.23,2.22,2.13-.75,1.28-3.79,2.25-7.21,2.31C174.06,22,173.41,22,172.76,22ZM174,20.55c-.3.26.22.25.77.24,2,0,3.81-.62,3.92-1.36s-1.2-1.1-3.06-1.19c-.49,0-.73,0-.81.25C174.6,19.15,174.29,19.82,174,20.55Z"/><path class="cls-6" d="M197.62,22a5.64,5.64,0,0,1-1.59-.12,1.38,1.38,0,0,0-.63,0,9,9,0,0,1-4-.2c-1.25-.45-1.33-1-.92-1.65.83-1.25,3.66-1.81,6.62-1.31.14,0,.28.1.41,0,.85-.47,2-.12,3-.2.38,0,.35.12.31.22-.39,1-.79,2-1.17,3,0,.15-.25.2-.59.2ZM195.08,21c1.18,0,2-.29,2-.71s-.82-.75-2-.75-2.05.31-2.07.72S194,21,195.08,21Z"/><path class="cls-7" d="M200.59,23.5c1.2-.67,2.23-1.26,3.32-1.84.32-.17.36-.29.16-.49-.79-.77-1.5-1.55-2.28-2.31-.27-.26-.12-.33.52-.31a15.16,15.16,0,0,1,2.66.05c.59.15.68.63,1,1l.69.71c.87-.52,1.68-1,2.44-1.48a1.85,1.85,0,0,1,1.1-.24c.86,0,1.73,0,2.79,0l-3.17,1.77c-1.75,1-3.51,1.94-5.23,2.92a2.28,2.28,0,0,1-1.28.26C202.47,23.49,201.63,23.5,200.59,23.5Z"/><path class="cls-8" d="M237.3,17.11c-.46.86-.91,1.67-1.34,2.48-.05.08-.31.18,0,.25a1,1,0,0,0,.59-.11c.83-.29,1.66-.59,2.47-.9a3.88,3.88,0,0,1,1.39-.25c.32,0,.81-.1.93.07s-.28.26-.68.32a20.88,20.88,0,0,0-2.67.65c-.58.19-.75.34-.19.61,1,.46,1.85,1,2.77,1.44.16.08.4.17.23.28s-.42,0-.63.05a4,4,0,0,1-2.85-.57,14.66,14.66,0,0,0-1.74-1,2.9,2.9,0,0,0-.73,1.18c-.14.32-.36.45-1.23.44-1.65,0-1.65,0-1.28-.69.63-1.16,1.24-2.33,1.89-3.49.14-.25.15-.4-.65-.37-.2,0-.5,0-.5-.11s.3-.12.5-.13Z"/><path class="cls-9" d="M217.8,22h-2.44c-.17,0-.42,0-.44-.09s.11-.2.38-.19c1.39,0,1.49-.4,1.7-.79.52-1,1-1.91,1.59-2.87.16-.26,0-.33-.66-.34-1.29,0-2.4,0-3,.59a.71.71,0,0,1-.57.1c-.28,0-.08-.14-.09-.21s0-.05,0-.08c.35-.75.35-.75,2.22-.75,2.83,0,5.65,0,8.48,0,.75,0,.91.1.74.37a1.4,1.4,0,0,0-.17.47c0,.14-.11.23-.51.22s-.39-.07-.47-.19c-.29-.43-2.12-.71-3.1-.48-.27.07-.26.18-.31.28-.56,1.08-1.09,2.15-1.66,3.23-.15.29,0,.43.79.43.27,0,.53,0,.48.17s-.32.14-.58.14Z"/><path class="cls-10" d="M187,18.94a10,10,0,0,1,2.63-.38c.47,0,.78,0,.56.25-.09.09-.07.2-.1.31-.09.37-.12.69-1.51.5a2.43,2.43,0,0,0-2,.54,2.27,2.27,0,0,0-.74,1.43c0,.28-.29.38-1,.39-2.42,0-2.42,0-1.93-.93.38-.73.78-1.47,1.13-2.21.1-.21.31-.29.83-.28s1,0,1.46,0C187,18.53,187.3,18.61,187,18.94Z"/><path class="cls-11" d="M226.49,21.93c-1.92,0-3.11-.57-2.7-1.33.48-.91,1.86-1.53,3.88-1.93a6.9,6.9,0,0,1,2.18,0c1.44.19,1.78.73.73,1.17a8.59,8.59,0,0,1-3.19.5c-.64,0-1.22,0-1.19.37s.39.74,1.26.77a9.54,9.54,0,0,0,2.32-.25c.19,0,.38-.13.58,0s-.1.17-.26.21A13.7,13.7,0,0,1,226.49,21.93Zm2.95-2.78c0-.25-.39-.36-1-.24a3.1,3.1,0,0,0-1.83,1c-.08.1,0,.14.28.16C228,20.13,229.43,19.63,229.44,19.15Z"/></g></g></g></svg>