<svg xmlns="http://www.w3.org/2000/svg" xmlns:xlink="http://www.w3.org/1999/xlink" viewBox="0 0 231.65 160.8"><defs><style>.cls-1{fill:url(#linear-gradient);}.cls-2{fill:url(#radial-gradient);}.cls-3{fill:url(#radial-gradient-2);}.cls-4{fill:url(#radial-gradient-3);}.cls-5{fill:none;stroke:#fff;stroke-miterlimit:10;}.cls-6{fill:#fff;}</style><linearGradient id="linear-gradient" x1="21.58" y1="174.65" x2="210.07" y2="-13.85" gradientUnits="userSpaceOnUse"><stop offset="0" stop-color="#0f0f0f"/><stop offset="1" stop-color="#020202"/></linearGradient><radialGradient id="radial-gradient" cx="224.4" cy="123.6" r="2.51" gradientUnits="userSpaceOnUse"><stop offset="0" stop-color="#6cb52d"/><stop offset="1" stop-color="#009640"/></radialGradient><radialGradient id="radial-gradient-2" cx="224.4" cy="133.92" r="2.51" xlink:href="#radial-gradient"/><radialGradient id="radial-gradient-3" cx="224.4" cy="144.24" r="2.51" xlink:href="#radial-gradient"/></defs><g id="Layer_2" data-name="Layer 2"><g id="Layer_1-2" data-name="Layer 1"><rect class="cls-1" width="231.65" height="160.8" rx="13.2"/><rect class="cls-2" x="221.28" y="121.92" width="6.24" height="3.36"/><rect class="cls-3" x="221.28" y="132.24" width="6.24" height="3.36"/><rect class="cls-4" x="221.28" y="142.56" width="6.24" height="3.36"/><line class="cls-5" x1="211.8" y1="133.92" x2="217.92" y2="133.92"/><rect class="cls-5" x="214.2" y="130.2" width="1.32" height="1.32"/><rect class="cls-5" x="212.28" y="135.6" width="1.32" height="1.32"/><rect class="cls-5" x="216.12" y="135.6" width="1.32" height="1.32"/><line class="cls-5" x1="214.86" y1="131.86" x2="214.86" y2="134.32"/><line class="cls-5" x1="212.94" y1="133.92" x2="212.94" y2="135.6"/><line class="cls-5" x1="216.78" y1="133.92" x2="216.78" y2="135.6"/><line class="cls-5" x1="214.86" y1="140.64" x2="214.86" y2="142.56"/><circle class="cls-5" cx="214.86" cy="143.52" r="1.92"/><rect class="cls-6" x="213.6" y="120.6" width="0.6" height="1.92"/><path class="cls-6" d="M212.94,121.92v5.16h3.84v-5.16Zm3.18,2.58H213.6v-2h2.52Z"/><rect class="cls-5" x="106.62" y="124.02" width="18.54" height="16.92" rx="3.33"/><circle class="cls-5" cx="115.75" cy="135.32" r="1.04"/><path class="cls-5" d="M113.14,133.38a3.57,3.57,0,0,1,4.82,0"/><path class="cls-5" d="M112.08,132.42s3.54-3.68,7,0"/><path class="cls-5" d="M111.12,130.79s4.43-4.61,9,0"/><path class="cls-6" d="M189.52,23.19l-2.05-8.59h1.78l1.29,5.9,1.57-5.9h2.06l1.51,6,1.32-6h1.74l-2.08,8.59h-1.84l-1.71-6.43-1.71,6.43Z"/><path class="cls-6" d="M199.29,21l1.64-.17a1.44,1.44,0,0,0,.42.88,1.14,1.14,0,0,0,.79.32,1.11,1.11,0,0,0,.88-.42,2,2,0,0,0,.35-1.26,1.73,1.73,0,0,0-.35-1.19,1.2,1.2,0,0,0-.92-.39,1.69,1.69,0,0,0-1.28.63l-1.33-.2.84-4.47h4.36v1.54h-3.11l-.26,1.46a2.54,2.54,0,0,1,1.13-.27,2.44,2.44,0,0,1,1.85.79,2.88,2.88,0,0,1,.77,2.07,3.08,3.08,0,0,1-.62,1.89,2.72,2.72,0,0,1-2.32,1.14,2.86,2.86,0,0,1-1.94-.64A2.64,2.64,0,0,1,199.29,21Z"/><path class="cls-6" d="M211.52,16.7l-1.6.17a1.12,1.12,0,0,0-.3-.72.88.88,0,0,0-.64-.24,1.08,1.08,0,0,0-.88.47,4,4,0,0,0-.46,1.95,1.93,1.93,0,0,1,1.53-.72,2.35,2.35,0,0,1,1.77.78,2.87,2.87,0,0,1,.74,2,2.88,2.88,0,0,1-.78,2.11,2.61,2.61,0,0,1-2,.8,2.67,2.67,0,0,1-2.14-1,5.18,5.18,0,0,1-.84-3.31,5.33,5.33,0,0,1,.87-3.41,2.83,2.83,0,0,1,2.27-1,2.39,2.39,0,0,1,1.62.55A2.54,2.54,0,0,1,211.52,16.7Zm-3.73,3.59a1.89,1.89,0,0,0,.36,1.24A1.11,1.11,0,0,0,209,22a1,1,0,0,0,.76-.36,1.82,1.82,0,0,0,.3-1.17,1.89,1.89,0,0,0-.32-1.23,1.06,1.06,0,0,0-1.63,0A1.62,1.62,0,0,0,207.79,20.29Z"/><path class="cls-6" d="M213,23.19V14.6h2.78a10.83,10.83,0,0,1,2.06.12,2.27,2.27,0,0,1,1.24.84,2.71,2.71,0,0,1,.5,1.68,2.81,2.81,0,0,1-.29,1.33,2.23,2.23,0,0,1-.73.84,2.28,2.28,0,0,1-.9.41,10.09,10.09,0,0,1-1.8.12h-1.13v3.25Zm1.73-7.14v2.44h.95a4.43,4.43,0,0,0,1.37-.14,1.14,1.14,0,0,0,.54-.42,1.15,1.15,0,0,0,.2-.67,1.07,1.07,0,0,0-.28-.77,1.13,1.13,0,0,0-.69-.38,8.25,8.25,0,0,0-1.25-.06Z"/></g></g></svg>